<?xml version="1.0" encoding="utf-8" standalone="no"?>
<!DOCTYPE svg PUBLIC "-//W3C//DTD SVG 1.1//EN"
  "http://www.w3.org/Graphics/SVG/1.1/DTD/svg11.dtd">
<!-- Created with matplotlib (http://matplotlib.org/) -->
<svg height="514pt" version="1.1" viewBox="0 0 748 514" width="748pt" xmlns="http://www.w3.org/2000/svg" xmlns:xlink="http://www.w3.org/1999/xlink">
 <defs>
  <style type="text/css">
*{stroke-linecap:butt;stroke-linejoin:round;}
  </style>
 </defs>
 <g id="figure_1">
  <g id="patch_1">
   <path d="
M0 514.8
L748.8 514.8
L748.8 0
L0 0
z
" style="fill:#ffffff;"/>
  </g>
  <g id="axes_1">
   <g id="patch_2">
    <path d="
M93.6 463.32
L673.92 463.32
L673.92 51.48
L93.6 51.48
z
" style="fill:#eaeaf2;"/>
   </g>
   <g id="matplotlib.axis_1">
    <g id="xtick_1">
     <g id="line2d_1">
      <defs>
       <path d="
M0 0
L0 0" id="me6a419ab46" style="stroke:#262626;stroke-width:1.3;"/>
      </defs>
      <g>
       <use style="fill:#262626;stroke:#262626;stroke-width:1.3;" x="238.68" xlink:href="#me6a419ab46" y="463.32"/>
      </g>
     </g>
     <g id="line2d_2">
      <g>
       <use style="fill:#262626;stroke:#262626;stroke-width:1.3;" x="238.68" xlink:href="#me6a419ab46" y="51.48"/>
      </g>
     </g>
     <g id="text_1">
      <!-- ER -->
      <defs>
       <path d="
M8.20312 0
L8.20312 68.7969
L60.4062 68.7969
L60.4062 61.1875
L17.5312 61.1875
L17.5312 39.1094
L57.4688 39.1094
L57.4688 31.5938
L17.5312 31.5938
L17.5312 7.625
L62.4062 7.625
L62.4062 0
z
" id="LiberationSans-45"/>
       <path d="
M56.8438 0
L38.9688 28.5625
L17.5312 28.5625
L17.5312 0
L8.20312 0
L8.20312 68.7969
L40.5781 68.7969
Q46.4375 68.7969 50.9531 67.4531
Q55.4688 66.1094 58.5469 63.5625
Q61.625 61.0312 63.2344 57.375
Q64.8438 53.7188 64.8438 49.125
Q64.8438 45.8438 63.8906 42.6719
Q62.9375 39.5 60.8906 36.8594
Q58.8438 34.2344 55.6562 32.3281
Q52.4844 30.4219 48.0469 29.6406
L67.5781 0
z

M55.4688 49.0312
Q55.4688 52.1562 54.3906 54.4375
Q53.3281 56.7344 51.2656 58.2656
Q49.2188 59.8125 46.2812 60.5625
Q43.3594 61.3281 39.6562 61.3281
L17.5312 61.3281
L17.5312 35.9375
L40.0469 35.9375
Q44.0469 35.9375 46.9688 36.9375
Q49.9062 37.9375 51.7812 39.6875
Q53.6562 41.4531 54.5625 43.8438
Q55.4688 46.2344 55.4688 49.0312" id="LiberationSans-52"/>
      </defs>
      <g style="fill:#262626;" transform="translate(230.484921875 481.8409375)scale(0.13 -0.13)">
       <use xlink:href="#LiberationSans-45"/>
       <use x="66.69921875" xlink:href="#LiberationSans-52"/>
      </g>
     </g>
    </g>
    <g id="xtick_2">
     <g id="line2d_3">
      <g>
       <use style="fill:#262626;stroke:#262626;stroke-width:1.3;" x="528.84" xlink:href="#me6a419ab46" y="463.32"/>
      </g>
     </g>
     <g id="line2d_4">
      <g>
       <use style="fill:#262626;stroke:#262626;stroke-width:1.3;" x="528.84" xlink:href="#me6a419ab46" y="51.48"/>
      </g>
     </g>
     <g id="text_2">
      <!-- WS -->
      <defs>
       <path d="
M73.7812 0
L62.6406 0
L50.7344 43.7031
Q50.2031 45.5625 49.5781 48.0938
Q48.9688 50.6406 48.4844 52.9375
Q47.9062 55.6094 47.3125 58.4062
Q46.6875 55.5625 46.0938 52.875
Q45.5625 50.5312 44.9688 48.0469
Q44.3906 45.5625 43.8438 43.7031
L31.8438 0
L20.7031 0
L0.4375 68.7969
L10.1562 68.7969
L22.5156 25.0938
Q23.3438 22.0156 24.0938 18.9844
Q24.8594 15.9688 25.3906 13.5781
Q26.0312 10.75 26.5625 8.20312
Q27.2969 11.5781 28.0781 14.8438
Q28.4219 16.2188 28.7656 17.7188
Q29.1094 19.2344 29.4688 20.7031
Q29.8281 22.1719 30.1875 23.5156
Q30.5625 24.8594 30.8594 25.9844
L42.8281 68.7969
L51.7656 68.7969
L63.7188 25.9844
Q64.0156 24.8594 64.375 23.5156
Q64.75 22.1719 65.1094 20.7188
Q65.4844 19.2812 65.8125 17.7656
Q66.1562 16.2656 66.5 14.8906
Q67.2812 11.625 68.0156 8.20312
Q68.0625 8.20312 68.4531 9.89062
Q68.8438 11.5781 69.4219 14.1094
Q70.0156 16.6562 70.7188 19.6094
Q71.4375 22.5625 72.1719 25.0938
L84.3281 68.7969
L94.0469 68.7969
z
" id="LiberationSans-57"/>
       <path d="
M62.1094 19
Q62.1094 14.6562 60.4219 10.9844
Q58.7344 7.32812 55.2188 4.65625
Q51.7031 2 46.3594 0.5
Q41.0156 -0.984375 33.6875 -0.984375
Q20.8438 -0.984375 13.6719 3.51562
Q6.5 8.01562 4.54688 16.5
L13.5781 18.3125
Q14.2656 15.625 15.6719 13.4219
Q17.0938 11.2344 19.5 9.64062
Q21.9219 8.0625 25.4844 7.17188
Q29.0469 6.29688 34.0312 6.29688
Q38.1875 6.29688 41.6562 7
Q45.125 7.71875 47.6094 9.17188
Q50.0938 10.6406 51.4844 12.9531
Q52.875 15.2812 52.875 18.5
Q52.875 21.875 51.3438 23.9688
Q49.8125 26.0781 47.0156 27.4375
Q44.2344 28.8125 40.375 29.7344
Q36.5312 30.6719 31.8438 31.7344
Q28.9531 32.375 26.0469 33.125
Q23.1406 33.8906 20.4844 34.9375
Q17.8281 35.9844 15.4844 37.3906
Q13.1406 38.8125 11.4219 40.7969
Q9.71875 42.7812 8.73438 45.3906
Q7.76562 48 7.76562 51.4219
Q7.76562 56.2969 9.73438 59.7812
Q11.7188 63.2812 15.2344 65.5312
Q18.75 67.7812 23.5312 68.7969
Q28.3281 69.8281 33.8906 69.8281
Q40.2812 69.8281 44.8125 68.8281
Q49.3594 67.8281 52.4844 65.8125
Q55.6094 63.8125 57.4844 60.8594
Q59.375 57.9062 60.5 54
L51.3125 52.3906
Q50.6406 54.8906 49.3438 56.8438
Q48.0469 58.7969 45.9375 60.1094
Q43.8438 61.4219 40.8438 62.1094
Q37.8438 62.7969 33.7969 62.7969
Q29 62.7969 25.75 61.9375
Q22.5156 61.0781 20.5312 59.6094
Q18.5625 58.1562 17.7031 56.1719
Q16.8438 54.2031 16.8438 51.9062
Q16.8438 48.8281 18.375 46.8438
Q19.9219 44.875 22.5625 43.5469
Q25.2031 42.2344 28.6562 41.3594
Q32.125 40.4844 36.0312 39.5938
Q39.2031 38.875 42.3594 38.1094
Q45.5156 37.3594 48.3906 36.2969
Q51.2656 35.25 53.7812 33.8281
Q56.2969 32.4219 58.1562 30.375
Q60.0156 28.3281 61.0625 25.5312
Q62.1094 22.75 62.1094 19" id="LiberationSans-53"/>
      </defs>
      <g style="fill:#262626;" transform="translate(518.6959375 481.8409375)scale(0.13 -0.13)">
       <use xlink:href="#LiberationSans-57"/>
       <use x="94.384765625" xlink:href="#LiberationSans-53"/>
      </g>
     </g>
    </g>
   </g>
   <g id="matplotlib.axis_2">
    <g id="ytick_1">
     <g id="line2d_5">
      <path clip-path="url(#p81f8179beb)" d="
M93.6 463.32
L673.92 463.32" style="fill:none;stroke:#ffffff;stroke-linecap:round;stroke-width:1.3;"/>
     </g>
     <g id="line2d_6">
      <g>
       <use style="fill:#262626;stroke:#262626;stroke-width:1.3;" x="93.6" xlink:href="#me6a419ab46" y="463.32"/>
      </g>
     </g>
     <g id="line2d_7">
      <g>
       <use style="fill:#262626;stroke:#262626;stroke-width:1.3;" x="673.92" xlink:href="#me6a419ab46" y="463.32"/>
      </g>
     </g>
     <g id="text_3">
      <!-- 0.0 -->
      <defs>
       <path d="
M9.125 0
L9.125 10.6875
L18.6562 10.6875
L18.6562 0
z
" id="LiberationSans-2e"/>
       <path d="
M51.7031 34.4219
Q51.7031 24.5156 49.8281 17.75
Q47.9531 10.9844 44.7031 6.8125
Q41.4531 2.64062 37.0625 0.828125
Q32.6719 -0.984375 27.6875 -0.984375
Q22.6562 -0.984375 18.3125 0.828125
Q13.9688 2.64062 10.7656 6.78125
Q7.5625 10.9375 5.73438 17.7031
Q3.90625 24.4688 3.90625 34.4219
Q3.90625 44.8281 5.73438 51.6406
Q7.5625 58.4531 10.7812 62.5
Q14.0156 66.5469 18.4062 68.1875
Q22.7969 69.8281 27.9844 69.8281
Q32.9062 69.8281 37.2188 68.1875
Q41.5469 66.5469 44.7656 62.5
Q48 58.4531 49.8438 51.6406
Q51.7031 44.8281 51.7031 34.4219
M42.7812 34.4219
Q42.7812 42.625 41.7969 48.0625
Q40.8281 53.5156 38.9219 56.7656
Q37.0156 60.0156 34.25 61.3594
Q31.5 62.7031 27.9844 62.7031
Q24.2656 62.7031 21.4375 61.3281
Q18.6094 59.9688 16.6719 56.7188
Q14.75 53.4688 13.7656 48.0156
Q12.7969 42.5781 12.7969 34.4219
Q12.7969 26.5156 13.7969 21.0938
Q14.7969 15.6719 16.7188 12.375
Q18.6562 9.07812 21.4375 7.64062
Q24.2188 6.20312 27.7812 6.20312
Q31.25 6.20312 34.0312 7.64062
Q36.8125 9.07812 38.7344 12.375
Q40.6719 15.6719 41.7188 21.0938
Q42.7812 26.5156 42.7812 34.4219" id="LiberationSans-30"/>
      </defs>
      <g style="fill:#262626;" transform="translate(67.445625 466.68171875)scale(0.13 -0.13)">
       <use xlink:href="#LiberationSans-30"/>
       <use x="55.615234375" xlink:href="#LiberationSans-2e"/>
       <use x="83.3984375" xlink:href="#LiberationSans-30"/>
      </g>
     </g>
    </g>
    <g id="ytick_2">
     <g id="line2d_8">
      <path clip-path="url(#p81f8179beb)" d="
M93.6 380.952
L673.92 380.952" style="fill:none;stroke:#ffffff;stroke-linecap:round;stroke-width:1.3;"/>
     </g>
     <g id="line2d_9">
      <g>
       <use style="fill:#262626;stroke:#262626;stroke-width:1.3;" x="93.6" xlink:href="#me6a419ab46" y="380.952"/>
      </g>
     </g>
     <g id="line2d_10">
      <g>
       <use style="fill:#262626;stroke:#262626;stroke-width:1.3;" x="673.92" xlink:href="#me6a419ab46" y="380.952"/>
      </g>
     </g>
     <g id="text_4">
      <!-- 0.2 -->
      <defs>
       <path d="
M5.03125 0
L5.03125 6.20312
Q7.51562 11.9219 11.1094 16.2812
Q14.7031 20.6562 18.6562 24.1875
Q22.6094 27.7344 26.4844 30.7656
Q30.375 33.7969 33.5 36.8125
Q36.625 39.8438 38.5469 43.1562
Q40.4844 46.4844 40.4844 50.6875
Q40.4844 53.6094 39.5938 55.8281
Q38.7188 58.0625 37.0625 59.5625
Q35.4062 61.0781 33.0781 61.8281
Q30.7656 62.5938 27.9375 62.5938
Q25.2969 62.5938 22.9688 61.8594
Q20.6562 61.1406 18.8438 59.6719
Q17.0469 58.2031 15.8906 56.0312
Q14.75 53.8594 14.4062 50.9844
L5.42188 51.8125
Q5.85938 55.5156 7.46875 58.7812
Q9.07812 62.0625 11.9062 64.5312
Q14.75 67 18.7188 68.4062
Q22.7031 69.8281 27.9375 69.8281
Q33.0625 69.8281 37.0625 68.6094
Q41.0625 67.3906 43.8125 64.9844
Q46.5781 62.5938 48.0469 59.0781
Q49.5156 55.5625 49.5156 50.9844
Q49.5156 47.5156 48.2656 44.3906
Q47.0156 41.2656 44.9375 38.4219
Q42.875 35.5938 40.1406 32.9531
Q37.4062 30.3281 34.4219 27.8125
Q31.4531 25.2969 28.4219 22.8281
Q25.3906 20.3594 22.7188 17.8594
Q20.0625 15.375 17.9688 12.8125
Q15.875 10.25 14.7031 7.46875
L50.5938 7.46875
L50.5938 0
z
" id="LiberationSans-32"/>
      </defs>
      <g style="fill:#262626;" transform="translate(67.58984375 384.31371875)scale(0.13 -0.13)">
       <use xlink:href="#LiberationSans-30"/>
       <use x="55.615234375" xlink:href="#LiberationSans-2e"/>
       <use x="83.3984375" xlink:href="#LiberationSans-32"/>
      </g>
     </g>
    </g>
    <g id="ytick_3">
     <g id="line2d_11">
      <path clip-path="url(#p81f8179beb)" d="
M93.6 298.584
L673.92 298.584" style="fill:none;stroke:#ffffff;stroke-linecap:round;stroke-width:1.3;"/>
     </g>
     <g id="line2d_12">
      <g>
       <use style="fill:#262626;stroke:#262626;stroke-width:1.3;" x="93.6" xlink:href="#me6a419ab46" y="298.584"/>
      </g>
     </g>
     <g id="line2d_13">
      <g>
       <use style="fill:#262626;stroke:#262626;stroke-width:1.3;" x="673.92" xlink:href="#me6a419ab46" y="298.584"/>
      </g>
     </g>
     <g id="text_5">
      <!-- 0.4 -->
      <defs>
       <path d="
M43.0156 15.5781
L43.0156 0
L34.7188 0
L34.7188 15.5781
L2.29688 15.5781
L2.29688 22.4062
L33.7969 68.7969
L43.0156 68.7969
L43.0156 22.5156
L52.6875 22.5156
L52.6875 15.5781
z

M34.7188 58.8906
Q34.625 58.6406 34.2344 57.9375
Q33.8438 57.2344 33.3438 56.3438
Q32.8594 55.4688 32.3438 54.5625
Q31.8438 53.6562 31.4531 53.0781
L13.8125 27.0938
Q13.5781 26.7031 13.1094 26.0625
Q12.6406 25.4375 12.1562 24.7812
Q11.6719 24.125 11.1719 23.4844
Q10.6875 22.8594 10.4062 22.5156
L34.7188 22.5156
z
" id="LiberationSans-34"/>
      </defs>
      <g style="fill:#262626;" transform="translate(67.31765625 301.94571875)scale(0.13 -0.13)">
       <use xlink:href="#LiberationSans-30"/>
       <use x="55.615234375" xlink:href="#LiberationSans-2e"/>
       <use x="83.3984375" xlink:href="#LiberationSans-34"/>
      </g>
     </g>
    </g>
    <g id="ytick_4">
     <g id="line2d_14">
      <path clip-path="url(#p81f8179beb)" d="
M93.6 216.216
L673.92 216.216" style="fill:none;stroke:#ffffff;stroke-linecap:round;stroke-width:1.3;"/>
     </g>
     <g id="line2d_15">
      <g>
       <use style="fill:#262626;stroke:#262626;stroke-width:1.3;" x="93.6" xlink:href="#me6a419ab46" y="216.216"/>
      </g>
     </g>
     <g id="line2d_16">
      <g>
       <use style="fill:#262626;stroke:#262626;stroke-width:1.3;" x="673.92" xlink:href="#me6a419ab46" y="216.216"/>
      </g>
     </g>
     <g id="text_6">
      <!-- 0.6 -->
      <defs>
       <path d="
M51.2188 22.5156
Q51.2188 17.3281 49.7812 13
Q48.3438 8.6875 45.5312 5.57812
Q42.7188 2.48438 38.5625 0.75
Q34.4219 -0.984375 29 -0.984375
Q23 -0.984375 18.5 1.3125
Q14.0156 3.60938 11.0312 7.92188
Q8.0625 12.25 6.5625 18.5312
Q5.07812 24.8125 5.07812 32.8125
Q5.07812 42 6.76562 48.9219
Q8.45312 55.8594 11.625 60.5
Q14.7969 65.1406 19.3594 67.4844
Q23.9219 69.8281 29.6875 69.8281
Q33.2031 69.8281 36.2812 69.0938
Q39.3594 68.3594 41.875 66.7188
Q44.3906 65.0938 46.2812 62.4062
Q48.1875 59.7188 49.3125 55.8125
L40.9219 54.2969
Q39.5469 58.7344 36.5469 60.7188
Q33.5469 62.7031 29.5938 62.7031
Q25.9844 62.7031 23.0469 60.9844
Q20.125 59.2812 18.0625 55.875
Q16.0156 52.4844 14.9062 47.3594
Q13.8125 42.2344 13.8125 35.4062
Q16.2188 39.8438 20.5625 42.1562
Q24.9062 44.4844 30.5156 44.4844
Q35.2031 44.4844 39.0156 42.9688
Q42.8281 41.4531 45.5312 38.5938
Q48.25 35.75 49.7344 31.6719
Q51.2188 27.5938 51.2188 22.5156
M42.2812 22.125
Q42.2812 25.6875 41.4062 28.5625
Q40.5312 31.4531 38.7656 33.4688
Q37.0156 35.5 34.4219 36.5938
Q31.8438 37.7031 28.4219 37.7031
Q26.0312 37.7031 23.5781 36.9844
Q21.1406 36.2812 19.1562 34.6875
Q17.1875 33.1094 15.9375 30.5156
Q14.7031 27.9375 14.7031 24.2188
Q14.7031 20.4062 15.6719 17.1094
Q16.6562 13.8125 18.4844 11.375
Q20.3125 8.9375 22.8906 7.51562
Q25.4844 6.10938 28.7188 6.10938
Q31.8906 6.10938 34.4062 7.20312
Q36.9219 8.29688 38.6719 10.375
Q40.4375 12.4531 41.3594 15.4219
Q42.2812 18.4062 42.2812 22.125" id="LiberationSans-36"/>
      </defs>
      <g style="fill:#262626;" transform="translate(67.50859375 219.57771875)scale(0.13 -0.13)">
       <use xlink:href="#LiberationSans-30"/>
       <use x="55.615234375" xlink:href="#LiberationSans-2e"/>
       <use x="83.3984375" xlink:href="#LiberationSans-36"/>
      </g>
     </g>
    </g>
    <g id="ytick_5">
     <g id="line2d_17">
      <path clip-path="url(#p81f8179beb)" d="
M93.6 133.848
L673.92 133.848" style="fill:none;stroke:#ffffff;stroke-linecap:round;stroke-width:1.3;"/>
     </g>
     <g id="line2d_18">
      <g>
       <use style="fill:#262626;stroke:#262626;stroke-width:1.3;" x="93.6" xlink:href="#me6a419ab46" y="133.848"/>
      </g>
     </g>
     <g id="line2d_19">
      <g>
       <use style="fill:#262626;stroke:#262626;stroke-width:1.3;" x="673.92" xlink:href="#me6a419ab46" y="133.848"/>
      </g>
     </g>
     <g id="text_7">
      <!-- 0.8 -->
      <defs>
       <path d="
M51.2656 19.1875
Q51.2656 14.7969 49.875 11.1094
Q48.4844 7.42188 45.625 4.73438
Q42.7812 2.04688 38.3281 0.53125
Q33.8906 -0.984375 27.8281 -0.984375
Q21.7812 -0.984375 17.3594 0.53125
Q12.9375 2.04688 10.0312 4.70312
Q7.125 7.375 5.73438 11.0625
Q4.34375 14.75 4.34375 19.0938
Q4.34375 22.8594 5.48438 25.7812
Q6.64062 28.7188 8.5625 30.8281
Q10.5 32.9531 12.9688 34.25
Q15.4375 35.5469 18.0625 35.9844
L18.0625 36.1875
Q15.1875 36.8594 12.9062 38.375
Q10.6406 39.8906 9.09375 42.0156
Q7.5625 44.1406 6.75 46.7188
Q5.95312 49.3125 5.95312 52.2031
Q5.95312 55.8125 7.34375 59
Q8.73438 62.2031 11.4688 64.625
Q14.2031 67.0469 18.25 68.4375
Q22.3125 69.8281 27.6406 69.8281
Q33.25 69.8281 37.375 68.4062
Q41.5 67 44.2031 64.5781
Q46.9219 62.1562 48.2344 58.9375
Q49.5625 55.7188 49.5625 52.0938
Q49.5625 49.2656 48.75 46.6719
Q47.9531 44.0938 46.4062 41.9688
Q44.875 39.8438 42.5938 38.3438
Q40.3281 36.8594 37.3594 36.2812
L37.3594 36.0781
Q40.3281 35.5938 42.8594 34.2969
Q45.4062 33.0156 47.2656 30.8906
Q49.125 28.7656 50.1875 25.8281
Q51.2656 22.9062 51.2656 19.1875
M40.4375 51.6094
Q40.4375 54.2031 39.7656 56.3438
Q39.1094 58.5 37.5938 60.0312
Q36.0781 61.5781 33.6406 62.4219
Q31.2031 63.2812 27.6406 63.2812
Q24.1719 63.2812 21.7812 62.4219
Q19.3906 61.5781 17.8438 60.0312
Q16.3125 58.5 15.625 56.3438
Q14.9375 54.2031 14.9375 51.6094
Q14.9375 49.5625 15.4688 47.4062
Q16.0156 45.2656 17.4219 43.5
Q18.8438 41.75 21.3281 40.625
Q23.8281 39.5 27.7344 39.5
Q31.8906 39.5 34.4062 40.625
Q36.9219 41.75 38.25 43.5
Q39.5938 45.2656 40.0156 47.4062
Q40.4375 49.5625 40.4375 51.6094
M42.1406 20.0156
Q42.1406 22.5156 41.4531 24.8281
Q40.7656 27.1562 39.1094 28.9375
Q37.4531 30.7188 34.6406 31.8125
Q31.8438 32.9062 27.6406 32.9062
Q23.7812 32.9062 21.0625 31.8125
Q18.3594 30.7188 16.6719 28.9062
Q14.9844 27.0938 14.2031 24.7188
Q13.4219 22.3594 13.4219 19.8281
Q13.4219 16.6562 14.2031 14.0312
Q14.9844 11.4219 16.6875 9.54688
Q18.4062 7.67188 21.1875 6.64062
Q23.9688 5.60938 27.9375 5.60938
Q31.9375 5.60938 34.6719 6.64062
Q37.4062 7.67188 39.0625 9.54688
Q40.7188 11.4219 41.4219 14.0781
Q42.1406 16.75 42.1406 20.0156" id="LiberationSans-38"/>
      </defs>
      <g style="fill:#262626;" transform="translate(67.5025 137.20971875)scale(0.13 -0.13)">
       <use xlink:href="#LiberationSans-30"/>
       <use x="55.615234375" xlink:href="#LiberationSans-2e"/>
       <use x="83.3984375" xlink:href="#LiberationSans-38"/>
      </g>
     </g>
    </g>
    <g id="ytick_6">
     <g id="line2d_20">
      <path clip-path="url(#p81f8179beb)" d="
M93.6 51.48
L673.92 51.48" style="fill:none;stroke:#ffffff;stroke-linecap:round;stroke-width:1.3;"/>
     </g>
     <g id="line2d_21">
      <g>
       <use style="fill:#262626;stroke:#262626;stroke-width:1.3;" x="93.6" xlink:href="#me6a419ab46" y="51.48"/>
      </g>
     </g>
     <g id="line2d_22">
      <g>
       <use style="fill:#262626;stroke:#262626;stroke-width:1.3;" x="673.92" xlink:href="#me6a419ab46" y="51.48"/>
      </g>
     </g>
     <g id="text_8">
      <!-- 1.0 -->
      <defs>
       <path d="
M7.625 0
L7.625 7.46875
L25.1406 7.46875
L25.1406 60.4062
L9.625 49.3125
L9.625 57.625
L25.875 68.7969
L33.9844 68.7969
L33.9844 7.46875
L50.7344 7.46875
L50.7344 0
z
" id="LiberationSans-31"/>
      </defs>
      <g style="fill:#262626;" transform="translate(67.9290625 54.84171875)scale(0.13 -0.13)">
       <use xlink:href="#LiberationSans-31"/>
       <use x="55.615234375" xlink:href="#LiberationSans-2e"/>
       <use x="83.3984375" xlink:href="#LiberationSans-30"/>
      </g>
     </g>
    </g>
    <g id="text_9">
     <!-- Sensitivity -->
     <defs>
      <path d="
M46.3906 14.5938
Q46.3906 10.8906 44.9375 7.98438
Q43.5 5.07812 40.7656 3.09375
Q38.0312 1.125 34.0469 0.0625
Q30.0781 -0.984375 24.9531 -0.984375
Q20.3594 -0.984375 16.6719 -0.265625
Q12.9844 0.4375 10.2031 2
Q7.42188 3.5625 5.53125 6.125
Q3.65625 8.6875 2.78125 12.4062
L10.5469 13.9219
Q11.6719 9.67188 15.1875 7.6875
Q18.7031 5.71875 24.9531 5.71875
Q27.7812 5.71875 30.1406 6.10938
Q32.5156 6.5 34.2188 7.45312
Q35.9375 8.40625 36.8906 9.98438
Q37.8438 11.5781 37.8438 13.9219
Q37.8438 16.3125 36.7188 17.8438
Q35.5938 19.3906 33.5938 20.4062
Q31.5938 21.4375 28.7344 22.1875
Q25.875 22.9531 22.4688 23.875
Q19.2812 24.7031 16.1562 25.7344
Q13.0312 26.7656 10.5156 28.4375
Q8.01562 30.125 6.45312 32.6094
Q4.89062 35.1094 4.89062 38.875
Q4.89062 46.0938 10.0312 49.875
Q15.1875 53.6562 25.0469 53.6562
Q33.7969 53.6562 38.9375 50.5781
Q44.0938 47.5156 45.4531 40.7188
L37.5469 39.75
Q37.1094 41.7969 35.9375 43.1875
Q34.7656 44.5781 33.1094 45.4375
Q31.4531 46.2969 29.375 46.6562
Q27.2969 47.0156 25.0469 47.0156
Q19.0938 47.0156 16.25 45.2031
Q13.4219 43.4062 13.4219 39.75
Q13.4219 37.5938 14.4688 36.2031
Q15.5312 34.8125 17.4062 33.8594
Q19.2812 32.9062 21.9219 32.2031
Q24.5625 31.5 27.7344 30.7188
Q29.8281 30.1719 32.0312 29.5625
Q34.2344 28.9531 36.2969 28.0938
Q38.375 27.25 40.2031 26.0938
Q42.0469 24.9531 43.4062 23.3438
Q44.7812 21.7344 45.5781 19.5781
Q46.3906 17.4375 46.3906 14.5938" id="LiberationSans-73"/>
      <path d="
M13.4844 24.5625
Q13.4844 20.4062 14.3281 16.9062
Q15.1875 13.4219 16.9688 10.9062
Q18.75 8.40625 21.5312 7
Q24.3125 5.60938 28.2188 5.60938
Q33.9375 5.60938 37.375 7.90625
Q40.8281 10.2031 42.0469 13.7188
L49.75 11.5312
Q48.9219 9.32812 47.4375 7.10938
Q45.9531 4.89062 43.4531 3.09375
Q40.9688 1.3125 37.2344 0.15625
Q33.5 -0.984375 28.2188 -0.984375
Q16.5 -0.984375 10.375 6
Q4.25 12.9844 4.25 26.7656
Q4.25 34.1875 6.09375 39.3281
Q7.95312 44.4844 11.1719 47.7031
Q14.4062 50.9219 18.7031 52.3594
Q23 53.8125 27.875 53.8125
Q34.5156 53.8125 38.9844 51.6562
Q43.4531 49.5156 46.1562 45.7188
Q48.875 41.9375 50.0156 36.8125
Q51.1719 31.6875 51.1719 25.7344
L51.1719 24.5625
z

M42.0938 31.2969
Q41.3594 39.6562 37.8438 43.4844
Q34.3281 47.3125 27.7344 47.3125
Q25.5312 47.3125 23.1094 46.6094
Q20.7031 45.9062 18.6562 44.0938
Q16.6094 42.2812 15.1875 39.1719
Q13.7656 36.0781 13.5781 31.2969
z
" id="LiberationSans-65"/>
      <path d="
M29.9375 0
L19.5312 0
L0.34375 52.8281
L9.71875 52.8281
L21.3438 18.4531
Q21.6875 17.3906 22.1406 15.8438
Q22.6094 14.3125 23.0938 12.6406
Q23.5781 10.9844 24 9.4375
Q24.4219 7.90625 24.7031 6.89062
Q25 7.90625 25.4531 9.4375
Q25.9219 10.9844 26.4062 12.5938
Q26.9062 14.2031 27.4219 15.7344
Q27.9375 17.2812 28.3281 18.3594
L40.3281 52.8281
L49.6562 52.8281
z
" id="LiberationSans-76"/>
      <path d="
M27.0469 0.390625
Q25.0469 -0.140625 22.9688 -0.453125
Q20.9062 -0.78125 18.1719 -0.78125
Q7.625 -0.78125 7.625 11.1875
L7.625 46.4375
L1.51562 46.4375
L1.51562 52.8281
L7.95312 52.8281
L10.5469 64.6562
L16.4062 64.6562
L16.4062 52.8281
L26.1719 52.8281
L26.1719 46.4375
L16.4062 46.4375
L16.4062 13.0938
Q16.4062 9.28125 17.6406 7.73438
Q18.8906 6.20312 21.9688 6.20312
Q23.25 6.20312 24.4375 6.39062
Q25.6406 6.59375 27.0469 6.89062
z
" id="LiberationSans-74"/>
      <path d="
M29.5 0
Q27.6406 -4.78125 25.7031 -8.60938
Q23.7812 -12.4531 21.3906 -15.1562
Q19 -17.875 16.0625 -19.3125
Q13.1406 -20.75 9.32812 -20.75
Q7.67188 -20.75 6.25 -20.6562
Q4.82812 -20.5625 3.26562 -20.2188
L3.26562 -13.625
Q4.20312 -13.7656 5.375 -13.8438
Q6.54688 -13.9219 7.375 -13.9219
Q11.2344 -13.9219 14.5469 -11.0312
Q17.875 -8.15625 20.3594 -1.85938
L21.1875 0.25
L0.25 52.8281
L9.625 52.8281
L20.75 23.6406
Q21.2344 22.3125 21.9844 20.1094
Q22.75 17.9219 23.5 15.7188
Q24.2656 13.5312 24.8438 11.7656
Q25.4375 10.0156 25.5312 9.57812
Q25.6875 10.1094 26.25 11.6875
Q26.8125 13.2812 27.5156 15.2344
Q28.2188 17.1875 28.9531 19.1875
Q29.6875 21.1875 30.1719 22.6562
L40.5312 52.8281
L49.8125 52.8281
z
" id="LiberationSans-79"/>
      <path d="
M6.6875 64.0625
L6.6875 72.4688
L15.4844 72.4688
L15.4844 64.0625
z

M6.6875 0
L6.6875 52.8281
L15.4844 52.8281
L15.4844 0
z
" id="LiberationSans-69"/>
      <path d="
M40.2812 0
L40.2812 33.5
Q40.2812 37.3594 39.7188 39.9375
Q39.1562 42.5312 37.8906 44.1094
Q36.625 45.7031 34.5469 46.3594
Q32.4688 47.0156 29.3906 47.0156
Q26.2656 47.0156 23.75 45.9219
Q21.2344 44.8281 19.4531 42.75
Q17.6719 40.6719 16.6875 37.625
Q15.7188 34.5781 15.7188 30.6094
L15.7188 0
L6.9375 0
L6.9375 41.5469
Q6.9375 43.2188 6.90625 45.0469
Q6.89062 46.875 6.82812 48.5
Q6.78125 50.1406 6.73438 51.3125
Q6.6875 52.4844 6.64062 52.8281
L14.9375 52.8281
Q14.9844 52.5938 15.0312 51.5156
Q15.0938 50.4375 15.1562 49.0469
Q15.2344 47.6562 15.2812 46.2188
Q15.3281 44.7812 15.3281 43.7969
L15.4844 43.7969
Q16.75 46.0938 18.2656 47.9531
Q19.7812 49.8125 21.7812 51.0938
Q23.7812 52.3906 26.3594 53.0938
Q28.9531 53.8125 32.375 53.8125
Q36.7656 53.8125 39.9375 52.7344
Q43.1094 51.6562 45.1562 49.4062
Q47.2188 47.1719 48.1719 43.625
Q49.125 40.0938 49.125 35.2031
L49.125 0
z
" id="LiberationSans-6e"/>
     </defs>
     <g style="fill:#262626;" transform="translate(59.35040625 289.246546875)rotate(-90.0)scale(0.143 -0.143)">
      <use xlink:href="#LiberationSans-53"/>
      <use x="66.69921875" xlink:href="#LiberationSans-65"/>
      <use x="122.314453125" xlink:href="#LiberationSans-6e"/>
      <use x="177.9296875" xlink:href="#LiberationSans-73"/>
      <use x="227.9296875" xlink:href="#LiberationSans-69"/>
      <use x="250.146484375" xlink:href="#LiberationSans-74"/>
      <use x="277.9296875" xlink:href="#LiberationSans-69"/>
      <use x="300.146484375" xlink:href="#LiberationSans-76"/>
      <use x="350.146484375" xlink:href="#LiberationSans-69"/>
      <use x="372.36328125" xlink:href="#LiberationSans-74"/>
      <use x="400.146484375" xlink:href="#LiberationSans-79"/>
     </g>
    </g>
   </g>
   <g id="patch_3">
    <path clip-path="url(#p81f8179beb)" d="
M122.616 254.416
L354.744 254.416
L354.744 210.725
L122.616 210.725
L122.616 254.416
z
" style="fill:#5b76a1;stroke:#4c4c4c;stroke-width:1.5;"/>
   </g>
   <g id="patch_4">
    <path clip-path="url(#p81f8179beb)" d="
M412.776 273.24
L644.904 273.24
L644.904 219.267
L412.776 219.267
L412.776 273.24
z
" style="fill:#619c6f;stroke:#4c4c4c;stroke-width:1.5;"/>
   </g>
   <g id="line2d_23">
    <path clip-path="url(#p81f8179beb)" d="
M238.68 254.416
L238.68 263.835" style="fill:none;stroke:#4c4c4c;stroke-linecap:round;stroke-width:1.5;"/>
   </g>
   <g id="line2d_24">
    <path clip-path="url(#p81f8179beb)" d="
M238.68 210.725
L238.68 203.804" style="fill:none;stroke:#4c4c4c;stroke-linecap:round;stroke-width:1.5;"/>
   </g>
   <g id="line2d_25">
    <path clip-path="url(#p81f8179beb)" d="
M180.648 203.804
L296.712 203.804" style="fill:none;stroke:#4c4c4c;stroke-linecap:round;stroke-width:1.5;"/>
   </g>
   <g id="line2d_26">
    <path clip-path="url(#p81f8179beb)" d="
M180.648 263.835
L296.712 263.835" style="fill:none;stroke:#4c4c4c;stroke-linecap:round;stroke-width:1.5;"/>
   </g>
   <g id="line2d_27">
    <path clip-path="url(#p81f8179beb)" d="
M122.616 242.147
L354.744 242.147" style="fill:none;stroke:#4c4c4c;stroke-linecap:round;stroke-width:1.5;"/>
   </g>
   <g id="line2d_28"/>
   <g id="line2d_29"/>
   <g id="line2d_30">
    <path clip-path="url(#p81f8179beb)" d="
M528.84 273.24
L528.84 284.856" style="fill:none;stroke:#4c4c4c;stroke-linecap:round;stroke-width:1.5;"/>
   </g>
   <g id="line2d_31">
    <path clip-path="url(#p81f8179beb)" d="
M528.84 219.267
L528.84 154.44" style="fill:none;stroke:#4c4c4c;stroke-linecap:round;stroke-width:1.5;"/>
   </g>
   <g id="line2d_32">
    <path clip-path="url(#p81f8179beb)" d="
M470.808 154.44
L586.872 154.44" style="fill:none;stroke:#4c4c4c;stroke-linecap:round;stroke-width:1.5;"/>
   </g>
   <g id="line2d_33">
    <path clip-path="url(#p81f8179beb)" d="
M470.808 284.856
L586.872 284.856" style="fill:none;stroke:#4c4c4c;stroke-linecap:round;stroke-width:1.5;"/>
   </g>
   <g id="line2d_34">
    <path clip-path="url(#p81f8179beb)" d="
M412.776 224.187
L644.904 224.187" style="fill:none;stroke:#4c4c4c;stroke-linecap:round;stroke-width:1.5;"/>
   </g>
   <g id="line2d_35"/>
   <g id="line2d_36"/>
   <g id="patch_5">
    <path d="
M93.6 51.48
L673.92 51.48" style="fill:none;"/>
   </g>
   <g id="patch_6">
    <path d="
M673.92 463.32
L673.92 51.48" style="fill:none;"/>
   </g>
   <g id="patch_7">
    <path d="
M93.6 463.32
L673.92 463.32" style="fill:none;"/>
   </g>
   <g id="patch_8">
    <path d="
M93.6 463.32
L93.6 51.48" style="fill:none;"/>
   </g>
  </g>
 </g>
 <defs>
  <clipPath id="p81f8179beb">
   <rect height="411.84" width="580.32" x="93.6" y="51.48"/>
  </clipPath>
 </defs>
</svg>
