<?xml version="1.0" encoding="UTF-8" standalone="no"?>
<!-- Created with Inkscape (http://www.inkscape.org/) -->

<svg
   xmlns:ns0="http://www.iki.fi/pav/software/textext/"
   xmlns:dc="http://purl.org/dc/elements/1.1/"
   xmlns:cc="http://creativecommons.org/ns#"
   xmlns:rdf="http://www.w3.org/1999/02/22-rdf-syntax-ns#"
   xmlns:svg="http://www.w3.org/2000/svg"
   xmlns="http://www.w3.org/2000/svg"
   xmlns:sodipodi="http://sodipodi.sourceforge.net/DTD/sodipodi-0.dtd"
   xmlns:inkscape="http://www.inkscape.org/namespaces/inkscape"
   width="1100"
   height="300"
   id="svg5359"
   version="1.1"
   inkscape:version="0.48.3.1 r9886"
   sodipodi:docname="im1.svg">
  <defs
     id="defs5361">
    <marker
       style="overflow:visible"
       id="Arrow1Lend"
       refX="0"
       refY="0"
       orient="auto"
       inkscape:stockid="Arrow1Lend">
      <path
         inkscape:connector-curvature="0"
         transform="matrix(-0.8,0,0,-0.8,-10,0)"
         style="fill-rule:evenodd;stroke:#000000;stroke-width:1pt"
         d="M 0,0 5,-5 -12.5,0 5,5 0,0 z"
         id="path4191" />
    </marker>
    <marker
       style="overflow:visible"
       id="marker5264"
       refX="0"
       refY="0"
       orient="auto"
       inkscape:stockid="Arrow1Lend">
      <path
         inkscape:connector-curvature="0"
         transform="matrix(-0.8,0,0,-0.8,-10,0)"
         style="fill-rule:evenodd;stroke:#000000;stroke-width:1pt"
         d="M 0,0 5,-5 -12.5,0 5,5 0,0 z"
         id="path5266" />
    </marker>
    <marker
       style="overflow:visible"
       id="marker5268"
       refX="0"
       refY="0"
       orient="auto"
       inkscape:stockid="Arrow1Lend">
      <path
         inkscape:connector-curvature="0"
         transform="matrix(-0.8,0,0,-0.8,-10,0)"
         style="fill-rule:evenodd;stroke:#000000;stroke-width:1pt"
         d="M 0,0 5,-5 -12.5,0 5,5 0,0 z"
         id="path5270" />
    </marker>
    <marker
       style="overflow:visible"
       id="marker5272"
       refX="0"
       refY="0"
       orient="auto"
       inkscape:stockid="Arrow1Lend">
      <path
         inkscape:connector-curvature="0"
         transform="matrix(-0.8,0,0,-0.8,-10,0)"
         style="fill-rule:evenodd;stroke:#000000;stroke-width:1pt"
         d="M 0,0 5,-5 -12.5,0 5,5 0,0 z"
         id="path5274" />
    </marker>
  </defs>
  <sodipodi:namedview
     id="base"
     pagecolor="#ffffff"
     bordercolor="#666666"
     borderopacity="1.0"
     inkscape:pageopacity="0.0"
     inkscape:pageshadow="2"
     inkscape:zoom="0.35"
     inkscape:cx="-98.408061"
     inkscape:cy="520"
     inkscape:document-units="px"
     inkscape:current-layer="layer1"
     showgrid="false"
     inkscape:window-width="1301"
     inkscape:window-height="744"
     inkscape:window-x="65"
     inkscape:window-y="24"
     inkscape:window-maximized="1" />
  <metadata
     id="metadata5364">
    <rdf:RDF>
      <cc:Work
         rdf:about="">
        <dc:format>image/svg+xml</dc:format>
        <dc:type
           rdf:resource="http://purl.org/dc/dcmitype/StillImage" />
        <dc:title />
      </cc:Work>
    </rdf:RDF>
  </metadata>
  <g
     inkscape:label="Calque 1"
     inkscape:groupmode="layer"
     id="layer1"
     transform="translate(0,-752.36218)">
    <g
       id="g5554"
       transform="translate(178.35905,738.57142)">
      <g
         ns0:preamble=""
         ns0:text="$$ \\frac{dx_i}{dt} = r_i x_i \\left( 1 - \\frac{Ax}{K_i} \\right) $$"
         word-spacing="normal"
         letter-spacing="normal"
         font-size-adjust="none"
         font-stretch="normal"
         font-weight="normal"
         font-variant="normal"
         font-style="normal"
         stroke-miterlimit="10.433"
         xml:space="preserve"
         transform="matrix(3.5617529,0,0,-3.5617529,-1019.1617,2653.2797)"
         id="g3287"
         style="font-style:normal;font-variant:normal;font-weight:normal;font-stretch:normal;letter-spacing:normal;word-spacing:normal;text-anchor:start;fill:none;stroke:#000000;stroke-linecap:butt;stroke-linejoin:miter;stroke-miterlimit:10.43299961;stroke-opacity:1;stroke-dasharray:none;stroke-dashoffset:0">
<path
   id="path3289"
   d="m 353.75,716.17 0,0 0,0 0,0 0,0 0,0 0,0.01 0,0 0,0 0,0.01 0,0 0,0.01 -0.01,0 0,0.01 0,0 0,0.01 0,0 -0.01,0.01 0,0 0,0 -0.01,0.01 0,0 -0.01,0.01 0,0 0,0 0,0 -0.01,0 0,0.01 0,0 -0.01,0 0,0 0,0 -0.01,0.01 0,0 0,0 -0.01,0 0,0 -0.01,0 0,0 -0.01,0 0,0 -0.01,0 0,0.01 -0.01,0 -0.01,0 0,0 c -0.15,0 -1.1,-0.09 -1.26,-0.11 -0.08,-0.01 -0.14,-0.06 -0.14,-0.19 0,-0.12 0.09,-0.12 0.23,-0.12 0.48,0 0.5,-0.07 0.5,-0.17 l -0.03,-0.2 -0.59,-2.35 c -0.18,0.37 -0.47,0.63 -0.92,0.63 -1.16,0 -2.4,-1.46 -2.4,-2.91 0,-0.93 0.55,-1.59 1.33,-1.59 l 0.02,0.22 c -0.5,0 -0.64,0.55 -0.64,0.93 0,0.5 0.32,1.72 0.55,2.18 0.31,0.59 0.75,0.95 1.15,0.95 0.65,0 0.79,-0.81 0.79,-0.87 0,-0.06 -0.02,-0.12 -0.03,-0.17 l -0.5,-1.95 c -0.05,-0.17 -0.05,-0.2 -0.2,-0.36 -0.44,-0.55 -0.84,-0.71 -1.12,-0.71 l -0.02,-0.22 c 0.2,0 0.69,0.04 1.29,0.75 0.08,-0.42 0.43,-0.75 0.91,-0.75 0.34,0 0.57,0.23 0.73,0.55 0.17,0.36 0.3,0.96 0.3,0.98 0,0.1 -0.09,0.1 -0.12,0.1 -0.1,0 -0.11,-0.04 -0.14,-0.18 -0.17,-0.64 -0.35,-1.23 -0.76,-1.23 -0.26,0 -0.29,0.26 -0.29,0.46 0,0.24 0.02,0.31 0.06,0.47 z"
   inkscape:connector-curvature="0"
   style="fill:#000000;stroke-width:0" />
<path
   id="path3291"
   d="m 357.12,712.38 0.01,0.03 0.01,0.03 0.01,0.03 0,0.04 0.02,0.04 0.01,0.04 0.01,0.04 0.01,0.04 0.02,0.05 0.02,0.05 0.02,0.05 0.02,0.05 0.02,0.05 0.02,0.05 0.03,0.05 0.03,0.04 0.03,0.05 0.03,0.05 0.03,0.05 0.04,0.04 0.03,0.04 0.04,0.04 0.05,0.04 0.04,0.04 0.05,0.03 0.04,0.03 0.03,0.01 0.03,0.01 0.02,0.01 0.03,0.01 0.03,0.01 0.03,0.01 0.02,0.01 0.03,0 0.03,0.01 0.04,0 0.03,0 0.03,0 c 0.05,0 0.29,0 0.5,-0.13 -0.28,-0.04 -0.48,-0.29 -0.48,-0.53 0,-0.16 0.11,-0.35 0.38,-0.35 0.22,0 0.53,0.18 0.53,0.58 0,0.51 -0.58,0.65 -0.92,0.65 -0.58,0 -0.93,-0.52 -1.05,-0.75 -0.24,0.65 -0.78,0.75 -1.07,0.75 -1.04,0 -1.6,-1.28 -1.6,-1.53 0,-0.1 0.1,-0.1 0.12,-0.1 0.08,0 0.11,0.02 0.13,0.11 0.33,1.06 0.99,1.3 1.33,1.3 0.19,0 0.54,-0.08 0.54,-0.66 0,-0.31 -0.17,-0.98 -0.54,-2.37 -0.16,-0.61 -0.51,-1.03 -0.95,-1.03 -0.06,0 -0.28,0 -0.49,0.13 0.25,0.05 0.46,0.26 0.46,0.54 0,0.26 -0.21,0.35 -0.36,0.35 -0.3,0 -0.55,-0.26 -0.55,-0.58 0,-0.46 0.5,-0.66 0.93,-0.66 0.66,0 1.02,0.7 1.05,0.76 0.12,-0.37 0.48,-0.76 1.07,-0.76 1.03,0 1.59,1.28 1.59,1.53 0,0.1 -0.08,0.1 -0.11,0.1 -0.09,0 -0.11,-0.04 -0.13,-0.11 -0.33,-1.06 -1.01,-1.3 -1.33,-1.3 -0.39,0 -0.54,0.32 -0.54,0.66 0,0.21 0.06,0.43 0.17,0.87 z"
   inkscape:connector-curvature="0"
   style="fill:#000000;stroke-width:0" />
<path
   id="path3293"
   d="m 361.75,712.23 0,0.01 0,0.01 0,0.02 0,0.01 -0.01,0.01 0,0.01 0,0.01 -0.01,0.01 0,0.01 0,0.01 -0.01,0.01 -0.01,0.02 0,0.01 -0.01,0.01 -0.01,0.01 0,0.01 -0.01,0.01 -0.01,0.01 -0.01,0 -0.01,0.01 -0.01,0.01 -0.02,0.01 -0.01,0.01 -0.01,0 -0.01,0.01 -0.02,0 -0.01,0.01 -0.02,0 -0.02,0 -0.01,0.01 -0.02,0 -0.02,0 c -0.18,0 -0.39,-0.18 -0.39,-0.39 0,-0.11 0.09,-0.26 0.28,-0.26 0.2,0 0.39,0.19 0.39,0.38 z"
   inkscape:connector-curvature="0"
   style="fill:#000000;stroke-width:0" />
<path
   id="path3295"
   d="m 360.33,708.7 0,-0.02 -0.01,-0.01 -0.01,-0.04 -0.01,-0.01 0,-0.02 -0.01,-0.02 0,-0.01 -0.01,-0.02 0,-0.02 0,-0.02 -0.01,-0.02 0,-0.02 0,-0.01 0,-0.01 0,-0.01 0,-0.01 0,-0.01 0,-0.01 c 0,-0.33 0.28,-0.59 0.66,-0.59 0.7,0 1,0.96 1,1.06 0,0.09 -0.09,0.09 -0.11,0.09 -0.1,0 -0.1,-0.04 -0.13,-0.12 -0.16,-0.55 -0.47,-0.84 -0.74,-0.84 -0.14,0 -0.17,0.09 -0.17,0.25 0,0.16 0.05,0.29 0.11,0.44 0.07,0.19 0.14,0.38 0.22,0.56 0.06,0.16 0.31,0.8 0.34,0.88 0.02,0.07 0.04,0.15 0.04,0.22 0,0.33 -0.28,0.59 -0.66,0.59 -0.69,0 -1.01,-0.94 -1.01,-1.06 0,-0.09 0.1,-0.09 0.12,-0.09 0.1,0 0.11,0.03 0.13,0.11 0.18,0.6 0.48,0.85 0.74,0.85 0.11,0 0.17,-0.06 0.17,-0.24 0,-0.16 -0.04,-0.27 -0.21,-0.7 z"
   inkscape:connector-curvature="0"
   style="fill:#000000;stroke-width:0" />
<line
   id="line3297"
   y2="705.13"
   x2="362.81"
   y1="705.13"
   x1="348.60999"
   style="stroke-width:0.398" />
<path
   id="path3299"
   d="m 356.46,702.59 0,0 0,0 0,0.01 0,0 0,0 0,0 0,0.01 -0.01,0 0,0 0,0.01 0,0 0,0.01 0,0 0,0.01 0,0 -0.01,0.01 0,0 0,0.01 -0.01,0 0,0.01 -0.01,0 0,0 0,0 0,0.01 -0.01,0 0,0 0,0 -0.01,0 0,0.01 0,0 -0.01,0 0,0 0,0 -0.01,0 0,0.01 -0.01,0 0,0 -0.01,0 0,0 -0.01,0 0,0 -0.01,0 0,0 -0.01,0 0,0 c -0.15,0 -1.1,-0.09 -1.27,-0.11 -0.08,-0.01 -0.14,-0.06 -0.14,-0.19 0,-0.12 0.09,-0.12 0.24,-0.12 0.48,0 0.5,-0.06 0.5,-0.16 l -0.03,-0.2 -0.6,-2.36 c -0.18,0.37 -0.46,0.64 -0.91,0.64 -1.17,0 -2.4,-1.46 -2.4,-2.91 0,-0.94 0.55,-1.59 1.32,-1.59 l 0.02,0.22 c -0.49,0 -0.63,0.54 -0.63,0.93 0,0.5 0.31,1.72 0.54,2.18 0.31,0.58 0.76,0.95 1.16,0.95 0.64,0 0.78,-0.81 0.78,-0.87 0,-0.06 -0.02,-0.12 -0.03,-0.17 l -0.49,-1.95 c -0.05,-0.18 -0.05,-0.2 -0.2,-0.37 -0.44,-0.54 -0.85,-0.7 -1.13,-0.7 l -0.02,-0.22 c 0.2,0 0.7,0.04 1.3,0.74 0.08,-0.41 0.42,-0.74 0.9,-0.74 0.35,0 0.58,0.23 0.74,0.54 0.17,0.36 0.3,0.97 0.3,0.99 0,0.1 -0.09,0.1 -0.12,0.1 -0.1,0 -0.11,-0.04 -0.14,-0.18 -0.17,-0.65 -0.35,-1.23 -0.76,-1.23 -0.27,0 -0.3,0.25 -0.3,0.45 0,0.24 0.02,0.31 0.06,0.48 z"
   inkscape:connector-curvature="0"
   style="fill:#000000;stroke-width:0" />
<path
   id="path3301"
   d="m 358.56,699.78 h 0.93 c 0.2,0 0.3,0 0.3,0.2 0,0.11 -0.1,0.11 -0.28,0.11 h -0.87 c 0.35,1.41 0.4,1.61 0.4,1.67 0,0.17 -0.12,0.27 -0.28,0.27 -0.03,0 -0.31,-0.01 -0.4,-0.36 l -0.39,-1.58 h -0.93 c -0.2,0 -0.3,0 -0.3,-0.19 0,-0.12 0.08,-0.12 0.28,-0.12 h 0.87 c -0.72,-2.82 -0.76,-2.99 -0.76,-3.17 0,-0.53 0.38,-0.91 0.92,-0.91 1.01,0 1.58,1.45 1.58,1.53 0,0.1 -0.08,0.1 -0.12,0.1 -0.09,0 -0.1,-0.03 -0.15,-0.14 -0.43,-1.03 -0.95,-1.27 -1.29,-1.27 -0.21,0 -0.31,0.13 -0.31,0.45 0,0.24 0.02,0.31 0.06,0.48 z"
   inkscape:connector-curvature="0"
   style="fill:#000000;stroke-width:0" />
<path
   id="path3303"
   d="m 373.61,705.89 0.03,0 0.03,0 0.03,0 0.01,0 0.02,0 0.01,0 0.01,0.01 0.02,0 0.01,0 0.02,0 0.01,0.01 0.01,0 0.01,0 0.02,0.01 0.01,0.01 0.01,0 0.01,0.01 0.01,0.01 0.01,0 0.01,0.01 0.01,0.01 0,0.01 0,0 0.01,0.01 0,0.01 0,0 0.01,0.01 0,0.01 0,0 0,0.01 0,0.01 0,0.01 0.01,0 0,0.01 0,0.01 0,0.01 0,0.01 c 0,0.2 -0.19,0.2 -0.33,0.2 h -5.96 c -0.14,0 -0.33,0 -0.33,-0.2 0,-0.2 0.19,-0.2 0.34,-0.2 z"
   inkscape:connector-curvature="0"
   style="fill:#000000;stroke-width:0" />
<path
   id="path3305"
   d="m 373.62,703.96 0.01,0 0.02,0 0.02,0 0.03,0 0.02,0.01 0.01,0 0.01,0 0.02,0 0.01,0 0.01,0 0.02,0.01 0.01,0 0.01,0 0.02,0.01 0.01,0 0.01,0.01 0.01,0 0.01,0.01 0.01,0.01 0.01,0.01 0.01,0.01 0,0 0.01,0.01 0,0 0,0.01 0.01,0 0,0.01 0,0.01 0.01,0 0,0.01 0,0.01 0,0 0,0.01 0,0.01 0.01,0.01 0,0.01 0,0 0,0.01 0,0.01 c 0,0.2 -0.19,0.2 -0.34,0.2 h -5.94 c -0.15,0 -0.34,0 -0.34,-0.2 0,-0.2 0.19,-0.2 0.33,-0.2 z"
   inkscape:connector-curvature="0"
   style="fill:#000000;stroke-width:0" />
<path
   id="path3307"
   d="m 378.17,703.23 -0.01,-0.02 0,-0.01 0,-0.02 -0.01,-0.01 0,-0.03 -0.01,-0.03 -0.01,-0.04 0,-0.03 -0.01,-0.03 -0.01,-0.03 0,-0.02 -0.01,-0.01 0,-0.02 0,-0.01 -0.01,-0.01 0,-0.02 0,-0.01 0,-0.01 -0.01,-0.01 0,-0.01 0,-0.01 0,-0.01 0,-0.01 0,-0.01 0,0 0,-0.01 c 0,-0.18 0.14,-0.27 0.28,-0.27 0.12,0 0.3,0.08 0.37,0.28 0.02,0.04 0.36,1.39 0.4,1.57 0.08,0.33 0.26,1.02 0.32,1.29 0.04,0.13 0.32,0.6 0.56,0.82 0.08,0.07 0.37,0.32 0.79,0.32 0.26,0 0.41,-0.11 0.42,-0.11 -0.3,-0.05 -0.52,-0.29 -0.52,-0.55 0,-0.16 0.11,-0.35 0.38,-0.35 0.27,0 0.55,0.23 0.55,0.59 0,0.34 -0.32,0.64 -0.83,0.64 -0.64,0 -1.08,-0.48 -1.27,-0.76 -0.08,0.45 -0.44,0.76 -0.91,0.76 -0.45,0 -0.64,-0.38 -0.73,-0.56 -0.18,-0.34 -0.31,-0.94 -0.31,-0.97 0,-0.1 0.1,-0.1 0.12,-0.1 0.1,0 0.11,0.01 0.17,0.23 0.17,0.71 0.37,1.18 0.72,1.18 0.17,0 0.31,-0.08 0.31,-0.45 0,-0.21 -0.03,-0.32 -0.16,-0.84 z"
   inkscape:connector-curvature="0"
   style="fill:#000000;stroke-width:0" />
<path
   id="path3309"
   d="m 384.04,705.49 0,0.01 0,0.01 0,0.02 0,0.01 -0.01,0.01 0,0.01 0,0.01 -0.01,0.01 0,0.01 0,0.01 -0.01,0.01 -0.01,0.02 0,0.01 -0.01,0.01 -0.01,0.01 0,0.01 -0.01,0.01 -0.01,0.01 -0.01,0 -0.01,0.01 -0.01,0.01 -0.02,0.01 -0.01,0.01 -0.01,0 -0.01,0.01 -0.02,0 -0.01,0.01 -0.02,0 -0.02,0 -0.01,0.01 -0.02,0 -0.02,0 c -0.18,0 -0.39,-0.18 -0.39,-0.38 0,-0.12 0.09,-0.27 0.28,-0.27 0.2,0 0.39,0.19 0.39,0.38 z"
   inkscape:connector-curvature="0"
   style="fill:#000000;stroke-width:0" />
<path
   id="path3311"
   d="m 382.62,701.96 0,-0.02 -0.01,-0.01 -0.01,-0.04 -0.01,-0.01 0,-0.02 -0.01,-0.02 0,-0.02 -0.01,-0.01 0,-0.02 0,-0.02 -0.01,-0.02 0,-0.01 0,-0.01 0,-0.01 0,-0.01 0,-0.01 0,-0.01 0,-0.01 0,-0.01 c 0,-0.33 0.28,-0.59 0.66,-0.59 0.7,0 1,0.96 1,1.06 0,0.09 -0.09,0.09 -0.11,0.09 -0.1,0 -0.1,-0.04 -0.13,-0.12 -0.16,-0.55 -0.47,-0.84 -0.74,-0.84 -0.14,0 -0.17,0.09 -0.17,0.25 0,0.15 0.04,0.29 0.11,0.44 0.07,0.19 0.14,0.38 0.22,0.56 0.06,0.16 0.31,0.8 0.34,0.88 0.02,0.07 0.04,0.15 0.04,0.22 0,0.33 -0.27,0.59 -0.66,0.59 -0.69,0 -1.01,-0.94 -1.01,-1.06 0,-0.09 0.1,-0.09 0.12,-0.09 0.1,0 0.1,0.03 0.13,0.11 0.18,0.6 0.48,0.85 0.74,0.85 0.11,0 0.17,-0.06 0.17,-0.24 0,-0.16 -0.04,-0.27 -0.21,-0.7 z"
   inkscape:connector-curvature="0"
   style="fill:#000000;stroke-width:0" />
<path
   id="path3313"
   d="m 388.42,705.64 0.01,0.03 0.01,0.03 0.01,0.03 0.01,0.04 0.01,0.04 0.01,0.04 0.01,0.04 0.02,0.04 0.01,0.05 0.02,0.05 0.02,0.05 0.02,0.05 0.02,0.05 0.03,0.05 0.02,0.05 0.03,0.04 0.03,0.05 0.03,0.05 0.03,0.05 0.04,0.04 0.04,0.04 0.04,0.04 0.04,0.04 0.04,0.04 0.05,0.03 0.05,0.03 0.02,0.01 0.03,0.01 0.02,0.01 0.03,0.01 0.03,0.01 0.03,0.01 0.03,0.01 0.02,0 0.04,0.01 0.03,0 0.03,0 0.03,0 c 0.05,0 0.29,0 0.5,-0.13 -0.28,-0.04 -0.48,-0.29 -0.48,-0.53 0,-0.16 0.11,-0.35 0.38,-0.35 0.22,0 0.54,0.18 0.54,0.58 0,0.51 -0.59,0.65 -0.93,0.65 -0.58,0 -0.93,-0.52 -1.04,-0.75 -0.25,0.65 -0.79,0.75 -1.08,0.75 -1.03,0 -1.6,-1.28 -1.6,-1.53 0,-0.1 0.1,-0.1 0.12,-0.1 0.08,0 0.11,0.02 0.13,0.11 0.34,1.06 0.99,1.3 1.33,1.3 0.19,0 0.54,-0.09 0.54,-0.66 0,-0.31 -0.17,-0.98 -0.54,-2.37 -0.16,-0.61 -0.51,-1.03 -0.94,-1.03 -0.06,0 -0.29,0 -0.5,0.13 0.25,0.05 0.47,0.26 0.47,0.54 0,0.26 -0.22,0.34 -0.37,0.34 -0.3,0 -0.55,-0.25 -0.55,-0.57 0,-0.46 0.5,-0.66 0.94,-0.66 0.65,0 1.01,0.7 1.04,0.76 0.12,-0.37 0.48,-0.76 1.08,-0.76 1.02,0 1.59,1.28 1.59,1.53 0,0.1 -0.09,0.1 -0.12,0.1 -0.09,0 -0.11,-0.04 -0.13,-0.11 -0.33,-1.06 -1.01,-1.3 -1.33,-1.3 -0.38,0 -0.54,0.32 -0.54,0.66 0,0.21 0.06,0.43 0.17,0.87 z"
   inkscape:connector-curvature="0"
   style="fill:#000000;stroke-width:0" />
<path
   id="path3315"
   d="m 393.05,705.49 0,0.01 0,0.01 0,0.02 0,0.01 0,0.01 -0.01,0.01 0,0.01 0,0.01 -0.01,0.01 0,0.01 -0.01,0.01 0,0.02 -0.01,0.01 -0.01,0.01 -0.01,0.01 0,0.01 -0.01,0.01 -0.01,0.01 -0.01,0 -0.01,0.01 -0.01,0.01 -0.02,0.01 -0.01,0.01 -0.01,0 -0.01,0.01 -0.02,0 -0.01,0.01 -0.02,0 -0.01,0 -0.02,0.01 -0.02,0 -0.02,0 c -0.18,0 -0.39,-0.18 -0.39,-0.38 0,-0.12 0.09,-0.27 0.28,-0.27 0.2,0 0.39,0.19 0.39,0.38 z"
   inkscape:connector-curvature="0"
   style="fill:#000000;stroke-width:0" />
<path
   id="path3317"
   d="m 391.63,701.96 0,-0.02 -0.01,-0.01 -0.01,-0.04 -0.01,-0.01 0,-0.02 -0.01,-0.02 0,-0.02 0,-0.01 -0.01,-0.02 0,-0.02 -0.01,-0.02 0,-0.01 0,-0.01 0,-0.01 0,-0.01 0,-0.01 0,-0.01 0,-0.01 0,-0.01 c 0,-0.33 0.28,-0.59 0.66,-0.59 0.7,0 1,0.96 1,1.06 0,0.09 -0.09,0.09 -0.11,0.09 -0.1,0 -0.1,-0.04 -0.13,-0.12 -0.16,-0.55 -0.47,-0.84 -0.74,-0.84 -0.14,0 -0.17,0.09 -0.17,0.25 0,0.15 0.05,0.29 0.11,0.44 0.07,0.19 0.14,0.38 0.22,0.56 0.06,0.16 0.32,0.8 0.34,0.88 0.02,0.07 0.05,0.15 0.05,0.22 0,0.33 -0.28,0.59 -0.67,0.59 -0.69,0 -1.01,-0.94 -1.01,-1.06 0,-0.09 0.1,-0.09 0.12,-0.09 0.1,0 0.11,0.03 0.13,0.11 0.18,0.6 0.48,0.85 0.74,0.85 0.11,0 0.18,-0.06 0.18,-0.24 0,-0.16 -0.05,-0.27 -0.22,-0.7 z"
   inkscape:connector-curvature="0"
   style="fill:#000000;stroke-width:0" />
<path
   id="path3319"
   d="m 402.74,693.35 0,0.01 0,0 0,0 0,0.01 0,0 0,0 -0.01,0.01 0,0 0,0 0,0.01 0,0 0,0 0,0 0,0.01 0,0 -0.01,0 0,0.01 0,0 0,0.01 -0.01,0 0,0.01 0,0 -0.01,0.01 0,0 c -0.37,0.37 -1.04,1.04 -1.7,2.11 -1.61,2.56 -2.33,5.79 -2.33,9.62 0,2.67 0.36,6.11 2,9.07 0.78,1.42 1.6,2.23 2.04,2.67 0.03,0.03 0.03,0.05 0.03,0.08 0,0.1 -0.07,0.1 -0.21,0.1 -0.14,0 -0.16,0 -0.31,-0.15 -3.33,-3.03 -4.38,-7.58 -4.38,-11.76 0,-3.91 0.9,-7.84 3.43,-10.81 0.19,-0.23 0.57,-0.64 0.98,-1 0.12,-0.11 0.14,-0.11 0.28,-0.11 0.14,0 0.21,0 0.21,0.09 z"
   inkscape:connector-curvature="0"
   style="fill:#000000;stroke-width:0" />
<path
   id="path3321"
   d="m 406.03,709 0,0.01 0,0.01 0,0.01 0,0.01 0,0.01 0,0.01 0,0.01 0,0.01 0,0.01 0,0.01 0,0 0,0.01 0,0.01 0,0.01 0,0 0,0.01 0,0.01 0,0 0,0.02 -0.01,0.01 0,0.01 0,0.01 -0.01,0 0,0.01 -0.01,0.01 0,0 -0.01,0.01 -0.01,0 0,0.01 -0.01,0 -0.01,0 0,0.01 -0.01,0 0,0 -0.01,0 0,0 -0.01,0 -0.01,0 0,0 -0.01,0 -0.01,0.01 -0.01,0 0,0 -0.01,0 -0.01,0 -0.01,0 -0.01,0 -0.01,0 -0.01,0 -0.01,0 -0.01,0 -0.01,0 c -0.61,-0.64 -1.49,-0.64 -1.81,-0.64 v -0.31 c 0.2,0 0.79,0 1.31,0.26 v -5.14 c 0,-0.36 -0.03,-0.48 -0.93,-0.48 h -0.32 v -0.31 c 0.35,0.03 1.22,0.03 1.61,0.03 0.4,0 1.27,0 1.62,-0.03 v 0.31 h -0.32 c -0.9,0 -0.93,0.11 -0.93,0.48 z"
   inkscape:connector-curvature="0"
   style="fill:#000000;stroke-width:0" />
<path
   id="path3323"
   d="m 416.86,704.93 0.03,0 0.03,0 0.03,0 0.02,0 0.01,0 0.02,0 0.01,0 0.02,0.01 0.01,0 0.02,0 0.01,0 0.01,0.01 0.02,0 0.01,0.01 0.01,0 0.01,0.01 0.01,0.01 0.01,0 0.01,0.01 0.01,0.01 0.01,0.01 0,0.01 0,0 0.01,0.01 0,0 0,0.01 0,0.01 0.01,0 0,0.01 0,0.01 0,0 0,0.01 0,0.01 0.01,0.01 0,0.01 0,0.01 0,0 c 0,0.2 -0.18,0.2 -0.35,0.2 h -5.38 c -0.17,0 -0.35,0 -0.35,-0.2 0,-0.19 0.18,-0.19 0.35,-0.19 z"
   inkscape:connector-curvature="0"
   style="fill:#000000;stroke-width:0" />
<path
   id="path3325"
   d="m 423.24,710.52 -0.04,-0.06 -0.03,-0.05 -0.04,-0.06 -0.04,-0.05 -0.04,-0.05 -0.03,-0.05 -0.04,-0.04 -0.04,-0.04 -0.03,-0.04 -0.04,-0.04 -0.04,-0.03 -0.04,-0.03 -0.03,-0.03 -0.04,-0.03 -0.04,-0.03 -0.04,-0.02 -0.03,-0.02 -0.04,-0.02 -0.04,-0.02 -0.04,-0.02 -0.04,-0.01 -0.04,-0.02 -0.03,-0.01 -0.04,-0.01 -0.04,-0.01 -0.04,-0.01 -0.04,-0.01 -0.04,0 -0.08,-0.01 -0.08,-0.01 c -0.12,-0.01 -0.21,-0.01 -0.21,-0.2 0,-0.06 0.05,-0.11 0.13,-0.11 0.27,0 0.58,0.03 0.85,0.03 0.33,0 0.68,-0.03 1,-0.03 0.06,0 0.19,0 0.19,0.19 0,0.11 -0.09,0.12 -0.16,0.12 -0.23,0.02 -0.47,0.1 -0.47,0.35 0,0.12 0.06,0.23 0.14,0.37 l 0.76,1.27 h 2.49 l -0.03,0.3 h -2.28 l 1.96,3.28 0.32,-3.28 0.03,-0.3 c 0.02,-0.21 0.16,-1.56 0.16,-1.66 0,-0.3 -0.51,-0.33 -0.71,-0.33 -0.14,0 -0.24,0 -0.24,-0.2 0,-0.11 0.12,-0.11 0.14,-0.11 0.4,0 0.83,0.03 1.24,0.03 0.25,0 0.88,-0.03 1.12,-0.03 0.06,0 0.18,0 0.18,0.2 0,0.11 -0.1,0.11 -0.23,0.11 -0.61,0 -0.61,0.07 -0.64,0.36 l -0.61,6.21 c -0.02,0.2 -0.02,0.23 -0.19,0.23 -0.16,0 -0.2,-0.07 -0.26,-0.16 z"
   inkscape:connector-curvature="0"
   style="fill:#000000;stroke-width:0" />
<path
   id="path3327"
   d="m 432.26,712.38 0,0.03 0.01,0.03 0.01,0.03 0.01,0.04 0.01,0.04 0.01,0.04 0.01,0.04 0.02,0.04 0.01,0.05 0.02,0.05 0.02,0.05 0.02,0.05 0.02,0.05 0.03,0.05 0.02,0.05 0.03,0.04 0.03,0.05 0.03,0.05 0.03,0.05 0.04,0.04 0.04,0.04 0.04,0.04 0.04,0.04 0.04,0.04 0.05,0.03 0.05,0.03 0.02,0.01 0.03,0.01 0.02,0.01 0.03,0.01 0.03,0.01 0.03,0.01 0.03,0.01 0.02,0 0.04,0.01 0.03,0 0.03,0 0.03,0 c 0.05,0 0.29,0 0.5,-0.13 -0.28,-0.04 -0.48,-0.29 -0.48,-0.53 0,-0.16 0.11,-0.35 0.38,-0.35 0.22,0 0.53,0.18 0.53,0.58 0,0.51 -0.58,0.65 -0.92,0.65 -0.58,0 -0.92,-0.52 -1.05,-0.75 -0.24,0.65 -0.78,0.75 -1.07,0.75 -1.03,0 -1.6,-1.28 -1.6,-1.53 0,-0.1 0.1,-0.1 0.12,-0.1 0.08,0 0.11,0.02 0.13,0.11 0.34,1.06 0.99,1.3 1.33,1.3 0.19,0 0.54,-0.08 0.54,-0.66 0,-0.31 -0.17,-0.98 -0.54,-2.37 -0.16,-0.61 -0.51,-1.03 -0.94,-1.03 -0.06,0 -0.29,0 -0.5,0.13 0.25,0.05 0.47,0.26 0.47,0.54 0,0.26 -0.22,0.35 -0.37,0.35 -0.3,0 -0.55,-0.26 -0.55,-0.58 0,-0.46 0.5,-0.66 0.94,-0.66 0.65,0 1.01,0.7 1.04,0.76 0.12,-0.37 0.48,-0.76 1.07,-0.76 1.03,0 1.6,1.28 1.6,1.53 0,0.1 -0.09,0.1 -0.12,0.1 -0.09,0 -0.11,-0.04 -0.13,-0.11 -0.33,-1.06 -1.01,-1.3 -1.32,-1.3 -0.39,0 -0.55,0.32 -0.55,0.66 0,0.21 0.06,0.43 0.17,0.87 z"
   inkscape:connector-curvature="0"
   style="fill:#000000;stroke-width:0" />
<line
   id="line3329"
   y2="705.13"
   x2="434.63"
   y1="705.13"
   x1="421.45999"
   style="stroke-width:0.398" />
<path
   id="path3331"
   d="m 427.22,699.82 0,0 0,0.01 -0.01,0 0,0 0,0.01 0,0 0,0.01 0,0 -0.01,0.01 0,0 0,0.01 0,0 -0.01,0.01 0,0.01 0,0.01 -0.01,0.01 0,0 0,0.01 0,0 0,0.01 -0.01,0 0,0 0,0.01 0,0 0,0.01 0,0 0,0 0,0.01 0,0 c 0,0.01 0.18,0.15 0.29,0.23 l 1.74,1.34 c 0.93,0.69 1.32,0.73 1.62,0.75 0.08,0.01 0.18,0.02 0.18,0.2 0,0.04 -0.03,0.11 -0.11,0.11 -0.22,0 -0.47,-0.03 -0.71,-0.03 -0.35,0 -0.74,0.03 -1.1,0.03 -0.07,0 -0.19,0 -0.19,-0.2 0,-0.06 0.05,-0.1 0.12,-0.11 0.22,-0.01 0.31,-0.06 0.31,-0.2 0,-0.18 -0.3,-0.41 -0.36,-0.46 l -3.88,-2.98 0.8,3.19 c 0.08,0.36 0.1,0.45 0.83,0.45 0.25,0 0.34,0 0.34,0.2 0,0.09 -0.08,0.11 -0.14,0.11 -0.28,0 -0.99,-0.03 -1.27,-0.03 -0.29,0 -1,0.03 -1.29,0.03 -0.07,0 -0.2,0 -0.2,-0.19 0,-0.12 0.09,-0.12 0.29,-0.12 0.13,0 0.31,0 0.43,-0.01 0.16,-0.03 0.22,-0.05 0.22,-0.16 0,-0.04 -0.01,-0.07 -0.04,-0.19 l -1.33,-5.34 c -0.1,-0.38 -0.12,-0.46 -0.91,-0.46 -0.17,0 -0.28,0 -0.28,-0.19 0,-0.12 0.12,-0.12 0.15,-0.12 0.28,0 0.99,0.03 1.27,0.03 0.2,0 0.42,-0.01 0.63,-0.01 0.22,0 0.44,-0.02 0.65,-0.02 0.07,0 0.2,0 0.2,0.2 0,0.11 -0.09,0.11 -0.28,0.11 -0.37,0 -0.65,0 -0.65,0.17 0,0.07 0.06,0.29 0.09,0.44 0.14,0.52 0.27,1.05 0.4,1.56 l 1.48,1.15 1.16,-2.67 c 0.11,-0.27 0.11,-0.29 0.11,-0.35 0,-0.29 -0.42,-0.3 -0.51,-0.3 -0.11,0 -0.22,0 -0.22,-0.2 0,-0.11 0.12,-0.11 0.14,-0.11 0.4,0 0.81,0.03 1.21,0.03 0.22,0 0.76,-0.03 0.98,-0.03 0.05,0 0.18,0 0.18,0.2 0,0.11 -0.11,0.11 -0.2,0.11 -0.41,0.01 -0.54,0.1 -0.69,0.44 z"
   inkscape:connector-curvature="0"
   style="fill:#000000;stroke-width:0" />
<path
   id="path3333"
   d="m 432.87,698.66 0,0.01 0,0.01 0,0.01 0,0.01 -0.01,0.01 0,0.02 0,0.01 -0.01,0.01 0,0.01 0,0.01 -0.01,0.01 -0.01,0.01 0,0.01 -0.01,0.01 -0.01,0.01 0,0.01 -0.01,0.01 -0.01,0.01 -0.01,0.01 -0.01,0.01 -0.01,0.01 -0.02,0.01 -0.01,0 -0.01,0.01 -0.01,0 -0.02,0.01 -0.01,0 -0.02,0.01 -0.02,0 -0.01,0 -0.02,0 -0.02,0 c -0.19,0 -0.39,-0.18 -0.39,-0.38 0,-0.12 0.09,-0.26 0.28,-0.26 0.2,0 0.39,0.19 0.39,0.38 z"
   inkscape:connector-curvature="0"
   style="fill:#000000;stroke-width:0" />
<path
   id="path3335"
   d="m 431.45,695.13 0,-0.02 -0.01,-0.02 -0.01,-0.03 -0.01,-0.02 0,-0.01 -0.01,-0.02 0,-0.02 -0.01,-0.02 0,-0.01 0,-0.02 -0.01,-0.02 0,-0.01 0,-0.01 0,-0.01 0,-0.01 0,-0.01 0,-0.01 0,-0.01 0,-0.01 c 0,-0.33 0.28,-0.6 0.66,-0.6 0.7,0 1,0.96 1,1.07 0,0.09 -0.09,0.09 -0.11,0.09 -0.1,0 -0.1,-0.04 -0.13,-0.12 -0.16,-0.56 -0.47,-0.84 -0.74,-0.84 -0.14,0 -0.17,0.09 -0.17,0.24 0,0.16 0.05,0.29 0.11,0.45 0.07,0.19 0.14,0.37 0.22,0.55 0.06,0.17 0.31,0.8 0.34,0.89 0.02,0.07 0.04,0.15 0.04,0.22 0,0.33 -0.28,0.59 -0.66,0.59 -0.69,0 -1.01,-0.95 -1.01,-1.06 0,-0.09 0.1,-0.09 0.12,-0.09 0.1,0 0.11,0.03 0.13,0.11 0.18,0.6 0.48,0.85 0.74,0.85 0.11,0 0.18,-0.06 0.18,-0.25 0,-0.16 -0.05,-0.26 -0.22,-0.69 z"
   inkscape:connector-curvature="0"
   style="fill:#000000;stroke-width:0" />
<path
   id="path3337"
   d="m 441.07,705.17 -0.02,0.73 -0.03,0.73 -0.05,0.73 -0.08,0.72 -0.11,0.72 -0.13,0.72 -0.16,0.7 -0.19,0.7 -0.22,0.69 -0.12,0.33 -0.12,0.34 -0.14,0.33 -0.14,0.33 -0.16,0.32 -0.16,0.32 -0.17,0.32 -0.17,0.31 -0.19,0.31 -0.19,0.3 -0.21,0.29 -0.21,0.3 -0.22,0.28 -0.24,0.28 c -0.2,0.23 -0.57,0.64 -0.98,1 -0.12,0.12 -0.14,0.12 -0.28,0.12 -0.12,0 -0.21,0 -0.21,-0.1 0,-0.04 0.04,-0.08 0.06,-0.1 0.35,-0.36 1.01,-1.03 1.68,-2.1 1.6,-2.56 2.33,-5.79 2.33,-9.61 0,-2.68 -0.36,-6.12 -2,-9.08 -0.79,-1.42 -1.61,-2.24 -2.03,-2.66 -0.02,-0.03 -0.04,-0.06 -0.04,-0.09 0,-0.09 0.09,-0.09 0.21,-0.09 0.14,0 0.16,0 0.31,0.14 3.33,3.03 4.38,7.58 4.38,11.77 z"
   inkscape:connector-curvature="0"
   style="fill:#000000;stroke-width:0" />
</g>      <path
         style="fill:none;stroke:#000000;stroke-width:1.44400001;stroke-linecap:butt;stroke-linejoin:miter;stroke-miterlimit:4;stroke-opacity:1;stroke-dasharray:none;marker-end:url(#Arrow1Lend)"
         d="M 577.46446,51.051612 506.35234,94.667505"
         id="path3408"
         inkscape:connector-curvature="0" />
      <path
         style="fill:none;stroke:#000000;stroke-width:1.44400001;stroke-linecap:butt;stroke-linejoin:miter;stroke-miterlimit:4;stroke-opacity:1;stroke-dasharray:none;marker-end:url(#Arrow1Lend)"
         d="M 526.89095,235.95745 506.6879,185.44982"
         id="path3410"
         inkscape:connector-curvature="0" />
      <path
         style="fill:none;stroke:#000000;stroke-width:1.44400001;stroke-linecap:butt;stroke-linejoin:miter;stroke-miterlimit:4;stroke-opacity:1;stroke-dasharray:none;marker-end:url(#Arrow1Lend)"
         d="m 287.8289,63.927043 35.87847,58.888347"
         id="path3412"
         inkscape:connector-curvature="0" />
      <path
         style="fill:none;stroke:#000000;stroke-width:1.44400001;stroke-linecap:butt;stroke-linejoin:miter;stroke-miterlimit:4;stroke-opacity:1;stroke-dasharray:none;marker-start:none;marker-end:url(#Arrow1Lend)"
         d="m 139.92491,206.88588 73.12038,-63.37464"
         id="path3414"
         inkscape:connector-curvature="0" />
      <text
         xml:space="preserve"
         style="font-size:40px;font-style:normal;font-weight:normal;text-align:center;line-height:125%;letter-spacing:0px;word-spacing:0px;text-anchor:middle;fill:#000000;fill-opacity:1;stroke:none;font-family:Sans"
         x="166.86993"
         y="54.446896"
         id="text5938"
         sodipodi:linespacing="125%"><tspan
           sodipodi:role="line"
           x="166.86993"
           y="54.446896"
           style="font-size:20px;text-align:center;text-anchor:middle"
           id="tspan6104">Growth rate of species i</tspan><tspan
           id="tspan5233"
           sodipodi:role="line"
           x="166.86993"
           y="79.446899"
           style="font-size:20px;text-align:center;text-anchor:middle" /></text>
      <text
         xml:space="preserve"
         style="font-size:40px;font-style:normal;font-weight:normal;line-height:125%;letter-spacing:0px;word-spacing:0px;fill:#000000;fill-opacity:1;stroke:none;font-family:Sans"
         x="622.46814"
         y="56.385372"
         id="text5938-8"
         sodipodi:linespacing="125%"><tspan
           sodipodi:role="line"
           id="tspan5940-6"
           x="622.46814"
           y="56.385372"
           style="font-size:20px">Interaction matrix</tspan></text>
      <text
         xml:space="preserve"
         style="font-size:39.99950409px;font-style:normal;font-weight:normal;line-height:125%;letter-spacing:0px;word-spacing:0px;fill:#000000;fill-opacity:1;stroke:none;font-family:Sans"
         x="520.48523"
         y="257.20905"
         id="text5938-2"
         sodipodi:linespacing="125%"><tspan
           sodipodi:role="line"
           x="520.48523"
           y="257.20905"
           style="font-size:19.99975204px"
           id="tspan5984">Carrying capacity</tspan><tspan
           id="tspan5250"
           sodipodi:role="line"
           x="520.48523"
           y="282.20874"
           style="font-size:19.99975204px"> </tspan></text>
      <text
         xml:space="preserve"
         style="font-size:40px;font-style:normal;font-weight:normal;line-height:125%;letter-spacing:0px;word-spacing:0px;fill:#000000;fill-opacity:1;stroke:none;font-family:Sans"
         x="74.4039"
         y="229.17976"
         id="text5938-2-4"
         sodipodi:linespacing="125%"><tspan
           sodipodi:role="line"
           x="74.4039"
           y="229.17976"
           style="font-size:20px"
           id="tspan6014">Abundances variation of</tspan><tspan
           id="tspan5248"
           sodipodi:role="line"
           x="74.4039"
           y="254.17976"
           style="font-size:20px">a species over time</tspan></text>
      <g
         id="g6587"
         transform="matrix(2.0277666,0,0,-2.0277666,113.58127,1717.1754)"
         xml:space="preserve"
         stroke-miterlimit="10.433"
         font-style="normal"
         font-variant="normal"
         font-weight="normal"
         font-stretch="normal"
         font-size-adjust="none"
         letter-spacing="normal"
         word-spacing="normal"
         ns0:text="$\\sim \\beta(\\alpha,\\beta)$"
         ns0:preamble=""
         style="font-style:normal;font-variant:normal;font-weight:normal;font-stretch:normal;letter-spacing:normal;word-spacing:normal;text-anchor:start;fill:none;stroke:#000000;stroke-linecap:butt;stroke-linejoin:miter;stroke-miterlimit:10.43299961;stroke-opacity:1;stroke-dasharray:none;stroke-dashoffset:0">
<path
   style="fill:#000000;stroke-width:0"
   inkscape:connector-curvature="0"
   d="m 230.62,710.44 -0.01,0.02 0,0.02 0,0.02 0,0.02 0,0.02 0,0.01 0,0.02 -0.01,0.01 0,0.02 0,0.01 0,0.02 -0.01,0.01 0,0.01 -0.01,0.01 0,0.01 0,0.01 -0.01,0.01 0,0.01 -0.01,0.01 0,0.01 -0.01,0 -0.01,0.01 0,0.01 -0.01,0 0,0.01 -0.01,0 -0.01,0 -0.01,0.01 0,0 -0.01,0 -0.01,0 0,0 c -0.05,0 -0.13,-0.07 -0.14,-0.26 -0.04,-0.95 -0.7,-1.5 -1.4,-1.5 -0.62,0 -1.1,0.43 -1.59,0.86 -0.5,0.45 -1.02,0.91 -1.7,0.91 -1.08,0 -1.67,-1.09 -1.67,-2 0,-0.31 0.13,-0.31 0.14,-0.31 0.11,0 0.14,0.2 0.14,0.22 0.04,1.1 0.78,1.53 1.39,1.53 0.63,0 1.11,-0.42 1.59,-0.85 0.51,-0.46 1.03,-0.91 1.7,-0.91 1.09,0 1.68,1.09 1.68,1.99 z"
   id="path6589" />
<path
   style="fill:#000000;stroke-width:0"
   inkscape:connector-curvature="0"
   d="m 239.67,712.78 0,0.07 -0.01,0.07 -0.01,0.06 -0.01,0.07 -0.01,0.06 -0.02,0.07 -0.02,0.06 -0.02,0.06 -0.02,0.06 -0.03,0.06 -0.03,0.06 -0.04,0.06 -0.03,0.05 -0.04,0.05 -0.04,0.05 -0.05,0.05 -0.04,0.04 -0.05,0.05 -0.05,0.04 -0.05,0.03 -0.06,0.04 -0.05,0.03 -0.06,0.03 -0.06,0.03 -0.07,0.02 -0.06,0.03 -0.07,0.01 -0.06,0.02 -0.07,0.01 -0.08,0.01 -0.07,0.01 -0.07,0 c -0.58,0 -0.86,-0.16 -1.21,-0.42 -0.54,-0.4 -1.09,-1.36 -1.28,-2.12 l -1.58,-6.3 c -0.01,-0.04 0.04,-0.1 0.12,-0.1 0.08,0 0.11,0.02 0.12,0.05 l 0.69,2.74 c 0.19,-0.6 0.63,-0.96 1.36,-0.96 l -0.03,0.21 c -0.76,0 -1.14,0.58 -1.14,1.29 0,0.09 0,0.24 0.05,0.43 l 0.64,2.52 c 0.22,0.85 0.93,2.43 2.13,2.43 0.57,0 0.92,-0.31 0.92,-0.9 h 0 c 0,-0.7 -0.38,-1.42 -0.89,-1.72 -0.27,0.1 -0.47,0.12 -0.77,0.12 -0.21,0 -0.77,0.01 -0.77,-0.32 -0.01,-0.28 0.51,-0.25 0.69,-0.25 l 0.03,0.22 c -0.14,0 -0.34,-0.01 -0.44,0.04 0.02,0.1 0.38,0.08 0.49,0.08 0.21,0 0.3,0 0.43,-0.05 h 0 c -0.13,-0.05 -0.24,-0.07 -0.48,-0.07 l -0.03,-0.22 c 0.37,0 0.52,0.01 0.82,0.13 0.37,-0.36 0.42,-0.67 0.43,-1.12 0.02,-0.58 -0.22,-1.32 -0.49,-1.71 -0.39,-0.54 -1.06,-0.9 -1.62,-0.9 l 0.03,-0.21 c 0.72,0 1.47,0.34 1.92,0.78 0.47,0.46 0.79,1.09 0.79,1.83 0,0.71 -0.37,1.23 -0.73,1.48 0.58,0.33 1.15,0.94 1.15,1.66 z"
   id="path6591" />
<path
   style="fill:#000000;stroke-width:0"
   inkscape:connector-curvature="0"
   d="m 243.4,704.74 0,0.01 0,0 0,0 0,0.01 0,0 0,0 0,0.01 0,0 0,0 -0.01,0.01 0,0 0,0.01 -0.01,0 0,0.01 0,0 -0.01,0.01 0,0.01 -0.01,0 0,0.01 -0.01,0 0,0.01 0,0 -0.01,0 0,0.01 0,0 -0.01,0.01 0,0 -0.01,0.01 0,0 -0.01,0.01 0,0 -0.01,0.01 -0.01,0.01 0,0 -0.01,0.01 0,0.01 -0.01,0 -0.01,0.01 0,0.01 -0.01,0 -0.01,0.01 -0.01,0.01 c -1.24,1.25 -1.56,3.13 -1.56,4.65 0,1.73 0.38,3.46 1.6,4.7 0.13,0.12 0.13,0.14 0.13,0.17 0,0.07 -0.04,0.1 -0.1,0.1 -0.1,0 -0.99,-0.68 -1.58,-1.94 -0.51,-1.09 -0.63,-2.2 -0.63,-3.03 0,-0.78 0.11,-1.98 0.66,-3.1 0.6,-1.22 1.45,-1.87 1.55,-1.87 0.06,0 0.1,0.03 0.1,0.1 z"
   id="path6593" />
<path
   style="fill:#000000;stroke-width:0"
   inkscape:connector-curvature="0"
   d="m 248.73,709.47 0,0.07 0,0.07 -0.01,0.07 0,0.07 -0.01,0.13 -0.02,0.12 -0.02,0.12 -0.03,0.12 -0.03,0.1 -0.04,0.11 -0.04,0.09 -0.04,0.1 -0.04,0.08 -0.05,0.08 -0.05,0.08 -0.06,0.07 -0.06,0.07 -0.06,0.06 -0.06,0.05 -0.06,0.06 -0.07,0.05 -0.06,0.04 -0.07,0.04 -0.07,0.04 -0.07,0.03 -0.07,0.03 -0.07,0.02 -0.08,0.02 -0.07,0.02 -0.07,0.01 -0.07,0.01 -0.07,0.01 -0.07,0 -0.07,0.01 c -1.37,0 -2.68,-1.43 -2.68,-2.83 0,-0.92 0.6,-1.67 1.61,-1.67 l 0.02,0.21 c -0.59,0 -0.89,0.45 -0.89,1.09 0,0.48 0.26,1.56 0.57,2.06 0.47,0.73 1.01,0.92 1.36,0.92 0.98,0 0.98,-1.3 0.98,-2.08 0,-0.37 0,-0.94 0.02,-1.11 h 0 c -0.87,-0.77 -1.64,-0.88 -2.04,-0.88 L 246,707.02 c 0.63,0 1.35,0.22 2.1,0.83 0.13,-0.53 0.46,-0.83 0.91,-0.83 0.53,0 0.83,0.54 0.83,0.7 0,0.07 -0.06,0.1 -0.12,0.1 -0.07,0 -0.1,-0.03 -0.13,-0.1 -0.18,-0.49 -0.53,-0.49 -0.55,-0.49 -0.31,0 -0.31,0.78 -0.31,1.02 0,0.21 0,0.23 0.1,0.34 0.93,1.18 1.14,2.33 1.14,2.34 0,0.02 -0.01,0.1 -0.12,0.1 -0.1,0 -0.1,-0.03 -0.15,-0.21 -0.18,-0.62 -0.5,-1.38 -0.97,-1.97 z"
   id="path6595" />
<path
   style="fill:#000000;stroke-width:0"
   inkscape:connector-curvature="0"
   d="m 252.42,707.14 0,0.06 -0.01,0.05 0,0.06 -0.01,0.06 0,0.05 -0.01,0.05 -0.01,0.06 -0.01,0.04 -0.01,0.05 -0.01,0.05 -0.02,0.04 -0.01,0.04 -0.02,0.04 -0.02,0.04 -0.02,0.04 -0.02,0.03 -0.02,0.04 -0.02,0.03 -0.02,0.02 -0.03,0.03 -0.02,0.03 -0.03,0.02 -0.03,0.02 -0.03,0.02 -0.03,0.01 -0.03,0.02 -0.03,0.01 -0.03,0.01 -0.04,0.01 -0.03,0 -0.04,0.01 -0.03,0 c -0.33,0 -0.53,-0.25 -0.53,-0.53 0,-0.27 0.2,-0.53 0.53,-0.53 0.12,0 0.25,0.04 0.35,0.13 0.03,0.02 0.04,0.03 0.05,0.03 0.01,0 0.02,-0.01 0.02,-0.14 0,-0.74 -0.35,-1.34 -0.68,-1.66 -0.11,-0.11 -0.11,-0.13 -0.11,-0.16 0,-0.07 0.05,-0.11 0.1,-0.11 0.11,0 0.91,0.76 0.91,1.93 z"
   id="path6597" />
<path
   style="fill:#000000;stroke-width:0"
   inkscape:connector-curvature="0"
   d="m 260.54,712.78 0,0.07 -0.01,0.07 -0.01,0.06 -0.01,0.07 -0.01,0.06 -0.02,0.07 -0.02,0.06 -0.02,0.06 -0.03,0.06 -0.02,0.06 -0.03,0.06 -0.04,0.06 -0.03,0.05 -0.04,0.05 -0.04,0.05 -0.05,0.05 -0.04,0.04 -0.05,0.05 -0.05,0.04 -0.05,0.03 -0.06,0.04 -0.05,0.03 -0.06,0.03 -0.06,0.03 -0.07,0.02 -0.06,0.03 -0.07,0.01 -0.07,0.02 -0.07,0.01 -0.07,0.01 -0.07,0.01 -0.08,0 c -0.57,0 -0.85,-0.16 -1.2,-0.42 -0.55,-0.4 -1.09,-1.36 -1.28,-2.12 l -1.58,-6.3 c -0.01,-0.04 0.04,-0.1 0.12,-0.1 0.08,0 0.11,0.02 0.11,0.05 l 0.7,2.74 c 0.19,-0.6 0.63,-0.96 1.35,-0.96 l -0.03,0.21 c -0.75,0 -1.13,0.58 -1.13,1.29 0,0.09 0,0.24 0.05,0.43 l 0.64,2.52 c 0.21,0.85 0.93,2.43 2.13,2.43 0.57,0 0.92,-0.31 0.92,-0.9 h 0 c 0,-0.7 -0.38,-1.42 -0.89,-1.72 -0.27,0.1 -0.47,0.12 -0.77,0.12 -0.21,0 -0.77,0.01 -0.77,-0.32 -0.01,-0.28 0.51,-0.25 0.69,-0.25 l 0.03,0.22 c -0.14,0 -0.34,-0.01 -0.44,0.04 0.02,0.1 0.38,0.08 0.49,0.08 0.21,0 0.3,0 0.43,-0.05 h 0 c -0.13,-0.05 -0.24,-0.07 -0.48,-0.07 l -0.03,-0.22 c 0.37,0 0.52,0.01 0.82,0.13 0.37,-0.36 0.42,-0.67 0.43,-1.12 0.02,-0.58 -0.22,-1.32 -0.49,-1.71 -0.39,-0.54 -1.06,-0.9 -1.63,-0.9 l 0.03,-0.21 c 0.73,0 1.48,0.34 1.92,0.78 0.48,0.46 0.8,1.09 0.8,1.83 0,0.71 -0.37,1.23 -0.73,1.48 0.58,0.33 1.15,0.94 1.15,1.66 z"
   id="path6599" />
<path
   style="fill:#000000;stroke-width:0"
   inkscape:connector-curvature="0"
   d="m 263.86,709.61 0,0.07 0,0.08 -0.01,0.08 0,0.08 -0.01,0.17 -0.01,0.17 -0.01,0.18 -0.03,0.19 -0.02,0.2 -0.04,0.2 -0.04,0.2 -0.04,0.21 -0.05,0.21 -0.07,0.21 -0.07,0.21 -0.07,0.21 -0.05,0.11 -0.04,0.11 -0.05,0.1 -0.05,0.11 c -0.6,1.22 -1.45,1.87 -1.55,1.87 -0.06,0 -0.1,-0.04 -0.1,-0.1 0,-0.03 0,-0.05 0.19,-0.23 0.97,-0.99 1.54,-2.57 1.54,-4.64 0,-1.7 -0.37,-3.45 -1.6,-4.7 -0.13,-0.12 -0.13,-0.14 -0.13,-0.17 0,-0.06 0.04,-0.1 0.1,-0.1 0.1,0 0.99,0.68 1.58,1.94 0.51,1.09 0.63,2.19 0.63,3.03 z"
   id="path6601" />
</g>      <g
         ns0:preamble=""
         ns0:text="$]0,1]$"
         word-spacing="normal"
         letter-spacing="normal"
         font-size-adjust="none"
         font-stretch="normal"
         font-weight="normal"
         font-variant="normal"
         font-style="normal"
         stroke-miterlimit="10.433"
         xml:space="preserve"
         transform="matrix(2.0277666,0,0,-2.0277666,-305.78828,1513.6064)"
         id="g6808"
         style="font-style:normal;font-variant:normal;font-weight:normal;font-stretch:normal;letter-spacing:normal;word-spacing:normal;text-anchor:start;fill:none;stroke:#000000;stroke-linecap:butt;stroke-linejoin:miter;stroke-miterlimit:10.43299961;stroke-opacity:1;stroke-dasharray:none;stroke-dashoffset:0">
<polygon
   id="polygon6810"
   points="223.65,705.04 223.65,704.64 225.01,704.64 225.01,714.58 223.65,714.58 223.65,714.18 224.62,714.18 224.62,705.04 "
   style="fill:#000000;stroke-width:0" />
<path
   id="path6812"
   d="m 230.78,710.3 0,0.15 -0.01,0.15 0,0.15 -0.01,0.15 -0.01,0.15 -0.01,0.14 -0.01,0.15 -0.02,0.15 -0.03,0.14 -0.02,0.15 -0.04,0.14 -0.03,0.15 -0.05,0.14 -0.04,0.14 -0.06,0.14 -0.03,0.07 -0.03,0.07 c -0.46,0.95 -1.28,1.11 -1.69,1.11 -0.6,0 -1.33,-0.26 -1.73,-1.18 -0.32,-0.69 -0.37,-1.46 -0.37,-2.26 0,-0.74 0.04,-1.64 0.45,-2.39 0.42,-0.81 1.15,-1 1.64,-1 v 0.21 c -0.39,0 -0.98,0.25 -1.16,1.21 -0.11,0.59 -0.11,1.51 -0.11,2.09 0,0.64 0,1.29 0.08,1.83 0.19,1.18 0.94,1.27 1.19,1.27 0.33,0 0.98,-0.18 1.17,-1.16 0.1,-0.56 0.1,-1.31 0.1,-1.94 0,-0.74 0,-1.42 -0.11,-2.05 -0.15,-0.95 -0.72,-1.25 -1.16,-1.25 h 0 v -0.21 c 0.53,0 1.29,0.2 1.73,1.15 0.32,0.68 0.37,1.46 0.37,2.24 z"
   inkscape:connector-curvature="0"
   style="fill:#000000;stroke-width:0" />
<path
   id="path6814"
   d="m 233.2,707.14 0,0.06 0,0.05 -0.01,0.06 0,0.06 -0.01,0.05 0,0.05 -0.01,0.06 -0.01,0.04 -0.02,0.05 -0.01,0.05 -0.01,0.04 -0.02,0.04 -0.01,0.04 -0.02,0.04 -0.02,0.04 -0.02,0.03 -0.02,0.04 -0.03,0.03 -0.02,0.02 -0.02,0.03 -0.03,0.03 -0.03,0.02 -0.02,0.02 -0.03,0.02 -0.03,0.01 -0.03,0.02 -0.03,0.01 -0.04,0.01 -0.03,0.01 -0.03,0 -0.04,0.01 -0.04,0 c -0.32,0 -0.52,-0.25 -0.52,-0.53 0,-0.27 0.2,-0.53 0.52,-0.53 0.12,0 0.25,0.04 0.35,0.13 0.03,0.02 0.04,0.03 0.05,0.03 0.01,0 0.02,-0.01 0.02,-0.14 0,-0.74 -0.35,-1.34 -0.68,-1.66 -0.1,-0.11 -0.1,-0.13 -0.1,-0.16 0,-0.07 0.05,-0.11 0.09,-0.11 0.11,0 0.91,0.76 0.91,1.93 z"
   inkscape:connector-curvature="0"
   style="fill:#000000;stroke-width:0" />
<path
   id="path6816"
   d="m 238.53,713.48 0,0.01 0,0.01 0,0.02 0,0.01 0,0 0,0.01 0,0.01 0,0.01 0,0.01 0,0.01 0,0.01 0,0.01 0,0 0,0.01 0,0.01 0,0 0,0.01 0,0.01 0,0.01 -0.01,0.01 0,0.01 0,0.01 -0.01,0.01 0,0 0,0.01 -0.01,0.01 -0.01,0 0,0.01 -0.01,0 -0.01,0.01 -0.01,0 0,0 -0.01,0 0,0 -0.01,0 0,0 -0.01,0.01 -0.01,0 0,0 -0.01,0 -0.01,0 0,0 -0.01,0 -0.01,0 -0.01,0 -0.01,0 -0.01,0 0,0 -0.01,0 -0.01,0 -0.01,0 -0.02,0 c -0.61,-0.64 -1.49,-0.64 -1.81,-0.64 v -0.3 c 0.2,0 0.79,0 1.31,0.25 v -5.14 c 0,-0.36 -0.03,-0.48 -0.93,-0.48 h -0.32 v -0.31 c 0.35,0.04 1.22,0.04 1.62,0.04 0.39,0 1.26,0 1.61,-0.04 v 0.31 h -0.32 c -0.9,0 -0.93,0.11 -0.93,0.48 z"
   inkscape:connector-curvature="0"
   style="fill:#000000;stroke-width:0" />
<polygon
   id="polygon6818"
   points="240.81,705.04 240.81,704.64 242.17,704.64 242.17,714.58 240.81,714.58 240.81,714.18 241.77,714.18 241.77,705.04 "
   style="fill:#000000;stroke-width:0" />
</g>      <g
         style="font-style:normal;font-variant:normal;font-weight:normal;font-stretch:normal;letter-spacing:normal;word-spacing:normal;text-anchor:start;fill:none;stroke:#000000;stroke-linecap:butt;stroke-linejoin:miter;stroke-miterlimit:10.43299961;stroke-opacity:1;stroke-dasharray:none;stroke-dashoffset:0"
         ns0:preamble=""
         ns0:text="\\textit{Erdos-Renyi \\&amp; Watts-Strogatz}"
         word-spacing="normal"
         letter-spacing="normal"
         font-size-adjust="none"
         font-stretch="normal"
         font-weight="normal"
         font-variant="normal"
         font-style="normal"
         stroke-miterlimit="10.433"
         xml:space="preserve"
         transform="matrix(2.229646,0,0,-2.229646,67.24706,1656.9847)"
         id="g7922">
<path
   id="path7924"
   d="m 230.23,709.46 0,0 0,0 0,0 0,0 0,0.01 0,0 0,0 0,0.01 0.01,0 0,0 0,0.01 0,0 0,0.01 0,0 0.01,0.01 0,0.01 0,0.01 0,0 0.01,0.01 0,0 0,0.01 0,0 0,0 0,0.01 0,0 0,0.01 0,0 0.01,0 0,0 0,0 0,0 0,0.01 0,0 0,0 0,0 0,0 0,0 c 0,0.11 -0.12,0.11 -0.15,0.11 -0.11,0 -0.12,-0.01 -0.21,-0.24 -0.58,-1.37 -0.93,-2.02 -2.51,-2.02 h -1.21 c -0.31,0 -0.31,0.03 -0.31,0.1 0,0.06 0.03,0.16 0.04,0.22 l 0.69,2.73 h 0.86 c 0.68,0 0.75,-0.16 0.75,-0.43 0,-0.06 -0.01,-0.21 -0.09,-0.5 0,-0.02 -0.02,-0.08 -0.02,-0.11 0,-0.12 0.1,-0.12 0.16,-0.12 0.11,0 0.14,0.02 0.18,0.2 l 0.54,2.19 c 0.01,0.02 0.03,0.1 0.03,0.12 0,0.12 -0.12,0.12 -0.16,0.12 -0.12,0 -0.12,-0.03 -0.18,-0.24 -0.19,-0.7 -0.38,-0.92 -1.19,-0.92 h -0.81 l 0.61,2.44 c 0.08,0.33 0.15,0.34 0.48,0.34 h 1.24 c 1.08,0 1.33,-0.3 1.33,-1 0,-0.27 -0.02,-0.4 -0.05,-0.64 -0.01,-0.05 -0.02,-0.14 -0.02,-0.17 0,-0.11 0.11,-0.11 0.15,-0.11 0.14,0 0.15,0.03 0.17,0.21 l 0.22,1.76 c 0.03,0.26 -0.03,0.26 -0.23,0.26 h -4.65 c -0.17,0 -0.27,0 -0.27,-0.18 0,-0.13 0.07,-0.13 0.27,-0.13 0.58,0 0.58,-0.08 0.58,-0.17 0,-0.01 0,-0.08 -0.04,-0.23 l -1.34,-5.32 c -0.08,-0.34 -0.14,-0.42 -0.81,-0.42 -0.16,0 -0.27,0 -0.27,-0.19 0,-0.12 0.09,-0.12 0.25,-0.12 h 4.76 c 0.2,0 0.21,0.02 0.28,0.16 z"
   inkscape:connector-curvature="0"
   style="fill:#000000;stroke-width:0" />
<path
   id="path7926"
   d="m 232.76,709.99 0,0 0,0 0,0.01 0,0.01 0.01,0 0,0.02 0.01,0.01 0,0.01 0.01,0.02 0,0.01 0.01,0.02 0.01,0.02 0.02,0.04 0.02,0.04 0.02,0.05 0.02,0.05 0.03,0.06 0.03,0.05 0.03,0.06 0.04,0.06 0.04,0.06 0.04,0.06 0.04,0.06 0.04,0.06 0.05,0.06 0.05,0.06 0.05,0.06 0.06,0.05 0.06,0.05 0.05,0.05 0.07,0.04 0.06,0.04 0.03,0.02 0.04,0.01 0.03,0.02 0.04,0.01 0.03,0.01 0.04,0.02 0.04,0 0.03,0.01 0.04,0.01 0.04,0 0.04,0.01 0.04,0 c 0.05,0 0.33,0 0.53,-0.14 -0.35,-0.11 -0.38,-0.43 -0.38,-0.48 0,-0.13 0.09,-0.32 0.35,-0.32 0.18,0 0.48,0.14 0.48,0.53 0,0.52 -0.64,0.63 -0.97,0.63 -0.69,0 -1.04,-0.5 -1.2,-0.72 -0.11,0.53 -0.5,0.72 -0.83,0.72 -0.36,0 -0.56,-0.23 -0.72,-0.53 -0.18,-0.4 -0.32,-0.98 -0.32,-1 0,-0.1 0.11,-0.1 0.15,-0.1 0.13,0 0.14,0.01 0.19,0.22 0.18,0.7 0.37,1.19 0.68,1.19 0.26,0 0.26,-0.29 0.26,-0.4 0,-0.16 -0.03,-0.35 -0.07,-0.51 l -0.75,-2.98 c -0.02,-0.06 -0.03,-0.11 -0.03,-0.14 0,-0.11 0.08,-0.25 0.28,-0.25 0.3,0 0.37,0.28 0.39,0.36 z"
   inkscape:connector-curvature="0"
   style="fill:#000000;stroke-width:0" />
<path
   id="path7928"
   d="m 239.42,713.77 0,0 0.01,0.01 0,0 0,0 0,0.01 0,0 0,0.01 0,0 0,0.01 0.01,0 0,0.01 0,0.01 0,0.01 0.01,0.01 0,0 0,0.01 0,0 0,0.01 0,0 0,0.01 0,0 0,0 0,0.01 0,0 0,0 0,0.01 0,0 0,0 c 0,0.09 -0.05,0.12 -0.13,0.12 -0.03,0 -0.13,-0.01 -0.16,-0.02 l -0.99,-0.08 c -0.12,-0.01 -0.23,-0.02 -0.23,-0.21 0,-0.11 0.1,-0.11 0.24,-0.11 0.48,0 0.5,-0.07 0.5,-0.17 0,-0.03 -0.03,-0.16 -0.03,-0.17 l -0.58,-2.32 c -0.15,0.31 -0.42,0.58 -0.83,0.58 -1.11,0 -2.28,-1.51 -2.28,-2.97 0,-0.84 0.45,-1.53 1.2,-1.53 l 0.02,0.21 c -0.47,0 -0.55,0.59 -0.55,0.89 0,0.49 0.31,1.66 0.49,2.08 0.25,0.6 0.71,1.1 1.12,1.1 0.08,0 0.3,-0.01 0.48,-0.29 0.1,-0.16 0.2,-0.45 0.2,-0.64 0,-0.03 -0.01,-0.07 -0.03,-0.13 l -0.48,-1.9 c -0.07,-0.31 -0.68,-1.11 -1.23,-1.11 l -0.02,-0.21 c 0.36,0 0.8,0.2 1.19,0.69 0.11,-0.49 0.48,-0.69 0.83,-0.69 0.37,0 0.58,0.24 0.73,0.55 0.18,0.38 0.3,0.96 0.3,0.98 0,0.1 -0.08,0.1 -0.15,0.1 -0.12,0 -0.13,-0.01 -0.19,-0.23 -0.14,-0.56 -0.33,-1.19 -0.67,-1.19 -0.26,0 -0.26,0.27 -0.26,0.41 0,0.07 0,0.22 0.06,0.46 z"
   inkscape:connector-curvature="0"
   style="fill:#000000;stroke-width:0" />
<path
   id="path7930"
   d="m 244.04,709.89 0,0.08 -0.01,0.09 -0.01,0.09 -0.01,0.08 -0.01,0.08 -0.02,0.08 -0.02,0.07 -0.03,0.08 -0.02,0.07 -0.03,0.07 -0.04,0.07 -0.03,0.07 -0.04,0.06 -0.04,0.06 -0.05,0.06 -0.04,0.06 -0.05,0.05 -0.05,0.05 -0.06,0.05 -0.05,0.04 -0.06,0.04 -0.06,0.04 -0.07,0.03 -0.06,0.03 -0.07,0.03 -0.07,0.03 -0.07,0.02 -0.07,0.01 -0.08,0.02 -0.07,0.01 -0.08,0 -0.08,0.01 c -1.24,0 -2.52,-1.42 -2.52,-2.86 0,-1.03 0.63,-1.64 1.45,-1.64 v 0.21 c -0.39,0 -0.76,0.31 -0.76,1.03 0,0.49 0.26,1.6 0.58,2.13 0.37,0.61 0.85,0.91 1.24,0.91 0.48,0 0.76,-0.44 0.76,-1.03 0,-0.42 -0.22,-1.45 -0.54,-2.04 -0.28,-0.55 -0.79,-1 -1.28,-1 h 0 v -0.21 c 1.24,0 2.52,1.41 2.52,2.87 z"
   inkscape:connector-curvature="0"
   style="fill:#000000;stroke-width:0" />
<path
   id="path7932"
   d="m 246.52,709.08 0.09,-0.02 0.08,-0.02 0.08,-0.02 0.04,-0.01 0.04,-0.01 0.04,-0.01 0.03,-0.01 0.04,-0.02 0.04,-0.01 0.03,-0.02 0.04,-0.01 0.03,-0.02 0.03,-0.02 0.03,-0.02 0.03,-0.02 0.03,-0.03 0.02,-0.02 0.03,-0.03 0.02,-0.02 0.02,-0.03 0.02,-0.04 0.02,-0.03 0.01,-0.03 0.02,-0.04 0.01,-0.04 0.01,-0.04 0,-0.05 0.01,-0.02 0,-0.02 0,-0.03 0,-0.02 c 0,-0.32 -0.27,-1.12 -1.29,-1.12 -0.22,0 -0.8,0.05 -0.96,0.56 0.51,0.05 0.51,0.47 0.51,0.49 0,0.19 -0.13,0.31 -0.34,0.31 -0.23,0 -0.51,-0.16 -0.51,-0.61 0,-0.61 0.58,-0.96 1.29,-0.96 1.49,0 1.87,1.21 1.87,1.66 0,0.87 -0.78,1.05 -1.19,1.14 -0.28,0.06 -0.63,0.14 -0.63,0.56 0,0.24 0.21,0.92 1,0.92 0.27,0 0.64,-0.1 0.75,-0.49 -0.32,-0.04 -0.4,-0.31 -0.4,-0.41 0,-0.11 0.06,-0.28 0.3,-0.28 0.17,0 0.43,0.12 0.43,0.55 0,0.46 -0.41,0.85 -1.07,0.85 -1.16,0 -1.57,-0.96 -1.57,-1.47 0,-0.77 0.64,-0.91 0.92,-0.97 z"
   inkscape:connector-curvature="0"
   style="fill:#000000;stroke-width:0" />
<path
   id="path7934"
   d="m 251.16,708.98 0.02,0 0.02,0 0.01,0 0.02,0 0.01,0 0.02,0 0.01,0 0.01,0 0.01,0.01 0.02,0 0.01,0 0.01,0 0,0 0.01,0 0.01,0.01 0.01,0 0.01,0 0,0 0.01,0.01 0.01,0 0,0.01 0.01,0 0,0.01 0.01,0 0,0.01 0,0.01 0.01,0 0,0.01 0,0.01 0.01,0.01 0,0.01 0,0.01 c 0.02,0.06 0.08,0.28 0.08,0.32 0,0.12 -0.09,0.12 -0.25,0.12 h -1.94 c -0.2,0 -0.22,0 -0.25,-0.13 -0.02,-0.06 -0.07,-0.25 -0.07,-0.3 0,-0.13 0.07,-0.13 0.26,-0.13 z"
   inkscape:connector-curvature="0"
   style="fill:#000000;stroke-width:0" />
<path
   id="path7936"
   d="m 256.76,710.49 0.13,0.04 0.13,0.04 0.12,0.04 0.11,0.04 0.12,0.04 0.11,0.05 0.1,0.05 0.1,0.06 0.1,0.05 0.09,0.06 0.09,0.05 0.08,0.06 0.08,0.07 0.08,0.06 0.07,0.06 0.06,0.07 0.07,0.06 0.05,0.07 0.06,0.07 0.05,0.07 0.05,0.07 0.04,0.07 0.04,0.07 0.03,0.07 0.03,0.07 0.03,0.07 0.02,0.07 0.02,0.07 0.01,0.07 0.01,0.07 0.01,0.07 0,0.07 c 0,0.78 -0.76,1.47 -2,1.47 h -2.63 c -0.16,0 -0.27,0 -0.27,-0.19 0,-0.12 0.08,-0.12 0.27,-0.12 0.31,0 0.58,0 0.58,-0.17 0,-0.03 0,-0.05 -0.04,-0.19 l -1.34,-5.39 c -0.08,-0.34 -0.14,-0.42 -0.82,-0.42 -0.16,0 -0.27,0 -0.27,-0.19 0,-0.12 0.11,-0.12 0.14,-0.12 0.38,0 0.78,0.04 1.15,0.04 0.39,0 0.8,-0.04 1.19,-0.04 0.07,0 0.19,0 0.19,0.18 0,0.13 -0.07,0.13 -0.27,0.13 -0.58,0 -0.58,0.08 -0.58,0.17 0,0.04 0,0.06 0.04,0.2 l 0.65,2.61 h 1.07 l -0.01,0.22 h -1 l 0.64,2.61 c 0.08,0.3 0.15,0.32 0.22,0.34 0.07,0.02 0.39,0.02 0.58,0.02 0.64,0 1.61,0 1.61,-0.93 0,-0.06 -0.04,-0.99 -0.57,-1.52 -0.3,-0.29 -0.8,-0.52 -1.48,-0.52 l 0.01,-0.22 c 0.42,0 0.94,-0.16 0.94,-0.87 0,-0.14 -0.03,-0.23 -0.17,-0.79 -0.11,-0.46 -0.15,-0.6 -0.15,-0.79 0,-0.74 0.61,-1.05 1.23,-1.05 0.84,0 1.14,1.05 1.14,1.13 0,0.07 -0.02,0.13 -0.15,0.13 -0.13,0 -0.14,-0.05 -0.17,-0.17 -0.17,-0.56 -0.47,-0.88 -0.78,-0.88 -0.29,0 -0.32,0.27 -0.32,0.59 0,0.26 0.03,0.5 0.06,0.76 0.03,0.22 0.07,0.66 0.07,0.87 0,0.56 -0.34,0.97 -0.85,1.15 z"
   inkscape:connector-curvature="0"
   style="fill:#000000;stroke-width:0" />
<path
   id="path7938"
   d="m 260.84,709.42 0.03,0 0.03,0 0.03,0 0.04,0 0.04,0 0.03,0 0.04,0.01 0.05,0 0.04,0 0.04,0 0.05,0.01 0.04,0 0.1,0.01 0.1,0.01 0.1,0.01 0.1,0.02 0.1,0.01 0.1,0.02 0.1,0.03 0.1,0.02 0.05,0.02 0.04,0.01 0.05,0.02 0.04,0.02 c 0.79,0.32 0.79,0.96 0.79,1.03 0,0.46 -0.37,0.85 -1,0.85 v -0.22 c 0.39,0 0.62,-0.27 0.62,-0.61 0,-1.05 -1.64,-1.05 -1.97,-1.05 h -0.21 c 0.43,1.63 1.46,1.66 1.56,1.66 v 0.22 c -1.05,0 -2.47,-1.01 -2.47,-2.77 0,-0.89 0.48,-1.73 1.42,-1.73 1.27,0 2.1,0.99 2.1,1.14 0,0.05 -0.08,0.16 -0.16,0.16 -0.04,0 -0.05,-0.01 -0.13,-0.11 -0.73,-0.94 -1.62,-0.98 -1.79,-0.98 -0.65,0 -0.76,0.71 -0.76,1.1 0,0.37 0.1,0.82 0.17,1.09 z"
   inkscape:connector-curvature="0"
   style="fill:#000000;stroke-width:0" />
<path
   id="path7940"
   d="m 265.33,708.86 0.02,0.08 0.02,0.09 0.02,0.08 0.02,0.08 0.02,0.08 0.02,0.08 0.02,0.08 0.02,0.08 c 0.13,0.51 0.13,0.52 0.3,0.8 0.14,0.24 0.59,0.99 1.35,0.99 0.43,0 0.45,-0.45 0.45,-0.66 0,-0.61 -0.44,-1.8 -0.57,-2.19 -0.13,-0.34 -0.16,-0.43 -0.16,-0.64 0,-0.44 0.28,-0.79 0.75,-0.79 0.93,0 1.27,1.48 1.27,1.53 0,0.1 -0.08,0.1 -0.15,0.1 -0.13,0 -0.13,-0.03 -0.17,-0.17 -0.08,-0.27 -0.35,-1.25 -0.93,-1.25 -0.21,0 -0.22,0.15 -0.22,0.29 0,0.25 0.1,0.51 0.18,0.75 0.2,0.52 0.61,1.64 0.61,2.21 0,0.82 -0.55,1.04 -1.03,1.04 -0.82,0 -1.3,-0.6 -1.43,-0.79 -0.07,0.49 -0.41,0.79 -0.83,0.79 -0.36,0 -0.56,-0.23 -0.72,-0.53 -0.19,-0.4 -0.32,-0.98 -0.32,-1 0,-0.1 0.1,-0.1 0.15,-0.1 0.13,0 0.14,0.01 0.19,0.22 0.18,0.7 0.37,1.19 0.68,1.19 0.26,0 0.26,-0.29 0.26,-0.4 0,-0.16 -0.03,-0.35 -0.07,-0.51 l -0.75,-2.98 c -0.02,-0.06 -0.03,-0.11 -0.03,-0.14 0,-0.11 0.08,-0.25 0.28,-0.25 0.12,0 0.29,0.07 0.36,0.25 z"
   inkscape:connector-curvature="0"
   style="fill:#000000;stroke-width:0" />
<path
   id="path7942"
   d="m 272.2,707.38 -0.04,-0.15 -0.04,-0.14 -0.04,-0.14 -0.04,-0.13 -0.04,-0.12 -0.05,-0.12 -0.04,-0.11 -0.05,-0.1 -0.05,-0.1 -0.05,-0.09 -0.05,-0.09 -0.06,-0.08 -0.05,-0.08 -0.05,-0.07 -0.06,-0.07 -0.05,-0.06 -0.06,-0.06 -0.05,-0.05 -0.06,-0.05 -0.05,-0.04 -0.06,-0.04 -0.05,-0.03 -0.06,-0.03 -0.05,-0.03 -0.06,-0.02 -0.05,-0.02 -0.05,-0.02 -0.06,-0.01 -0.05,-0.01 -0.05,-0.01 -0.05,0 -0.04,0 c -0.48,0 -0.62,0.37 -0.62,0.42 0,0.01 0.01,0.02 0.08,0.03 0.31,0.05 0.43,0.32 0.43,0.48 0,0.21 -0.16,0.32 -0.34,0.32 -0.12,0 -0.51,-0.06 -0.51,-0.62 0,-0.51 0.41,-0.85 0.96,-0.85 1.03,0 1.94,1.02 2.19,2 l 0.97,3.92 c 0.01,0.06 0.03,0.11 0.03,0.14 0,0.11 -0.08,0.26 -0.28,0.26 -0.3,0 -0.37,-0.29 -0.39,-0.37 l -0.72,-2.92 c -0.07,-0.29 -0.47,-0.89 -1.06,-0.89 -0.44,0 -0.53,0.44 -0.53,0.77 0,0.6 0.32,1.5 0.57,2.17 0.08,0.21 0.13,0.35 0.13,0.54 0,0.5 -0.33,0.81 -0.75,0.81 -0.93,0 -1.28,-1.47 -1.28,-1.53 0,-0.1 0.1,-0.1 0.15,-0.1 0.13,0 0.14,0.02 0.18,0.16 0.08,0.3 0.35,1.25 0.93,1.25 0.11,0 0.22,-0.03 0.22,-0.29 0,-0.24 -0.1,-0.51 -0.24,-0.9 -0.26,-0.69 -0.52,-1.43 -0.52,-1.94 0,-0.87 0.58,-1.15 1.11,-1.15 0.46,0 0.77,0.23 0.9,0.36 z"
   inkscape:connector-curvature="0"
   style="fill:#000000;stroke-width:0" />
<path
   id="path7944"
   d="m 276.78,708.55 0,0 0,0.01 0,0 0,0 0,0.01 0,0 0,0.01 -0.01,0 0,0 0,0.01 0,0 0,0 0,0 0,0.01 0,0 -0.01,0 0,0.01 0,0 0,0 -0.01,0.01 0,0 -0.01,0 0,0.01 -0.01,0 0,0 -0.01,0 0,0.01 -0.01,0 0,0 -0.01,0 -0.01,0 0,0 -0.01,0 0,0 -0.01,0 -0.01,0 -0.02,0 -0.01,0.01 c -0.13,0 -0.13,-0.03 -0.17,-0.17 -0.08,-0.29 -0.35,-1.25 -0.93,-1.25 -0.08,0 -0.21,0.01 -0.21,0.28 0,0.26 0.13,0.59 0.25,0.96 l 0.64,1.69 c 0.1,0.29 0.12,0.37 0.12,0.56 0,0.55 -0.38,0.8 -0.75,0.8 -0.93,0 -1.27,-1.48 -1.27,-1.53 0,-0.1 0.1,-0.1 0.15,-0.1 0.13,0 0.14,0.02 0.18,0.16 0.09,0.32 0.35,1.25 0.92,1.25 0.11,0 0.22,-0.05 0.22,-0.28 0,-0.24 -0.11,-0.53 -0.18,-0.72 l -0.29,-0.82 c -0.13,-0.33 -0.25,-0.66 -0.37,-0.98 -0.14,-0.38 -0.18,-0.49 -0.18,-0.69 0,-0.39 0.24,-0.79 0.76,-0.79 0.93,0 1.26,1.49 1.26,1.53 z"
   inkscape:connector-curvature="0"
   style="fill:#000000;stroke-width:0" />
<path
   id="path7946"
   d="m 276.73,713.31 0,0.02 0,0.01 0,0.01 0,0.01 -0.01,0.01 0,0.01 0,0.02 -0.01,0.02 0,0.02 -0.01,0.01 -0.01,0.02 0,0.02 -0.01,0.01 -0.01,0.01 -0.01,0.02 -0.01,0.01 -0.01,0.01 -0.02,0.01 -0.01,0.01 -0.01,0.01 -0.01,0.01 -0.02,0.01 -0.01,0 -0.02,0.01 -0.01,0.01 -0.01,0 -0.02,0.01 -0.01,0 -0.02,0 -0.01,0.01 -0.02,0 -0.01,0 -0.01,0 -0.02,0 -0.01,0 c -0.21,0 -0.48,-0.2 -0.48,-0.48 0,-0.24 0.2,-0.32 0.34,-0.32 0.2,0 0.48,0.19 0.48,0.47 z"
   inkscape:connector-curvature="0"
   style="fill:#000000;stroke-width:0" />
<path
   id="path7948"
   d="m 286.84,711.76 0.09,0.07 0.08,0.07 0.08,0.07 0.08,0.07 0.07,0.07 0.07,0.07 0.07,0.08 0.06,0.07 0.06,0.08 0.06,0.08 0.05,0.07 0.05,0.08 0.05,0.07 0.04,0.08 0.04,0.07 0.04,0.07 0.04,0.07 0.03,0.07 0.03,0.07 0.03,0.06 0.02,0.06 0.03,0.06 0.02,0.06 0.01,0.05 0.02,0.05 0.01,0.05 0.01,0.04 0.01,0.04 0.01,0.03 0,0.03 0.01,0.02 0,0.02 c 0,0.21 -0.17,0.31 -0.33,0.31 -0.21,0 -0.47,-0.17 -0.47,-0.47 0,-0.19 0.12,-0.3 0.34,-0.31 -0.35,-0.86 -1.04,-1.3 -1.51,-1.59 -0.49,-0.3 -1.16,-0.72 -1.16,-1.42 0,-0.43 0.28,-0.7 0.63,-0.7 0.29,0 0.48,0.23 0.48,0.47 0,0.22 -0.17,0.3 -0.32,0.3 -0.21,0 -0.38,-0.14 -0.45,-0.31 -0.03,0.08 -0.03,0.13 -0.03,0.21 0,0.58 0.37,0.81 1.28,1.38 0.42,-0.54 0.52,-0.98 0.52,-1.4 0,-0.79 -0.57,-3.06 -3.17,-3.06 -0.79,0 -1.8,0.35 -1.8,1.55 0,0.56 0.27,1.44 0.5,1.85 0.03,-0.03 0.34,-0.32 0.81,-0.32 0.52,0 0.96,0.45 0.96,0.91 0,0.38 -0.27,0.6 -0.63,0.6 v -0.22 c 0.16,0 0.33,-0.08 0.33,-0.33 0,-0.36 -0.27,-0.74 -0.64,-0.74 -0.3,0 -0.5,0.2 -0.6,0.47 h 0 c 0.1,0.13 0.48,0.6 0.91,0.6 v 0.22 c -0.3,0 -0.65,-0.12 -0.98,-0.34 0.03,1.02 0.62,2.65 1.55,2.65 0.29,0 0.73,-0.18 0.74,-0.91 -0.56,0 -0.56,-0.47 -0.56,-0.48 0,-0.13 0.08,-0.32 0.34,-0.32 0.5,0 0.53,0.61 0.53,0.78 0,0.61 -0.37,1.15 -1.05,1.15 -1.07,0 -2.12,-1.33 -2.12,-2.58 0,-0.13 0,-0.32 0.09,-0.6 0.02,-0.05 0.02,-0.06 0.02,-0.07 0,-0.02 -0.02,-0.04 -0.03,-0.06 -0.72,-0.77 -0.93,-1.69 -0.93,-2.06 0,-1.03 0.91,-1.96 2.55,-1.96 2.76,0 3.5,2.31 3.5,3.3 0,0.6 -0.22,1.1 -0.57,1.55 z"
   inkscape:connector-curvature="0"
   style="fill:#000000;stroke-width:0" />
<path
   id="path7950"
   d="m 301.29,712.79 0.03,0.05 0.03,0.06 0.03,0.05 0.03,0.05 0.03,0.04 0.03,0.05 0.03,0.04 0.03,0.04 0.03,0.04 0.03,0.03 0.03,0.03 0.03,0.04 0.03,0.02 0.03,0.03 0.03,0.03 0.03,0.02 0.03,0.02 0.03,0.02 0.03,0.02 0.03,0.02 0.03,0.01 0.04,0.02 0.03,0.01 0.04,0.01 0.03,0.02 0.04,0 0.04,0.01 0.04,0.01 0.04,0.01 0.04,0 0.04,0.01 0.05,0 c 0.1,0.01 0.13,0.1 0.13,0.2 0,0.01 0,0.11 -0.11,0.11 -0.23,0 -0.49,-0.03 -0.73,-0.03 -0.32,0 -0.67,0.03 -0.99,0.03 -0.05,0 -0.19,0 -0.19,-0.19 0,-0.11 0.09,-0.12 0.16,-0.12 0.17,-0.01 0.51,-0.07 0.51,-0.38 0,-0.12 -0.05,-0.2 -0.11,-0.31 l -2.51,-4.63 -0.22,4.88 c -0.01,0.01 -0.01,0.04 -0.01,0.07 0,0.17 0.06,0.36 0.7,0.37 0.08,0 0.2,0 0.2,0.2 0,0.09 -0.08,0.11 -0.14,0.11 -0.37,0 -0.75,-0.03 -1.12,-0.03 -0.32,0 -0.67,0.03 -0.98,0.03 -0.04,0 -0.18,0 -0.18,-0.19 0,-0.12 0.11,-0.12 0.21,-0.12 0.42,0 0.46,-0.06 0.48,-0.21 0.01,-0.04 0.04,-0.65 0.04,-0.66 0,-0.08 0,-0.1 -0.06,-0.2 l -2.32,-4.25 -0.22,4.86 c -0.01,0.2 -0.02,0.45 0.65,0.46 0.14,0 0.25,0 0.25,0.19 0,0.12 -0.11,0.12 -0.14,0.12 -0.37,0 -0.76,-0.03 -1.12,-0.03 -0.32,0 -0.67,0.03 -0.98,0.03 -0.04,0 -0.18,0 -0.18,-0.19 0,-0.12 0.1,-0.12 0.24,-0.12 0.45,0 0.45,-0.08 0.46,-0.32 l 0.28,-6.12 c 0.01,-0.21 0.03,-0.25 0.18,-0.25 0.14,0 0.17,0.05 0.25,0.19 l 2.74,5 0.22,-4.94 c 0.01,-0.19 0.01,-0.25 0.18,-0.25 0.08,0 0.16,0 0.26,0.18 z"
   inkscape:connector-curvature="0"
   style="fill:#000000;stroke-width:0" />
<path
   id="path7952"
   d="m 304.73,707.71 0.01,-0.04 0.01,-0.05 0.01,-0.04 0.02,-0.04 0.02,-0.04 0.01,-0.03 0.02,-0.04 0.02,-0.03 0.02,-0.04 0.03,-0.03 0.02,-0.03 0.02,-0.02 0.03,-0.03 0.02,-0.02 0.03,-0.03 0.03,-0.02 0.03,-0.02 0.03,-0.02 0.03,-0.02 0.03,-0.01 0.03,-0.02 0.03,-0.01 0.03,-0.01 0.03,-0.01 0.03,-0.01 0.04,-0.01 0.03,-0.01 0.03,0 0.03,-0.01 0.04,0 0.03,0 0.03,0 c 0.37,0 0.58,0.24 0.73,0.55 0.18,0.38 0.3,0.96 0.3,0.98 0,0.1 -0.08,0.1 -0.15,0.1 -0.12,0 -0.13,-0.01 -0.19,-0.23 -0.14,-0.56 -0.33,-1.19 -0.67,-1.19 -0.26,0 -0.26,0.27 -0.26,0.41 0,0.07 0,0.23 0.07,0.51 l 0.68,2.7 c 0.04,0.14 0.04,0.16 0.04,0.21 0,0.21 -0.17,0.26 -0.27,0.26 -0.32,0 -0.39,-0.34 -0.4,-0.39 -0.19,0.43 -0.51,0.59 -0.82,0.59 -1.11,0 -2.28,-1.51 -2.28,-2.97 0,-0.84 0.46,-1.53 1.2,-1.53 l 0.02,0.21 c -0.47,0 -0.54,0.59 -0.54,0.89 0,0.49 0.3,1.66 0.48,2.08 0.25,0.6 0.71,1.1 1.12,1.1 0.43,0 0.68,-0.52 0.68,-0.94 0,-0.02 -0.01,-0.07 -0.03,-0.13 h 0 l -0.46,-1.87 c -0.08,-0.32 -0.7,-1.13 -1.25,-1.13 l -0.02,-0.21 c 0.36,0 0.8,0.2 1.2,0.69 z"
   inkscape:connector-curvature="0"
   style="fill:#000000;stroke-width:0" />
<path
   id="path7954"
   d="m 308.93,711.1 h 0.85 c 0.17,0 0.28,0 0.28,0.19 0,0.12 -0.09,0.12 -0.25,0.12 h -0.8 l 0.37,1.47 c 0.04,0.14 0.04,0.16 0.04,0.21 0,0.2 -0.17,0.25 -0.27,0.25 -0.25,0 -0.35,-0.2 -0.39,-0.35 l -0.38,-1.58 h -0.85 c -0.17,0 -0.28,0 -0.28,-0.19 0,-0.12 0.09,-0.12 0.25,-0.12 h 0.8 l -0.72,-2.85 c -0.01,-0.04 -0.05,-0.2 -0.05,-0.34 0,-0.5 0.33,-0.89 0.85,-0.89 1,0 1.51,1.48 1.51,1.53 0,0.1 -0.08,0.1 -0.15,0.1 -0.12,0 -0.12,-0.01 -0.2,-0.19 -0.18,-0.48 -0.58,-1.23 -1.15,-1.23 -0.26,0 -0.26,0.25 -0.26,0.41 0,0.07 0,0.23 0.07,0.51 z"
   inkscape:connector-curvature="0"
   style="fill:#000000;stroke-width:0" />
<path
   id="path7956"
   d="m 312.24,711.1 h 0.85 c 0.17,0 0.28,0 0.28,0.19 0,0.12 -0.09,0.12 -0.25,0.12 h -0.8 l 0.37,1.47 c 0.04,0.14 0.04,0.16 0.04,0.21 0,0.2 -0.17,0.25 -0.27,0.25 -0.25,0 -0.35,-0.2 -0.39,-0.35 l -0.39,-1.58 h -0.84 c -0.17,0 -0.28,0 -0.28,-0.19 0,-0.12 0.09,-0.12 0.25,-0.12 h 0.8 l -0.72,-2.85 c -0.01,-0.04 -0.05,-0.2 -0.05,-0.34 0,-0.5 0.33,-0.89 0.84,-0.89 1.01,0 1.52,1.48 1.52,1.53 0,0.1 -0.08,0.1 -0.15,0.1 -0.12,0 -0.12,-0.01 -0.2,-0.19 -0.18,-0.48 -0.58,-1.23 -1.15,-1.23 -0.26,0 -0.26,0.25 -0.26,0.41 0,0.07 0,0.23 0.07,0.51 z"
   inkscape:connector-curvature="0"
   style="fill:#000000;stroke-width:0" />
<path
   id="path7958"
   d="m 315.42,709.08 0.08,-0.02 0.09,-0.02 0.08,-0.02 0.04,-0.01 0.04,-0.01 0.03,-0.01 0.04,-0.01 0.04,-0.02 0.03,-0.01 0.04,-0.02 0.03,-0.01 0.04,-0.02 0.03,-0.02 0.03,-0.02 0.03,-0.02 0.03,-0.03 0.02,-0.02 0.03,-0.03 0.02,-0.02 0.02,-0.03 0.02,-0.04 0.02,-0.03 0.01,-0.03 0.02,-0.04 0.01,-0.04 0.01,-0.04 0,-0.05 0.01,-0.02 0,-0.02 0,-0.03 0,-0.02 c 0,-0.32 -0.27,-1.12 -1.3,-1.12 -0.21,0 -0.79,0.05 -0.95,0.56 0.51,0.05 0.51,0.47 0.51,0.49 0,0.19 -0.13,0.31 -0.34,0.31 -0.23,0 -0.51,-0.16 -0.51,-0.61 0,-0.61 0.58,-0.96 1.28,-0.96 1.5,0 1.88,1.21 1.88,1.66 0,0.87 -0.78,1.05 -1.19,1.14 -0.28,0.06 -0.64,0.14 -0.64,0.56 0,0.24 0.21,0.92 1.01,0.92 0.27,0 0.64,-0.1 0.74,-0.49 -0.31,-0.04 -0.39,-0.31 -0.39,-0.41 0,-0.11 0.06,-0.28 0.3,-0.28 0.17,0 0.42,0.12 0.42,0.55 0,0.46 -0.4,0.85 -1.06,0.85 -1.17,0 -1.57,-0.96 -1.57,-1.47 0,-0.77 0.64,-0.91 0.92,-0.97 z"
   inkscape:connector-curvature="0"
   style="fill:#000000;stroke-width:0" />
<path
   id="path7960"
   d="m 320.06,708.98 0.02,0 0.02,0 0.01,0 0.02,0 0.01,0 0.02,0 0.01,0 0.01,0 0.01,0.01 0.01,0 0.01,0 0.01,0 0.01,0 0.01,0 0.01,0.01 0.01,0 0,0 0.01,0 0.01,0.01 0,0 0.01,0.01 0,0 0.01,0.01 0,0 0.01,0.01 0,0.01 0.01,0 0,0.01 0,0.01 0.01,0.01 0,0.01 0,0.01 c 0.02,0.06 0.08,0.28 0.08,0.32 0,0.12 -0.09,0.12 -0.25,0.12 h -1.94 c -0.2,0 -0.22,0 -0.26,-0.13 -0.02,-0.06 -0.07,-0.25 -0.07,-0.3 0,-0.13 0.08,-0.13 0.26,-0.13 z"
   inkscape:connector-curvature="0"
   style="fill:#000000;stroke-width:0" />
<path
   id="path7962"
   d="m 326.87,713.89 0,0 0,0.01 0,0.01 0.01,0 0,0.01 0,0.01 0,0.01 0,0.01 0,0.01 0.01,0.01 0,0.01 0,0.01 0,0.01 0,0 0,0.01 0,0.01 0,0 0,0.01 0,0 c 0,0.02 -0.01,0.1 -0.11,0.1 -0.05,0 -0.06,-0.01 -0.15,-0.12 l -0.45,-0.56 c -0.38,0.67 -1.09,0.68 -1.29,0.68 -1.22,0 -2.31,-1.22 -2.31,-2.37 0,-0.51 0.22,-1.04 0.8,-1.31 0.06,-0.03 0.28,-0.09 0.43,-0.13 l 0.48,-0.14 c 0.52,-0.14 0.6,-0.17 0.77,-0.35 0.11,-0.14 0.22,-0.36 0.22,-0.72 0,-0.9 -0.78,-1.9 -1.66,-1.9 -0.75,0 -1.5,0.36 -1.5,1.39 0,0.23 0.05,0.5 0.08,0.61 0,0.02 0.01,0.04 0.01,0.06 0,0.11 -0.09,0.11 -0.14,0.11 -0.12,0 -0.14,-0.02 -0.18,-0.17 l -0.52,-2.07 c -0.02,-0.07 -0.03,-0.1 -0.03,-0.13 0,-0.06 0.05,-0.1 0.11,-0.1 0.07,0 0.08,0.02 0.16,0.12 0.11,0.12 0.37,0.43 0.47,0.56 0.36,-0.54 1,-0.68 1.52,-0.68 1.25,0 2.36,1.33 2.36,2.58 0,0.29 -0.07,0.69 -0.33,1.01 -0.25,0.31 -0.37,0.34 -1.32,0.62 -0.19,0.05 -0.49,0.14 -0.54,0.16 -0.34,0.15 -0.51,0.46 -0.51,0.87 0,0.82 0.77,1.7 1.61,1.7 0.94,0 1.21,-0.68 1.21,-1.41 0,-0.26 0,-0.33 -0.04,-0.55 l -0.02,-0.14 c 0,-0.09 0.1,-0.09 0.15,-0.09 0.11,0 0.14,0 0.18,0.17 z"
   inkscape:connector-curvature="0"
   style="fill:#000000;stroke-width:0" />
<path
   id="path7964"
   d="m 328.79,711.1 h 0.85 c 0.17,0 0.28,0 0.28,0.19 0,0.12 -0.09,0.12 -0.25,0.12 h -0.8 l 0.37,1.47 c 0.04,0.14 0.04,0.16 0.04,0.21 0,0.2 -0.17,0.25 -0.27,0.25 -0.25,0 -0.35,-0.2 -0.39,-0.35 l -0.39,-1.58 h -0.84 c -0.17,0 -0.28,0 -0.28,-0.19 0,-0.12 0.09,-0.12 0.25,-0.12 h 0.79 l -0.71,-2.85 c -0.01,-0.04 -0.05,-0.2 -0.05,-0.34 0,-0.5 0.33,-0.89 0.84,-0.89 1.01,0 1.52,1.48 1.52,1.53 0,0.1 -0.08,0.1 -0.15,0.1 -0.12,0 -0.12,-0.01 -0.2,-0.19 -0.18,-0.48 -0.58,-1.23 -1.15,-1.23 -0.27,0 -0.27,0.25 -0.27,0.41 0,0.07 0,0.23 0.07,0.51 z"
   inkscape:connector-curvature="0"
   style="fill:#000000;stroke-width:0" />
<path
   id="path7966"
   d="m 332.08,709.99 0,0 0,0 0,0.01 0.01,0.01 0,0 0,0.02 0.01,0.01 0,0.01 0.01,0.02 0.01,0.01 0,0.02 0.01,0.02 0.02,0.04 0.02,0.04 0.02,0.05 0.03,0.05 0.02,0.06 0.03,0.05 0.04,0.06 0.03,0.06 0.04,0.06 0.04,0.06 0.04,0.06 0.05,0.06 0.04,0.06 0.05,0.06 0.06,0.06 0.05,0.05 0.06,0.05 0.06,0.05 0.06,0.04 0.07,0.04 0.03,0.02 0.03,0.01 0.04,0.02 0.03,0.01 0.04,0.01 0.03,0.02 0.04,0 0.04,0.01 0.04,0.01 0.03,0 0.04,0.01 0.04,0 c 0.05,0 0.33,0 0.53,-0.14 -0.35,-0.11 -0.38,-0.43 -0.38,-0.48 0,-0.13 0.09,-0.32 0.35,-0.32 0.18,0 0.49,0.14 0.49,0.53 0,0.52 -0.65,0.63 -0.98,0.63 -0.68,0 -1.04,-0.5 -1.2,-0.72 -0.11,0.53 -0.5,0.72 -0.83,0.72 -0.35,0 -0.55,-0.23 -0.71,-0.53 -0.19,-0.4 -0.32,-0.98 -0.32,-1 0,-0.1 0.1,-0.1 0.15,-0.1 0.13,0 0.14,0.01 0.19,0.22 0.18,0.7 0.37,1.19 0.67,1.19 0.26,0 0.26,-0.29 0.26,-0.4 0,-0.16 -0.03,-0.35 -0.07,-0.51 l -0.74,-2.98 c -0.02,-0.06 -0.03,-0.11 -0.03,-0.14 0,-0.11 0.08,-0.25 0.28,-0.25 0.29,0 0.36,0.28 0.38,0.36 z"
   inkscape:connector-curvature="0"
   style="fill:#000000;stroke-width:0" />
<path
   id="path7968"
   d="m 338.27,709.89 0,0.08 -0.01,0.09 0,0.09 -0.02,0.08 -0.01,0.08 -0.02,0.08 -0.02,0.07 -0.02,0.08 -0.03,0.07 -0.03,0.07 -0.03,0.07 -0.04,0.07 -0.04,0.06 -0.04,0.06 -0.04,0.06 -0.05,0.06 -0.05,0.05 -0.05,0.05 -0.06,0.05 -0.05,0.04 -0.06,0.04 -0.06,0.04 -0.06,0.03 -0.07,0.03 -0.07,0.03 -0.07,0.03 -0.07,0.02 -0.07,0.01 -0.08,0.02 -0.07,0.01 -0.08,0 -0.08,0.01 c -1.24,0 -2.52,-1.42 -2.52,-2.86 0,-1.03 0.63,-1.64 1.45,-1.64 v 0.21 c -0.38,0 -0.75,0.31 -0.75,1.03 0,0.49 0.26,1.6 0.57,2.13 0.37,0.61 0.85,0.91 1.24,0.91 0.49,0 0.76,-0.44 0.76,-1.03 0,-0.42 -0.21,-1.45 -0.53,-2.04 -0.29,-0.55 -0.8,-1 -1.29,-1 h 0 v -0.21 c 1.24,0 2.52,1.41 2.52,2.87 z"
   inkscape:connector-curvature="0"
   style="fill:#000000;stroke-width:0" />
<path
   id="path7970"
   d="m 341.15,707.65 -0.21,-0.83 c -0.11,-0.5 -0.17,-0.71 -0.45,-1.05 -0.4,-0.46 -0.8,-0.46 -0.95,-0.46 -0.13,0 -0.44,0 -0.71,0.11 0.2,0.08 0.32,0.28 0.32,0.45 0,0.13 -0.09,0.32 -0.35,0.32 -0.17,0 -0.48,-0.14 -0.48,-0.53 0,-0.39 0.37,-0.57 1.2,-0.57 1.05,0 1.8,0.65 1.99,1.41 l 1.09,4.35 c 0.04,0.15 0.04,0.17 0.04,0.21 0,0.21 -0.17,0.26 -0.27,0.26 -0.12,0 -0.35,-0.08 -0.39,-0.37 -0.14,0.29 -0.41,0.57 -0.84,0.57 v -0.22 c 0.6,0 0.69,-0.84 0.69,-0.92 l -0.03,-0.14 -0.45,-1.8 c -0.08,-0.32 -0.68,-1.1 -1.23,-1.1 -0.54,0 -0.56,0.76 -0.56,0.87 0,0.47 0.3,1.64 0.51,2.1 0.25,0.54 0.69,0.99 1.07,0.99 v 0.22 c -1.11,0 -2.25,-1.47 -2.25,-2.87 0,-0.85 0.46,-1.53 1.21,-1.53 0.51,0 0.93,0.41 1.05,0.53 z"
   inkscape:connector-curvature="0"
   style="fill:#000000;stroke-width:0" />
<path
   id="path7972"
   d="m 345.85,707.71 0.01,-0.04 0.01,-0.05 0.01,-0.04 0.02,-0.04 0.01,-0.04 0.02,-0.03 0.02,-0.04 0.02,-0.03 0.02,-0.04 0.03,-0.03 0.02,-0.03 0.02,-0.02 0.03,-0.03 0.02,-0.02 0.03,-0.03 0.03,-0.02 0.03,-0.02 0.03,-0.02 0.03,-0.02 0.03,-0.01 0.03,-0.02 0.03,-0.01 0.03,-0.01 0.03,-0.01 0.03,-0.01 0.03,-0.01 0.04,-0.01 0.03,0 0.03,-0.01 0.04,0 0.03,0 0.03,0 c 0.37,0 0.58,0.24 0.73,0.55 0.18,0.38 0.3,0.96 0.3,0.98 0,0.1 -0.08,0.1 -0.15,0.1 -0.12,0 -0.13,-0.01 -0.19,-0.23 -0.14,-0.56 -0.33,-1.19 -0.67,-1.19 -0.26,0 -0.26,0.27 -0.26,0.41 0,0.07 0,0.23 0.07,0.51 l 0.68,2.7 c 0.04,0.14 0.04,0.16 0.04,0.21 0,0.21 -0.17,0.26 -0.27,0.26 -0.32,0 -0.39,-0.34 -0.4,-0.39 -0.19,0.43 -0.51,0.59 -0.82,0.59 -1.11,0 -2.28,-1.51 -2.28,-2.97 0,-0.84 0.45,-1.53 1.2,-1.53 l 0.02,0.21 c -0.47,0 -0.55,0.59 -0.55,0.89 0,0.49 0.31,1.66 0.49,2.08 0.25,0.6 0.71,1.1 1.12,1.1 0.43,0 0.68,-0.52 0.68,-0.94 0,-0.02 -0.01,-0.07 -0.03,-0.13 h 0 l -0.46,-1.87 c -0.08,-0.32 -0.7,-1.13 -1.25,-1.13 l -0.02,-0.21 c 0.36,0 0.8,0.2 1.2,0.69 z"
   inkscape:connector-curvature="0"
   style="fill:#000000;stroke-width:0" />
<path
   id="path7974"
   d="m 350.05,711.1 h 0.85 c 0.17,0 0.28,0 0.28,0.19 0,0.12 -0.09,0.12 -0.25,0.12 h -0.8 l 0.37,1.47 c 0.04,0.14 0.04,0.16 0.04,0.21 0,0.2 -0.17,0.25 -0.27,0.25 -0.25,0 -0.35,-0.2 -0.39,-0.35 l -0.39,-1.58 h -0.84 c -0.17,0 -0.28,0 -0.28,-0.19 0,-0.12 0.09,-0.12 0.25,-0.12 h 0.8 l -0.72,-2.85 c -0.01,-0.04 -0.05,-0.2 -0.05,-0.34 0,-0.5 0.33,-0.89 0.84,-0.89 1.01,0 1.52,1.48 1.52,1.53 0,0.1 -0.08,0.1 -0.15,0.1 -0.12,0 -0.12,-0.01 -0.2,-0.19 -0.18,-0.48 -0.58,-1.23 -1.14,-1.23 -0.27,0 -0.27,0.25 -0.27,0.41 0,0.07 0,0.23 0.07,0.51 z"
   inkscape:connector-curvature="0"
   style="fill:#000000;stroke-width:0" />
<path
   id="path7976"
   d="m 354.33,710 0.1,0.11 0.11,0.11 0.1,0.11 0.1,0.12 0.05,0.06 0.04,0.05 0.05,0.06 0.04,0.05 0.04,0.06 0.04,0.05 0.04,0.06 0.04,0.05 0.03,0.05 0.04,0.05 0.03,0.04 0.03,0.05 0.03,0.04 0.02,0.04 0.03,0.04 0.02,0.04 0.02,0.03 0.01,0.03 0.02,0.03 0.01,0.02 0.01,0.02 0.01,0.02 0,0.02 0,0.01 c 0,0.1 -0.08,0.1 -0.14,0.1 -0.12,0 -0.13,-0.01 -0.19,-0.13 -0.33,-0.57 -0.45,-0.62 -0.61,-0.62 -0.18,0 -0.28,0.1 -0.47,0.36 -0.12,0.16 -0.29,0.39 -0.61,0.39 -0.73,0 -1.16,-0.94 -1.16,-1.14 0,-0.09 0.07,-0.11 0.15,-0.11 0.12,0 0.13,0.02 0.18,0.14 0.07,0.22 0.36,0.47 0.73,0.47 0.2,0 0.38,-0.08 0.6,-0.18 0.33,-0.15 0.44,-0.15 0.59,-0.15 -0.15,-0.17 -0.24,-0.28 -0.4,-0.44 l -1.63,-1.61 c -0.56,-0.55 -1.04,-1.29 -1.04,-1.39 0,-0.09 0.09,-0.09 0.15,-0.09 0.11,0 0.12,0.02 0.16,0.08 0.14,0.21 0.41,0.66 0.79,0.66 0.21,0 0.29,-0.11 0.47,-0.36 0.16,-0.2 0.31,-0.38 0.62,-0.38 0.97,0 1.5,1.29 1.5,1.53 0,0.1 -0.12,0.1 -0.15,0.1 -0.12,0 -0.13,-0.04 -0.17,-0.16 -0.18,-0.5 -0.65,-0.84 -1.08,-0.84 -0.2,0 -0.36,0.07 -0.56,0.16 -0.3,0.13 -0.42,0.17 -0.61,0.17 -0.05,0 -0.13,0 -0.18,-0.01 0.07,0.08 0.28,0.33 0.55,0.61 z"
   inkscape:connector-curvature="0"
   style="fill:#000000;stroke-width:0" />
</g>    </g>
  </g>
</svg>
