<?xml version="1.0" encoding="UTF-8" standalone="no"?>
<!-- Created with Inkscape (http://www.inkscape.org/) -->

<svg
   xmlns:ns0="http://www.iki.fi/pav/software/textext/"
   xmlns:dc="http://purl.org/dc/elements/1.1/"
   xmlns:cc="http://creativecommons.org/ns#"
   xmlns:rdf="http://www.w3.org/1999/02/22-rdf-syntax-ns#"
   xmlns:svg="http://www.w3.org/2000/svg"
   xmlns="http://www.w3.org/2000/svg"
   xmlns:sodipodi="http://sodipodi.sourceforge.net/DTD/sodipodi-0.dtd"
   xmlns:inkscape="http://www.inkscape.org/namespaces/inkscape"
   width="1100"
   height="300"
   id="svg5359"
   version="1.1"
   inkscape:version="0.48.3.1 r9886"
   sodipodi:docname="im1.svg">
  <sodipodi:namedview
     id="base"
     pagecolor="#ffffff"
     bordercolor="#666666"
     borderopacity="1.0"
     inkscape:pageopacity="0.0"
     inkscape:pageshadow="2"
     inkscape:zoom="0.35"
     inkscape:cx="-98.408061"
     inkscape:cy="520"
     inkscape:document-units="px"
     inkscape:current-layer="layer1"
     showgrid="false"
     inkscape:window-width="1301"
     inkscape:window-height="744"
     inkscape:window-x="65"
     inkscape:window-y="24"
     inkscape:window-maximized="1"
     inkscape:showpageshadow="false"
     showborder="true" />
  <defs
     id="defs5361">
    <marker
       style="overflow:visible"
       id="Arrow1Lend"
       refX="0"
       refY="0"
       orient="auto"
       inkscape:stockid="Arrow1Lend">
      <path
         inkscape:connector-curvature="0"
         transform="matrix(-0.8,0,0,-0.8,-10,0)"
         style="fill-rule:evenodd;stroke:#000000;stroke-width:1pt"
         d="M 0,0 5,-5 -12.5,0 5,5 0,0 z"
         id="path4191" />
    </marker>
    <marker
       style="overflow:visible"
       id="marker5264"
       refX="0"
       refY="0"
       orient="auto"
       inkscape:stockid="Arrow1Lend">
      <path
         inkscape:connector-curvature="0"
         transform="matrix(-0.8,0,0,-0.8,-10,0)"
         style="fill-rule:evenodd;stroke:#000000;stroke-width:1pt"
         d="M 0,0 5,-5 -12.5,0 5,5 0,0 z"
         id="path5266" />
    </marker>
    <marker
       style="overflow:visible"
       id="marker5268"
       refX="0"
       refY="0"
       orient="auto"
       inkscape:stockid="Arrow1Lend">
      <path
         inkscape:connector-curvature="0"
         transform="matrix(-0.8,0,0,-0.8,-10,0)"
         style="fill-rule:evenodd;stroke:#000000;stroke-width:1pt"
         d="M 0,0 5,-5 -12.5,0 5,5 0,0 z"
         id="path5270" />
    </marker>
    <marker
       style="overflow:visible"
       id="marker5272"
       refX="0"
       refY="0"
       orient="auto"
       inkscape:stockid="Arrow1Lend">
      <path
         inkscape:connector-curvature="0"
         transform="matrix(-0.8,0,0,-0.8,-10,0)"
         style="fill-rule:evenodd;stroke:#000000;stroke-width:1pt"
         d="M 0,0 5,-5 -12.5,0 5,5 0,0 z"
         id="path5274" />
    </marker>
  </defs>
  <metadata
     id="metadata5364">
    <rdf:RDF>
      <cc:Work
         rdf:about="">
        <dc:format>image/svg+xml</dc:format>
        <dc:type
           rdf:resource="http://purl.org/dc/dcmitype/StillImage" />
        <dc:title />
      </cc:Work>
    </rdf:RDF>
  </metadata>
  <g
     inkscape:label="Calque 1"
     inkscape:groupmode="layer"
     id="layer1"
     transform="translate(0,-752.36218)">
    <path
       inkscape:connector-curvature="0"
       id="path3408"
       d="m 745.82351,789.62303 -71.11212,43.61589"
       style="fill:none;stroke:#000000;stroke-width:1.44400001;stroke-linecap:butt;stroke-linejoin:miter;stroke-miterlimit:4;stroke-opacity:1;stroke-dasharray:none;marker-end:url(#Arrow1Lend)" />
    <path
       inkscape:connector-curvature="0"
       id="path3410"
       d="M 695.25,974.52887 675.04695,924.02124"
       style="fill:none;stroke:#000000;stroke-width:1.44400001;stroke-linecap:butt;stroke-linejoin:miter;stroke-miterlimit:4;stroke-opacity:1;stroke-dasharray:none;marker-end:url(#Arrow1Lend)" />
    <path
       inkscape:connector-curvature="0"
       id="path3412"
       d="m 456.18795,802.49846 35.87847,58.88835"
       style="fill:none;stroke:#000000;stroke-width:1.44400001;stroke-linecap:butt;stroke-linejoin:miter;stroke-miterlimit:4;stroke-opacity:1;stroke-dasharray:none;marker-end:url(#Arrow1Lend)" />
    <path
       inkscape:connector-curvature="0"
       id="path3414"
       d="m 308.28396,945.4573 73.12038,-63.37464"
       style="fill:none;stroke:#000000;stroke-width:1.44400001;stroke-linecap:butt;stroke-linejoin:miter;stroke-miterlimit:4;stroke-opacity:1;stroke-dasharray:none;marker-start:none;marker-end:url(#Arrow1Lend)" />
    <text
       sodipodi:linespacing="125%"
       id="text5938"
       y="793.01831"
       x="335.22897"
       style="font-size:40px;font-style:normal;font-weight:normal;text-align:center;line-height:125%;letter-spacing:0px;word-spacing:0px;text-anchor:middle;fill:#000000;fill-opacity:1;stroke:none;font-family:Sans"
       xml:space="preserve"><tspan
         id="tspan6104"
         style="font-size:20px;text-align:center;text-anchor:middle"
         y="793.01831"
         x="335.22897"
         sodipodi:role="line">Growth rate of species i</tspan><tspan
         style="font-size:20px;text-align:center;text-anchor:middle"
         y="818.01831"
         x="335.22897"
         sodipodi:role="line"
         id="tspan5233" /></text>
    <text
       sodipodi:linespacing="125%"
       id="text5938-8"
       y="794.95679"
       x="790.82721"
       style="font-size:40px;font-style:normal;font-weight:normal;line-height:125%;letter-spacing:0px;word-spacing:0px;fill:#000000;fill-opacity:1;stroke:none;font-family:Sans"
       xml:space="preserve"><tspan
         style="font-size:20px"
         y="794.95679"
         x="790.82721"
         id="tspan5940-6"
         sodipodi:role="line">Interaction matrix</tspan></text>
    <text
       sodipodi:linespacing="125%"
       id="text5938-2"
       y="995.78046"
       x="688.8443"
       style="font-size:39.99950409px;font-style:normal;font-weight:normal;line-height:125%;letter-spacing:0px;word-spacing:0px;fill:#000000;fill-opacity:1;stroke:none;font-family:Sans"
       xml:space="preserve"><tspan
         id="tspan5984"
         style="font-size:19.99975204px"
         y="995.78046"
         x="688.8443"
         sodipodi:role="line">Carrying capacity</tspan><tspan
         style="font-size:19.99975204px"
         y="1020.7802"
         x="688.8443"
         sodipodi:role="line"
         id="tspan5250"> </tspan></text>
    <text
       sodipodi:linespacing="125%"
       id="text5938-2-4"
       y="967.75116"
       x="242.76295"
       style="font-size:40px;font-style:normal;font-weight:normal;line-height:125%;letter-spacing:0px;word-spacing:0px;fill:#000000;fill-opacity:1;stroke:none;font-family:Sans"
       xml:space="preserve"><tspan
         id="tspan6014"
         style="font-size:20px"
         y="967.75116"
         x="242.76295"
         sodipodi:role="line">Abundances variation of</tspan><tspan
         style="font-size:20px"
         y="992.75116"
         x="242.76295"
         sodipodi:role="line"
         id="tspan5248">a species over time</tspan></text>
    <g
       style="font-style:normal;font-variant:normal;font-weight:normal;font-stretch:normal;letter-spacing:normal;word-spacing:normal;text-anchor:start;fill:none;stroke:#000000;stroke-linecap:butt;stroke-linejoin:miter;stroke-miterlimit:10.43299961;stroke-opacity:1;stroke-dasharray:none;stroke-dashoffset:0"
       ns0:preamble=""
       ns0:text="$\\sim \\beta(\\alpha,\\beta)$"
       word-spacing="normal"
       letter-spacing="normal"
       font-size-adjust="none"
       font-stretch="normal"
       font-weight="normal"
       font-variant="normal"
       font-style="normal"
       stroke-miterlimit="10.433"
       xml:space="preserve"
       transform="matrix(2.0277666,0,0,-2.0277666,281.94032,2455.7468)"
       id="g6587">
<path
   id="path6589"
   d="m 230.62,710.44 -0.01,0.02 0,0.02 0,0.02 0,0.02 0,0.02 0,0.01 0,0.02 -0.01,0.01 0,0.02 0,0.01 0,0.02 -0.01,0.01 0,0.01 -0.01,0.01 0,0.01 0,0.01 -0.01,0.01 0,0.01 -0.01,0.01 0,0.01 -0.01,0 -0.01,0.01 0,0.01 -0.01,0 0,0.01 -0.01,0 -0.01,0 -0.01,0.01 0,0 -0.01,0 -0.01,0 0,0 c -0.05,0 -0.13,-0.07 -0.14,-0.26 -0.04,-0.95 -0.7,-1.5 -1.4,-1.5 -0.62,0 -1.1,0.43 -1.59,0.86 -0.5,0.45 -1.02,0.91 -1.7,0.91 -1.08,0 -1.67,-1.09 -1.67,-2 0,-0.31 0.13,-0.31 0.14,-0.31 0.11,0 0.14,0.2 0.14,0.22 0.04,1.1 0.78,1.53 1.39,1.53 0.63,0 1.11,-0.42 1.59,-0.85 0.51,-0.46 1.03,-0.91 1.7,-0.91 1.09,0 1.68,1.09 1.68,1.99 z"
   inkscape:connector-curvature="0"
   style="fill:#000000;stroke-width:0" />
<path
   id="path6591"
   d="m 239.67,712.78 0,0.07 -0.01,0.07 -0.01,0.06 -0.01,0.07 -0.01,0.06 -0.02,0.07 -0.02,0.06 -0.02,0.06 -0.02,0.06 -0.03,0.06 -0.03,0.06 -0.04,0.06 -0.03,0.05 -0.04,0.05 -0.04,0.05 -0.05,0.05 -0.04,0.04 -0.05,0.05 -0.05,0.04 -0.05,0.03 -0.06,0.04 -0.05,0.03 -0.06,0.03 -0.06,0.03 -0.07,0.02 -0.06,0.03 -0.07,0.01 -0.06,0.02 -0.07,0.01 -0.08,0.01 -0.07,0.01 -0.07,0 c -0.58,0 -0.86,-0.16 -1.21,-0.42 -0.54,-0.4 -1.09,-1.36 -1.28,-2.12 l -1.58,-6.3 c -0.01,-0.04 0.04,-0.1 0.12,-0.1 0.08,0 0.11,0.02 0.12,0.05 l 0.69,2.74 c 0.19,-0.6 0.63,-0.96 1.36,-0.96 l -0.03,0.21 c -0.76,0 -1.14,0.58 -1.14,1.29 0,0.09 0,0.24 0.05,0.43 l 0.64,2.52 c 0.22,0.85 0.93,2.43 2.13,2.43 0.57,0 0.92,-0.31 0.92,-0.9 h 0 c 0,-0.7 -0.38,-1.42 -0.89,-1.72 -0.27,0.1 -0.47,0.12 -0.77,0.12 -0.21,0 -0.77,0.01 -0.77,-0.32 -0.01,-0.28 0.51,-0.25 0.69,-0.25 l 0.03,0.22 c -0.14,0 -0.34,-0.01 -0.44,0.04 0.02,0.1 0.38,0.08 0.49,0.08 0.21,0 0.3,0 0.43,-0.05 h 0 c -0.13,-0.05 -0.24,-0.07 -0.48,-0.07 l -0.03,-0.22 c 0.37,0 0.52,0.01 0.82,0.13 0.37,-0.36 0.42,-0.67 0.43,-1.12 0.02,-0.58 -0.22,-1.32 -0.49,-1.71 -0.39,-0.54 -1.06,-0.9 -1.62,-0.9 l 0.03,-0.21 c 0.72,0 1.47,0.34 1.92,0.78 0.47,0.46 0.79,1.09 0.79,1.83 0,0.71 -0.37,1.23 -0.73,1.48 0.58,0.33 1.15,0.94 1.15,1.66 z"
   inkscape:connector-curvature="0"
   style="fill:#000000;stroke-width:0" />
<path
   id="path6593"
   d="m 243.4,704.74 0,0.01 0,0 0,0 0,0.01 0,0 0,0 0,0.01 0,0 0,0 -0.01,0.01 0,0 0,0.01 -0.01,0 0,0.01 0,0 -0.01,0.01 0,0.01 -0.01,0 0,0.01 -0.01,0 0,0.01 0,0 -0.01,0 0,0.01 0,0 -0.01,0.01 0,0 -0.01,0.01 0,0 -0.01,0.01 0,0 -0.01,0.01 -0.01,0.01 0,0 -0.01,0.01 0,0.01 -0.01,0 -0.01,0.01 0,0.01 -0.01,0 -0.01,0.01 -0.01,0.01 c -1.24,1.25 -1.56,3.13 -1.56,4.65 0,1.73 0.38,3.46 1.6,4.7 0.13,0.12 0.13,0.14 0.13,0.17 0,0.07 -0.04,0.1 -0.1,0.1 -0.1,0 -0.99,-0.68 -1.58,-1.94 -0.51,-1.09 -0.63,-2.2 -0.63,-3.03 0,-0.78 0.11,-1.98 0.66,-3.1 0.6,-1.22 1.45,-1.87 1.55,-1.87 0.06,0 0.1,0.03 0.1,0.1 z"
   inkscape:connector-curvature="0"
   style="fill:#000000;stroke-width:0" />
<path
   id="path6595"
   d="m 248.73,709.47 0,0.07 0,0.07 -0.01,0.07 0,0.07 -0.01,0.13 -0.02,0.12 -0.02,0.12 -0.03,0.12 -0.03,0.1 -0.04,0.11 -0.04,0.09 -0.04,0.1 -0.04,0.08 -0.05,0.08 -0.05,0.08 -0.06,0.07 -0.06,0.07 -0.06,0.06 -0.06,0.05 -0.06,0.06 -0.07,0.05 -0.06,0.04 -0.07,0.04 -0.07,0.04 -0.07,0.03 -0.07,0.03 -0.07,0.02 -0.08,0.02 -0.07,0.02 -0.07,0.01 -0.07,0.01 -0.07,0.01 -0.07,0 -0.07,0.01 c -1.37,0 -2.68,-1.43 -2.68,-2.83 0,-0.92 0.6,-1.67 1.61,-1.67 l 0.02,0.21 c -0.59,0 -0.89,0.45 -0.89,1.09 0,0.48 0.26,1.56 0.57,2.06 0.47,0.73 1.01,0.92 1.36,0.92 0.98,0 0.98,-1.3 0.98,-2.08 0,-0.37 0,-0.94 0.02,-1.11 h 0 c -0.87,-0.77 -1.64,-0.88 -2.04,-0.88 L 246,707.02 c 0.63,0 1.35,0.22 2.1,0.83 0.13,-0.53 0.46,-0.83 0.91,-0.83 0.53,0 0.83,0.54 0.83,0.7 0,0.07 -0.06,0.1 -0.12,0.1 -0.07,0 -0.1,-0.03 -0.13,-0.1 -0.18,-0.49 -0.53,-0.49 -0.55,-0.49 -0.31,0 -0.31,0.78 -0.31,1.02 0,0.21 0,0.23 0.1,0.34 0.93,1.18 1.14,2.33 1.14,2.34 0,0.02 -0.01,0.1 -0.12,0.1 -0.1,0 -0.1,-0.03 -0.15,-0.21 -0.18,-0.62 -0.5,-1.38 -0.97,-1.97 z"
   inkscape:connector-curvature="0"
   style="fill:#000000;stroke-width:0" />
<path
   id="path6597"
   d="m 252.42,707.14 0,0.06 -0.01,0.05 0,0.06 -0.01,0.06 0,0.05 -0.01,0.05 -0.01,0.06 -0.01,0.04 -0.01,0.05 -0.01,0.05 -0.02,0.04 -0.01,0.04 -0.02,0.04 -0.02,0.04 -0.02,0.04 -0.02,0.03 -0.02,0.04 -0.02,0.03 -0.02,0.02 -0.03,0.03 -0.02,0.03 -0.03,0.02 -0.03,0.02 -0.03,0.02 -0.03,0.01 -0.03,0.02 -0.03,0.01 -0.03,0.01 -0.04,0.01 -0.03,0 -0.04,0.01 -0.03,0 c -0.33,0 -0.53,-0.25 -0.53,-0.53 0,-0.27 0.2,-0.53 0.53,-0.53 0.12,0 0.25,0.04 0.35,0.13 0.03,0.02 0.04,0.03 0.05,0.03 0.01,0 0.02,-0.01 0.02,-0.14 0,-0.74 -0.35,-1.34 -0.68,-1.66 -0.11,-0.11 -0.11,-0.13 -0.11,-0.16 0,-0.07 0.05,-0.11 0.1,-0.11 0.11,0 0.91,0.76 0.91,1.93 z"
   inkscape:connector-curvature="0"
   style="fill:#000000;stroke-width:0" />
<path
   id="path6599"
   d="m 260.54,712.78 0,0.07 -0.01,0.07 -0.01,0.06 -0.01,0.07 -0.01,0.06 -0.02,0.07 -0.02,0.06 -0.02,0.06 -0.03,0.06 -0.02,0.06 -0.03,0.06 -0.04,0.06 -0.03,0.05 -0.04,0.05 -0.04,0.05 -0.05,0.05 -0.04,0.04 -0.05,0.05 -0.05,0.04 -0.05,0.03 -0.06,0.04 -0.05,0.03 -0.06,0.03 -0.06,0.03 -0.07,0.02 -0.06,0.03 -0.07,0.01 -0.07,0.02 -0.07,0.01 -0.07,0.01 -0.07,0.01 -0.08,0 c -0.57,0 -0.85,-0.16 -1.2,-0.42 -0.55,-0.4 -1.09,-1.36 -1.28,-2.12 l -1.58,-6.3 c -0.01,-0.04 0.04,-0.1 0.12,-0.1 0.08,0 0.11,0.02 0.11,0.05 l 0.7,2.74 c 0.19,-0.6 0.63,-0.96 1.35,-0.96 l -0.03,0.21 c -0.75,0 -1.13,0.58 -1.13,1.29 0,0.09 0,0.24 0.05,0.43 l 0.64,2.52 c 0.21,0.85 0.93,2.43 2.13,2.43 0.57,0 0.92,-0.31 0.92,-0.9 h 0 c 0,-0.7 -0.38,-1.42 -0.89,-1.72 -0.27,0.1 -0.47,0.12 -0.77,0.12 -0.21,0 -0.77,0.01 -0.77,-0.32 -0.01,-0.28 0.51,-0.25 0.69,-0.25 l 0.03,0.22 c -0.14,0 -0.34,-0.01 -0.44,0.04 0.02,0.1 0.38,0.08 0.49,0.08 0.21,0 0.3,0 0.43,-0.05 h 0 c -0.13,-0.05 -0.24,-0.07 -0.48,-0.07 l -0.03,-0.22 c 0.37,0 0.52,0.01 0.82,0.13 0.37,-0.36 0.42,-0.67 0.43,-1.12 0.02,-0.58 -0.22,-1.32 -0.49,-1.71 -0.39,-0.54 -1.06,-0.9 -1.63,-0.9 l 0.03,-0.21 c 0.73,0 1.48,0.34 1.92,0.78 0.48,0.46 0.8,1.09 0.8,1.83 0,0.71 -0.37,1.23 -0.73,1.48 0.58,0.33 1.15,0.94 1.15,1.66 z"
   inkscape:connector-curvature="0"
   style="fill:#000000;stroke-width:0" />
<path
   id="path6601"
   d="m 263.86,709.61 0,0.07 0,0.08 -0.01,0.08 0,0.08 -0.01,0.17 -0.01,0.17 -0.01,0.18 -0.03,0.19 -0.02,0.2 -0.04,0.2 -0.04,0.2 -0.04,0.21 -0.05,0.21 -0.07,0.21 -0.07,0.21 -0.07,0.21 -0.05,0.11 -0.04,0.11 -0.05,0.1 -0.05,0.11 c -0.6,1.22 -1.45,1.87 -1.55,1.87 -0.06,0 -0.1,-0.04 -0.1,-0.1 0,-0.03 0,-0.05 0.19,-0.23 0.97,-0.99 1.54,-2.57 1.54,-4.64 0,-1.7 -0.37,-3.45 -1.6,-4.7 -0.13,-0.12 -0.13,-0.14 -0.13,-0.17 0,-0.06 0.04,-0.1 0.1,-0.1 0.1,0 0.99,0.68 1.58,1.94 0.51,1.09 0.63,2.19 0.63,3.03 z"
   inkscape:connector-curvature="0"
   style="fill:#000000;stroke-width:0" />
</g>    <g
       style="font-style:normal;font-variant:normal;font-weight:normal;font-stretch:normal;letter-spacing:normal;word-spacing:normal;text-anchor:start;fill:none;stroke:#000000;stroke-linecap:butt;stroke-linejoin:miter;stroke-miterlimit:10.43299961;stroke-opacity:1;stroke-dasharray:none;stroke-dashoffset:0"
       id="g6808"
       transform="matrix(2.0277666,0,0,-2.0277666,-137.42923,2252.1778)"
       xml:space="preserve"
       stroke-miterlimit="10.433"
       font-style="normal"
       font-variant="normal"
       font-weight="normal"
       font-stretch="normal"
       font-size-adjust="none"
       letter-spacing="normal"
       word-spacing="normal"
       ns0:text="$]0,1]$"
       ns0:preamble="">
<polygon
   style="fill:#000000;stroke-width:0"
   points="223.65,704.64 225.01,704.64 225.01,714.58 223.65,714.58 223.65,714.18 224.62,714.18 224.62,705.04 223.65,705.04 "
   id="polygon6810" />
<path
   style="fill:#000000;stroke-width:0"
   inkscape:connector-curvature="0"
   d="m 230.78,710.3 0,0.15 -0.01,0.15 0,0.15 -0.01,0.15 -0.01,0.15 -0.01,0.14 -0.01,0.15 -0.02,0.15 -0.03,0.14 -0.02,0.15 -0.04,0.14 -0.03,0.15 -0.05,0.14 -0.04,0.14 -0.06,0.14 -0.03,0.07 -0.03,0.07 c -0.46,0.95 -1.28,1.11 -1.69,1.11 -0.6,0 -1.33,-0.26 -1.73,-1.18 -0.32,-0.69 -0.37,-1.46 -0.37,-2.26 0,-0.74 0.04,-1.64 0.45,-2.39 0.42,-0.81 1.15,-1 1.64,-1 v 0.21 c -0.39,0 -0.98,0.25 -1.16,1.21 -0.11,0.59 -0.11,1.51 -0.11,2.09 0,0.64 0,1.29 0.08,1.83 0.19,1.18 0.94,1.27 1.19,1.27 0.33,0 0.98,-0.18 1.17,-1.16 0.1,-0.56 0.1,-1.31 0.1,-1.94 0,-0.74 0,-1.42 -0.11,-2.05 -0.15,-0.95 -0.72,-1.25 -1.16,-1.25 h 0 v -0.21 c 0.53,0 1.29,0.2 1.73,1.15 0.32,0.68 0.37,1.46 0.37,2.24 z"
   id="path6812" />
<path
   style="fill:#000000;stroke-width:0"
   inkscape:connector-curvature="0"
   d="m 233.2,707.14 0,0.06 0,0.05 -0.01,0.06 0,0.06 -0.01,0.05 0,0.05 -0.01,0.06 -0.01,0.04 -0.02,0.05 -0.01,0.05 -0.01,0.04 -0.02,0.04 -0.01,0.04 -0.02,0.04 -0.02,0.04 -0.02,0.03 -0.02,0.04 -0.03,0.03 -0.02,0.02 -0.02,0.03 -0.03,0.03 -0.03,0.02 -0.02,0.02 -0.03,0.02 -0.03,0.01 -0.03,0.02 -0.03,0.01 -0.04,0.01 -0.03,0.01 -0.03,0 -0.04,0.01 -0.04,0 c -0.32,0 -0.52,-0.25 -0.52,-0.53 0,-0.27 0.2,-0.53 0.52,-0.53 0.12,0 0.25,0.04 0.35,0.13 0.03,0.02 0.04,0.03 0.05,0.03 0.01,0 0.02,-0.01 0.02,-0.14 0,-0.74 -0.35,-1.34 -0.68,-1.66 -0.1,-0.11 -0.1,-0.13 -0.1,-0.16 0,-0.07 0.05,-0.11 0.09,-0.11 0.11,0 0.91,0.76 0.91,1.93 z"
   id="path6814" />
<path
   style="fill:#000000;stroke-width:0"
   inkscape:connector-curvature="0"
   d="m 238.53,713.48 0,0.01 0,0.01 0,0.02 0,0.01 0,0 0,0.01 0,0.01 0,0.01 0,0.01 0,0.01 0,0.01 0,0.01 0,0 0,0.01 0,0.01 0,0 0,0.01 0,0.01 0,0.01 -0.01,0.01 0,0.01 0,0.01 -0.01,0.01 0,0 0,0.01 -0.01,0.01 -0.01,0 0,0.01 -0.01,0 -0.01,0.01 -0.01,0 0,0 -0.01,0 0,0 -0.01,0 0,0 -0.01,0.01 -0.01,0 0,0 -0.01,0 -0.01,0 0,0 -0.01,0 -0.01,0 -0.01,0 -0.01,0 -0.01,0 0,0 -0.01,0 -0.01,0 -0.01,0 -0.02,0 c -0.61,-0.64 -1.49,-0.64 -1.81,-0.64 v -0.3 c 0.2,0 0.79,0 1.31,0.25 v -5.14 c 0,-0.36 -0.03,-0.48 -0.93,-0.48 h -0.32 v -0.31 c 0.35,0.04 1.22,0.04 1.62,0.04 0.39,0 1.26,0 1.61,-0.04 v 0.31 h -0.32 c -0.9,0 -0.93,0.11 -0.93,0.48 z"
   id="path6816" />
<polygon
   style="fill:#000000;stroke-width:0"
   points="240.81,704.64 242.17,704.64 242.17,714.58 240.81,714.58 240.81,714.18 241.77,714.18 241.77,705.04 240.81,705.04 "
   id="polygon6818" />
</g>    <g
       id="g7922"
       transform="matrix(2.229646,0,0,-2.229646,235.60611,2395.5561)"
       xml:space="preserve"
       stroke-miterlimit="10.433"
       font-style="normal"
       font-variant="normal"
       font-weight="normal"
       font-stretch="normal"
       font-size-adjust="none"
       letter-spacing="normal"
       word-spacing="normal"
       ns0:text="\\textit{Erdos-Renyi \\&amp; Watts-Strogatz}"
       ns0:preamble=""
       style="font-style:normal;font-variant:normal;font-weight:normal;font-stretch:normal;letter-spacing:normal;word-spacing:normal;text-anchor:start;fill:none;stroke:#000000;stroke-linecap:butt;stroke-linejoin:miter;stroke-miterlimit:10.43299961;stroke-opacity:1;stroke-dasharray:none;stroke-dashoffset:0">
<path
   style="fill:#000000;stroke-width:0"
   inkscape:connector-curvature="0"
   d="m 230.23,709.46 0,0 0,0 0,0 0,0 0,0.01 0,0 0,0 0,0.01 0.01,0 0,0 0,0.01 0,0 0,0.01 0,0 0.01,0.01 0,0.01 0,0.01 0,0 0.01,0.01 0,0 0,0.01 0,0 0,0 0,0.01 0,0 0,0.01 0,0 0.01,0 0,0 0,0 0,0 0,0.01 0,0 0,0 0,0 0,0 0,0 c 0,0.11 -0.12,0.11 -0.15,0.11 -0.11,0 -0.12,-0.01 -0.21,-0.24 -0.58,-1.37 -0.93,-2.02 -2.51,-2.02 h -1.21 c -0.31,0 -0.31,0.03 -0.31,0.1 0,0.06 0.03,0.16 0.04,0.22 l 0.69,2.73 h 0.86 c 0.68,0 0.75,-0.16 0.75,-0.43 0,-0.06 -0.01,-0.21 -0.09,-0.5 0,-0.02 -0.02,-0.08 -0.02,-0.11 0,-0.12 0.1,-0.12 0.16,-0.12 0.11,0 0.14,0.02 0.18,0.2 l 0.54,2.19 c 0.01,0.02 0.03,0.1 0.03,0.12 0,0.12 -0.12,0.12 -0.16,0.12 -0.12,0 -0.12,-0.03 -0.18,-0.24 -0.19,-0.7 -0.38,-0.92 -1.19,-0.92 h -0.81 l 0.61,2.44 c 0.08,0.33 0.15,0.34 0.48,0.34 h 1.24 c 1.08,0 1.33,-0.3 1.33,-1 0,-0.27 -0.02,-0.4 -0.05,-0.64 -0.01,-0.05 -0.02,-0.14 -0.02,-0.17 0,-0.11 0.11,-0.11 0.15,-0.11 0.14,0 0.15,0.03 0.17,0.21 l 0.22,1.76 c 0.03,0.26 -0.03,0.26 -0.23,0.26 h -4.65 c -0.17,0 -0.27,0 -0.27,-0.18 0,-0.13 0.07,-0.13 0.27,-0.13 0.58,0 0.58,-0.08 0.58,-0.17 0,-0.01 0,-0.08 -0.04,-0.23 l -1.34,-5.32 c -0.08,-0.34 -0.14,-0.42 -0.81,-0.42 -0.16,0 -0.27,0 -0.27,-0.19 0,-0.12 0.09,-0.12 0.25,-0.12 h 4.76 c 0.2,0 0.21,0.02 0.28,0.16 z"
   id="path7924" />
<path
   style="fill:#000000;stroke-width:0"
   inkscape:connector-curvature="0"
   d="m 232.76,709.99 0,0 0,0 0,0.01 0,0.01 0.01,0 0,0.02 0.01,0.01 0,0.01 0.01,0.02 0,0.01 0.01,0.02 0.01,0.02 0.02,0.04 0.02,0.04 0.02,0.05 0.02,0.05 0.03,0.06 0.03,0.05 0.03,0.06 0.04,0.06 0.04,0.06 0.04,0.06 0.04,0.06 0.04,0.06 0.05,0.06 0.05,0.06 0.05,0.06 0.06,0.05 0.06,0.05 0.05,0.05 0.07,0.04 0.06,0.04 0.03,0.02 0.04,0.01 0.03,0.02 0.04,0.01 0.03,0.01 0.04,0.02 0.04,0 0.03,0.01 0.04,0.01 0.04,0 0.04,0.01 0.04,0 c 0.05,0 0.33,0 0.53,-0.14 -0.35,-0.11 -0.38,-0.43 -0.38,-0.48 0,-0.13 0.09,-0.32 0.35,-0.32 0.18,0 0.48,0.14 0.48,0.53 0,0.52 -0.64,0.63 -0.97,0.63 -0.69,0 -1.04,-0.5 -1.2,-0.72 -0.11,0.53 -0.5,0.72 -0.83,0.72 -0.36,0 -0.56,-0.23 -0.72,-0.53 -0.18,-0.4 -0.32,-0.98 -0.32,-1 0,-0.1 0.11,-0.1 0.15,-0.1 0.13,0 0.14,0.01 0.19,0.22 0.18,0.7 0.37,1.19 0.68,1.19 0.26,0 0.26,-0.29 0.26,-0.4 0,-0.16 -0.03,-0.35 -0.07,-0.51 l -0.75,-2.98 c -0.02,-0.06 -0.03,-0.11 -0.03,-0.14 0,-0.11 0.08,-0.25 0.28,-0.25 0.3,0 0.37,0.28 0.39,0.36 z"
   id="path7926" />
<path
   style="fill:#000000;stroke-width:0"
   inkscape:connector-curvature="0"
   d="m 239.42,713.77 0,0 0.01,0.01 0,0 0,0 0,0.01 0,0 0,0.01 0,0 0,0.01 0.01,0 0,0.01 0,0.01 0,0.01 0.01,0.01 0,0 0,0.01 0,0 0,0.01 0,0 0,0.01 0,0 0,0 0,0.01 0,0 0,0 0,0.01 0,0 0,0 c 0,0.09 -0.05,0.12 -0.13,0.12 -0.03,0 -0.13,-0.01 -0.16,-0.02 l -0.99,-0.08 c -0.12,-0.01 -0.23,-0.02 -0.23,-0.21 0,-0.11 0.1,-0.11 0.24,-0.11 0.48,0 0.5,-0.07 0.5,-0.17 0,-0.03 -0.03,-0.16 -0.03,-0.17 l -0.58,-2.32 c -0.15,0.31 -0.42,0.58 -0.83,0.58 -1.11,0 -2.28,-1.51 -2.28,-2.97 0,-0.84 0.45,-1.53 1.2,-1.53 l 0.02,0.21 c -0.47,0 -0.55,0.59 -0.55,0.89 0,0.49 0.31,1.66 0.49,2.08 0.25,0.6 0.71,1.1 1.12,1.1 0.08,0 0.3,-0.01 0.48,-0.29 0.1,-0.16 0.2,-0.45 0.2,-0.64 0,-0.03 -0.01,-0.07 -0.03,-0.13 l -0.48,-1.9 c -0.07,-0.31 -0.68,-1.11 -1.23,-1.11 l -0.02,-0.21 c 0.36,0 0.8,0.2 1.19,0.69 0.11,-0.49 0.48,-0.69 0.83,-0.69 0.37,0 0.58,0.24 0.73,0.55 0.18,0.38 0.3,0.96 0.3,0.98 0,0.1 -0.08,0.1 -0.15,0.1 -0.12,0 -0.13,-0.01 -0.19,-0.23 -0.14,-0.56 -0.33,-1.19 -0.67,-1.19 -0.26,0 -0.26,0.27 -0.26,0.41 0,0.07 0,0.22 0.06,0.46 z"
   id="path7928" />
<path
   style="fill:#000000;stroke-width:0"
   inkscape:connector-curvature="0"
   d="m 244.04,709.89 0,0.08 -0.01,0.09 -0.01,0.09 -0.01,0.08 -0.01,0.08 -0.02,0.08 -0.02,0.07 -0.03,0.08 -0.02,0.07 -0.03,0.07 -0.04,0.07 -0.03,0.07 -0.04,0.06 -0.04,0.06 -0.05,0.06 -0.04,0.06 -0.05,0.05 -0.05,0.05 -0.06,0.05 -0.05,0.04 -0.06,0.04 -0.06,0.04 -0.07,0.03 -0.06,0.03 -0.07,0.03 -0.07,0.03 -0.07,0.02 -0.07,0.01 -0.08,0.02 -0.07,0.01 -0.08,0 -0.08,0.01 c -1.24,0 -2.52,-1.42 -2.52,-2.86 0,-1.03 0.63,-1.64 1.45,-1.64 v 0.21 c -0.39,0 -0.76,0.31 -0.76,1.03 0,0.49 0.26,1.6 0.58,2.13 0.37,0.61 0.85,0.91 1.24,0.91 0.48,0 0.76,-0.44 0.76,-1.03 0,-0.42 -0.22,-1.45 -0.54,-2.04 -0.28,-0.55 -0.79,-1 -1.28,-1 h 0 v -0.21 c 1.24,0 2.52,1.41 2.52,2.87 z"
   id="path7930" />
<path
   style="fill:#000000;stroke-width:0"
   inkscape:connector-curvature="0"
   d="m 246.52,709.08 0.09,-0.02 0.08,-0.02 0.08,-0.02 0.04,-0.01 0.04,-0.01 0.04,-0.01 0.03,-0.01 0.04,-0.02 0.04,-0.01 0.03,-0.02 0.04,-0.01 0.03,-0.02 0.03,-0.02 0.03,-0.02 0.03,-0.02 0.03,-0.03 0.02,-0.02 0.03,-0.03 0.02,-0.02 0.02,-0.03 0.02,-0.04 0.02,-0.03 0.01,-0.03 0.02,-0.04 0.01,-0.04 0.01,-0.04 0,-0.05 0.01,-0.02 0,-0.02 0,-0.03 0,-0.02 c 0,-0.32 -0.27,-1.12 -1.29,-1.12 -0.22,0 -0.8,0.05 -0.96,0.56 0.51,0.05 0.51,0.47 0.51,0.49 0,0.19 -0.13,0.31 -0.34,0.31 -0.23,0 -0.51,-0.16 -0.51,-0.61 0,-0.61 0.58,-0.96 1.29,-0.96 1.49,0 1.87,1.21 1.87,1.66 0,0.87 -0.78,1.05 -1.19,1.14 -0.28,0.06 -0.63,0.14 -0.63,0.56 0,0.24 0.21,0.92 1,0.92 0.27,0 0.64,-0.1 0.75,-0.49 -0.32,-0.04 -0.4,-0.31 -0.4,-0.41 0,-0.11 0.06,-0.28 0.3,-0.28 0.17,0 0.43,0.12 0.43,0.55 0,0.46 -0.41,0.85 -1.07,0.85 -1.16,0 -1.57,-0.96 -1.57,-1.47 0,-0.77 0.64,-0.91 0.92,-0.97 z"
   id="path7932" />
<path
   style="fill:#000000;stroke-width:0"
   inkscape:connector-curvature="0"
   d="m 251.16,708.98 0.02,0 0.02,0 0.01,0 0.02,0 0.01,0 0.02,0 0.01,0 0.01,0 0.01,0.01 0.02,0 0.01,0 0.01,0 0,0 0.01,0 0.01,0.01 0.01,0 0.01,0 0,0 0.01,0.01 0.01,0 0,0.01 0.01,0 0,0.01 0.01,0 0,0.01 0,0.01 0.01,0 0,0.01 0,0.01 0.01,0.01 0,0.01 0,0.01 c 0.02,0.06 0.08,0.28 0.08,0.32 0,0.12 -0.09,0.12 -0.25,0.12 h -1.94 c -0.2,0 -0.22,0 -0.25,-0.13 -0.02,-0.06 -0.07,-0.25 -0.07,-0.3 0,-0.13 0.07,-0.13 0.26,-0.13 z"
   id="path7934" />
<path
   style="fill:#000000;stroke-width:0"
   inkscape:connector-curvature="0"
   d="m 256.76,710.49 0.13,0.04 0.13,0.04 0.12,0.04 0.11,0.04 0.12,0.04 0.11,0.05 0.1,0.05 0.1,0.06 0.1,0.05 0.09,0.06 0.09,0.05 0.08,0.06 0.08,0.07 0.08,0.06 0.07,0.06 0.06,0.07 0.07,0.06 0.05,0.07 0.06,0.07 0.05,0.07 0.05,0.07 0.04,0.07 0.04,0.07 0.03,0.07 0.03,0.07 0.03,0.07 0.02,0.07 0.02,0.07 0.01,0.07 0.01,0.07 0.01,0.07 0,0.07 c 0,0.78 -0.76,1.47 -2,1.47 h -2.63 c -0.16,0 -0.27,0 -0.27,-0.19 0,-0.12 0.08,-0.12 0.27,-0.12 0.31,0 0.58,0 0.58,-0.17 0,-0.03 0,-0.05 -0.04,-0.19 l -1.34,-5.39 c -0.08,-0.34 -0.14,-0.42 -0.82,-0.42 -0.16,0 -0.27,0 -0.27,-0.19 0,-0.12 0.11,-0.12 0.14,-0.12 0.38,0 0.78,0.04 1.15,0.04 0.39,0 0.8,-0.04 1.19,-0.04 0.07,0 0.19,0 0.19,0.18 0,0.13 -0.07,0.13 -0.27,0.13 -0.58,0 -0.58,0.08 -0.58,0.17 0,0.04 0,0.06 0.04,0.2 l 0.65,2.61 h 1.07 l -0.01,0.22 h -1 l 0.64,2.61 c 0.08,0.3 0.15,0.32 0.22,0.34 0.07,0.02 0.39,0.02 0.58,0.02 0.64,0 1.61,0 1.61,-0.93 0,-0.06 -0.04,-0.99 -0.57,-1.52 -0.3,-0.29 -0.8,-0.52 -1.48,-0.52 l 0.01,-0.22 c 0.42,0 0.94,-0.16 0.94,-0.87 0,-0.14 -0.03,-0.23 -0.17,-0.79 -0.11,-0.46 -0.15,-0.6 -0.15,-0.79 0,-0.74 0.61,-1.05 1.23,-1.05 0.84,0 1.14,1.05 1.14,1.13 0,0.07 -0.02,0.13 -0.15,0.13 -0.13,0 -0.14,-0.05 -0.17,-0.17 -0.17,-0.56 -0.47,-0.88 -0.78,-0.88 -0.29,0 -0.32,0.27 -0.32,0.59 0,0.26 0.03,0.5 0.06,0.76 0.03,0.22 0.07,0.66 0.07,0.87 0,0.56 -0.34,0.97 -0.85,1.15 z"
   id="path7936" />
<path
   style="fill:#000000;stroke-width:0"
   inkscape:connector-curvature="0"
   d="m 260.84,709.42 0.03,0 0.03,0 0.03,0 0.04,0 0.04,0 0.03,0 0.04,0.01 0.05,0 0.04,0 0.04,0 0.05,0.01 0.04,0 0.1,0.01 0.1,0.01 0.1,0.01 0.1,0.02 0.1,0.01 0.1,0.02 0.1,0.03 0.1,0.02 0.05,0.02 0.04,0.01 0.05,0.02 0.04,0.02 c 0.79,0.32 0.79,0.96 0.79,1.03 0,0.46 -0.37,0.85 -1,0.85 v -0.22 c 0.39,0 0.62,-0.27 0.62,-0.61 0,-1.05 -1.64,-1.05 -1.97,-1.05 h -0.21 c 0.43,1.63 1.46,1.66 1.56,1.66 v 0.22 c -1.05,0 -2.47,-1.01 -2.47,-2.77 0,-0.89 0.48,-1.73 1.42,-1.73 1.27,0 2.1,0.99 2.1,1.14 0,0.05 -0.08,0.16 -0.16,0.16 -0.04,0 -0.05,-0.01 -0.13,-0.11 -0.73,-0.94 -1.62,-0.98 -1.79,-0.98 -0.65,0 -0.76,0.71 -0.76,1.1 0,0.37 0.1,0.82 0.17,1.09 z"
   id="path7938" />
<path
   style="fill:#000000;stroke-width:0"
   inkscape:connector-curvature="0"
   d="m 265.33,708.86 0.02,0.08 0.02,0.09 0.02,0.08 0.02,0.08 0.02,0.08 0.02,0.08 0.02,0.08 0.02,0.08 c 0.13,0.51 0.13,0.52 0.3,0.8 0.14,0.24 0.59,0.99 1.35,0.99 0.43,0 0.45,-0.45 0.45,-0.66 0,-0.61 -0.44,-1.8 -0.57,-2.19 -0.13,-0.34 -0.16,-0.43 -0.16,-0.64 0,-0.44 0.28,-0.79 0.75,-0.79 0.93,0 1.27,1.48 1.27,1.53 0,0.1 -0.08,0.1 -0.15,0.1 -0.13,0 -0.13,-0.03 -0.17,-0.17 -0.08,-0.27 -0.35,-1.25 -0.93,-1.25 -0.21,0 -0.22,0.15 -0.22,0.29 0,0.25 0.1,0.51 0.18,0.75 0.2,0.52 0.61,1.64 0.61,2.21 0,0.82 -0.55,1.04 -1.03,1.04 -0.82,0 -1.3,-0.6 -1.43,-0.79 -0.07,0.49 -0.41,0.79 -0.83,0.79 -0.36,0 -0.56,-0.23 -0.72,-0.53 -0.19,-0.4 -0.32,-0.98 -0.32,-1 0,-0.1 0.1,-0.1 0.15,-0.1 0.13,0 0.14,0.01 0.19,0.22 0.18,0.7 0.37,1.19 0.68,1.19 0.26,0 0.26,-0.29 0.26,-0.4 0,-0.16 -0.03,-0.35 -0.07,-0.51 l -0.75,-2.98 c -0.02,-0.06 -0.03,-0.11 -0.03,-0.14 0,-0.11 0.08,-0.25 0.28,-0.25 0.12,0 0.29,0.07 0.36,0.25 z"
   id="path7940" />
<path
   style="fill:#000000;stroke-width:0"
   inkscape:connector-curvature="0"
   d="m 272.2,707.38 -0.04,-0.15 -0.04,-0.14 -0.04,-0.14 -0.04,-0.13 -0.04,-0.12 -0.05,-0.12 -0.04,-0.11 -0.05,-0.1 -0.05,-0.1 -0.05,-0.09 -0.05,-0.09 -0.06,-0.08 -0.05,-0.08 -0.05,-0.07 -0.06,-0.07 -0.05,-0.06 -0.06,-0.06 -0.05,-0.05 -0.06,-0.05 -0.05,-0.04 -0.06,-0.04 -0.05,-0.03 -0.06,-0.03 -0.05,-0.03 -0.06,-0.02 -0.05,-0.02 -0.05,-0.02 -0.06,-0.01 -0.05,-0.01 -0.05,-0.01 -0.05,0 -0.04,0 c -0.48,0 -0.62,0.37 -0.62,0.42 0,0.01 0.01,0.02 0.08,0.03 0.31,0.05 0.43,0.32 0.43,0.48 0,0.21 -0.16,0.32 -0.34,0.32 -0.12,0 -0.51,-0.06 -0.51,-0.62 0,-0.51 0.41,-0.85 0.96,-0.85 1.03,0 1.94,1.02 2.19,2 l 0.97,3.92 c 0.01,0.06 0.03,0.11 0.03,0.14 0,0.11 -0.08,0.26 -0.28,0.26 -0.3,0 -0.37,-0.29 -0.39,-0.37 l -0.72,-2.92 c -0.07,-0.29 -0.47,-0.89 -1.06,-0.89 -0.44,0 -0.53,0.44 -0.53,0.77 0,0.6 0.32,1.5 0.57,2.17 0.08,0.21 0.13,0.35 0.13,0.54 0,0.5 -0.33,0.81 -0.75,0.81 -0.93,0 -1.28,-1.47 -1.28,-1.53 0,-0.1 0.1,-0.1 0.15,-0.1 0.13,0 0.14,0.02 0.18,0.16 0.08,0.3 0.35,1.25 0.93,1.25 0.11,0 0.22,-0.03 0.22,-0.29 0,-0.24 -0.1,-0.51 -0.24,-0.9 -0.26,-0.69 -0.52,-1.43 -0.52,-1.94 0,-0.87 0.58,-1.15 1.11,-1.15 0.46,0 0.77,0.23 0.9,0.36 z"
   id="path7942" />
<path
   style="fill:#000000;stroke-width:0"
   inkscape:connector-curvature="0"
   d="m 276.78,708.55 0,0 0,0.01 0,0 0,0 0,0.01 0,0 0,0.01 -0.01,0 0,0 0,0.01 0,0 0,0 0,0 0,0.01 0,0 -0.01,0 0,0.01 0,0 0,0 -0.01,0.01 0,0 -0.01,0 0,0.01 -0.01,0 0,0 -0.01,0 0,0.01 -0.01,0 0,0 -0.01,0 -0.01,0 0,0 -0.01,0 0,0 -0.01,0 -0.01,0 -0.02,0 -0.01,0.01 c -0.13,0 -0.13,-0.03 -0.17,-0.17 -0.08,-0.29 -0.35,-1.25 -0.93,-1.25 -0.08,0 -0.21,0.01 -0.21,0.28 0,0.26 0.13,0.59 0.25,0.96 l 0.64,1.69 c 0.1,0.29 0.12,0.37 0.12,0.56 0,0.55 -0.38,0.8 -0.75,0.8 -0.93,0 -1.27,-1.48 -1.27,-1.53 0,-0.1 0.1,-0.1 0.15,-0.1 0.13,0 0.14,0.02 0.18,0.16 0.09,0.32 0.35,1.25 0.92,1.25 0.11,0 0.22,-0.05 0.22,-0.28 0,-0.24 -0.11,-0.53 -0.18,-0.72 l -0.29,-0.82 c -0.13,-0.33 -0.25,-0.66 -0.37,-0.98 -0.14,-0.38 -0.18,-0.49 -0.18,-0.69 0,-0.39 0.24,-0.79 0.76,-0.79 0.93,0 1.26,1.49 1.26,1.53 z"
   id="path7944" />
<path
   style="fill:#000000;stroke-width:0"
   inkscape:connector-curvature="0"
   d="m 276.73,713.31 0,0.02 0,0.01 0,0.01 0,0.01 -0.01,0.01 0,0.01 0,0.02 -0.01,0.02 0,0.02 -0.01,0.01 -0.01,0.02 0,0.02 -0.01,0.01 -0.01,0.01 -0.01,0.02 -0.01,0.01 -0.01,0.01 -0.02,0.01 -0.01,0.01 -0.01,0.01 -0.01,0.01 -0.02,0.01 -0.01,0 -0.02,0.01 -0.01,0.01 -0.01,0 -0.02,0.01 -0.01,0 -0.02,0 -0.01,0.01 -0.02,0 -0.01,0 -0.01,0 -0.02,0 -0.01,0 c -0.21,0 -0.48,-0.2 -0.48,-0.48 0,-0.24 0.2,-0.32 0.34,-0.32 0.2,0 0.48,0.19 0.48,0.47 z"
   id="path7946" />
<path
   style="fill:#000000;stroke-width:0"
   inkscape:connector-curvature="0"
   d="m 286.84,711.76 0.09,0.07 0.08,0.07 0.08,0.07 0.08,0.07 0.07,0.07 0.07,0.07 0.07,0.08 0.06,0.07 0.06,0.08 0.06,0.08 0.05,0.07 0.05,0.08 0.05,0.07 0.04,0.08 0.04,0.07 0.04,0.07 0.04,0.07 0.03,0.07 0.03,0.07 0.03,0.06 0.02,0.06 0.03,0.06 0.02,0.06 0.01,0.05 0.02,0.05 0.01,0.05 0.01,0.04 0.01,0.04 0.01,0.03 0,0.03 0.01,0.02 0,0.02 c 0,0.21 -0.17,0.31 -0.33,0.31 -0.21,0 -0.47,-0.17 -0.47,-0.47 0,-0.19 0.12,-0.3 0.34,-0.31 -0.35,-0.86 -1.04,-1.3 -1.51,-1.59 -0.49,-0.3 -1.16,-0.72 -1.16,-1.42 0,-0.43 0.28,-0.7 0.63,-0.7 0.29,0 0.48,0.23 0.48,0.47 0,0.22 -0.17,0.3 -0.32,0.3 -0.21,0 -0.38,-0.14 -0.45,-0.31 -0.03,0.08 -0.03,0.13 -0.03,0.21 0,0.58 0.37,0.81 1.28,1.38 0.42,-0.54 0.52,-0.98 0.52,-1.4 0,-0.79 -0.57,-3.06 -3.17,-3.06 -0.79,0 -1.8,0.35 -1.8,1.55 0,0.56 0.27,1.44 0.5,1.85 0.03,-0.03 0.34,-0.32 0.81,-0.32 0.52,0 0.96,0.45 0.96,0.91 0,0.38 -0.27,0.6 -0.63,0.6 v -0.22 c 0.16,0 0.33,-0.08 0.33,-0.33 0,-0.36 -0.27,-0.74 -0.64,-0.74 -0.3,0 -0.5,0.2 -0.6,0.47 h 0 c 0.1,0.13 0.48,0.6 0.91,0.6 v 0.22 c -0.3,0 -0.65,-0.12 -0.98,-0.34 0.03,1.02 0.62,2.65 1.55,2.65 0.29,0 0.73,-0.18 0.74,-0.91 -0.56,0 -0.56,-0.47 -0.56,-0.48 0,-0.13 0.08,-0.32 0.34,-0.32 0.5,0 0.53,0.61 0.53,0.78 0,0.61 -0.37,1.15 -1.05,1.15 -1.07,0 -2.12,-1.33 -2.12,-2.58 0,-0.13 0,-0.32 0.09,-0.6 0.02,-0.05 0.02,-0.06 0.02,-0.07 0,-0.02 -0.02,-0.04 -0.03,-0.06 -0.72,-0.77 -0.93,-1.69 -0.93,-2.06 0,-1.03 0.91,-1.96 2.55,-1.96 2.76,0 3.5,2.31 3.5,3.3 0,0.6 -0.22,1.1 -0.57,1.55 z"
   id="path7948" />
<path
   style="fill:#000000;stroke-width:0"
   inkscape:connector-curvature="0"
   d="m 301.29,712.79 0.03,0.05 0.03,0.06 0.03,0.05 0.03,0.05 0.03,0.04 0.03,0.05 0.03,0.04 0.03,0.04 0.03,0.04 0.03,0.03 0.03,0.03 0.03,0.04 0.03,0.02 0.03,0.03 0.03,0.03 0.03,0.02 0.03,0.02 0.03,0.02 0.03,0.02 0.03,0.02 0.03,0.01 0.04,0.02 0.03,0.01 0.04,0.01 0.03,0.02 0.04,0 0.04,0.01 0.04,0.01 0.04,0.01 0.04,0 0.04,0.01 0.05,0 c 0.1,0.01 0.13,0.1 0.13,0.2 0,0.01 0,0.11 -0.11,0.11 -0.23,0 -0.49,-0.03 -0.73,-0.03 -0.32,0 -0.67,0.03 -0.99,0.03 -0.05,0 -0.19,0 -0.19,-0.19 0,-0.11 0.09,-0.12 0.16,-0.12 0.17,-0.01 0.51,-0.07 0.51,-0.38 0,-0.12 -0.05,-0.2 -0.11,-0.31 l -2.51,-4.63 -0.22,4.88 c -0.01,0.01 -0.01,0.04 -0.01,0.07 0,0.17 0.06,0.36 0.7,0.37 0.08,0 0.2,0 0.2,0.2 0,0.09 -0.08,0.11 -0.14,0.11 -0.37,0 -0.75,-0.03 -1.12,-0.03 -0.32,0 -0.67,0.03 -0.98,0.03 -0.04,0 -0.18,0 -0.18,-0.19 0,-0.12 0.11,-0.12 0.21,-0.12 0.42,0 0.46,-0.06 0.48,-0.21 0.01,-0.04 0.04,-0.65 0.04,-0.66 0,-0.08 0,-0.1 -0.06,-0.2 l -2.32,-4.25 -0.22,4.86 c -0.01,0.2 -0.02,0.45 0.65,0.46 0.14,0 0.25,0 0.25,0.19 0,0.12 -0.11,0.12 -0.14,0.12 -0.37,0 -0.76,-0.03 -1.12,-0.03 -0.32,0 -0.67,0.03 -0.98,0.03 -0.04,0 -0.18,0 -0.18,-0.19 0,-0.12 0.1,-0.12 0.24,-0.12 0.45,0 0.45,-0.08 0.46,-0.32 l 0.28,-6.12 c 0.01,-0.21 0.03,-0.25 0.18,-0.25 0.14,0 0.17,0.05 0.25,0.19 l 2.74,5 0.22,-4.94 c 0.01,-0.19 0.01,-0.25 0.18,-0.25 0.08,0 0.16,0 0.26,0.18 z"
   id="path7950" />
<path
   style="fill:#000000;stroke-width:0"
   inkscape:connector-curvature="0"
   d="m 304.73,707.71 0.01,-0.04 0.01,-0.05 0.01,-0.04 0.02,-0.04 0.02,-0.04 0.01,-0.03 0.02,-0.04 0.02,-0.03 0.02,-0.04 0.03,-0.03 0.02,-0.03 0.02,-0.02 0.03,-0.03 0.02,-0.02 0.03,-0.03 0.03,-0.02 0.03,-0.02 0.03,-0.02 0.03,-0.02 0.03,-0.01 0.03,-0.02 0.03,-0.01 0.03,-0.01 0.03,-0.01 0.03,-0.01 0.04,-0.01 0.03,-0.01 0.03,0 0.03,-0.01 0.04,0 0.03,0 0.03,0 c 0.37,0 0.58,0.24 0.73,0.55 0.18,0.38 0.3,0.96 0.3,0.98 0,0.1 -0.08,0.1 -0.15,0.1 -0.12,0 -0.13,-0.01 -0.19,-0.23 -0.14,-0.56 -0.33,-1.19 -0.67,-1.19 -0.26,0 -0.26,0.27 -0.26,0.41 0,0.07 0,0.23 0.07,0.51 l 0.68,2.7 c 0.04,0.14 0.04,0.16 0.04,0.21 0,0.21 -0.17,0.26 -0.27,0.26 -0.32,0 -0.39,-0.34 -0.4,-0.39 -0.19,0.43 -0.51,0.59 -0.82,0.59 -1.11,0 -2.28,-1.51 -2.28,-2.97 0,-0.84 0.46,-1.53 1.2,-1.53 l 0.02,0.21 c -0.47,0 -0.54,0.59 -0.54,0.89 0,0.49 0.3,1.66 0.48,2.08 0.25,0.6 0.71,1.1 1.12,1.1 0.43,0 0.68,-0.52 0.68,-0.94 0,-0.02 -0.01,-0.07 -0.03,-0.13 h 0 l -0.46,-1.87 c -0.08,-0.32 -0.7,-1.13 -1.25,-1.13 l -0.02,-0.21 c 0.36,0 0.8,0.2 1.2,0.69 z"
   id="path7952" />
<path
   style="fill:#000000;stroke-width:0"
   inkscape:connector-curvature="0"
   d="m 308.93,711.1 h 0.85 c 0.17,0 0.28,0 0.28,0.19 0,0.12 -0.09,0.12 -0.25,0.12 h -0.8 l 0.37,1.47 c 0.04,0.14 0.04,0.16 0.04,0.21 0,0.2 -0.17,0.25 -0.27,0.25 -0.25,0 -0.35,-0.2 -0.39,-0.35 l -0.38,-1.58 h -0.85 c -0.17,0 -0.28,0 -0.28,-0.19 0,-0.12 0.09,-0.12 0.25,-0.12 h 0.8 l -0.72,-2.85 c -0.01,-0.04 -0.05,-0.2 -0.05,-0.34 0,-0.5 0.33,-0.89 0.85,-0.89 1,0 1.51,1.48 1.51,1.53 0,0.1 -0.08,0.1 -0.15,0.1 -0.12,0 -0.12,-0.01 -0.2,-0.19 -0.18,-0.48 -0.58,-1.23 -1.15,-1.23 -0.26,0 -0.26,0.25 -0.26,0.41 0,0.07 0,0.23 0.07,0.51 z"
   id="path7954" />
<path
   style="fill:#000000;stroke-width:0"
   inkscape:connector-curvature="0"
   d="m 312.24,711.1 h 0.85 c 0.17,0 0.28,0 0.28,0.19 0,0.12 -0.09,0.12 -0.25,0.12 h -0.8 l 0.37,1.47 c 0.04,0.14 0.04,0.16 0.04,0.21 0,0.2 -0.17,0.25 -0.27,0.25 -0.25,0 -0.35,-0.2 -0.39,-0.35 l -0.39,-1.58 h -0.84 c -0.17,0 -0.28,0 -0.28,-0.19 0,-0.12 0.09,-0.12 0.25,-0.12 h 0.8 l -0.72,-2.85 c -0.01,-0.04 -0.05,-0.2 -0.05,-0.34 0,-0.5 0.33,-0.89 0.84,-0.89 1.01,0 1.52,1.48 1.52,1.53 0,0.1 -0.08,0.1 -0.15,0.1 -0.12,0 -0.12,-0.01 -0.2,-0.19 -0.18,-0.48 -0.58,-1.23 -1.15,-1.23 -0.26,0 -0.26,0.25 -0.26,0.41 0,0.07 0,0.23 0.07,0.51 z"
   id="path7956" />
<path
   style="fill:#000000;stroke-width:0"
   inkscape:connector-curvature="0"
   d="m 315.42,709.08 0.08,-0.02 0.09,-0.02 0.08,-0.02 0.04,-0.01 0.04,-0.01 0.03,-0.01 0.04,-0.01 0.04,-0.02 0.03,-0.01 0.04,-0.02 0.03,-0.01 0.04,-0.02 0.03,-0.02 0.03,-0.02 0.03,-0.02 0.03,-0.03 0.02,-0.02 0.03,-0.03 0.02,-0.02 0.02,-0.03 0.02,-0.04 0.02,-0.03 0.01,-0.03 0.02,-0.04 0.01,-0.04 0.01,-0.04 0,-0.05 0.01,-0.02 0,-0.02 0,-0.03 0,-0.02 c 0,-0.32 -0.27,-1.12 -1.3,-1.12 -0.21,0 -0.79,0.05 -0.95,0.56 0.51,0.05 0.51,0.47 0.51,0.49 0,0.19 -0.13,0.31 -0.34,0.31 -0.23,0 -0.51,-0.16 -0.51,-0.61 0,-0.61 0.58,-0.96 1.28,-0.96 1.5,0 1.88,1.21 1.88,1.66 0,0.87 -0.78,1.05 -1.19,1.14 -0.28,0.06 -0.64,0.14 -0.64,0.56 0,0.24 0.21,0.92 1.01,0.92 0.27,0 0.64,-0.1 0.74,-0.49 -0.31,-0.04 -0.39,-0.31 -0.39,-0.41 0,-0.11 0.06,-0.28 0.3,-0.28 0.17,0 0.42,0.12 0.42,0.55 0,0.46 -0.4,0.85 -1.06,0.85 -1.17,0 -1.57,-0.96 -1.57,-1.47 0,-0.77 0.64,-0.91 0.92,-0.97 z"
   id="path7958" />
<path
   style="fill:#000000;stroke-width:0"
   inkscape:connector-curvature="0"
   d="m 320.06,708.98 0.02,0 0.02,0 0.01,0 0.02,0 0.01,0 0.02,0 0.01,0 0.01,0 0.01,0.01 0.01,0 0.01,0 0.01,0 0.01,0 0.01,0 0.01,0.01 0.01,0 0,0 0.01,0 0.01,0.01 0,0 0.01,0.01 0,0 0.01,0.01 0,0 0.01,0.01 0,0.01 0.01,0 0,0.01 0,0.01 0.01,0.01 0,0.01 0,0.01 c 0.02,0.06 0.08,0.28 0.08,0.32 0,0.12 -0.09,0.12 -0.25,0.12 h -1.94 c -0.2,0 -0.22,0 -0.26,-0.13 -0.02,-0.06 -0.07,-0.25 -0.07,-0.3 0,-0.13 0.08,-0.13 0.26,-0.13 z"
   id="path7960" />
<path
   style="fill:#000000;stroke-width:0"
   inkscape:connector-curvature="0"
   d="m 326.87,713.89 0,0 0,0.01 0,0.01 0.01,0 0,0.01 0,0.01 0,0.01 0,0.01 0,0.01 0.01,0.01 0,0.01 0,0.01 0,0.01 0,0 0,0.01 0,0.01 0,0 0,0.01 0,0 c 0,0.02 -0.01,0.1 -0.11,0.1 -0.05,0 -0.06,-0.01 -0.15,-0.12 l -0.45,-0.56 c -0.38,0.67 -1.09,0.68 -1.29,0.68 -1.22,0 -2.31,-1.22 -2.31,-2.37 0,-0.51 0.22,-1.04 0.8,-1.31 0.06,-0.03 0.28,-0.09 0.43,-0.13 l 0.48,-0.14 c 0.52,-0.14 0.6,-0.17 0.77,-0.35 0.11,-0.14 0.22,-0.36 0.22,-0.72 0,-0.9 -0.78,-1.9 -1.66,-1.9 -0.75,0 -1.5,0.36 -1.5,1.39 0,0.23 0.05,0.5 0.08,0.61 0,0.02 0.01,0.04 0.01,0.06 0,0.11 -0.09,0.11 -0.14,0.11 -0.12,0 -0.14,-0.02 -0.18,-0.17 l -0.52,-2.07 c -0.02,-0.07 -0.03,-0.1 -0.03,-0.13 0,-0.06 0.05,-0.1 0.11,-0.1 0.07,0 0.08,0.02 0.16,0.12 0.11,0.12 0.37,0.43 0.47,0.56 0.36,-0.54 1,-0.68 1.52,-0.68 1.25,0 2.36,1.33 2.36,2.58 0,0.29 -0.07,0.69 -0.33,1.01 -0.25,0.31 -0.37,0.34 -1.32,0.62 -0.19,0.05 -0.49,0.14 -0.54,0.16 -0.34,0.15 -0.51,0.46 -0.51,0.87 0,0.82 0.77,1.7 1.61,1.7 0.94,0 1.21,-0.68 1.21,-1.41 0,-0.26 0,-0.33 -0.04,-0.55 l -0.02,-0.14 c 0,-0.09 0.1,-0.09 0.15,-0.09 0.11,0 0.14,0 0.18,0.17 z"
   id="path7962" />
<path
   style="fill:#000000;stroke-width:0"
   inkscape:connector-curvature="0"
   d="m 328.79,711.1 h 0.85 c 0.17,0 0.28,0 0.28,0.19 0,0.12 -0.09,0.12 -0.25,0.12 h -0.8 l 0.37,1.47 c 0.04,0.14 0.04,0.16 0.04,0.21 0,0.2 -0.17,0.25 -0.27,0.25 -0.25,0 -0.35,-0.2 -0.39,-0.35 l -0.39,-1.58 h -0.84 c -0.17,0 -0.28,0 -0.28,-0.19 0,-0.12 0.09,-0.12 0.25,-0.12 h 0.79 l -0.71,-2.85 c -0.01,-0.04 -0.05,-0.2 -0.05,-0.34 0,-0.5 0.33,-0.89 0.84,-0.89 1.01,0 1.52,1.48 1.52,1.53 0,0.1 -0.08,0.1 -0.15,0.1 -0.12,0 -0.12,-0.01 -0.2,-0.19 -0.18,-0.48 -0.58,-1.23 -1.15,-1.23 -0.27,0 -0.27,0.25 -0.27,0.41 0,0.07 0,0.23 0.07,0.51 z"
   id="path7964" />
<path
   style="fill:#000000;stroke-width:0"
   inkscape:connector-curvature="0"
   d="m 332.08,709.99 0,0 0,0 0,0.01 0.01,0.01 0,0 0,0.02 0.01,0.01 0,0.01 0.01,0.02 0.01,0.01 0,0.02 0.01,0.02 0.02,0.04 0.02,0.04 0.02,0.05 0.03,0.05 0.02,0.06 0.03,0.05 0.04,0.06 0.03,0.06 0.04,0.06 0.04,0.06 0.04,0.06 0.05,0.06 0.04,0.06 0.05,0.06 0.06,0.06 0.05,0.05 0.06,0.05 0.06,0.05 0.06,0.04 0.07,0.04 0.03,0.02 0.03,0.01 0.04,0.02 0.03,0.01 0.04,0.01 0.03,0.02 0.04,0 0.04,0.01 0.04,0.01 0.03,0 0.04,0.01 0.04,0 c 0.05,0 0.33,0 0.53,-0.14 -0.35,-0.11 -0.38,-0.43 -0.38,-0.48 0,-0.13 0.09,-0.32 0.35,-0.32 0.18,0 0.49,0.14 0.49,0.53 0,0.52 -0.65,0.63 -0.98,0.63 -0.68,0 -1.04,-0.5 -1.2,-0.72 -0.11,0.53 -0.5,0.72 -0.83,0.72 -0.35,0 -0.55,-0.23 -0.71,-0.53 -0.19,-0.4 -0.32,-0.98 -0.32,-1 0,-0.1 0.1,-0.1 0.15,-0.1 0.13,0 0.14,0.01 0.19,0.22 0.18,0.7 0.37,1.19 0.67,1.19 0.26,0 0.26,-0.29 0.26,-0.4 0,-0.16 -0.03,-0.35 -0.07,-0.51 l -0.74,-2.98 c -0.02,-0.06 -0.03,-0.11 -0.03,-0.14 0,-0.11 0.08,-0.25 0.28,-0.25 0.29,0 0.36,0.28 0.38,0.36 z"
   id="path7966" />
<path
   style="fill:#000000;stroke-width:0"
   inkscape:connector-curvature="0"
   d="m 338.27,709.89 0,0.08 -0.01,0.09 0,0.09 -0.02,0.08 -0.01,0.08 -0.02,0.08 -0.02,0.07 -0.02,0.08 -0.03,0.07 -0.03,0.07 -0.03,0.07 -0.04,0.07 -0.04,0.06 -0.04,0.06 -0.04,0.06 -0.05,0.06 -0.05,0.05 -0.05,0.05 -0.06,0.05 -0.05,0.04 -0.06,0.04 -0.06,0.04 -0.06,0.03 -0.07,0.03 -0.07,0.03 -0.07,0.03 -0.07,0.02 -0.07,0.01 -0.08,0.02 -0.07,0.01 -0.08,0 -0.08,0.01 c -1.24,0 -2.52,-1.42 -2.52,-2.86 0,-1.03 0.63,-1.64 1.45,-1.64 v 0.21 c -0.38,0 -0.75,0.31 -0.75,1.03 0,0.49 0.26,1.6 0.57,2.13 0.37,0.61 0.85,0.91 1.24,0.91 0.49,0 0.76,-0.44 0.76,-1.03 0,-0.42 -0.21,-1.45 -0.53,-2.04 -0.29,-0.55 -0.8,-1 -1.29,-1 h 0 v -0.21 c 1.24,0 2.52,1.41 2.52,2.87 z"
   id="path7968" />
<path
   style="fill:#000000;stroke-width:0"
   inkscape:connector-curvature="0"
   d="m 341.15,707.65 -0.21,-0.83 c -0.11,-0.5 -0.17,-0.71 -0.45,-1.05 -0.4,-0.46 -0.8,-0.46 -0.95,-0.46 -0.13,0 -0.44,0 -0.71,0.11 0.2,0.08 0.32,0.28 0.32,0.45 0,0.13 -0.09,0.32 -0.35,0.32 -0.17,0 -0.48,-0.14 -0.48,-0.53 0,-0.39 0.37,-0.57 1.2,-0.57 1.05,0 1.8,0.65 1.99,1.41 l 1.09,4.35 c 0.04,0.15 0.04,0.17 0.04,0.21 0,0.21 -0.17,0.26 -0.27,0.26 -0.12,0 -0.35,-0.08 -0.39,-0.37 -0.14,0.29 -0.41,0.57 -0.84,0.57 v -0.22 c 0.6,0 0.69,-0.84 0.69,-0.92 l -0.03,-0.14 -0.45,-1.8 c -0.08,-0.32 -0.68,-1.1 -1.23,-1.1 -0.54,0 -0.56,0.76 -0.56,0.87 0,0.47 0.3,1.64 0.51,2.1 0.25,0.54 0.69,0.99 1.07,0.99 v 0.22 c -1.11,0 -2.25,-1.47 -2.25,-2.87 0,-0.85 0.46,-1.53 1.21,-1.53 0.51,0 0.93,0.41 1.05,0.53 z"
   id="path7970" />
<path
   style="fill:#000000;stroke-width:0"
   inkscape:connector-curvature="0"
   d="m 345.85,707.71 0.01,-0.04 0.01,-0.05 0.01,-0.04 0.02,-0.04 0.01,-0.04 0.02,-0.03 0.02,-0.04 0.02,-0.03 0.02,-0.04 0.03,-0.03 0.02,-0.03 0.02,-0.02 0.03,-0.03 0.02,-0.02 0.03,-0.03 0.03,-0.02 0.03,-0.02 0.03,-0.02 0.03,-0.02 0.03,-0.01 0.03,-0.02 0.03,-0.01 0.03,-0.01 0.03,-0.01 0.03,-0.01 0.03,-0.01 0.04,-0.01 0.03,0 0.03,-0.01 0.04,0 0.03,0 0.03,0 c 0.37,0 0.58,0.24 0.73,0.55 0.18,0.38 0.3,0.96 0.3,0.98 0,0.1 -0.08,0.1 -0.15,0.1 -0.12,0 -0.13,-0.01 -0.19,-0.23 -0.14,-0.56 -0.33,-1.19 -0.67,-1.19 -0.26,0 -0.26,0.27 -0.26,0.41 0,0.07 0,0.23 0.07,0.51 l 0.68,2.7 c 0.04,0.14 0.04,0.16 0.04,0.21 0,0.21 -0.17,0.26 -0.27,0.26 -0.32,0 -0.39,-0.34 -0.4,-0.39 -0.19,0.43 -0.51,0.59 -0.82,0.59 -1.11,0 -2.28,-1.51 -2.28,-2.97 0,-0.84 0.45,-1.53 1.2,-1.53 l 0.02,0.21 c -0.47,0 -0.55,0.59 -0.55,0.89 0,0.49 0.31,1.66 0.49,2.08 0.25,0.6 0.71,1.1 1.12,1.1 0.43,0 0.68,-0.52 0.68,-0.94 0,-0.02 -0.01,-0.07 -0.03,-0.13 h 0 l -0.46,-1.87 c -0.08,-0.32 -0.7,-1.13 -1.25,-1.13 l -0.02,-0.21 c 0.36,0 0.8,0.2 1.2,0.69 z"
   id="path7972" />
<path
   style="fill:#000000;stroke-width:0"
   inkscape:connector-curvature="0"
   d="m 350.05,711.1 h 0.85 c 0.17,0 0.28,0 0.28,0.19 0,0.12 -0.09,0.12 -0.25,0.12 h -0.8 l 0.37,1.47 c 0.04,0.14 0.04,0.16 0.04,0.21 0,0.2 -0.17,0.25 -0.27,0.25 -0.25,0 -0.35,-0.2 -0.39,-0.35 l -0.39,-1.58 h -0.84 c -0.17,0 -0.28,0 -0.28,-0.19 0,-0.12 0.09,-0.12 0.25,-0.12 h 0.8 l -0.72,-2.85 c -0.01,-0.04 -0.05,-0.2 -0.05,-0.34 0,-0.5 0.33,-0.89 0.84,-0.89 1.01,0 1.52,1.48 1.52,1.53 0,0.1 -0.08,0.1 -0.15,0.1 -0.12,0 -0.12,-0.01 -0.2,-0.19 -0.18,-0.48 -0.58,-1.23 -1.14,-1.23 -0.27,0 -0.27,0.25 -0.27,0.41 0,0.07 0,0.23 0.07,0.51 z"
   id="path7974" />
<path
   style="fill:#000000;stroke-width:0"
   inkscape:connector-curvature="0"
   d="m 354.33,710 0.1,0.11 0.11,0.11 0.1,0.11 0.1,0.12 0.05,0.06 0.04,0.05 0.05,0.06 0.04,0.05 0.04,0.06 0.04,0.05 0.04,0.06 0.04,0.05 0.03,0.05 0.04,0.05 0.03,0.04 0.03,0.05 0.03,0.04 0.02,0.04 0.03,0.04 0.02,0.04 0.02,0.03 0.01,0.03 0.02,0.03 0.01,0.02 0.01,0.02 0.01,0.02 0,0.02 0,0.01 c 0,0.1 -0.08,0.1 -0.14,0.1 -0.12,0 -0.13,-0.01 -0.19,-0.13 -0.33,-0.57 -0.45,-0.62 -0.61,-0.62 -0.18,0 -0.28,0.1 -0.47,0.36 -0.12,0.16 -0.29,0.39 -0.61,0.39 -0.73,0 -1.16,-0.94 -1.16,-1.14 0,-0.09 0.07,-0.11 0.15,-0.11 0.12,0 0.13,0.02 0.18,0.14 0.07,0.22 0.36,0.47 0.73,0.47 0.2,0 0.38,-0.08 0.6,-0.18 0.33,-0.15 0.44,-0.15 0.59,-0.15 -0.15,-0.17 -0.24,-0.28 -0.4,-0.44 l -1.63,-1.61 c -0.56,-0.55 -1.04,-1.29 -1.04,-1.39 0,-0.09 0.09,-0.09 0.15,-0.09 0.11,0 0.12,0.02 0.16,0.08 0.14,0.21 0.41,0.66 0.79,0.66 0.21,0 0.29,-0.11 0.47,-0.36 0.16,-0.2 0.31,-0.38 0.62,-0.38 0.97,0 1.5,1.29 1.5,1.53 0,0.1 -0.12,0.1 -0.15,0.1 -0.12,0 -0.13,-0.04 -0.17,-0.16 -0.18,-0.5 -0.65,-0.84 -1.08,-0.84 -0.2,0 -0.36,0.07 -0.56,0.16 -0.3,0.13 -0.42,0.17 -0.61,0.17 -0.05,0 -0.13,0 -0.18,-0.01 0.07,0.08 0.28,0.33 0.55,0.61 z"
   id="path7976" />
</g>    <g
       style="font-style:normal;font-variant:normal;font-weight:normal;font-stretch:normal;letter-spacing:normal;word-spacing:normal;text-anchor:start;fill:none;stroke:#000000;stroke-linecap:butt;stroke-linejoin:miter;stroke-miterlimit:10.43299961;stroke-opacity:1;stroke-dasharray:none;stroke-dashoffset:0"
       ns0:preamble=""
       ns0:text="$$ \\frac{dx_i}{dt} = r_i x_i \\left( 1 - \\frac{[Ax]_i}{K_i} \\right) $$"
       text-anchor="start"
       word-spacing="normal"
       letter-spacing="normal"
       font-size-adjust="none"
       font-stretch="normal"
       font-weight="normal"
       font-variant="normal"
       font-style="normal"
       fill-opacity="1"
       fill-rule="evenodd"
       fill="none"
       stroke-opacity="1"
       stroke-dashoffset="0"
       stroke-dasharray="none"
       stroke-miterlimit="10.433"
       stroke-linejoin="miter"
       stroke-linecap="butt"
       stroke="black"
       xml:space="preserve"
       transform="matrix(3.5617529,0,0,-3.5617529,-850.80265,3391.8511)"
       id="content">
<path
   id="path3745"
   fill="black"
   stroke-width="0"
   d="M349.32,716.17 L349.32,716.17 L349.32,716.17 L349.32,716.17 L349.32,716.17 L349.32,716.17 L349.32,716.18 L349.32,716.18 L349.32,716.18 L349.32,716.19 L349.32,716.19 L349.32,716.2 L349.32,716.2 L349.32,716.21 L349.32,716.21 L349.31,716.22 L349.31,716.22 L349.31,716.23 L349.3,716.23 L349.3,716.23 L349.3,716.24 L349.29,716.24 L349.29,716.25 L349.29,716.25 L349.28,716.25 L349.28,716.25 L349.28,716.25 L349.28,716.26 L349.27,716.26 L349.27,716.26 L349.27,716.26 L349.26,716.26 L349.26,716.27 L349.25,716.27 L349.25,716.27 L349.25,716.27 L349.24,716.27 L349.24,716.27 L349.23,716.27 L349.23,716.27 L349.22,716.27 L349.22,716.27 L349.21,716.28 L349.21,716.28 L349.2,716.28 L349.2,716.28 C349.05,716.28,348.1,716.19,347.93,716.17 C347.85,716.16,347.79,716.11,347.79,715.98 C347.79,715.86,347.88,715.86,348.03,715.86 C348.51,715.86,348.53,715.79,348.53,715.69 L348.5,715.49 L347.9,713.14 C347.72,713.51,347.43,713.77,346.99,713.77 C345.82,713.77,344.59,712.31,344.59,710.86 C344.59,709.93,345.14,709.27,345.91,709.27 L345.93,709.49 C345.43,709.49,345.29,710.04,345.29,710.42 C345.29,710.92,345.61,712.14,345.84,712.6 C346.15,713.19,346.6,713.55,347,713.55 C347.64,713.55,347.78,712.74,347.78,712.68 C347.78,712.62,347.76,712.56,347.75,712.51 L347.25,710.56 C347.2,710.39,347.2,710.36,347.05,710.2 C346.62,709.65,346.21,709.49,345.93,709.49 L345.91,709.27 C346.11,709.27,346.61,709.31,347.2,710.02 C347.28,709.6,347.63,709.27,348.11,709.27 C348.46,709.27,348.69,709.5,348.85,709.82 C349.02,710.18,349.14,710.78,349.14,710.8 C349.14,710.9,349.05,710.9,349.02,710.9 C348.93,710.9,348.92,710.86,348.89,710.72 C348.72,710.08,348.54,709.49,348.13,709.49 C347.86,709.49,347.83,709.75,347.83,709.95 C347.83,710.19,347.85,710.26,347.89,710.42 Z " />
<path
   id="path3747"
   fill="black"
   stroke-width="0"
   d="M352.7,712.38 L352.71,712.41 L352.71,712.44 L352.72,712.47 L352.73,712.51 L352.74,712.55 L352.75,712.59 L352.77,712.63 L352.78,712.67 L352.8,712.72 L352.81,712.77 L352.83,712.82 L352.85,712.87 L352.88,712.92 L352.9,712.97 L352.92,713.02 L352.95,713.06 L352.98,713.11 L353.01,713.16 L353.05,713.21 L353.08,713.25 L353.12,713.29 L353.16,713.33 L353.2,713.37 L353.24,713.41 L353.29,713.44 L353.34,713.47 L353.36,713.48 L353.39,713.49 L353.42,713.5 L353.44,713.51 L353.47,713.52 L353.5,713.53 L353.53,713.54 L353.56,713.54 L353.59,713.55 L353.62,713.55 L353.65,713.55 L353.68,713.55 C353.73,713.55,353.97,713.55,354.18,713.42 C353.9,713.38,353.7,713.13,353.7,712.89 C353.7,712.73,353.81,712.54,354.08,712.54 C354.3,712.54,354.62,712.72,354.62,713.12 C354.62,713.63,354.03,713.77,353.69,713.77 C353.12,713.77,352.77,713.25,352.65,713.02 C352.4,713.67,351.86,713.77,351.57,713.77 C350.54,713.77,349.97,712.49,349.97,712.24 C349.97,712.14,350.07,712.14,350.09,712.14 C350.17,712.14,350.2,712.16,350.22,712.25 C350.56,713.31,351.22,713.55,351.55,713.55 C351.74,713.55,352.09,713.47,352.09,712.89 C352.09,712.58,351.92,711.91,351.55,710.52 C351.39,709.91,351.05,709.49,350.61,709.49 C350.55,709.49,350.32,709.49,350.11,709.62 C350.36,709.67,350.58,709.88,350.58,710.16 C350.58,710.42,350.36,710.51,350.21,710.51 C349.91,710.51,349.66,710.25,349.66,709.93 C349.66,709.47,350.16,709.27,350.6,709.27 C351.26,709.27,351.61,709.97,351.64,710.03 C351.76,709.66,352.12,709.27,352.72,709.27 C353.74,709.27,354.31,710.55,354.31,710.8 C354.31,710.9,354.22,710.9,354.19,710.9 C354.1,710.9,354.08,710.86,354.06,710.79 C353.73,709.73,353.06,709.49,352.74,709.49 C352.35,709.49,352.19,709.81,352.19,710.15 C352.19,710.36,352.25,710.58,352.36,711.02 Z " />
<path
   id="path3749"
   fill="black"
   stroke-width="0"
   d="M357.33,712.23 L357.32,712.24 L357.32,712.25 L357.32,712.27 L357.32,712.28 L357.32,712.29 L357.32,712.3 L357.31,712.31 L357.31,712.32 L357.3,712.33 L357.3,712.34 L357.29,712.35 L357.29,712.37 L357.28,712.38 L357.27,712.39 L357.27,712.4 L357.26,712.41 L357.25,712.42 L357.24,712.43 L357.23,712.43 L357.22,712.44 L357.21,712.45 L357.2,712.46 L357.19,712.47 L357.17,712.47 L357.16,712.48 L357.15,712.48 L357.13,712.49 L357.11,712.49 L357.1,712.49 L357.08,712.5 L357.06,712.5 L357.05,712.5 C356.86,712.5,356.66,712.32,356.66,712.11 C356.66,712,356.75,711.85,356.93,711.85 C357.14,711.85,357.33,712.04,357.33,712.23 Z " />
<path
   id="path3751"
   fill="black"
   stroke-width="0"
   d="M355.9,708.7 L355.9,708.68 L355.89,708.67 L355.88,708.63 L355.88,708.62 L355.87,708.6 L355.87,708.58 L355.86,708.57 L355.86,708.55 L355.85,708.53 L355.85,708.51 L355.85,708.49 L355.85,708.47 L355.84,708.46 L355.84,708.45 L355.84,708.44 L355.84,708.43 L355.84,708.42 L355.84,708.41 C355.84,708.08,356.12,707.82,356.5,707.82 C357.2,707.82,357.51,708.78,357.51,708.88 C357.51,708.97,357.42,708.97,357.39,708.97 C357.3,708.97,357.29,708.93,357.26,708.85 C357.1,708.3,356.8,708.01,356.52,708.01 C356.39,708.01,356.35,708.1,356.35,708.26 C356.35,708.42,356.4,708.55,356.46,708.7 C356.53,708.89,356.61,709.08,356.68,709.26 C356.75,709.42,357,710.06,357.03,710.14 C357.05,710.21,357.07,710.29,357.07,710.36 C357.07,710.69,356.79,710.95,356.41,710.95 C355.72,710.95,355.4,710.01,355.4,709.89 C355.4,709.8,355.49,709.8,355.52,709.8 C355.61,709.8,355.62,709.83,355.64,709.91 C355.82,710.51,356.13,710.76,356.39,710.76 C356.5,710.76,356.56,710.7,356.56,710.52 C356.56,710.36,356.52,710.25,356.34,709.82 Z " />
<line
   id="line3753"
   stroke-width="0.398"
   y2="705.13"
   x2="358.39"
   y1="705.13"
   x1="344.19" />
<path
   id="path3755"
   fill="black"
   stroke-width="0"
   d="M352.03,702.59 L352.03,702.59 L352.03,702.59 L352.03,702.6 L352.03,702.6 L352.03,702.6 L352.03,702.6 L352.03,702.61 L352.03,702.61 L352.03,702.61 L352.03,702.62 L352.03,702.62 L352.02,702.63 L352.02,702.63 L352.02,702.64 L352.02,702.64 L352.02,702.65 L352.01,702.65 L352.01,702.66 L352.01,702.66 L352,702.67 L352,702.67 L352,702.67 L351.99,702.67 L351.99,702.68 L351.99,702.68 L351.98,702.68 L351.98,702.68 L351.98,702.68 L351.98,702.69 L351.97,702.69 L351.97,702.69 L351.96,702.69 L351.96,702.69 L351.96,702.69 L351.95,702.7 L351.95,702.7 L351.94,702.7 L351.94,702.7 L351.93,702.7 L351.93,702.7 L351.92,702.7 L351.92,702.7 L351.91,702.7 L351.91,702.7 L351.9,702.7 C351.75,702.7,350.81,702.61,350.64,702.59 C350.56,702.58,350.5,702.53,350.5,702.4 C350.5,702.28,350.59,702.28,350.74,702.28 C351.21,702.28,351.23,702.22,351.23,702.12 L351.2,701.92 L350.61,699.56 C350.43,699.93,350.14,700.2,349.69,700.2 C348.53,700.2,347.29,698.74,347.29,697.29 C347.29,696.35,347.84,695.7,348.62,695.7 L348.64,695.92 C348.14,695.92,348,696.46,348,696.85 C348,697.35,348.32,698.57,348.55,699.03 C348.86,699.61,349.3,699.98,349.7,699.98 C350.35,699.98,350.49,699.17,350.49,699.11 C350.49,699.05,350.47,698.99,350.46,698.94 L349.96,696.99 C349.91,696.81,349.91,696.79,349.76,696.62 C349.32,696.08,348.92,695.92,348.64,695.92 L348.62,695.7 C348.82,695.7,349.31,695.74,349.91,696.44 C349.99,696.03,350.34,695.7,350.82,695.7 C351.16,695.7,351.39,695.93,351.55,696.24 C351.72,696.6,351.85,697.21,351.85,697.23 C351.85,697.33,351.76,697.33,351.73,697.33 C351.63,697.33,351.62,697.29,351.59,697.15 C351.42,696.5,351.24,695.92,350.84,695.92 C350.57,695.92,350.54,696.17,350.54,696.37 C350.54,696.61,350.56,696.68,350.6,696.85 Z " />
<path
   id="path3757"
   fill="black"
   stroke-width="0"
   d="M354.13,699.78 H355.07 C355.27,699.78,355.36,699.78,355.36,699.98 C355.36,700.09,355.27,700.09,355.09,700.09 H354.21 C354.57,701.5,354.62,701.7,354.62,701.76 C354.62,701.93,354.5,702.03,354.33,702.03 C354.3,702.03,354.02,702.02,353.93,701.67 L353.54,700.09 H352.61 C352.41,700.09,352.31,700.09,352.31,699.9 C352.31,699.78,352.39,699.78,352.59,699.78 H353.46 C352.75,696.96,352.71,696.79,352.71,696.61 C352.71,696.08,353.09,695.7,353.62,695.7 C354.64,695.7,355.21,697.15,355.21,697.23 C355.21,697.33,355.13,697.33,355.09,697.33 C355,697.33,354.99,697.3,354.94,697.19 C354.51,696.16,353.98,695.92,353.64,695.92 C353.43,695.92,353.33,696.05,353.33,696.37 C353.33,696.61,353.36,696.68,353.39,696.85 Z " />
<path
   id="path3759"
   fill="black"
   stroke-width="0"
   d="M369.18,705.89 L369.21,705.89 L369.24,705.89 L369.27,705.89 L369.29,705.89 L369.3,705.89 L369.31,705.89 L369.33,705.9 L369.34,705.9 L369.36,705.9 L369.37,705.9 L369.38,705.91 L369.4,705.91 L369.41,705.91 L369.42,705.92 L369.43,705.93 L369.44,705.93 L369.45,705.94 L369.46,705.95 L369.47,705.95 L369.48,705.96 L369.49,705.97 L369.49,705.98 L369.5,705.98 L369.5,705.99 L369.5,706 L369.51,706 L369.51,706.01 L369.51,706.02 L369.51,706.02 L369.52,706.03 L369.52,706.04 L369.52,706.05 L369.52,706.05 L369.52,706.06 L369.52,706.07 L369.52,706.08 L369.52,706.09 C369.52,706.29,369.33,706.29,369.19,706.29 H363.23 C363.1,706.29,362.91,706.29,362.91,706.09 C362.91,705.89,363.1,705.89,363.24,705.89 Z " />
<path
   id="path3761"
   fill="black"
   stroke-width="0"
   d="M369.19,703.96 L369.21,703.96 L369.22,703.96 L369.25,703.96 L369.28,703.96 L369.29,703.97 L369.3,703.97 L369.32,703.97 L369.33,703.97 L369.35,703.97 L369.36,703.97 L369.37,703.98 L369.39,703.98 L369.4,703.98 L369.41,703.99 L369.42,703.99 L369.43,704 L369.44,704 L369.45,704.01 L369.46,704.02 L369.47,704.03 L369.48,704.04 L369.49,704.04 L369.49,704.05 L369.49,704.05 L369.5,704.06 L369.5,704.06 L369.5,704.07 L369.51,704.08 L369.51,704.08 L369.51,704.09 L369.51,704.1 L369.52,704.1 L369.52,704.11 L369.52,704.12 L369.52,704.13 L369.52,704.14 L369.52,704.14 L369.52,704.15 L369.52,704.16 C369.52,704.36,369.33,704.36,369.18,704.36 H363.24 C363.1,704.36,362.91,704.36,362.91,704.16 C362.91,703.96,363.1,703.96,363.23,703.96 Z " />
<path
   id="path3763"
   fill="black"
   stroke-width="0"
   d="M373.74,703.23 L373.74,703.21 L373.74,703.2 L373.73,703.18 L373.73,703.17 L373.72,703.14 L373.71,703.11 L373.71,703.07 L373.7,703.04 L373.69,703.01 L373.68,702.98 L373.68,702.96 L373.68,702.95 L373.67,702.93 L373.67,702.92 L373.67,702.91 L373.67,702.89 L373.66,702.88 L373.66,702.87 L373.66,702.86 L373.66,702.85 L373.66,702.84 L373.65,702.83 L373.65,702.82 L373.65,702.81 L373.65,702.81 L373.65,702.8 C373.65,702.62,373.79,702.53,373.94,702.53 C374.06,702.53,374.24,702.61,374.31,702.81 C374.33,702.85,374.67,704.2,374.71,704.38 C374.79,704.71,374.96,705.4,375.02,705.67 C375.06,705.8,375.34,706.27,375.58,706.49 C375.66,706.56,375.95,706.81,376.38,706.81 C376.64,706.81,376.79,706.7,376.8,706.7 C376.5,706.65,376.28,706.41,376.28,706.15 C376.28,705.99,376.39,705.8,376.66,705.8 C376.92,705.8,377.2,706.03,377.2,706.39 C377.2,706.73,376.89,707.03,376.38,707.03 C375.73,707.03,375.29,706.55,375.1,706.27 C375.02,706.72,374.67,707.03,374.2,707.03 C373.74,707.03,373.55,706.65,373.46,706.47 C373.28,706.13,373.15,705.53,373.15,705.5 C373.15,705.4,373.25,705.4,373.27,705.4 C373.37,705.4,373.38,705.41,373.44,705.63 C373.61,706.34,373.81,706.81,374.17,706.81 C374.34,706.81,374.48,706.73,374.48,706.36 C374.48,706.15,374.45,706.04,374.32,705.52 Z " />
<path
   id="path3765"
   fill="black"
   stroke-width="0"
   d="M379.61,705.49 L379.61,705.5 L379.61,705.51 L379.61,705.53 L379.61,705.54 L379.61,705.55 L379.61,705.56 L379.6,705.57 L379.6,705.58 L379.59,705.59 L379.59,705.6 L379.58,705.61 L379.58,705.63 L379.57,705.64 L379.56,705.65 L379.56,705.66 L379.55,705.67 L379.54,705.68 L379.53,705.69 L379.52,705.69 L379.51,705.7 L379.5,705.71 L379.49,705.72 L379.48,705.73 L379.46,705.73 L379.45,705.74 L379.44,705.74 L379.42,705.75 L379.4,705.75 L379.39,705.75 L379.37,705.76 L379.35,705.76 L379.34,705.76 C379.15,705.76,378.95,705.58,378.95,705.38 C378.95,705.26,379.04,705.11,379.23,705.11 C379.43,705.11,379.61,705.3,379.61,705.49 Z " />
<path
   id="path3767"
   fill="black"
   stroke-width="0"
   d="M378.2,701.96 L378.19,701.94 L378.18,701.93 L378.17,701.89 L378.17,701.88 L378.16,701.86 L378.16,701.84 L378.15,701.82 L378.15,701.81 L378.14,701.79 L378.14,701.77 L378.14,701.75 L378.14,701.74 L378.14,701.73 L378.13,701.72 L378.13,701.71 L378.13,701.7 L378.13,701.69 L378.13,701.68 L378.13,701.67 C378.13,701.34,378.41,701.08,378.79,701.08 C379.49,701.08,379.8,702.04,379.8,702.14 C379.8,702.23,379.71,702.23,379.68,702.23 C379.59,702.23,379.58,702.19,379.55,702.11 C379.39,701.56,379.09,701.27,378.82,701.27 C378.67,701.27,378.64,701.36,378.64,701.52 C378.64,701.67,378.69,701.81,378.75,701.96 C378.82,702.15,378.9,702.34,378.98,702.52 C379.04,702.68,379.29,703.32,379.32,703.4 C379.34,703.47,379.36,703.55,379.36,703.62 C379.36,703.95,379.08,704.21,378.7,704.21 C378.01,704.21,377.69,703.27,377.69,703.15 C377.69,703.06,377.78,703.06,377.8,703.06 C377.9,703.06,377.91,703.09,377.93,703.17 C378.11,703.77,378.42,704.02,378.67,704.02 C378.79,704.02,378.85,703.96,378.85,703.78 C378.85,703.62,378.81,703.51,378.63,703.08 Z " />
<path
   id="path3769"
   fill="black"
   stroke-width="0"
   d="M384,705.64 L384.01,705.67 L384.01,705.7 L384.02,705.73 L384.03,705.77 L384.04,705.81 L384.05,705.85 L384.07,705.89 L384.08,705.93 L384.1,705.98 L384.11,706.03 L384.13,706.08 L384.15,706.13 L384.18,706.18 L384.2,706.23 L384.23,706.28 L384.25,706.32 L384.28,706.37 L384.31,706.42 L384.35,706.47 L384.38,706.51 L384.42,706.55 L384.46,706.59 L384.5,706.63 L384.54,706.67 L384.59,706.7 L384.64,706.73 L384.67,706.74 L384.69,706.75 L384.72,706.76 L384.74,706.77 L384.77,706.78 L384.8,706.79 L384.83,706.8 L384.86,706.8 L384.89,706.81 L384.92,706.81 L384.95,706.81 L384.98,706.81 C385.03,706.81,385.27,706.81,385.48,706.68 C385.2,706.64,385,706.39,385,706.15 C385,705.99,385.11,705.8,385.38,705.8 C385.6,705.8,385.92,705.98,385.92,706.38 C385.92,706.89,385.33,707.03,384.99,707.03 C384.42,707.03,384.07,706.51,383.95,706.28 C383.7,706.93,383.16,707.03,382.88,707.03 C381.84,707.03,381.27,705.75,381.27,705.5 C381.27,705.4,381.37,705.4,381.39,705.4 C381.47,705.4,381.5,705.42,381.52,705.51 C381.86,706.57,382.52,706.81,382.86,706.81 C383.04,706.81,383.39,706.72,383.39,706.15 C383.39,705.84,383.22,705.17,382.86,703.78 C382.7,703.17,382.35,702.75,381.91,702.75 C381.85,702.75,381.62,702.75,381.41,702.88 C381.66,702.93,381.88,703.14,381.88,703.42 C381.88,703.68,381.66,703.76,381.51,703.76 C381.21,703.76,380.96,703.51,380.96,703.19 C380.96,702.73,381.46,702.53,381.9,702.53 C382.56,702.53,382.91,703.23,382.94,703.29 C383.06,702.92,383.42,702.53,384.02,702.53 C385.04,702.53,385.61,703.81,385.61,704.06 C385.61,704.16,385.52,704.16,385.49,704.16 C385.4,704.16,385.38,704.12,385.36,704.05 C385.03,702.99,384.36,702.75,384.04,702.75 C383.65,702.75,383.49,703.07,383.49,703.41 C383.49,703.62,383.55,703.84,383.66,704.28 Z " />
<path
   id="path3771"
   fill="black"
   stroke-width="0"
   d="M388.63,705.49 L388.63,705.5 L388.63,705.51 L388.62,705.53 L388.62,705.54 L388.62,705.55 L388.62,705.56 L388.61,705.57 L388.61,705.58 L388.61,705.59 L388.6,705.6 L388.6,705.61 L388.59,705.63 L388.58,705.64 L388.58,705.65 L388.57,705.66 L388.56,705.67 L388.55,705.68 L388.54,705.69 L388.53,705.69 L388.52,705.7 L388.51,705.71 L388.5,705.72 L388.49,705.73 L388.47,705.73 L388.46,705.74 L388.45,705.74 L388.43,705.75 L388.42,705.75 L388.4,705.75 L388.38,705.76 L388.37,705.76 L388.35,705.76 C388.16,705.76,387.96,705.58,387.96,705.38 C387.96,705.26,388.05,705.11,388.24,705.11 C388.44,705.11,388.63,705.3,388.63,705.49 Z " />
<path
   id="path3773"
   fill="black"
   stroke-width="0"
   d="M387.21,701.96 L387.2,701.94 L387.2,701.93 L387.18,701.89 L387.18,701.88 L387.17,701.86 L387.17,701.84 L387.16,701.82 L387.16,701.81 L387.16,701.79 L387.15,701.77 L387.15,701.75 L387.15,701.74 L387.15,701.73 L387.15,701.72 L387.14,701.71 L387.14,701.7 L387.14,701.69 L387.14,701.68 L387.14,701.67 C387.14,701.34,387.42,701.08,387.8,701.08 C388.5,701.08,388.81,702.04,388.81,702.14 C388.81,702.23,388.72,702.23,388.7,702.23 C388.6,702.23,388.59,702.19,388.56,702.11 C388.4,701.56,388.1,701.27,387.83,701.27 C387.69,701.27,387.65,701.36,387.65,701.52 C387.65,701.67,387.7,701.81,387.76,701.96 C387.83,702.15,387.91,702.34,387.99,702.52 C388.05,702.68,388.3,703.32,388.33,703.4 C388.35,703.47,388.37,703.55,388.37,703.62 C388.37,703.95,388.09,704.21,387.71,704.21 C387.02,704.21,386.7,703.27,386.7,703.15 C386.7,703.06,386.8,703.06,386.82,703.06 C386.91,703.06,386.92,703.09,386.94,703.17 C387.12,703.77,387.43,704.02,387.69,704.02 C387.8,704.02,387.86,703.96,387.86,703.78 C387.86,703.62,387.82,703.51,387.64,703.08 Z " />
<path
   id="path3775"
   fill="black"
   stroke-width="0"
   d="M398.31,693.35 L398.31,693.36 L398.31,693.36 L398.31,693.36 L398.31,693.37 L398.31,693.37 L398.31,693.37 L398.31,693.38 L398.31,693.38 L398.31,693.38 L398.31,693.39 L398.3,693.39 L398.3,693.39 L398.3,693.39 L398.3,693.4 L398.3,693.4 L398.3,693.4 L398.3,693.41 L398.29,693.41 L398.29,693.42 L398.29,693.42 L398.28,693.43 L398.28,693.43 L398.28,693.44 L398.27,693.44 C397.9,693.81,397.24,694.48,396.57,695.55 C394.97,698.11,394.24,701.34,394.24,705.17 C394.24,707.84,394.6,711.28,396.24,714.24 C397.03,715.66,397.84,716.47,398.28,716.91 C398.31,716.94,398.31,716.96,398.31,716.99 C398.31,717.09,398.24,717.09,398.1,717.09 C397.96,717.09,397.94,717.09,397.79,716.94 C394.46,713.91,393.42,709.36,393.42,705.18 C393.42,701.27,394.31,697.34,396.84,694.37 C397.04,694.14,397.42,693.73,397.82,693.37 C397.94,693.26,397.96,693.26,398.1,693.26 C398.24,693.26,398.31,693.26,398.31,693.35 Z " />
<path
   id="path3777"
   fill="black"
   stroke-width="0"
   d="M401.61,709 L401.61,709.01 L401.61,709.02 L401.61,709.03 L401.61,709.04 L401.61,709.05 L401.61,709.06 L401.61,709.07 L401.61,709.08 L401.61,709.09 L401.61,709.1 L401.6,709.1 L401.6,709.11 L401.6,709.12 L401.6,709.13 L401.6,709.13 L401.6,709.14 L401.6,709.15 L401.6,709.15 L401.6,709.17 L401.6,709.18 L401.59,709.19 L401.59,709.2 L401.59,709.2 L401.58,709.21 L401.58,709.22 L401.57,709.22 L401.57,709.23 L401.56,709.23 L401.55,709.24 L401.54,709.24 L401.54,709.24 L401.53,709.25 L401.53,709.25 L401.52,709.25 L401.52,709.25 L401.51,709.25 L401.5,709.25 L401.5,709.25 L401.49,709.25 L401.48,709.25 L401.48,709.26 L401.47,709.26 L401.46,709.26 L401.45,709.26 L401.44,709.26 L401.44,709.26 L401.43,709.26 L401.42,709.26 L401.41,709.26 L401.4,709.26 L401.39,709.26 L401.38,709.26 C400.76,708.62,399.89,708.62,399.57,708.62 V708.31 C399.77,708.31,400.35,708.31,400.87,708.57 V703.43 C400.87,703.07,400.84,702.95,399.94,702.95 H399.63 V702.64 C399.97,702.67,400.84,702.67,401.24,702.67 C401.64,702.67,402.5,702.67,402.85,702.64 V702.95 H402.53 C401.64,702.95,401.61,703.06,401.61,703.43 Z " />
<path
   id="path3779"
   fill="black"
   stroke-width="0"
   d="M412.43,704.93 L412.46,704.93 L412.5,704.93 L412.53,704.93 L412.54,704.93 L412.56,704.93 L412.57,704.93 L412.59,704.93 L412.6,704.94 L412.62,704.94 L412.63,704.94 L412.64,704.94 L412.66,704.95 L412.67,704.95 L412.68,704.96 L412.69,704.96 L412.7,704.97 L412.72,704.98 L412.73,704.98 L412.73,704.99 L412.74,705 L412.75,705.01 L412.75,705.02 L412.76,705.02 L412.76,705.03 L412.76,705.03 L412.77,705.04 L412.77,705.05 L412.77,705.05 L412.77,705.06 L412.77,705.07 L412.78,705.07 L412.78,705.08 L412.78,705.09 L412.78,705.1 L412.78,705.11 L412.78,705.12 L412.78,705.12 C412.78,705.32,412.6,705.32,412.43,705.32 H407.05 C406.88,705.32,406.7,705.32,406.7,705.12 C406.7,704.93,406.88,704.93,407.05,704.93 Z " />
<polygon
   id="polygon3781"
   fill="black"
   stroke-width="0"
   points="419.57,706.9 419.57,707.3 418.61,707.3 418.61,716.43 419.57,716.43 419.57,716.83 418.21,716.83 418.21,706.9 " />
<path
   id="path3783"
   fill="black"
   stroke-width="0"
   d="M421.58,710.52 L421.55,710.46 L421.51,710.41 L421.47,710.35 L421.43,710.3 L421.4,710.25 L421.36,710.2 L421.32,710.16 L421.29,710.12 L421.25,710.08 L421.21,710.04 L421.17,710.01 L421.14,709.98 L421.1,709.95 L421.06,709.92 L421.02,709.89 L420.99,709.87 L420.95,709.85 L420.91,709.83 L420.87,709.81 L420.83,709.79 L420.8,709.78 L420.76,709.76 L420.72,709.75 L420.68,709.74 L420.64,709.73 L420.6,709.72 L420.56,709.71 L420.52,709.71 L420.44,709.7 L420.36,709.69 C420.24,709.68,420.15,709.68,420.15,709.49 C420.15,709.43,420.2,709.38,420.28,709.38 C420.55,709.38,420.86,709.41,421.14,709.41 C421.46,709.41,421.81,709.38,422.13,709.38 C422.19,709.38,422.32,709.38,422.32,709.57 C422.32,709.68,422.23,709.69,422.16,709.69 C421.93,709.71,421.69,709.79,421.69,710.04 C421.69,710.16,421.75,710.27,421.83,710.41 L422.59,711.68 H425.08 L425.05,711.98 H422.78 L424.74,715.26 L425.05,711.98 L425.08,711.68 C425.11,711.47,425.24,710.12,425.24,710.02 C425.24,709.72,424.73,709.69,424.53,709.69 C424.39,709.69,424.29,709.69,424.29,709.49 C424.29,709.38,424.41,709.38,424.43,709.38 C424.84,709.38,425.26,709.41,425.67,709.41 C425.92,709.41,426.55,709.38,426.8,709.38 C426.86,709.38,426.98,709.38,426.98,709.58 C426.98,709.69,426.88,709.69,426.75,709.69 C426.13,709.69,426.13,709.76,426.1,710.05 L425.49,716.26 C425.47,716.46,425.47,716.49,425.3,716.49 C425.14,716.49,425.11,716.42,425.05,716.33 Z " />
<path
   id="path3785"
   fill="black"
   stroke-width="0"
   d="M430.6,712.38 L430.6,712.41 L430.61,712.44 L430.62,712.47 L430.63,712.51 L430.64,712.55 L430.65,712.59 L430.66,712.63 L430.68,712.67 L430.69,712.72 L430.71,712.77 L430.73,712.82 L430.75,712.87 L430.77,712.92 L430.8,712.97 L430.82,713.02 L430.85,713.06 L430.88,713.11 L430.91,713.16 L430.94,713.21 L430.98,713.25 L431.02,713.29 L431.06,713.33 L431.1,713.37 L431.14,713.41 L431.19,713.44 L431.24,713.47 L431.26,713.48 L431.29,713.49 L431.31,713.5 L431.34,713.51 L431.37,713.52 L431.4,713.53 L431.43,713.54 L431.46,713.54 L431.49,713.55 L431.52,713.55 L431.55,713.55 L431.58,713.55 C431.63,713.55,431.87,713.55,432.08,713.42 C431.8,713.38,431.6,713.13,431.6,712.89 C431.6,712.73,431.71,712.54,431.98,712.54 C432.2,712.54,432.52,712.72,432.52,713.12 C432.52,713.63,431.93,713.77,431.59,713.77 C431.02,713.77,430.67,713.25,430.55,713.02 C430.3,713.67,429.76,713.77,429.47,713.77 C428.44,713.77,427.87,712.49,427.87,712.24 C427.87,712.14,427.97,712.14,427.99,712.14 C428.07,712.14,428.1,712.16,428.12,712.25 C428.46,713.31,429.11,713.55,429.45,713.55 C429.64,713.55,429.99,713.47,429.99,712.89 C429.99,712.58,429.82,711.91,429.45,710.52 C429.29,709.91,428.95,709.49,428.51,709.49 C428.45,709.49,428.22,709.49,428.01,709.62 C428.26,709.67,428.48,709.88,428.48,710.16 C428.48,710.42,428.26,710.51,428.11,710.51 C427.81,710.51,427.56,710.25,427.56,709.93 C427.56,709.47,428.06,709.27,428.5,709.27 C429.15,709.27,429.51,709.97,429.54,710.03 C429.66,709.66,430.02,709.27,430.62,709.27 C431.64,709.27,432.21,710.55,432.21,710.8 C432.21,710.9,432.12,710.9,432.09,710.9 C432,710.9,431.98,710.86,431.96,710.79 C431.63,709.73,430.95,709.49,430.64,709.49 C430.25,709.49,430.09,709.81,430.09,710.15 C430.09,710.36,430.15,710.58,430.26,711.02 Z " />
<polygon
   id="polygon3787"
   fill="black"
   stroke-width="0"
   points="434.55,716.83 433.19,716.83 433.19,716.43 434.15,716.43 434.15,707.3 433.19,707.3 433.19,706.9 434.55,706.9 " />
<path
   id="path3789"
   fill="black"
   stroke-width="0"
   d="M437.99,712.23 L437.99,712.24 L437.99,712.25 L437.99,712.27 L437.99,712.28 L437.98,712.29 L437.98,712.3 L437.98,712.31 L437.97,712.32 L437.97,712.33 L437.97,712.34 L437.96,712.35 L437.95,712.37 L437.95,712.38 L437.94,712.39 L437.93,712.4 L437.93,712.41 L437.92,712.42 L437.91,712.43 L437.9,712.43 L437.89,712.44 L437.88,712.45 L437.86,712.46 L437.85,712.47 L437.84,712.47 L437.83,712.48 L437.81,712.48 L437.8,712.49 L437.78,712.49 L437.76,712.49 L437.75,712.5 L437.73,712.5 L437.71,712.5 C437.52,712.5,437.32,712.32,437.32,712.11 C437.32,712,437.41,711.85,437.6,711.85 C437.8,711.85,437.99,712.04,437.99,712.23 Z " />
<path
   id="path3791"
   fill="black"
   stroke-width="0"
   d="M436.57,708.7 L436.57,708.68 L436.56,708.67 L436.55,708.63 L436.54,708.62 L436.54,708.6 L436.53,708.58 L436.53,708.56 L436.52,708.55 L436.52,708.53 L436.52,708.51 L436.51,708.49 L436.51,708.48 L436.51,708.47 L436.51,708.46 L436.51,708.45 L436.51,708.44 L436.51,708.43 L436.51,708.42 L436.51,708.41 C436.51,708.08,436.79,707.82,437.17,707.82 C437.87,707.82,438.17,708.78,438.17,708.88 C438.17,708.97,438.08,708.97,438.06,708.97 C437.96,708.97,437.96,708.93,437.93,708.85 C437.77,708.3,437.46,708.01,437.19,708.01 C437.05,708.01,437.02,708.1,437.02,708.26 C437.02,708.41,437.07,708.55,437.13,708.7 C437.2,708.89,437.27,709.08,437.35,709.26 C437.41,709.42,437.66,710.06,437.69,710.14 C437.71,710.21,437.73,710.29,437.73,710.36 C437.73,710.69,437.45,710.95,437.07,710.95 C436.38,710.95,436.06,710.01,436.06,709.89 C436.06,709.8,436.16,709.8,436.18,709.8 C436.28,709.8,436.29,709.83,436.31,709.91 C436.49,710.51,436.79,710.76,437.05,710.76 C437.16,710.76,437.23,710.7,437.23,710.52 C437.23,710.35,437.18,710.25,437.01,709.82 Z " />
<line
   id="line3793"
   stroke-width="0.398"
   y2="705.13"
   x2="439.05"
   y1="705.13"
   x1="417.03" />
<path
   id="path3795"
   fill="black"
   stroke-width="0"
   d="M427.22,699.82 L427.22,699.82 L427.22,699.83 L427.21,699.83 L427.21,699.83 L427.21,699.84 L427.21,699.84 L427.21,699.85 L427.21,699.85 L427.2,699.86 L427.2,699.86 L427.2,699.87 L427.2,699.87 L427.19,699.88 L427.19,699.89 L427.19,699.9 L427.18,699.91 L427.18,699.91 L427.18,699.92 L427.18,699.92 L427.18,699.93 L427.17,699.93 L427.17,699.93 L427.17,699.94 L427.17,699.94 L427.17,699.95 L427.17,699.95 L427.17,699.95 L427.17,699.96 L427.17,699.96 C427.17,699.97,427.35,700.11,427.46,700.19 L429.2,701.53 C430.13,702.22,430.52,702.26,430.82,702.28 C430.9,702.29,431,702.3,431,702.48 C431,702.52,430.97,702.59,430.89,702.59 C430.67,702.59,430.42,702.56,430.18,702.56 C429.83,702.56,429.44,702.59,429.08,702.59 C429.01,702.59,428.89,702.59,428.89,702.39 C428.89,702.33,428.94,702.29,429.01,702.28 C429.23,702.27,429.32,702.22,429.32,702.08 C429.32,701.9,429.02,701.67,428.96,701.62 L425.08,698.64 L425.88,701.83 C425.96,702.19,425.98,702.28,426.71,702.28 C426.96,702.28,427.05,702.28,427.05,702.48 C427.05,702.57,426.97,702.59,426.91,702.59 C426.63,702.59,425.92,702.56,425.64,702.56 C425.35,702.56,424.64,702.59,424.35,702.59 C424.28,702.59,424.15,702.59,424.15,702.4 C424.15,702.28,424.24,702.28,424.44,702.28 C424.57,702.28,424.75,702.28,424.87,702.27 C425.03,702.24,425.09,702.22,425.09,702.11 C425.09,702.07,425.08,702.04,425.05,701.92 L423.72,696.58 C423.62,696.2,423.6,696.12,422.81,696.12 C422.64,696.12,422.53,696.12,422.53,695.93 C422.53,695.81,422.65,695.81,422.68,695.81 C422.96,695.81,423.67,695.84,423.95,695.84 C424.15,695.84,424.37,695.83,424.58,695.83 C424.8,695.83,425.02,695.81,425.23,695.81 C425.3,695.81,425.43,695.81,425.43,696.01 C425.43,696.12,425.34,696.12,425.15,696.12 C424.78,696.12,424.5,696.12,424.5,696.29 C424.5,696.36,424.56,696.58,424.59,696.73 C424.73,697.25,424.86,697.78,424.99,698.29 L426.47,699.44 L427.63,696.77 C427.74,696.5,427.74,696.48,427.74,696.42 C427.74,696.13,427.32,696.12,427.23,696.12 C427.12,696.12,427.01,696.12,427.01,695.92 C427.01,695.81,427.13,695.81,427.15,695.81 C427.55,695.81,427.96,695.84,428.36,695.84 C428.58,695.84,429.12,695.81,429.34,695.81 C429.39,695.81,429.52,695.81,429.52,696.01 C429.52,696.12,429.41,696.12,429.32,696.12 C428.91,696.13,428.78,696.22,428.63,696.56 Z " />
<path
   id="path3797"
   fill="black"
   stroke-width="0"
   d="M432.87,698.66 L432.87,698.67 L432.87,698.68 L432.87,698.69 L432.87,698.7 L432.86,698.71 L432.86,698.73 L432.86,698.74 L432.85,698.75 L432.85,698.76 L432.85,698.77 L432.84,698.78 L432.83,698.79 L432.83,698.8 L432.82,698.81 L432.81,698.82 L432.81,698.83 L432.8,698.84 L432.79,698.85 L432.78,698.86 L432.77,698.87 L432.76,698.88 L432.74,698.89 L432.73,698.89 L432.72,698.9 L432.71,698.9 L432.69,698.91 L432.68,698.91 L432.66,698.92 L432.64,698.92 L432.63,698.92 L432.61,698.92 L432.59,698.92 C432.4,698.92,432.2,698.74,432.2,698.54 C432.2,698.42,432.29,698.28,432.48,698.28 C432.68,698.28,432.87,698.47,432.87,698.66 Z " />
<path
   id="path3799"
   fill="black"
   stroke-width="0"
   d="M431.45,695.13 L431.45,695.11 L431.44,695.09 L431.43,695.06 L431.42,695.04 L431.42,695.03 L431.41,695.01 L431.41,694.99 L431.4,694.97 L431.4,694.96 L431.4,694.94 L431.39,694.92 L431.39,694.91 L431.39,694.9 L431.39,694.89 L431.39,694.88 L431.39,694.87 L431.39,694.86 L431.39,694.85 L431.39,694.84 C431.39,694.51,431.67,694.24,432.05,694.24 C432.75,694.24,433.05,695.2,433.05,695.31 C433.05,695.4,432.96,695.4,432.94,695.4 C432.84,695.4,432.84,695.36,432.81,695.28 C432.65,694.72,432.34,694.44,432.07,694.44 C431.93,694.44,431.9,694.53,431.9,694.68 C431.9,694.84,431.95,694.97,432.01,695.13 C432.08,695.32,432.15,695.5,432.23,695.68 C432.29,695.85,432.54,696.48,432.57,696.57 C432.59,696.64,432.61,696.72,432.61,696.79 C432.61,697.12,432.33,697.38,431.95,697.38 C431.26,697.38,430.94,696.43,430.94,696.32 C430.94,696.23,431.04,696.23,431.06,696.23 C431.16,696.23,431.17,696.26,431.19,696.34 C431.37,696.94,431.67,697.19,431.93,697.19 C432.04,697.19,432.11,697.13,432.11,696.94 C432.11,696.78,432.06,696.68,431.89,696.25 Z " />
<path
   id="path3801"
   fill="black"
   stroke-width="0"
   d="M445.49,705.17 L445.48,705.9 L445.45,706.63 L445.39,707.36 L445.31,708.08 L445.21,708.8 L445.07,709.52 L444.92,710.22 L444.73,710.92 L444.51,711.61 L444.39,711.94 L444.26,712.28 L444.13,712.61 L443.98,712.94 L443.83,713.26 L443.67,713.58 L443.5,713.9 L443.32,714.21 L443.14,714.52 L442.94,714.82 L442.74,715.11 L442.52,715.41 L442.3,715.69 L442.07,715.97 C441.87,716.2,441.49,716.61,441.08,716.97 C440.96,717.09,440.94,717.09,440.8,717.09 C440.69,717.09,440.6,717.09,440.6,716.99 C440.6,716.95,440.64,716.91,440.66,716.89 C441,716.53,441.67,715.86,442.34,714.79 C443.94,712.23,444.67,709,444.67,705.18 C444.67,702.5,444.31,699.06,442.67,696.1 C441.88,694.68,441.05,693.86,440.64,693.44 C440.62,693.41,440.6,693.38,440.6,693.35 C440.6,693.26,440.69,693.26,440.8,693.26 C440.94,693.26,440.96,693.26,441.11,693.4 C444.45,696.43,445.49,700.98,445.49,705.17 Z " />
</g>  </g>
</svg>
