<?xml version="1.0" encoding="UTF-8" standalone="no"?>
<!-- Created with Inkscape (http://www.inkscape.org/) -->

<svg
   xmlns:dc="http://purl.org/dc/elements/1.1/"
   xmlns:cc="http://creativecommons.org/ns#"
   xmlns:rdf="http://www.w3.org/1999/02/22-rdf-syntax-ns#"
   xmlns:svg="http://www.w3.org/2000/svg"
   xmlns="http://www.w3.org/2000/svg"
   xmlns:sodipodi="http://sodipodi.sourceforge.net/DTD/sodipodi-0.dtd"
   xmlns:inkscape="http://www.inkscape.org/namespaces/inkscape"
   width="1000"
   height="600"
   id="svg5359"
   version="1.1"
   inkscape:version="0.48.3.1 r9886"
   sodipodi:docname="im46.svg">
  <sodipodi:namedview
     id="base"
     pagecolor="#ffffff"
     bordercolor="#666666"
     borderopacity="1.0"
     inkscape:pageopacity="0.0"
     inkscape:pageshadow="2"
     inkscape:zoom="1.979899"
     inkscape:cx="172.29834"
     inkscape:cy="464.40458"
     inkscape:document-units="px"
     inkscape:current-layer="layer1"
     showgrid="false"
     inkscape:window-width="1301"
     inkscape:window-height="744"
     inkscape:window-x="65"
     inkscape:window-y="24"
     inkscape:window-maximized="1" />
  <defs
     id="defs5361">
    <marker
       inkscape:stockid="Arrow1Lend"
       orient="auto"
       refY="0"
       refX="0"
       id="Arrow1Lend"
       style="overflow:visible">
      <path
         id="path4191"
         d="M 0,0 5,-5 -12.5,0 5,5 0,0 z"
         style="fill-rule:evenodd;stroke:#000000;stroke-width:1pt"
         transform="matrix(-0.8,0,0,-0.8,-10,0)"
         inkscape:connector-curvature="0" />
    </marker>
    <marker
       inkscape:stockid="Arrow1Lend"
       orient="auto"
       refY="0"
       refX="0"
       id="marker5264"
       style="overflow:visible">
      <path
         id="path5266"
         d="M 0,0 5,-5 -12.5,0 5,5 0,0 z"
         style="fill-rule:evenodd;stroke:#000000;stroke-width:1pt"
         transform="matrix(-0.8,0,0,-0.8,-10,0)"
         inkscape:connector-curvature="0" />
    </marker>
    <marker
       inkscape:stockid="Arrow1Lend"
       orient="auto"
       refY="0"
       refX="0"
       id="marker5268"
       style="overflow:visible">
      <path
         id="path5270"
         d="M 0,0 5,-5 -12.5,0 5,5 0,0 z"
         style="fill-rule:evenodd;stroke:#000000;stroke-width:1pt"
         transform="matrix(-0.8,0,0,-0.8,-10,0)"
         inkscape:connector-curvature="0" />
    </marker>
    <marker
       inkscape:stockid="Arrow1Lend"
       orient="auto"
       refY="0"
       refX="0"
       id="marker5272"
       style="overflow:visible">
      <path
         id="path5274"
         d="M 0,0 5,-5 -12.5,0 5,5 0,0 z"
         style="fill-rule:evenodd;stroke:#000000;stroke-width:1pt"
         transform="matrix(-0.8,0,0,-0.8,-10,0)"
         inkscape:connector-curvature="0" />
    </marker>
    <marker
       inkscape:stockid="Arrow1Mend"
       orient="auto"
       refY="0"
       refX="0"
       id="Arrow1Mend"
       style="overflow:visible">
      <path
         id="path4197"
         d="M 0,0 5,-5 -12.5,0 5,5 0,0 z"
         style="fill-rule:evenodd;stroke:#000000;stroke-width:1pt"
         transform="matrix(-0.4,0,0,-0.4,-4,0)"
         inkscape:connector-curvature="0" />
    </marker>
    <clipPath
       clipPathUnits="userSpaceOnUse"
       id="clipPath14120">
      <path
         inkscape:connector-curvature="0"
         d="m 59.04,73.44 320.22,0 0,142.77 -320.22,0 0,-142.77 z"
         id="path14122" />
    </clipPath>
    <clipPath
       clipPathUnits="userSpaceOnUse"
       id="clipPath14184">
      <path
         inkscape:connector-curvature="0"
         d="m 59.04,73.44 320.22,0 0,142.77 -320.22,0 0,-142.77 z"
         id="path14186" />
    </clipPath>
    <clipPath
       clipPathUnits="userSpaceOnUse"
       id="clipPath14529">
      <path
         inkscape:connector-curvature="0"
         d="m 59.04,73.44 320.22,0 0,142.77 -320.22,0 0,-142.77 z"
         id="path14531" />
    </clipPath>
    <clipPath
       clipPathUnits="userSpaceOnUse"
       id="clipPath14593">
      <path
         inkscape:connector-curvature="0"
         d="m 59.04,73.44 320.22,0 0,142.77 -320.22,0 0,-142.77 z"
         id="path14595" />
    </clipPath>
    <clipPath
       clipPathUnits="userSpaceOnUse"
       id="clipPath13294">
      <path
         inkscape:connector-curvature="0"
         d="m 59.04,73.44 320.22,0 0,142.77 -320.22,0 0,-142.77 z"
         id="path13296" />
    </clipPath>
    <clipPath
       clipPathUnits="userSpaceOnUse"
       id="clipPath13358">
      <path
         inkscape:connector-curvature="0"
         d="m 59.04,73.44 320.22,0 0,142.77 -320.22,0 0,-142.77 z"
         id="path13360" />
    </clipPath>
    <marker
       inkscape:stockid="Arrow1Mend"
       orient="auto"
       refY="0"
       refX="0"
       id="marker6138"
       style="overflow:visible">
      <path
         id="path6140"
         d="M 0,0 5,-5 -12.5,0 5,5 0,0 z"
         style="fill-rule:evenodd;stroke:#000000;stroke-width:1pt"
         transform="matrix(-0.4,0,0,-0.4,-4,0)"
         inkscape:connector-curvature="0" />
    </marker>
    <marker
       inkscape:stockid="Arrow1Mend"
       orient="auto"
       refY="0"
       refX="0"
       id="marker6142"
       style="overflow:visible">
      <path
         id="path6144"
         d="M 0,0 5,-5 -12.5,0 5,5 0,0 z"
         style="fill-rule:evenodd;stroke:#000000;stroke-width:1pt"
         transform="matrix(-0.4,0,0,-0.4,-4,0)"
         inkscape:connector-curvature="0" />
    </marker>
    <clipPath
       clipPathUnits="userSpaceOnUse"
       id="clipPath13706">
      <path
         inkscape:connector-curvature="0"
         d="m 59.04,73.44 320.22,0 0,142.77 -320.22,0 0,-142.77 z"
         id="path13708" />
    </clipPath>
    <clipPath
       clipPathUnits="userSpaceOnUse"
       id="clipPath13770">
      <path
         inkscape:connector-curvature="0"
         d="m 59.04,73.44 320.22,0 0,142.77 -320.22,0 0,-142.77 z"
         id="path13772" />
    </clipPath>
    <marker
       inkscape:stockid="Arrow1Mend"
       orient="auto"
       refY="0"
       refX="0"
       id="marker6150"
       style="overflow:visible">
      <path
         id="path6152"
         d="M 0,0 5,-5 -12.5,0 5,5 0,0 z"
         style="fill-rule:evenodd;stroke:#000000;stroke-width:1pt"
         transform="matrix(-0.4,0,0,-0.4,-4,0)"
         inkscape:connector-curvature="0" />
    </marker>
    <marker
       inkscape:stockid="Arrow1Mend"
       orient="auto"
       refY="0"
       refX="0"
       id="marker6154"
       style="overflow:visible">
      <path
         id="path6156"
         d="M 0,0 5,-5 -12.5,0 5,5 0,0 z"
         style="fill-rule:evenodd;stroke:#000000;stroke-width:1pt"
         transform="matrix(-0.4,0,0,-0.4,-4,0)"
         inkscape:connector-curvature="0" />
    </marker>
    <clipPath
       clipPathUnits="userSpaceOnUse"
       id="clipPath14941">
      <path
         inkscape:connector-curvature="0"
         d="m 59.04,73.44 320.22,0 0,142.77 -320.22,0 0,-142.77 z"
         id="path14943" />
    </clipPath>
    <clipPath
       clipPathUnits="userSpaceOnUse"
       id="clipPath15005">
      <path
         inkscape:connector-curvature="0"
         d="m 59.04,73.44 320.22,0 0,142.77 -320.22,0 0,-142.77 z"
         id="path15007" />
    </clipPath>
    <marker
       inkscape:stockid="Arrow1Mend"
       orient="auto"
       refY="0"
       refX="0"
       id="marker6162"
       style="overflow:visible">
      <path
         id="path6164"
         d="M 0,0 5,-5 -12.5,0 5,5 0,0 z"
         style="fill-rule:evenodd;stroke:#000000;stroke-width:1pt"
         transform="matrix(-0.4,0,0,-0.4,-4,0)"
         inkscape:connector-curvature="0" />
    </marker>
    <marker
       inkscape:stockid="Arrow1Mend"
       orient="auto"
       refY="0"
       refX="0"
       id="marker6166"
       style="overflow:visible">
      <path
         id="path6168"
         d="M 0,0 5,-5 -12.5,0 5,5 0,0 z"
         style="fill-rule:evenodd;stroke:#000000;stroke-width:1pt"
         transform="matrix(-0.4,0,0,-0.4,-4,0)"
         inkscape:connector-curvature="0" />
    </marker>
    <marker
       inkscape:stockid="Arrow1Mend"
       orient="auto"
       refY="0"
       refX="0"
       id="marker6170"
       style="overflow:visible">
      <path
         id="path6172"
         d="M 0,0 5,-5 -12.5,0 5,5 0,0 z"
         style="fill-rule:evenodd;stroke:#000000;stroke-width:1pt"
         transform="matrix(-0.4,0,0,-0.4,-4,0)"
         inkscape:connector-curvature="0" />
    </marker>
    <marker
       inkscape:stockid="Arrow1Mend"
       orient="auto"
       refY="0"
       refX="0"
       id="marker6174"
       style="overflow:visible">
      <path
         id="path6176"
         d="M 0,0 5,-5 -12.5,0 5,5 0,0 z"
         style="fill-rule:evenodd;stroke:#000000;stroke-width:1pt"
         transform="matrix(-0.4,0,0,-0.4,-4,0)"
         inkscape:connector-curvature="0" />
    </marker>
    <marker
       inkscape:stockid="Arrow1Mend"
       orient="auto"
       refY="0"
       refX="0"
       id="marker6178"
       style="overflow:visible">
      <path
         id="path6180"
         d="M 0,0 5,-5 -12.5,0 5,5 0,0 z"
         style="fill-rule:evenodd;stroke:#000000;stroke-width:1pt"
         transform="matrix(-0.4,0,0,-0.4,-4,0)"
         inkscape:connector-curvature="0" />
    </marker>
    <marker
       inkscape:stockid="Arrow1Mend"
       orient="auto"
       refY="0"
       refX="0"
       id="marker33532"
       style="overflow:visible">
      <path
         id="path33534"
         d="M 0,0 5,-5 -12.5,0 5,5 0,0 z"
         style="fill-rule:evenodd;stroke:#000000;stroke-width:1pt"
         transform="matrix(-0.4,0,0,-0.4,-4,0)"
         inkscape:connector-curvature="0" />
    </marker>
    <marker
       inkscape:stockid="Arrow1Mend"
       orient="auto"
       refY="0"
       refX="0"
       id="marker10291"
       style="overflow:visible">
      <path
         id="path10293"
         d="M 0,0 5,-5 -12.5,0 5,5 0,0 z"
         style="fill-rule:evenodd;stroke:#000000;stroke-width:1pt"
         transform="matrix(-0.4,0,0,-0.4,-4,0)"
         inkscape:connector-curvature="0" />
    </marker>
    <marker
       inkscape:stockid="marker33528d"
       orient="auto"
       refY="0"
       refX="0"
       id="marker33528d"
       style="overflow:visible">
      <path
         id="path9582"
         style="fill:#ff0000;fill-rule:evenodd;stroke:#ff0000;stroke-width:0.625;stroke-linejoin:round"
         d="M 8.7185878,4.0337352 -2.2072895,0.01601326 8.7185884,-4.0017078 c -1.7454984,2.3720609 -1.7354408,5.6174519 -6e-7,8.035443 z"
         transform="scale(0.6,0.6)"
         inkscape:connector-curvature="0" />
    </marker>
    <marker
       inkscape:stockid="Arrow1Mend"
       orient="auto"
       refY="0"
       refX="0"
       id="marker10297"
       style="overflow:visible">
      <path
         id="path10299"
         d="M 0,0 5,-5 -12.5,0 5,5 0,0 z"
         style="fill-rule:evenodd;stroke:#000000;stroke-width:1pt"
         transform="matrix(-0.4,0,0,-0.4,-4,0)"
         inkscape:connector-curvature="0" />
    </marker>
    <marker
       inkscape:stockid="marker33532T"
       orient="auto"
       refY="0"
       refX="0"
       id="marker33532T"
       style="overflow:visible">
      <path
         id="path9585"
         d="M 0,0 5,-5 -12.5,0 5,5 0,0 z"
         style="fill:#ff0000;fill-rule:evenodd;stroke:#ff0000;stroke-width:1pt"
         transform="matrix(-0.4,0,0,-0.4,-4,0)"
         inkscape:connector-curvature="0" />
    </marker>
    <marker
       inkscape:stockid="Arrow1Mend"
       orient="auto"
       refY="0"
       refX="0"
       id="marker10303"
       style="overflow:visible">
      <path
         id="path10305"
         d="M 0,0 5,-5 -12.5,0 5,5 0,0 z"
         style="fill-rule:evenodd;stroke:#000000;stroke-width:1pt"
         transform="matrix(-0.4,0,0,-0.4,-4,0)"
         inkscape:connector-curvature="0" />
    </marker>
    <marker
       inkscape:stockid="marker335282"
       orient="auto"
       refY="0"
       refX="0"
       id="marker335282"
       style="overflow:visible">
      <path
         id="path9579"
         style="fill:#ff0000;fill-rule:evenodd;stroke:#ff0000;stroke-width:0.625;stroke-linejoin:round"
         d="M 8.7185878,4.0337352 -2.2072895,0.01601326 8.7185884,-4.0017078 c -1.7454984,2.3720609 -1.7354408,5.6174519 -6e-7,8.035443 z"
         transform="scale(0.6,0.6)"
         inkscape:connector-curvature="0" />
    </marker>
    <marker
       inkscape:stockid="Arrow1Mend"
       orient="auto"
       refY="0"
       refX="0"
       id="marker10309"
       style="overflow:visible">
      <path
         id="path10311"
         d="M 0,0 5,-5 -12.5,0 5,5 0,0 z"
         style="fill-rule:evenodd;stroke:#000000;stroke-width:1pt"
         transform="matrix(-0.4,0,0,-0.4,-4,0)"
         inkscape:connector-curvature="0" />
    </marker>
    <marker
       inkscape:stockid="Arrow2Mstart"
       orient="auto"
       refY="0"
       refX="0"
       id="Arrow2Mstart"
       style="overflow:visible">
      <path
         id="path4212"
         style="fill-rule:evenodd;stroke-width:0.625;stroke-linejoin:round"
         d="M 8.7185878,4.0337352 -2.2072895,0.01601326 8.7185884,-4.0017078 c -1.7454984,2.3720609 -1.7354408,5.6174519 -6e-7,8.035443 z"
         transform="scale(0.6,0.6)"
         inkscape:connector-curvature="0" />
    </marker>
    <marker
       inkscape:stockid="Arrow1Mend"
       orient="auto"
       refY="0"
       refX="0"
       id="marker22553-3"
       style="overflow:visible">
      <path
         id="path22555-3"
         d="M 0,0 5,-5 -12.5,0 5,5 0,0 z"
         style="fill-rule:evenodd;stroke:#000000;stroke-width:1pt"
         transform="matrix(-0.4,0,0,-0.4,-4,0)"
         inkscape:connector-curvature="0" />
    </marker>
    <marker
       inkscape:stockid="Arrow2Mstart"
       orient="auto"
       refY="0"
       refX="0"
       id="marker10317"
       style="overflow:visible">
      <path
         id="path10319"
         style="fill-rule:evenodd;stroke-width:0.625;stroke-linejoin:round"
         d="M 8.7185878,4.0337352 -2.2072895,0.01601326 8.7185884,-4.0017078 c -1.7454984,2.3720609 -1.7354408,5.6174519 -6e-7,8.035443 z"
         transform="scale(0.6,0.6)"
         inkscape:connector-curvature="0" />
    </marker>
    <marker
       inkscape:stockid="Arrow1Mend"
       orient="auto"
       refY="0"
       refX="0"
       id="marker10321"
       style="overflow:visible">
      <path
         id="path10323"
         d="M 0,0 5,-5 -12.5,0 5,5 0,0 z"
         style="fill-rule:evenodd;stroke:#000000;stroke-width:1pt"
         transform="matrix(-0.4,0,0,-0.4,-4,0)"
         inkscape:connector-curvature="0" />
    </marker>
    <marker
       inkscape:stockid="Arrow2Mstart"
       orient="auto"
       refY="0"
       refX="0"
       id="marker10325"
       style="overflow:visible">
      <path
         id="path10327"
         style="fill-rule:evenodd;stroke-width:0.625;stroke-linejoin:round"
         d="M 8.7185878,4.0337352 -2.2072895,0.01601326 8.7185884,-4.0017078 c -1.7454984,2.3720609 -1.7354408,5.6174519 -6e-7,8.035443 z"
         transform="scale(0.6,0.6)"
         inkscape:connector-curvature="0" />
    </marker>
    <marker
       inkscape:stockid="Arrow1Mend"
       orient="auto"
       refY="0"
       refX="0"
       id="marker10329"
       style="overflow:visible">
      <path
         id="path10331"
         d="M 0,0 5,-5 -12.5,0 5,5 0,0 z"
         style="fill-rule:evenodd;stroke:#000000;stroke-width:1pt"
         transform="matrix(-0.4,0,0,-0.4,-4,0)"
         inkscape:connector-curvature="0" />
    </marker>
    <marker
       inkscape:stockid="Arrow2Mstart"
       orient="auto"
       refY="0"
       refX="0"
       id="marker10333"
       style="overflow:visible">
      <path
         id="path10335"
         style="fill-rule:evenodd;stroke-width:0.625;stroke-linejoin:round"
         d="M 8.7185878,4.0337352 -2.2072895,0.01601326 8.7185884,-4.0017078 c -1.7454984,2.3720609 -1.7354408,5.6174519 -6e-7,8.035443 z"
         transform="scale(0.6,0.6)"
         inkscape:connector-curvature="0" />
    </marker>
    <marker
       inkscape:stockid="Arrow1Mend"
       orient="auto"
       refY="0"
       refX="0"
       id="marker10337"
       style="overflow:visible">
      <path
         id="path10339"
         d="M 0,0 5,-5 -12.5,0 5,5 0,0 z"
         style="fill-rule:evenodd;stroke:#000000;stroke-width:1pt"
         transform="matrix(-0.4,0,0,-0.4,-4,0)"
         inkscape:connector-curvature="0" />
    </marker>
    <clipPath
       clipPathUnits="userSpaceOnUse"
       id="clipPath28510">
      <path
         inkscape:connector-curvature="0"
         d="m 73.125,44.1 453.375,0 0,352.8 -453.375,0 0,-352.8 z"
         id="path28512" />
    </clipPath>
    <clipPath
       clipPathUnits="userSpaceOnUse"
       id="clipPath28520">
      <path
         inkscape:connector-curvature="0"
         d="m 73.125,44.1 453.375,0 0,352.8 -453.375,0 0,-352.8 z"
         id="path28522" />
    </clipPath>
    <clipPath
       clipPathUnits="userSpaceOnUse"
       id="clipPath28530">
      <path
         inkscape:connector-curvature="0"
         d="m 73.125,44.1 453.375,0 0,352.8 -453.375,0 0,-352.8 z"
         id="path28532" />
    </clipPath>
    <clipPath
       clipPathUnits="userSpaceOnUse"
       id="clipPath28540">
      <path
         inkscape:connector-curvature="0"
         d="m 73.125,44.1 453.375,0 0,352.8 -453.375,0 0,-352.8 z"
         id="path28542" />
    </clipPath>
    <clipPath
       clipPathUnits="userSpaceOnUse"
       id="clipPath28550">
      <path
         inkscape:connector-curvature="0"
         d="m 73.125,44.1 453.375,0 0,352.8 -453.375,0 0,-352.8 z"
         id="path28552" />
    </clipPath>
    <clipPath
       clipPathUnits="userSpaceOnUse"
       id="clipPath27711">
      <path
         inkscape:connector-curvature="0"
         d="m 73.125,44.1 453.375,0 0,352.8 -453.375,0 0,-352.8 z"
         id="path27713" />
    </clipPath>
    <clipPath
       clipPathUnits="userSpaceOnUse"
       id="clipPath27721">
      <path
         inkscape:connector-curvature="0"
         d="m 73.125,44.1 453.375,0 0,352.8 -453.375,0 0,-352.8 z"
         id="path27723" />
    </clipPath>
    <clipPath
       clipPathUnits="userSpaceOnUse"
       id="clipPath27731">
      <path
         inkscape:connector-curvature="0"
         d="m 73.125,44.1 453.375,0 0,352.8 -453.375,0 0,-352.8 z"
         id="path27733" />
    </clipPath>
    <clipPath
       clipPathUnits="userSpaceOnUse"
       id="clipPath27741">
      <path
         inkscape:connector-curvature="0"
         d="m 73.125,44.1 453.375,0 0,352.8 -453.375,0 0,-352.8 z"
         id="path27743" />
    </clipPath>
    <clipPath
       clipPathUnits="userSpaceOnUse"
       id="clipPath27751">
      <path
         inkscape:connector-curvature="0"
         d="m 73.125,44.1 453.375,0 0,352.8 -453.375,0 0,-352.8 z"
         id="path27753" />
    </clipPath>
    <clipPath
       clipPathUnits="userSpaceOnUse"
       id="clipPath27133">
      <path
         inkscape:connector-curvature="0"
         d="m 73.125,44.1 453.375,0 0,352.8 -453.375,0 0,-352.8 z"
         id="path27135" />
    </clipPath>
    <clipPath
       clipPathUnits="userSpaceOnUse"
       id="clipPath27143">
      <path
         inkscape:connector-curvature="0"
         d="m 73.125,44.1 453.375,0 0,352.8 -453.375,0 0,-352.8 z"
         id="path27145" />
    </clipPath>
    <clipPath
       clipPathUnits="userSpaceOnUse"
       id="clipPath27153">
      <path
         inkscape:connector-curvature="0"
         d="m 73.125,44.1 453.375,0 0,352.8 -453.375,0 0,-352.8 z"
         id="path27155" />
    </clipPath>
    <clipPath
       clipPathUnits="userSpaceOnUse"
       id="clipPath27163">
      <path
         inkscape:connector-curvature="0"
         d="m 73.125,44.1 453.375,0 0,352.8 -453.375,0 0,-352.8 z"
         id="path27165" />
    </clipPath>
    <clipPath
       clipPathUnits="userSpaceOnUse"
       id="clipPath27173">
      <path
         inkscape:connector-curvature="0"
         d="m 73.125,44.1 453.375,0 0,352.8 -453.375,0 0,-352.8 z"
         id="path27175" />
    </clipPath>
    <marker
       inkscape:stockid="Arrow1Mend"
       orient="auto"
       refY="0"
       refX="0"
       id="marker22553-3-0"
       style="overflow:visible">
      <path
         id="path22555-3-6"
         d="M 0,0 5,-5 -12.5,0 5,5 0,0 z"
         style="fill-rule:evenodd;stroke:#000000;stroke-width:1pt"
         transform="matrix(-0.4,0,0,-0.4,-4,0)"
         inkscape:connector-curvature="0" />
    </marker>
    <marker
       inkscape:stockid="Arrow1Mend"
       orient="auto"
       refY="0"
       refX="0"
       id="marker10373"
       style="overflow:visible">
      <path
         id="path10375"
         d="M 0,0 5,-5 -12.5,0 5,5 0,0 z"
         style="fill-rule:evenodd;stroke:#000000;stroke-width:1pt"
         transform="matrix(-0.4,0,0,-0.4,-4,0)"
         inkscape:connector-curvature="0" />
    </marker>
    <marker
       inkscape:stockid="Arrow1Mend"
       orient="auto"
       refY="0"
       refX="0"
       id="marker10377"
       style="overflow:visible">
      <path
         id="path10379"
         d="M 0,0 5,-5 -12.5,0 5,5 0,0 z"
         style="fill-rule:evenodd;stroke:#000000;stroke-width:1pt"
         transform="matrix(-0.4,0,0,-0.4,-4,0)"
         inkscape:connector-curvature="0" />
    </marker>
    <marker
       inkscape:stockid="Arrow1Mend"
       orient="auto"
       refY="0"
       refX="0"
       id="marker10381"
       style="overflow:visible">
      <path
         id="path10383"
         d="M 0,0 5,-5 -12.5,0 5,5 0,0 z"
         style="fill-rule:evenodd;stroke:#000000;stroke-width:1pt"
         transform="matrix(-0.4,0,0,-0.4,-4,0)"
         inkscape:connector-curvature="0" />
    </marker>
    <marker
       inkscape:stockid="Arrow1Lend"
       orient="auto"
       refY="0"
       refX="0"
       id="Arrow1Lend-7"
       style="overflow:visible">
      <path
         id="path4191-5"
         d="M 0,0 5,-5 -12.5,0 5,5 0,0 z"
         style="fill-rule:evenodd;stroke:#000000;stroke-width:1pt"
         transform="matrix(-0.8,0,0,-0.8,-10,0)"
         inkscape:connector-curvature="0" />
    </marker>
    <marker
       inkscape:stockid="Arrow2Mstart"
       orient="auto"
       refY="0"
       refX="0"
       id="Arrow2Mstart-8"
       style="overflow:visible">
      <path
         id="path4212-4"
         style="fill-rule:evenodd;stroke-width:0.625;stroke-linejoin:round"
         d="M 8.7185878,4.0337352 -2.2072895,0.01601326 8.7185884,-4.0017078 c -1.7454984,2.3720609 -1.7354408,5.6174519 -6e-7,8.035443 z"
         transform="scale(0.6,0.6)"
         inkscape:connector-curvature="0" />
    </marker>
    <marker
       inkscape:stockid="Arrow1Mend"
       orient="auto"
       refY="0"
       refX="0"
       id="marker22553-3-2"
       style="overflow:visible">
      <path
         id="path22555-3-5"
         d="M 0,0 5,-5 -12.5,0 5,5 0,0 z"
         style="fill-rule:evenodd;stroke:#000000;stroke-width:1pt"
         transform="matrix(-0.4,0,0,-0.4,-4,0)"
         inkscape:connector-curvature="0" />
    </marker>
    <marker
       inkscape:stockid="Arrow2Mstart"
       orient="auto"
       refY="0"
       refX="0"
       id="Arrow2Mstart-0"
       style="overflow:visible">
      <path
         id="path4212-48"
         style="fill-rule:evenodd;stroke-width:0.625;stroke-linejoin:round"
         d="M 8.7185878,4.0337352 -2.2072895,0.01601326 8.7185884,-4.0017078 c -1.7454984,2.3720609 -1.7354408,5.6174519 -6e-7,8.035443 z"
         transform="scale(0.6,0.6)"
         inkscape:connector-curvature="0" />
    </marker>
    <marker
       inkscape:stockid="Arrow1Mend"
       orient="auto"
       refY="0"
       refX="0"
       id="marker22553-3-4"
       style="overflow:visible">
      <path
         id="path22555-3-9"
         d="M 0,0 5,-5 -12.5,0 5,5 0,0 z"
         style="fill-rule:evenodd;stroke:#000000;stroke-width:1pt"
         transform="matrix(-0.4,0,0,-0.4,-4,0)"
         inkscape:connector-curvature="0" />
    </marker>
  </defs>
  <metadata
     id="metadata5364">
    <rdf:RDF>
      <cc:Work
         rdf:about="">
        <dc:format>image/svg+xml</dc:format>
        <dc:type
           rdf:resource="http://purl.org/dc/dcmitype/StillImage" />
        <dc:title></dc:title>
      </cc:Work>
    </rdf:RDF>
  </metadata>
  <g
     transform="translate(0,-452.36218)"
     id="layer1"
     inkscape:groupmode="layer"
     inkscape:label="Calque 1">
    <path
       transform="matrix(0.289667,0.20519661,-0.20519661,0.289667,557.4446,-89.703164)"
       d="m 208.57143,2318.0764 a 194.28572,211.42857 0 1 1 -388.57144,0 194.28572,211.42857 0 1 1 388.57144,0 z"
       sodipodi:ry="211.42857"
       sodipodi:rx="194.28572"
       sodipodi:cy="2318.0764"
       sodipodi:cx="14.285714"
       id="path23320"
       style="fill:none;stroke:#000000;stroke-width:4;stroke-miterlimit:4;stroke-opacity:1;stroke-dasharray:none"
       sodipodi:type="arc" />
    <path
       style="fill:#f29f4d;fill-opacity:1"
       d="m 116.02376,578.31246 c -0.45157,-0.35526 -1.17857,-1.45884 -1.88474,-2.86112 -0.68058,-1.35145 -1.27613,-1.99116 -2.30801,-2.47934 -1.57586,-0.74554 -3.26982,-0.42367 -3.84894,0.73123 -0.22415,0.44709 -0.22594,0.53223 -0.021,1.00664 0.42502,0.98392 0.90687,2.53704 0.91061,2.93516 0.003,0.28992 -0.0966,0.44512 -0.36233,0.56622 -0.52614,0.23969 -1.08954,-0.005 -1.43529,-0.62253 -0.15852,-0.28334 -0.40707,-0.68401 -0.55235,-0.89035 -0.23867,-0.3391 -0.24645,-0.45412 -0.0808,-1.19454 l 0.18336,-0.81933 -0.45401,-0.4056 c -0.66664,-0.59566 -1.44397,-0.75433 -3.13176,-0.63931 -2.53077,0.17249 -5.064847,-0.33743 -7.547837,-1.51881 -1.70223,-0.80989 -2.148379,-0.86117 -4.271221,-0.49098 -1.51957,0.265 -1.996834,0.52242 -2.371059,1.27882 -0.344107,0.69546 -0.251199,0.84529 0.725523,1.16972 0.776304,0.25782 1.287724,0.78141 1.287724,1.3184 0,0.19022 0.09899,0.49701 0.219997,0.68165 0.255392,0.38978 0.100545,0.99664 -0.2928,1.14758 -0.694758,0.26666 -1.656519,-0.12733 -1.656519,-0.67854 0,-0.10659 -0.126008,-0.30785 -0.280035,-0.44724 -0.15401,-0.13938 -0.410944,-0.64111 -0.570935,-1.11487 -0.160006,-0.47381 -0.64557,-1.42363 -1.079024,-2.11071 -0.433455,-0.68713 -0.857441,-1.43182 -0.942207,-1.65493 -0.216049,-0.56874 -0.191782,-1.39681 0.06205,-2.11628 0.118891,-0.33694 0.216165,-0.62219 0.216165,-0.63384 0,-0.0116 -0.437735,0.0186 -0.972743,0.0673 -1.831856,0.16655 -3.350561,-0.22839 -3.350561,-0.87127 0,-0.1531 -0.169372,-0.44774 -0.376386,-0.65473 -0.306018,-0.30604 -0.359368,-0.4621 -0.285367,-0.83515 0.10938,-0.55151 0.586975,-0.9556 1.13455,-0.96002 0.293307,-0.005 0.585418,0.1874 1.089616,0.70777 0.37888,0.39103 0.868408,0.75604 1.08783,0.81114 0.891163,0.22362 2.841736,-0.27043 3.845911,-0.97413 l 0.349077,-0.24466 -0.390898,-0.008 c -0.214998,-0.005 -0.76315,-0.14682 -1.21812,-0.31704 -0.687088,-0.25707 -1.109115,-0.58918 -2.491304,-1.96058 -0.915243,-0.90813 -2.020755,-1.89653 -2.456689,-2.19639 -0.914349,-0.62907 -1.358871,-1.07691 -1.57433,-1.58617 -0.08384,-0.19816 -0.290872,-0.53258 -0.460057,-0.74319 -0.635584,-0.79105 -0.309088,-2.07665 0.646362,-2.54518 0.498535,-0.24441 1.262996,-0.0146 1.669429,0.50228 0.271187,0.34477 0.87423,2.12739 1.088767,3.2184 0.250405,1.2734 1.794632,2.9309 3.234883,3.47211 0.980266,0.36843 2.613637,0.34401 3.211854,-0.0477 l 0.378259,-0.24788 -0.333052,-0.83158 c -0.183178,-0.45733 -0.483646,-1.15581 -0.667704,-1.55212 -0.447765,-0.96409 -0.491158,-3.47225 -0.08057,-4.65745 0.50799,-1.46637 0.02169,-2.86343 -1.37994,-3.96429 -1.603888,-1.25974 -3.655684,-2.11448 -5.07599,-2.11448 -0.604096,0 -0.853953,0.0875 -1.440309,0.5044 -0.797923,0.56733 -1.522667,0.66372 -1.896734,0.2522 -0.505985,-0.55659 -1.211837,-1.85088 -1.211837,-2.22207 0,-1.09367 0.863408,-1.70661 2.397431,-1.70189 1.193866,0.005 2.513583,0.43452 3.956284,1.29158 1.256208,0.74634 3.561826,2.57984 4.584099,3.64549 1.264018,1.31765 1.774299,1.33839 2.676977,0.10869 0.345504,-0.47069 0.771782,-0.84801 1.168919,-1.03471 1.109345,-0.52142 1.087024,-0.59747 -0.97463,-3.32051 -2.657868,-3.51053 -4.810526,-7.19118 -5.462697,-9.34022 -0.346959,-1.14325 -0.458184,-3.15621 -0.233083,-4.2183 0.137682,-0.64955 0.826313,-1.47988 1.33286,-1.60701 0.972929,-0.24416 2.121574,0.55794 2.311873,1.61435 0.05312,0.29494 0.158795,0.6147 0.234825,0.71063 0.298828,0.37712 0.163682,1.43142 -0.312285,2.43644 -1.350557,2.85178 -0.436668,5.60697 3.503504,10.56233 1.514352,1.90452 2.252861,2.46276 3.258171,2.46276 0.802318,0 1.225702,-0.27244 1.441997,-0.92777 0.233599,-0.70788 0.01612,-1.34854 -1.002517,-2.9532 -1.044944,-1.64609 -1.653953,-3.0653 -1.885206,-4.39334 -0.664623,-3.81653 1.879629,-6.92055 4.422899,-5.39601 0.24827,0.14887 0.51416,0.44839 0.59085,0.66563 0.0767,0.21728 0.22278,0.62203 0.32462,0.89944 0.38214,1.04089 0.3545,1.50214 -0.12258,2.04551 -0.34063,0.38797 -0.68083,0.5706 -1.513442,0.81255 -1.024838,0.29775 -1.088291,0.3415 -1.384943,0.95429 -0.397584,0.82129 -0.525438,2.03054 -0.291806,2.75991 0.09886,0.30861 0.447431,0.91658 0.774604,1.35095 0.327173,0.43443 0.837726,1.18018 1.134567,1.6573 0.75279,1.20996 1.47962,1.91823 2.15514,2.10016 0.95939,0.25832 1.05702,0.18117 1.0168,-0.80316 -0.15073,-3.68944 -0.12113,-4.2957 0.24613,-5.04109 0.44484,-0.90276 1.49523,-1.9427 2.40617,-2.38215 0.82163,-0.39635 2.36951,-0.54061 3.12516,-0.29117 1.11895,0.36928 1.76579,1.21508 2.25059,2.94274 0.20659,0.73625 0.27907,1.27184 0.21326,1.57582 -0.30451,1.40646 -1.89009,2.17812 -2.73647,1.33177 -0.19455,-0.19454 -0.35371,-0.44392 -0.35371,-0.55413 0,-0.1102 -0.13027,-0.31824 -0.28948,-0.46235 -0.48061,-0.43493 -0.64207,-1.21714 -0.38046,-1.84319 0.27189,-0.65071 0.18559,-0.66985 -1.01796,-0.22568 -1.56362,0.57708 -2.49564,1.96967 -2.48761,3.71692 0.003,0.66603 0.0891,0.93697 0.50439,1.58888 0.27537,0.43227 0.50069,0.87323 0.50069,0.97991 0,0.10669 0.0989,0.38531 0.21987,0.61917 0.20162,0.38988 0.28338,0.42514 0.98574,0.42514 1.82591,0 4.14869,-1.89282 5.33464,-4.34719 1.56821,-3.24537 1.90926,-7.23011 0.89278,-10.43103 -0.37833,-1.19137 -0.75763,-1.82496 -1.4092,-2.35376 l -0.4228,-0.34322 -0.46558,0.45131 c -0.7845,0.76036 -1.87586,0.57803 -2.39629,-0.40032 -0.11948,-0.22463 -0.32978,-0.56598 -0.46733,-0.75871 -0.43186,-0.60485 -0.45764,-1.14255 -0.0817,-1.70431 0.66348,-0.99136 2.14668,-1.30694 3.3667,-0.71636 0.77189,0.37371 2.08704,1.74972 2.55151,2.66966 0.51917,1.02828 1.22344,3.32076 1.49294,4.85977 0.29427,1.68045 0.18943,4.78603 -0.22336,6.61586 -0.58066,2.57412 -1.27937,3.85645 -3.67602,6.74651 -0.75587,0.9115 -1.35849,1.75293 -1.33916,1.86981 0.089,0.53795 1.55157,0.76217 2.46953,0.37857 0.62753,-0.26214 0.68048,-0.36918 0.48983,-0.99035 -0.34243,-1.11578 0.3891,-1.83687 1.85777,-1.83129 1.38184,0.006 2.51383,0.71807 2.72106,1.71355 0.0427,0.20508 0.13856,0.48546 0.21304,0.62309 0.0745,0.13767 0.1354,0.49831 0.1354,0.80149 0,1.15561 -1.37491,1.84113 -2.50773,1.2504 -0.22999,-0.11995 -0.53298,-0.18163 -0.67331,-0.13708 -0.33865,0.10749 -1.28637,1.16526 -1.28637,1.43569 0,0.11738 0.30803,0.37078 0.68452,0.56321 1.24387,0.63569 1.83853,1.45703 2.40905,3.3275 0.39463,1.29379 0.48729,2.38304 0.29803,3.50329 -0.0949,0.56171 -0.0897,0.5699 0.526,0.82164 2.07819,0.45286 4.12576,0.2521 5.94715,-0.73208 0.80732,-0.44377 1.05996,-0.5165 1.58716,-0.45713 0.99269,0.11191 1.45027,0.53483 1.80923,1.67221 0.37805,1.19785 0.33616,1.70356 -0.17241,2.08148 -0.61169,0.45467 -1.6055,0.46853 -2.84613,0.0397 -0.93777,-0.32408 -1.30455,-0.36984 -2.96723,-0.36984 -2.19779,0 -3.59875,0.28977 -4.99228,1.0325 -1.0371,0.55277 -1.49059,1.10222 -1.70766,2.06902 -0.19544,0.87051 -0.0904,1.53177 0.36919,2.32348 0.44231,0.76191 1.02147,1.24567 2.21195,1.84736 0.5228,0.26425 1.10456,0.64568 1.29277,0.84765 0.35172,0.37747 0.61676,1.27606 0.60166,2.03979 -0.007,0.33316 0.0241,0.38274 0.13405,0.21613 0.11555,-0.17514 0.14303,-0.1534 0.14482,0.11467 0.003,0.43242 -0.61132,1.03823 -1.05264,1.03823 -0.19106,0 -0.52031,-0.13602 -0.73166,-0.30228 z"
       id="path11306-2"
       inkscape:connector-curvature="0"
       sodipodi:nodetypes="csscscsscscssssscscssccscsssscccccccccssccscccscsssssssscssssssscscssssscscsssscssssssssssscsscsscssssccsssssssscsscccsccscscccsscsssssccccsscc" />
    <path
       style="fill:#92b7aa;fill-opacity:1"
       d="m 73.349076,620.55499 c -1.6971,-0.55633 -3.652755,-2.1537 -4.638605,-3.78879 -0.25036,-0.41524 -0.625019,-1.37109 -0.832577,-2.12407 -0.794568,-2.88252 -0.948975,-3.31348 -1.403498,-3.91738 -0.773033,-1.02708 -1.518384,-1.30158 -3.834571,-1.41223 -2.081931,-0.0994 -2.671292,-0.25757 -3.354696,-0.90025 -0.652521,-0.61364 -0.895994,-1.24245 -0.889881,-2.29841 0.0046,-0.79808 0.09337,-1.14732 0.51969,-2.04506 0.58269,-1.22693 1.356631,-2.41027 2.604247,-3.98177 0.471948,-0.59446 0.945519,-1.28952 1.05238,-1.54453 0.258339,-0.61661 0.245351,-1.66222 -0.03664,-2.94948 -0.127015,-0.57984 -0.236876,-1.50816 -0.244134,-2.06299 -0.02098,-1.60375 0.436518,-2.2186 2.78485,-3.74248 1.848472,-1.19951 2.130255,-1.57211 2.527703,-3.34217 0.614399,-2.7363 1.74932,-5.55086 2.653538,-6.5807 1.032593,-1.1761 2.50304,-1.4158 4.729262,-0.77101 1.388558,0.40223 2.333605,0.95429 3.77591,2.20589 2.035657,1.76644 3.219088,2.21574 5.83074,2.21343 0.875028,0 2.46643,-0.10438 3.536448,-0.2303 1.070018,-0.12593 2.820956,-0.23151 3.890973,-0.23472 1.640973,-0.005 2.092106,0.0442 2.882201,0.31358 2.495819,0.85092 3.834444,2.44869 4.209937,5.02497 0.340705,2.33759 -0.277859,4.75725 -2.020901,7.90503 -2.046518,3.69582 -1.905707,5.03376 0.846921,8.04673 2.279938,2.49561 2.838898,3.6355 2.703128,5.51254 -0.17577,2.43006 -2.706543,4.99378 -5.588239,5.66097 -0.593906,0.13752 -1.421154,0.15109 -3.386588,0.0555 -5.751892,-0.27957 -6.435792,-0.0999 -10.82149,2.84324 -1.288664,0.86479 -2.754701,1.74068 -3.257861,1.94641 -1.262792,0.51635 -3.017199,0.59833 -4.238246,0.198 z"
       id="path11304-1"
       inkscape:connector-curvature="0"
       sodipodi:nodetypes="ssssssssscsssssssccscsssscsscs" />
    <path
       style="fill:#c76d91;fill-opacity:1"
       d="m 120.64952,613.76464 c -0.18012,-0.46939 -0.1882,-1.21634 -0.0182,-1.65976 0.17017,-0.44352 -0.0794,-0.95555 -0.55461,-1.13793 -1.2307,-0.4723 -1.24186,-0.46492 -1.44265,0.94857 -0.13285,0.93551 -0.56257,1.28013 -1.59636,1.28013 -1.65696,0 -2.31478,-1.85224 -0.99942,-2.81406 0.71346,-0.52168 0.63756,-0.76534 -0.50711,-1.62877 -1.30934,-0.98764 -1.34603,-0.98312 -1.34603,0.16701 0,1.54272 -1.55358,2.11267 -2.68221,0.98403 -1.12181,-1.12175 -0.56195,-2.68221 0.96233,-2.68221 1.0212,0 1.07457,-0.13777 0.44458,-1.14752 -0.6246,-1.00101 -0.79671,-1.03732 -1.34769,-0.2845 -0.80552,1.10056 -2.15763,1.10478 -3.06653,0.01 -0.90987,-1.09629 0.30263,-2.76263 1.73723,-2.38752 0.71193,0.1862 0.89053,-0.0261 0.68456,-0.81385 -0.32953,-1.26009 -0.39764,-1.2736 -1.85136,-0.36567 -0.91647,0.57231 -1.2822,0.5388 -2.00453,-0.18348 -1.271,-1.27104 -0.48111,-2.96495 1.23006,-2.63776 1.01587,0.19413 1.34194,0 1.34194,-0.78834 0,-0.8562 -0.30643,-0.98348 -1.69811,-0.70511 -2.0304,0.4061 -2.97146,-1.06289 -1.57531,-2.45909 0.68343,-0.68341 1.11749,-0.72962 2.06912,-0.2203 1.61633,0.86503 1.63921,-0.28334 0.0313,-1.58517 -0.76536,-0.61967 -1.04068,-1.29374 -0.79255,-1.94028 0.42717,-1.11312 2.88652,-1.35612 3.2321,-0.31936 0.12637,0.37893 0.6482,0.50847 1.19821,0.29736 0.80075,-0.30725 0.85474,-0.56563 0.30279,-1.4493 -0.87782,-1.40565 -0.26011,-2.9331 1.18616,-2.9331 0.74675,0 1.26905,0.4947 1.50192,1.42237 0.49989,1.99167 1.41584,1.78629 1.01314,-0.22718 -0.26695,-1.33488 -0.10241,-1.72179 0.86258,-2.02808 1.51342,-0.48029 2.34057,0.0266 2.34057,1.43543 0,1.21393 0.0766,1.25753 1.34904,0.76925 0.68405,-0.26249 0.73629,-0.55427 0.24124,-1.34703 -1.35559,-2.17063 0.79232,-3.81928 2.60904,-2.00266 0.77651,0.77653 0.93291,0.74333 1.50101,-0.31815 0.49551,-0.92581 0.47036,-1.16289 -0.11499,-1.08388 -2.24179,0.30242 -3.26151,-1.13844 -1.82349,-2.57648 0.6527,-0.65262 1.14201,-0.72249 1.96716,-0.28093 0.85302,0.45653 1.09842,0.40153 1.09842,-0.24607 0,-0.45859 -0.57607,-0.91567 -1.28015,-1.01557 -0.82356,-0.11704 -1.34512,-0.63936 -1.46227,-1.46457 -0.22235,-1.56583 1.30763,-2.30569 2.8178,-1.36255 1.45845,0.91089 1.34063,0.2081 -0.17028,-1.01542 -0.78004,-0.63158 -1.10002,-1.34417 -0.87124,-1.94024 0.44623,-1.16284 2.45117,-1.23733 3.07963,-0.11447 0.30553,0.54604 0.73832,0.6576 1.27183,0.3279 0.66978,-0.41399 0.6808,-0.65383 0.0644,-1.39661 -0.90485,-1.09021 0.0715,-2.60365 1.67966,-2.60365 1.06258,0 1.92376,1.4503 1.38183,2.32719 -0.17593,0.2847 0.1774,0.51756 0.78525,0.51756 0.64064,0 1.23509,-0.49712 1.41443,-1.18289 0.22241,-0.85027 0.68098,-1.13024 1.63102,-0.99563 1.57208,0.22271 2.18311,2.56181 0.80716,3.08976 -0.78208,0.30017 -0.77581,0.44006 0.0563,1.27255 0.68314,0.68306 0.99879,0.74489 1.17072,0.22924 0.34372,-1.03124 2.80313,-0.86358 3.21875,0.21935 0.47717,1.24361 -0.75826,2.63253 -2.04277,2.29655 -0.56952,-0.14888 -1.03151,-0.10267 -1.02674,0.10267 0.0159,0.68426 0.83591,1.51073 1.55592,1.56829 1.73234,0.13858 1.91812,0.29896 1.74645,1.50771 -0.14901,1.04908 -0.51553,1.26501 -2.03093,1.1963 -2.13204,-0.0967 -2.63158,1.31599 -0.56894,1.60887 1.56933,0.22291 1.72505,2.06078 0.25112,2.96459 -0.81825,0.50174 -1.18763,0.4175 -1.80391,-0.41167 -0.74453,-1.00176 -0.79984,-0.99618 -1.40906,0.14225 -0.56163,1.04932 -0.47612,1.18489 0.74736,1.18489 1.71932,0 2.42397,1.59893 1.23053,2.79241 -0.72233,0.72224 -1.08806,0.75579 -2.00453,0.18349 -1.57947,-0.98639 -1.70538,-0.91175 -1.70538,1.01155 0,1.52881 0.11351,1.64077 1.06252,1.04812 1.36344,-0.85142 3.06034,-0.2097 2.81489,1.06465 -0.10412,0.54066 -0.73867,1.25697 -1.41015,1.59179 -0.93245,0.46487 -1.09387,0.83556 -0.68319,1.56935 0.43109,0.7703 0.74368,0.83203 1.57725,0.31151 0.57173,-0.35707 1.47546,-0.48194 2.00829,-0.27751 1.385,0.53142 0.91476,2.81481 -0.65868,3.19826 -1.77348,0.43217 -0.82942,1.54659 1.26308,1.49099 1.45344,-0.0387 1.70686,0.1659 1.70686,1.37711 0,1.24261 -0.23368,1.41178 -1.84911,1.3385 -1.05444,-0.0477 -1.85456,0.19664 -1.86171,0.56894 -0.007,0.35903 -0.49591,1.28158 -1.08648,2.05013 -0.9939,1.29323 -1.00359,1.44955 -0.12961,2.10026 0.74134,0.55191 0.80865,0.924 0.31326,1.73188 -0.88358,1.44101 -2.74098,1.32187 -2.9565,-0.18961 -0.12825,-0.89955 -0.4666,-1.14205 -1.29215,-0.92617 -0.85701,0.22417 -0.97161,0.46929 -0.49044,1.04913 0.88279,1.06364 0.10202,3.087 -1.19121,3.087 -1.11379,0 -2.49548,-1.84816 -1.85814,-2.48546 0.19759,-0.1976 -0.0645,-0.35929 -0.58227,-0.35929 -0.6213,0 -0.89549,0.40811 -0.80603,1.19961 0.18621,1.6483 -1.46222,2.68015 -2.67443,1.67402 -0.53885,-0.44723 -0.77622,-1.19248 -0.57828,-1.81607 0.22968,-0.72374 0.0541,-1.05756 -0.55609,-1.05756 -0.4905,0 -0.89179,0.46085 -0.89179,1.02411 0,2.04255 -2.54583,3.26165 -3.20797,1.53614 z m 17.63596,-5.69372 c -0.19789,-0.5156 0.0137,-1.31102 0.47046,-1.7677 1.13841,-1.13838 2.84596,-0.40188 2.62697,1.13316 -0.21581,1.51233 -2.57514,1.99573 -3.09743,0.63454 z"
       id="path11332-0"
       inkscape:connector-curvature="0"
       sodipodi:nodetypes="ccccscssssccccccccsccccscccsccssccccsccsccscccccscscscccccccccccscsccsccscccscsccccscccscscccsscccccc" />
    <path
       style="fill:#c6e9af;fill-opacity:1"
       d="m 28.28616,616.74063 c -0.718004,-0.23542 -1.545397,-0.9112 -1.962486,-1.60295 -0.105923,-0.17569 -0.264432,-0.58009 -0.352244,-0.89864 -0.336165,-1.21955 -0.401491,-1.40188 -0.593789,-1.65739 -0.327052,-0.43453 -0.642392,-0.55066 -1.622318,-0.59747 -0.880814,-0.0422 -1.130164,-0.109 -1.419295,-0.38088 -0.276066,-0.25963 -0.37907,-0.52565 -0.376489,-0.97238 0.002,-0.33769 0.03948,-0.48546 0.219871,-0.86524 0.246522,-0.51911 0.573958,-1.01974 1.101795,-1.68457 0.199674,-0.25149 0.400026,-0.54558 0.445237,-0.65347 0.109303,-0.26089 0.103808,-0.70325 -0.01552,-1.24788 -0.05373,-0.24532 -0.100216,-0.63805 -0.103285,-0.87282 -0.0089,-0.67849 0.184681,-0.93857 1.178203,-1.58331 0.782047,-0.50751 0.901264,-0.66513 1.069414,-1.41399 0.259939,-1.15767 0.740098,-2.34849 1.122651,-2.78417 0.436867,-0.49761 1.058979,-0.59898 2.000841,-0.32618 0.587469,0.17017 0.987295,0.40373 1.597501,0.93324 0.86124,0.74736 1.361922,0.93742 2.466852,0.93647 0.370205,0 1.04349,-0.0442 1.496188,-0.0974 0.452702,-0.0532 1.193483,-0.0979 1.646182,-0.0993 0.694259,-0.005 0.885122,0.0186 1.219394,0.13266 1.055923,0.35998 1.622264,1.03601 1.781127,2.12597 0.144144,0.98895 -0.117556,2.01266 -0.854996,3.34443 -0.865835,1.56361 -0.806261,2.12964 0.358312,3.40439 0.96459,1.05581 1.201073,1.5381 1.143633,2.33222 -0.07436,1.02813 -1.145078,2.11276 -2.364256,2.395 -0.251269,0.0582 -0.601259,0.0639 -1.432789,0.0236 -2.433493,-0.11829 -2.722834,-0.0422 -4.578322,1.20292 -0.545205,0.36587 -1.165451,0.73645 -1.378326,0.82345 -0.534259,0.21849 -1.276507,0.25315 -1.793105,0.0838 z"
       id="path11304-1-4-4"
       inkscape:connector-curvature="0"
       sodipodi:nodetypes="ssssssssscsssssssccscsssscsscs" />
    <path
       style="fill:#c6e9af;fill-opacity:1"
       d="m 51.339435,542.38126 c -0.516426,-0.16932 -1.111528,-0.65543 -1.411521,-1.15295 -0.07619,-0.12632 -0.190193,-0.4172 -0.253352,-0.64634 -0.241787,-0.87714 -0.288773,-1.00829 -0.427083,-1.19207 -0.235232,-0.31253 -0.462042,-0.39606 -1.166855,-0.42971 -0.633529,-0.0301 -0.81287,-0.0784 -1.020829,-0.27395 -0.198562,-0.18675 -0.27265,-0.37812 -0.27079,-0.69943 0.0014,-0.24286 0.02841,-0.34914 0.158141,-0.62233 0.177312,-0.3733 0.412821,-0.73339 0.79247,-1.21162 0.143612,-0.18087 0.287719,-0.39238 0.320238,-0.47004 0.07861,-0.1876 0.07466,-0.50575 -0.01115,-0.89748 -0.03865,-0.17641 -0.07208,-0.45894 -0.07429,-0.62781 -0.0064,-0.48797 0.132832,-0.67507 0.847425,-1.13878 0.562488,-0.36507 0.648234,-0.47838 0.769177,-1.01703 0.186961,-0.83264 0.532316,-1.68914 0.807467,-2.00252 0.314217,-0.35788 0.761673,-0.43081 1.439109,-0.23457 0.422537,0.12236 0.710113,0.29038 1.149004,0.67126 0.619448,0.5375 0.979564,0.67422 1.774287,0.67351 0.26627,0 0.750531,-0.0321 1.076136,-0.0701 0.325605,-0.0382 0.858413,-0.0705 1.184018,-0.0714 0.499346,-0.005 0.636625,0.0136 0.87705,0.0954 0.759475,0.25893 1.166816,0.74515 1.281078,1.52917 0.103676,0.71128 -0.08455,1.44758 -0.614957,2.40544 -0.622752,1.12467 -0.579904,1.53173 0.257717,2.4486 0.693782,0.75941 0.863873,1.10629 0.822559,1.67749 -0.05349,0.73946 -0.823598,1.51956 -1.700494,1.72259 -0.180725,0.0417 -0.432456,0.0462 -1.030535,0.0166 -1.750293,-0.085 -1.958402,-0.0306 -3.292965,0.86524 -0.392139,0.26315 -0.838252,0.52971 -0.991363,0.5923 -0.384266,0.15711 -0.918129,0.18207 -1.289692,0.0603 z"
       id="path11304-1-4-0-0-7"
       inkscape:connector-curvature="0"
       sodipodi:nodetypes="ssssssssscsssssssccscsssscsscs" />
    <path
       style="fill:#c6e9af;fill-opacity:1"
       d="m 81.460704,653.5431 c -0.516425,-0.16932 -1.111528,-0.65543 -1.411521,-1.15295 -0.07618,-0.12637 -0.190193,-0.41725 -0.253351,-0.64639 -0.241787,-0.87709 -0.288773,-1.00829 -0.427083,-1.19203 -0.235233,-0.31252 -0.462043,-0.39605 -1.166856,-0.4297 -0.633528,-0.0301 -0.81287,-0.0785 -1.020829,-0.27395 -0.198561,-0.18675 -0.272649,-0.37812 -0.270789,-0.69943 0.0014,-0.24286 0.02841,-0.34914 0.15814,-0.62234 0.177313,-0.3733 0.412821,-0.73343 0.79247,-1.21161 0.143612,-0.18087 0.28772,-0.39239 0.320238,-0.47004 0.07861,-0.18761 0.07466,-0.50575 -0.01115,-0.89749 -0.03865,-0.17645 -0.07208,-0.45894 -0.07429,-0.6278 -0.0064,-0.48798 0.132832,-0.67508 0.847426,-1.13879 0.562487,-0.36506 0.648234,-0.47837 0.769176,-1.01703 0.186961,-0.83269 0.532317,-1.68914 0.807468,-2.00251 0.314217,-0.35788 0.761672,-0.43081 1.439109,-0.23457 0.422537,0.12236 0.710112,0.29037 1.149003,0.67126 0.619448,0.53749 0.979565,0.67421 1.774287,0.67351 0.26627,0 0.750532,-0.0321 1.076136,-0.0701 0.325606,-0.0382 0.858414,-0.0704 1.184018,-0.0714 0.499346,-0.005 0.636626,0.0136 0.87705,0.0954 0.759475,0.25893 1.166817,0.74514 1.281079,1.52911 0.103676,0.71134 -0.08455,1.44764 -0.614958,2.4055 -0.622752,1.12462 -0.579904,1.53172 0.257717,2.4486 0.693783,0.7594 0.863873,1.10628 0.82256,1.67748 -0.05349,0.73942 -0.823599,1.51957 -1.700495,1.72259 -0.180725,0.0417 -0.432456,0.0457 -1.030535,0.0166 -1.750293,-0.085 -1.958402,-0.0306 -3.292965,0.86524 -0.392139,0.26314 -0.838251,0.52966 -0.991361,0.59229 -0.384267,0.15712 -0.918131,0.18208 -1.289694,0.0602 z"
       id="path11304-1-4-0-0-77"
       inkscape:connector-curvature="0"
       sodipodi:nodetypes="ssssssssscsssssssccscsssscsscs" />
    <path
       style="fill:#c6e9af;fill-opacity:1"
       d="m 50.325215,638.61756 c -0.204981,-0.15747 -0.534998,-0.64669 -0.855553,-1.26832 -0.308933,-0.59913 -0.579276,-0.88277 -1.047684,-1.09916 -0.715334,-0.3305 -1.484282,-0.18785 -1.747163,0.32418 -0.101749,0.1982 -0.102562,0.23592 -0.0095,0.44623 0.192931,0.43619 0.411661,1.12467 0.413352,1.30117 0.0012,0.12854 -0.04386,0.19735 -0.164468,0.251 -0.238835,0.10633 -0.494581,0 -0.651528,-0.27596 -0.07196,-0.12562 -0.184782,-0.30318 -0.250731,-0.3947 -0.108343,-0.15033 -0.111875,-0.20131 -0.03668,-0.52951 l 0.08323,-0.3632 -0.206086,-0.17982 c -0.30261,-0.2641 -0.655469,-0.33442 -1.421609,-0.28344 -1.148809,0.0765 -2.299108,-0.14958 -3.426222,-0.67331 -0.772705,-0.35904 -0.975223,-0.38179 -1.938853,-0.21764 -0.689786,0.11748 -0.906431,0.23155 -1.076308,0.56688 -0.156199,0.30835 -0.11403,0.3747 0.329341,0.51856 0.35239,0.11432 0.58454,0.34642 0.58454,0.58446 0,0.0844 0.04494,0.22035 0.09987,0.30222 0.115929,0.17274 0.04565,0.44181 -0.132914,0.50867 -0.315373,0.11829 -0.751952,-0.0564 -0.751952,-0.30072 0,-0.0477 -0.05722,-0.13652 -0.127114,-0.19825 -0.06991,-0.0618 -0.186544,-0.2842 -0.25917,-0.4943 -0.07263,-0.21006 -0.293043,-0.63108 -0.489803,-0.93571 -0.19676,-0.30454 -0.389223,-0.63474 -0.4277,-0.73364 -0.09807,-0.25215 -0.08706,-0.61927 0.02814,-0.93812 0.05396,-0.14938 0.09812,-0.27586 0.09812,-0.28103 0,-0.006 -0.198701,0.009 -0.44156,0.0296 -0.831543,0.0739 -1.520931,-0.10121 -1.520931,-0.3862 0,-0.0679 -0.07688,-0.19851 -0.170855,-0.29022 -0.138914,-0.13572 -0.163133,-0.20494 -0.129541,-0.37034 0.04969,-0.24436 0.266449,-0.42353 0.515012,-0.42549 0.133144,0 0.265742,0.083 0.494616,0.31368 0.171983,0.17344 0.394197,0.33523 0.493803,0.35959 0.404525,0.0992 1.289961,-0.1198 1.745791,-0.43177 l 0.158455,-0.10849 -0.177444,-0.006 c -0.09759,0 -0.346418,-0.0651 -0.552943,-0.14059 -0.311894,-0.11397 -0.503466,-0.26114 -1.130888,-0.86916 -0.41546,-0.40258 -0.917289,-0.84072 -1.115176,-0.97368 -0.415051,-0.27887 -0.616839,-0.47742 -0.71464,-0.70315 -0.03805,-0.0879 -0.132034,-0.23607 -0.208834,-0.32945 -0.288519,-0.35069 -0.140309,-0.92064 0.293404,-1.12828 0.226304,-0.10835 0.573316,-0.007 0.757812,0.22261 0.1231,0.1529 0.396838,0.94309 0.494224,1.42679 0.113668,0.56452 0.814649,1.29927 1.468427,1.53921 0.44498,0.16329 1.18642,0.15249 1.457967,-0.0211 l 0.171705,-0.10985 -0.151178,-0.36867 c -0.08315,-0.20278 -0.219549,-0.51234 -0.303098,-0.68804 -0.203254,-0.42744 -0.222949,-1.53935 -0.03657,-2.06474 0.230589,-0.65001 0.0099,-1.26938 -0.626407,-1.7574 -0.728055,-0.55845 -1.659441,-0.93737 -2.30416,-0.93737 -0.27422,0 -0.387644,0.0387 -0.653808,0.22362 -0.362202,0.25154 -0.691192,0.29419 -0.860991,0.11176 -0.229687,-0.24678 -0.550094,-0.82049 -0.550094,-0.98499 0,-0.48485 0.39193,-0.75664 1.088274,-0.75443 0.541938,0 1.140998,0.19253 1.795891,0.57251 0.570235,0.33085 1.616832,1.14365 2.080879,1.61605 0.573784,0.58416 0.805418,0.59335 1.215173,0.0482 0.156835,-0.20865 0.350336,-0.37591 0.530612,-0.45869 0.503568,-0.2312 0.493435,-0.2648 -0.442421,-1.4721 -1.206495,-1.55618 -2.183659,-3.18791 -2.479705,-4.14054 -0.157494,-0.50681 -0.207985,-1.39917 -0.105803,-1.87002 0.0625,-0.28796 0.375095,-0.65603 0.605031,-0.71244 0.441644,-0.10819 0.963055,0.24738 1.049441,0.71571 0.0241,0.13069 0.07208,0.27249 0.106593,0.31508 0.135649,0.16711 0.0743,0.63454 -0.141758,1.07997 -0.613062,1.2643 -0.19822,2.48571 1.590358,4.68246 0.687417,0.84429 1.022652,1.09172 1.478999,1.09172 0.364197,0 0.556386,-0.1207 0.654573,-0.41132 0.106035,-0.31373 0.0073,-0.59772 -0.455076,-1.30911 -0.474339,-0.72977 -0.75079,-1.35889 -0.855762,-1.94762 -0.301696,-1.69185 0.853227,-3.06796 2.007704,-2.39208 0.112696,0.0659 0.233392,0.19875 0.268207,0.29509 0.03484,0.0963 0.101125,0.2757 0.14736,0.39871 0.173462,0.46145 0.160913,0.66594 -0.05562,0.90678 -0.154626,0.17203 -0.309057,0.25295 -0.687007,0.36024 -0.465209,0.13195 -0.494011,0.15139 -0.628674,0.42303 -0.180472,0.3641 -0.238515,0.90019 -0.132456,1.22352 0.04487,0.13682 0.2031,0.4063 0.351618,0.59887 0.148513,0.19253 0.380272,0.52318 0.515018,0.7347 0.341717,0.53634 0.671651,0.85037 0.978292,0.93098 0.4355,0.11458 0.479812,0.0804 0.461559,-0.35602 -0.06842,-1.63554 -0.05497,-1.90431 0.111727,-2.23472 0.201931,-0.40027 0.678739,-0.86127 1.09224,-1.05611 0.372969,-0.1757 1.075606,-0.23959 1.418617,-0.12903 0.50793,0.16374 0.801554,0.53865 1.021625,1.30459 0.09377,0.32633 0.12668,0.56376 0.0968,0.69852 -0.138225,0.62354 -0.857976,0.9656 -1.24217,0.59039 -0.08832,-0.0862 -0.160563,-0.19679 -0.160563,-0.24562 0,-0.0487 -0.05912,-0.14114 -0.131405,-0.20498 -0.218165,-0.19283 -0.291457,-0.53955 -0.172708,-0.81717 0.123422,-0.28841 0.08425,-0.29685 -0.46208,-0.1 -0.709784,0.25586 -1.13286,0.87317 -1.129215,1.64775 0.0012,0.29529 0.04042,0.41534 0.228957,0.70435 0.125006,0.19162 0.227283,0.38711 0.227283,0.43443 0,0.0477 0.04493,0.17083 0.09981,0.2745 0.09152,0.17284 0.128633,0.18841 0.44746,0.18841 0.828842,0 1.883228,-0.83907 2.421574,-1.92707 0.711862,-1.43875 0.866678,-3.20524 0.405262,-4.62425 -0.171734,-0.52816 -0.343913,-0.80894 -0.63968,-1.04345 l -0.191922,-0.15215 -0.211345,0.20007 c -0.356112,0.33713 -0.851517,0.25626 -1.087758,-0.17746 -0.05425,-0.0996 -0.149699,-0.25084 -0.21214,-0.33633 -0.196036,-0.26817 -0.207736,-0.50651 -0.0371,-0.75554 0.301175,-0.43945 0.974452,-0.57939 1.528261,-0.31755 0.35039,0.16566 0.947378,0.77563 1.158219,1.18344 0.235664,0.45592 0.555358,1.4721 0.677693,2.15441 0.133578,0.74499 0.08599,2.1217 -0.101392,2.9329 -0.263582,1.14109 -0.580747,1.70958 -1.668665,2.99076 -0.343118,0.40409 -0.616672,0.77714 -0.607893,0.82897 0.04042,0.23839 0.704305,0.33789 1.121005,0.16782 0.284856,-0.11623 0.308891,-0.16365 0.22235,-0.439 -0.155445,-0.4947 0.176626,-0.81436 0.843302,-0.8119 0.627268,0 1.141117,0.31835 1.235184,0.75961 0.01941,0.091 0.0629,0.21528 0.0967,0.27626 0.03383,0.061 0.06147,0.22085 0.06147,0.35526 0,0.51234 -0.624121,0.81627 -1.138344,0.55438 -0.104402,-0.0534 -0.241939,-0.0806 -0.305638,-0.0608 -0.153724,0.0477 -0.583929,0.5166 -0.583929,0.6365 0,0.0522 0.139828,0.16435 0.310725,0.24963 0.564638,0.28189 0.834571,0.64599 1.093552,1.47512 0.179135,0.57361 0.221198,1.05651 0.135286,1.55312 -0.0431,0.24898 -0.04072,0.2526 0.23877,0.36421 0.943359,0.20076 1.872821,0.11175 2.699615,-0.32453 0.36647,-0.1968 0.481153,-0.22899 0.720463,-0.20262 0.450618,0.0497 0.658325,0.23703 0.821273,0.74127 0.171604,0.53102 0.152591,0.75519 -0.07827,0.9227 -0.277667,0.20162 -0.728791,0.20775 -1.291956,0.0176 -0.425681,-0.1437 -0.592173,-0.16395 -1.346922,-0.16395 -0.997656,0 -1.633596,0.12844 -2.266164,0.45764 -0.470777,0.24511 -0.676631,0.48867 -0.775168,0.91727 -0.08872,0.38591 -0.04102,0.67904 0.16759,1.03009 0.200773,0.33774 0.463677,0.55222 1.004078,0.81888 0.237314,0.11718 0.501395,0.28625 0.586832,0.37581 0.159654,0.16726 0.279971,0.56567 0.273115,0.90422 -0.003,0.14772 0.01098,0.16967 0.06085,0.0958 0.05247,-0.0776 0.06492,-0.068 0.06574,0.051 0.0012,0.19178 -0.277496,0.4603 -0.47783,0.4603 -0.08673,0 -0.236187,-0.0603 -0.332124,-0.13401 z"
       id="path11306-2-6"
       inkscape:connector-curvature="0"
       sodipodi:nodetypes="csscscsscscssssscscssccscsssscccccccccssccscccscsssssssscssssssscscssssscscsssscssssssssssscsscsscssssccsssssssscsscccsccscscccsscsssssccccsscc" />
    <path
       style="fill:#c6e9af;fill-opacity:1"
       d="m 35.592493,567.91067 c -0.08788,-0.18836 -0.09182,-0.48807 -0.0089,-0.66603 0.08303,-0.17796 -0.03875,-0.38345 -0.270586,-0.45663 -0.600439,-0.18952 -0.605881,-0.1866 -0.703842,0.38063 -0.06482,0.37546 -0.274472,0.51374 -0.778842,0.51374 -0.808406,0 -1.129349,-0.74329 -0.4876,-1.12924 0.348084,-0.20941 0.311053,-0.30715 -0.247413,-0.65368 -0.638805,-0.3963 -0.656707,-0.39444 -0.656707,0.0671 0,0.61907 -0.757969,0.84781 -1.308608,0.39484 -0.547312,-0.45014 -0.27417,-1.07629 0.469504,-1.07629 0.498232,0 0.524267,-0.0553 0.216905,-0.4605 -0.304735,-0.40173 -0.388706,-0.4163 -0.657517,-0.11417 -0.393001,0.44161 -1.052675,0.44332 -1.496116,0.005 -0.443909,-0.43995 0.147648,-1.10864 0.847571,-0.95806 0.347339,0.0747 0.434473,-0.0105 0.333988,-0.32664 -0.160775,-0.50565 -0.194005,-0.51107 -0.903253,-0.14676 -0.447132,0.22969 -0.625565,0.21623 -0.97798,-0.0736 -0.620098,-0.51007 -0.234726,-1.18981 0.60013,-1.05852 0.495623,0.0779 0.654712,0 0.654712,-0.31634 0,-0.34361 -0.149505,-0.39469 -0.82848,-0.28293 -0.990607,0.16289 -1.449731,-0.4266 -0.768569,-0.9869 0.333431,-0.27419 0.545203,-0.29273 1.009489,-0.0883 0.788579,0.34713 0.799747,-0.11372 0.01526,-0.63609 -0.373406,-0.24874 -0.507731,-0.51917 -0.386675,-0.7787 0.20841,-0.44663 1.40829,-0.54418 1.576893,-0.12813 0.06166,0.15209 0.31625,0.20403 0.584592,0.11934 0.390673,-0.12331 0.417012,-0.22698 0.147726,-0.5816 -0.428279,-0.56406 -0.126906,-1.177 0.578707,-1.177 0.364329,0 0.61915,0.1985 0.732762,0.57074 0.243891,0.79929 0.690768,0.71682 0.494296,-0.0911 -0.13024,-0.53569 -0.04996,-0.69094 0.420842,-0.8139 0.738371,-0.19273 1.141926,0.0105 1.141926,0.57602 0,0.48716 0.03736,0.50464 0.658176,0.3087 0.333737,-0.10533 0.359225,-0.22241 0.117698,-0.54051 -0.661371,-0.87106 0.386559,-1.53267 1.272911,-0.80366 0.378845,0.31162 0.455152,0.29831 0.732319,-0.12768 0.24175,-0.37154 0.229482,-0.46667 -0.0561,-0.43498 -1.093737,0.12141 -1.591245,-0.45683 -0.889658,-1.0339 0.318445,-0.2619 0.55717,-0.28992 0.959745,-0.11272 0.416182,0.18319 0.535903,0.16114 0.535903,-0.0987 0,-0.18403 -0.28105,-0.36742 -0.62456,-0.40755 -0.401804,-0.0467 -0.656266,-0.25657 -0.713419,-0.58773 -0.108482,-0.62836 0.637968,-0.92526 1.374759,-0.54678 0.711559,0.36556 0.654073,0.0835 -0.08308,-0.40746 -0.380569,-0.25345 -0.536683,-0.53946 -0.425066,-0.77859 0.217711,-0.46668 1.195887,-0.49656 1.502506,-0.0457 0.149061,0.2191 0.360211,0.2639 0.620503,0.1316 0.326779,-0.16616 0.332153,-0.2624 0.03142,-0.56045 -0.441464,-0.4375 0.03486,-1.04486 0.81948,-1.04486 0.518417,0 0.93857,0.582 0.674172,0.9339 -0.08583,0.11427 0.08655,0.2077 0.383115,0.2077 0.312559,0 0.602576,-0.19951 0.690076,-0.47471 0.108507,-0.34121 0.332239,-0.45357 0.795746,-0.39952 0.766994,0.0893 1.065112,1.02803 0.393808,1.23989 -0.381568,0.12045 -0.378511,0.1766 0.02747,0.51068 0.333293,0.27409 0.487291,0.29891 0.571177,0.092 0.167697,-0.41383 1.367603,-0.34657 1.570376,0.088 0.232808,0.49908 -0.369938,1.05641 -0.996631,0.9216 -0.277863,-0.0598 -0.503259,-0.0412 -0.500931,0.0412 0.0078,0.2746 0.407826,0.60621 0.759106,0.62931 0.845185,0.0557 0.935819,0.12 0.852068,0.60506 -0.0727,0.42101 -0.25152,0.50766 -0.99086,0.48008 -1.040187,-0.0387 -1.283908,0.52811 -0.277578,0.64564 0.765651,0.0894 0.841628,0.82696 0.122519,1.18967 -0.399214,0.20131 -0.579424,0.16751 -0.880101,-0.16526 -0.363244,-0.40198 -0.390229,-0.39972 -0.68746,0.0571 -0.274011,0.42112 -0.23229,0.47552 0.364628,0.47552 0.83883,0 1.182613,0.64162 0.600357,1.12055 -0.352416,0.28982 -0.530848,0.30328 -0.977981,0.0736 -0.770599,-0.39585 -0.832029,-0.36591 -0.832029,0.40595 0,0.61349 0.05538,0.6584 0.518388,0.42057 0.665202,-0.34166 1.493092,-0.0841 1.373342,0.42724 -0.0508,0.21694 -0.360385,0.50445 -0.687988,0.63881 -0.454931,0.1865 -0.533684,0.33527 -0.333321,0.62976 0.21032,0.30911 0.362831,0.33387 0.769517,0.12497 0.278938,-0.14325 0.719851,-0.19338 0.979816,-0.11135 0.675716,0.21327 0.446291,1.12954 -0.321363,1.28344 -0.865252,0.17339 -0.404659,0.62062 0.616239,0.59832 0.709107,-0.0156 0.832747,0.0666 0.832747,0.55262 0,0.49867 -0.114007,0.56653 -0.90215,0.53714 -0.514447,-0.0191 -0.904807,0.0789 -0.9083,0.22829 -0.0032,0.14411 -0.241942,0.51429 -0.530078,0.8227 -0.484906,0.51901 -0.489631,0.58174 -0.06323,0.84283 0.361688,0.22151 0.394531,0.37079 0.152834,0.69502 -0.431084,0.57823 -1.337283,0.53041 -1.442433,-0.0761 -0.06256,-0.36094 -0.227646,-0.45824 -0.63042,-0.37164 -0.41812,0.09 -0.474029,0.18836 -0.239272,0.42101 0.430696,0.42685 0.04977,1.23879 -0.581178,1.23879 -0.543397,0 -1.217509,-0.74162 -0.906558,-0.99739 0.0964,-0.0793 -0.03145,-0.14415 -0.284078,-0.14415 -0.303123,0 -0.436891,0.16374 -0.39325,0.48139 0.09085,0.66141 -0.713394,1.07549 -1.304813,0.67176 -0.262897,-0.17947 -0.378706,-0.47853 -0.282137,-0.72877 0.112061,-0.29042 0.02638,-0.42438 -0.271306,-0.42438 -0.239304,0 -0.435088,0.18494 -0.435088,0.41092 0,0.81968 -1.242073,1.3089 -1.565125,0.6165 z m 8.604309,-2.2848 c -0.09655,-0.20695 0.0067,-0.52615 0.229531,-0.70938 0.555413,-0.45683 1.388497,-0.16129 1.281658,0.45472 -0.105288,0.60691 -1.256368,0.80084 -1.511189,0.25466 z"
       id="path11332-0-3"
       inkscape:connector-curvature="0"
       sodipodi:nodetypes="ccccscssssccccccccsccccscccsccssccccsccsccscccccscscscccccccccccscsccsccscccscsccccscccscscccsscccccc" />
    <path
       style="fill:#c6e9af;fill-opacity:1"
       d="m 36.313239,590.24754 c -0.16148,-0.12406 -0.421462,-0.50947 -0.67399,-0.9992 -0.243372,-0.47195 -0.456343,-0.69541 -0.825348,-0.86584 -0.563528,-0.26038 -1.169291,-0.14802 -1.376385,0.25536 -0.08016,0.15611 -0.0808,0.18585 -0.0075,0.35155 0.151988,0.34357 0.3243,0.88594 0.325632,1.02502 9.54e-4,0.10126 -0.03456,0.15546 -0.129565,0.19775 -0.18815,0.0838 -0.389622,0 -0.513263,-0.21739 -0.05669,-0.099 -0.145568,-0.23889 -0.197521,-0.31092 -0.08535,-0.11849 -0.08813,-0.15862 -0.0289,-0.41719 l 0.06557,-0.28611 -0.162351,-0.14164 c -0.238392,-0.20805 -0.516368,-0.2635 -1.119919,-0.22332 -0.905013,0.0603 -1.811199,-0.11783 -2.69912,-0.53041 -0.608723,-0.28284 -0.768264,-0.30077 -1.527395,-0.17148 -0.543402,0.0926 -0.714071,0.18243 -0.847897,0.44663 -0.123051,0.24286 -0.08983,0.29514 0.259449,0.40846 0.277607,0.0901 0.460491,0.27289 0.460491,0.46044 0,0.0665 0.0354,0.17359 0.07867,0.23809 0.09133,0.13612 0.03596,0.34803 -0.104707,0.40072 -0.248445,0.0932 -0.592375,-0.0442 -0.592375,-0.23688 0,-0.0377 -0.04508,-0.10759 -0.100138,-0.15621 -0.05508,-0.0487 -0.146957,-0.22387 -0.204171,-0.38937 -0.05722,-0.1655 -0.230853,-0.49716 -0.385857,-0.7371 -0.155004,-0.24 -0.306624,-0.50008 -0.336935,-0.57799 -0.07726,-0.19865 -0.06858,-0.48782 0.02217,-0.73906 0.04251,-0.11768 0.0773,-0.21729 0.0773,-0.22136 0,-0.005 -0.156534,0.007 -0.347854,0.0236 -0.65508,0.0582 -1.198162,-0.0797 -1.198162,-0.30423 0,-0.0534 -0.06057,-0.15637 -0.134598,-0.22864 -0.109438,-0.10689 -0.12851,-0.16144 -0.102049,-0.29173 0.03913,-0.19253 0.209905,-0.33367 0.405712,-0.33523 0.104897,0 0.209353,0.0655 0.389658,0.24718 0.135487,0.13657 0.310539,0.26405 0.389001,0.28324 0.318683,0.078 1.016215,-0.0944 1.37531,-0.34015 l 0.124828,-0.0854 -0.139788,-0.005 c -0.07688,0 -0.272902,-0.0513 -0.435599,-0.11076 -0.245705,-0.0898 -0.396622,-0.20573 -0.890892,-0.68472 -0.32729,-0.31714 -0.722624,-0.66231 -0.878519,-0.76704 -0.326968,-0.2197 -0.485932,-0.37611 -0.562977,-0.55397 -0.02999,-0.0692 -0.104014,-0.18594 -0.164519,-0.25948 -0.22729,-0.27631 -0.110533,-0.7253 0.231142,-0.88885 0.178276,-0.0854 0.451646,-0.005 0.596992,0.1754 0.09697,0.1204 0.312618,0.74293 0.389337,1.12397 0.08955,0.44467 0.641766,1.02351 1.156801,1.21257 0.350547,0.12863 0.934641,0.1201 1.148562,-0.0166 l 0.135266,-0.0865 -0.119095,-0.29042 c -0.06551,-0.15973 -0.172957,-0.40364 -0.238775,-0.54202 -0.160121,-0.33673 -0.175637,-1.21272 -0.02881,-1.6266 0.181654,-0.51208 0.0078,-0.99996 -0.493473,-1.38446 -0.573549,-0.4399 -1.307277,-0.73841 -1.815179,-0.73841 -0.216023,0 -0.305375,0.0306 -0.515054,0.17616 -0.285339,0.19815 -0.544509,0.23175 -0.678278,0.088 -0.180943,-0.19444 -0.433352,-0.64635 -0.433352,-0.77599 0,-0.38198 0.308755,-0.59601 0.857322,-0.5943 0.426928,0 0.898862,0.15164 1.414775,0.451 0.449218,0.26064 1.27371,0.90095 1.639277,1.2731 0.452018,0.46019 0.634495,0.46742 0.957293,0.0377 0.123552,-0.1644 0.275989,-0.2962 0.418008,-0.3614 0.396701,-0.18213 0.38872,-0.2086 -0.348532,-1.15968 -0.950457,-1.22593 -1.72025,-2.51138 -1.953469,-3.26184 -0.124072,-0.39927 -0.163848,-1.10222 -0.08335,-1.47316 0.04923,-0.22688 0.295494,-0.5168 0.476633,-0.56125 0.347919,-0.0852 0.758678,0.19483 0.826732,0.56381 0.01899,0.10292 0.05678,0.21463 0.08397,0.24818 0.106862,0.1317 0.05853,0.49988 -0.111674,0.85083 -0.48296,0.99593 -0.156154,1.95816 1.252857,3.68874 0.541535,0.66512 0.805627,0.86006 1.16513,0.86006 0.286908,0 0.438311,-0.0951 0.515661,-0.32402 0.08353,-0.24718 0.0058,-0.4709 -0.358501,-1.0313 -0.373676,-0.57492 -0.591459,-1.07052 -0.674154,-1.53433 -0.237671,-1.33282 0.672157,-2.4169 1.581635,-1.88443 0.08878,0.0519 0.183862,0.15656 0.211288,0.23246 0.02745,0.0759 0.07967,0.21719 0.116088,0.31408 0.136651,0.36355 0.126765,0.52464 -0.04381,0.71435 -0.121812,0.13552 -0.24347,0.19926 -0.541212,0.28379 -0.366485,0.10397 -0.389174,0.11929 -0.49526,0.33327 -0.142172,0.2868 -0.187897,0.70913 -0.104346,0.96384 0.03535,0.10779 0.159999,0.3201 0.276999,0.47179 0.116996,0.15169 0.299571,0.41213 0.405722,0.57879 0.269199,0.42252 0.529115,0.6699 0.770682,0.73344 0.34308,0.0902 0.377987,0.0633 0.363608,-0.28048 -0.0539,-1.28847 -0.0433,-1.50018 0.08802,-1.76051 0.159077,-0.31534 0.534699,-0.67849 0.860447,-0.83194 0.29382,-0.13843 0.847345,-0.18876 1.117564,-0.10166 0.400138,0.12898 0.63145,0.42433 0.804818,1.02772 0.07387,0.25707 0.0998,0.44413 0.07626,0.55026 -0.108892,0.49123 -0.675899,0.76076 -0.978561,0.46512 -0.06957,-0.068 -0.126488,-0.15501 -0.126488,-0.19348 0,-0.0382 -0.04658,-0.11116 -0.103519,-0.16149 -0.171867,-0.15189 -0.229605,-0.42508 -0.136056,-0.64373 0.09723,-0.22723 0.06637,-0.23386 -0.364019,-0.0788 -0.559156,0.20152 -0.892448,0.68783 -0.889576,1.29806 9.54e-4,0.23261 0.03184,0.32719 0.180368,0.55488 0.09848,0.15093 0.17905,0.30493 0.17905,0.3422 0,0.0377 0.0354,0.13457 0.07863,0.21624 0.0721,0.13617 0.101335,0.14847 0.352502,0.14847 0.652948,0 1.483574,-0.66106 1.907675,-1.51816 0.560792,-1.13346 0.682754,-2.52499 0.319258,-3.64288 -0.135289,-0.41609 -0.270929,-0.6373 -0.503929,-0.82204 l -0.151193,-0.11985 -0.166493,0.15762 c -0.280539,0.26556 -0.670811,0.20187 -0.856918,-0.13983 -0.04274,-0.0784 -0.117931,-0.1976 -0.16712,-0.26491 -0.154434,-0.21131 -0.163651,-0.39902 -0.02922,-0.59521 0.23726,-0.34623 0.767656,-0.45643 1.203938,-0.25019 0.27603,0.1305 0.746328,0.61103 0.912425,0.93229 0.185652,0.35919 0.437502,1.15973 0.533875,1.69723 0.10523,0.58687 0.06774,1.67146 -0.07987,2.31047 -0.207645,0.89894 -0.457503,1.34678 -1.314546,2.35612 -0.270303,0.3183 -0.485804,0.61219 -0.478887,0.65302 0.03184,0.18781 0.554839,0.26617 0.883108,0.13221 0.224405,-0.0916 0.243339,-0.12894 0.175163,-0.34588 -0.122457,-0.38967 0.139143,-0.64147 0.66434,-0.63956 0.49415,0 0.898952,0.25079 0.973056,0.59842 0.01529,0.0716 0.04955,0.16958 0.07618,0.21759 0.02665,0.0482 0.04843,0.17405 0.04843,0.27988 0,0.40364 -0.491673,0.64308 -0.896768,0.43674 -0.08225,-0.0422 -0.190596,-0.0635 -0.240777,-0.0477 -0.121101,0.0372 -0.46001,0.40695 -0.46001,0.50138 0,0.0412 0.110155,0.12949 0.244785,0.19665 0.444811,0.22206 0.65746,0.50891 0.861481,1.16209 0.14112,0.45185 0.174257,0.83228 0.106577,1.22347 -0.03395,0.19619 -0.03208,0.199 0.188098,0.28695 0.743162,0.15817 1.475376,0.0881 2.126711,-0.25566 0.288699,-0.15501 0.379044,-0.18037 0.567568,-0.15963 0.35499,0.0392 0.518617,0.18675 0.646985,0.58396 0.135186,0.41835 0.120208,0.59496 -0.06166,0.72691 -0.218742,0.15882 -0.574129,0.16364 -1.017781,0.0141 -0.335345,-0.11321 -0.466505,-0.12914 -1.061083,-0.12914 -0.785936,0 -1.286919,0.10116 -1.785245,0.3605 -0.37087,0.19312 -0.533038,0.385 -0.610664,0.72263 -0.06989,0.30399 -0.03231,0.53489 0.132025,0.8115 0.158165,0.26601 0.365277,0.43498 0.790995,0.64508 0.186952,0.0923 0.39499,0.22548 0.462296,0.29605 0.125773,0.13175 0.220557,0.44563 0.215155,0.71234 -0.0024,0.11638 0.0086,0.13361 0.04794,0.0755 0.04134,-0.0612 0.05114,-0.0536 0.05178,0.0402 9.54e-4,0.15109 -0.218606,0.3626 -0.376425,0.3626 -0.06832,0 -0.186064,-0.0477 -0.261642,-0.10553 z"
       id="path11306-2-6-1"
       inkscape:connector-curvature="0"
       sodipodi:nodetypes="csscscsscscssssscscssccscsssscccccccccssccscccscsssssssscssssssscscssssscscsssscssssssssssscsscsscssssccsssssssscsscccsccscscccsscsssssccccsscc" />
    <path
       style="fill:#c6e9af;fill-opacity:1"
       d="m 60.421033,649.61547 c -0.07542,-0.16163 -0.0788,-0.41886 -0.0076,-0.5716 0.07125,-0.15275 -0.03325,-0.32905 -0.232216,-0.39188 -0.515298,-0.16264 -0.519967,-0.16008 -0.604037,0.32668 -0.05563,0.32217 -0.235553,0.44091 -0.668404,0.44091 -0.693773,0 -0.969207,-0.6379 -0.418459,-0.96916 0.298727,-0.17967 0.266946,-0.2636 -0.212329,-0.56096 -0.548223,-0.34009 -0.563586,-0.33854 -0.563586,0.0575 0,0.53131 -0.65049,0.72761 -1.123048,0.33889 -0.469703,-0.38631 -0.235293,-0.92371 0.402928,-0.92371 0.427583,0 0.449926,-0.0472 0.186148,-0.39519 -0.261523,-0.34472 -0.333587,-0.35728 -0.564281,-0.098 -0.337274,0.37902 -0.903407,0.38048 -1.283968,0.005 -0.380963,-0.37757 0.126711,-0.95143 0.727386,-0.82219 0.298087,0.064 0.372865,-0.009 0.286629,-0.28033 -0.137977,-0.43397 -0.166495,-0.43859 -0.775172,-0.12592 -0.383729,0.1971 -0.53686,0.18555 -0.839304,-0.0632 -0.532168,-0.43774 -0.201441,-1.02109 0.515032,-0.90843 0.425344,0.0668 0.561874,0 0.561874,-0.27149 0,-0.29484 -0.128304,-0.33869 -0.711001,-0.2428 -0.85014,0.13978 -1.24416,-0.36607 -0.659586,-0.84696 0.286151,-0.23532 0.467893,-0.25124 0.866343,-0.0758 0.67676,0.2979 0.686344,-0.0976 0.0131,-0.54589 -0.320458,-0.21347 -0.435736,-0.44553 -0.331845,-0.66824 0.178857,-0.38334 1.208595,-0.46703 1.35329,-0.11 0.05291,0.13054 0.271406,0.17515 0.501697,0.10242 0.335275,-0.10584 0.35788,-0.19479 0.126779,-0.49913 -0.36755,-0.48405 -0.108911,-1.01009 0.496646,-1.01009 0.312668,0 0.531355,0.17032 0.628857,0.48983 0.209307,0.68592 0.592817,0.6152 0.424205,-0.0783 -0.111772,-0.45969 -0.04288,-0.59295 0.361167,-0.69843 0.63367,-0.1654 0.980001,0.009 0.980001,0.49435 0,0.41805 0.03206,0.43307 0.564848,0.26491 0.286413,-0.0904 0.308286,-0.19087 0.101008,-0.46386 -0.567589,-0.74756 0.331744,-1.31534 1.092412,-0.68969 0.325125,0.26741 0.390612,0.25596 0.628477,-0.1096 0.20747,-0.31885 0.196941,-0.40048 -0.04814,-0.3733 -0.938645,0.10417 -1.365607,-0.39209 -0.763504,-0.88729 0.273289,-0.22477 0.478163,-0.24878 0.823654,-0.0967 0.357167,0.15721 0.459912,0.13828 0.459912,-0.0847 0,-0.15792 -0.241198,-0.31533 -0.535998,-0.34979 -0.344829,-0.0402 -0.563208,-0.2202 -0.612257,-0.50435 -0.0931,-0.53925 0.547505,-0.79406 1.179819,-0.46923 0.61066,0.31368 0.561326,0.0716 -0.0713,-0.34969 -0.326605,-0.21754 -0.460583,-0.46296 -0.364793,-0.66819 0.18684,-0.40048 1.02631,-0.42614 1.289452,-0.0397 0.127923,0.18805 0.309133,0.22648 0.532516,0.11296 0.280441,-0.1426 0.285054,-0.22518 0.02696,-0.48099 -0.378864,-0.37546 0.02992,-0.89668 0.703279,-0.89668 0.444906,0 0.805482,0.49947 0.578575,0.80145 -0.07366,0.098 0.07428,0.17826 0.32879,0.17826 0.268238,0 0.51713,-0.17118 0.592223,-0.40741 0.09312,-0.29283 0.285127,-0.38922 0.68291,-0.34286 0.658233,0.0767 0.914078,0.88227 0.337965,1.0641 -0.327461,0.10337 -0.324838,0.15154 0.02358,0.43824 0.286033,0.23522 0.418194,0.25652 0.490185,0.079 0.143918,-0.35517 1.173677,-0.29745 1.347697,0.0755 0.199796,0.4283 -0.317481,0.90658 -0.855309,0.7909 -0.238462,-0.0513 -0.431897,-0.0357 -0.429899,0.0357 0.0067,0.23562 0.349996,0.52027 0.651465,0.54006 0.725338,0.0477 0.803121,0.10296 0.731245,0.51926 -0.06239,0.36129 -0.215854,0.43568 -0.850356,0.41197 -0.892689,-0.0331 -1.10185,0.45322 -0.238218,0.55413 0.657082,0.0767 0.722286,0.70968 0.105146,1.02094 -0.342605,0.17279 -0.497262,0.14376 -0.755303,-0.14179 -0.311736,-0.34497 -0.334895,-0.34301 -0.589978,0.0492 -0.235156,0.3614 -0.199351,0.40806 0.312923,0.40806 0.719885,0 1.01492,0.55061 0.515227,0.96168 -0.302443,0.24873 -0.455574,0.26028 -0.839303,0.0632 -0.661329,-0.33974 -0.714048,-0.31397 -0.714048,0.34839 0,0.5265 0.04753,0.56502 0.444881,0.36094 0.570876,-0.29323 1.281372,-0.0722 1.178602,0.36667 -0.04359,0.18615 -0.309282,0.43287 -0.590431,0.5482 -0.390423,0.16008 -0.458008,0.28771 -0.286057,0.54046 0.180497,0.26531 0.311382,0.28655 0.6604,0.10724 0.239385,-0.12296 0.617777,-0.16596 0.840878,-0.0955 0.5799,0.18303 0.383008,0.96936 -0.275793,1.10141 -0.74256,0.14888 -0.347278,0.53263 0.528857,0.51349 0.608555,-0.0136 0.714663,0.0571 0.714663,0.47426 0,0.428 -0.09784,0.48621 -0.774224,0.461 -0.4415,-0.0161 -0.776507,0.0677 -0.779505,0.19589 -0.0027,0.12371 -0.207635,0.44141 -0.454913,0.70606 -0.416146,0.44543 -0.420201,0.49923 -0.05427,0.7233 0.310401,0.19011 0.338586,0.31825 0.131162,0.59646 -0.369956,0.49626 -1.147657,0.45522 -1.237896,-0.0653 -0.05369,-0.30981 -0.195367,-0.39329 -0.541028,-0.31895 -0.35883,0.0772 -0.406812,0.16164 -0.205343,0.3613 0.369624,0.36631 0.04271,1.06314 -0.498767,1.06314 -0.466343,0 -1.044867,-0.6365 -0.778009,-0.856 0.08273,-0.068 -0.02699,-0.12371 -0.243796,-0.12371 -0.26014,0 -0.37494,0.14054 -0.337487,0.41313 0.07797,0.56763 -0.612235,0.923 -1.119791,0.57652 -0.225618,-0.15405 -0.325006,-0.41067 -0.242129,-0.62545 0.09617,-0.24923 0.02263,-0.3642 -0.232835,-0.3642 -0.205372,0 -0.373393,0.15872 -0.373393,0.3527 0,0.70345 -1.065948,1.12326 -1.343191,0.52901 z m 7.384221,-1.96082 c -0.08286,-0.17756 0.0057,-0.45151 0.196984,-0.60878 0.476656,-0.39203 1.191608,-0.13843 1.099919,0.39023 -0.09036,0.52082 -1.078215,0.68733 -1.296903,0.21855 z"
       id="path11332-0-3-2"
       inkscape:connector-curvature="0"
       sodipodi:nodetypes="ccccscssssccccccccsccccscccsccssccccsccsccscccccscscscccccccccccscsccsccscccscsccccscccscscccsscccccc" />
    <text
       sodipodi:linespacing="125%"
       id="text23896"
       y="667.86584"
       x="117.36257"
       style="font-size:14.19930267px;font-style:normal;font-weight:normal;line-height:125%;letter-spacing:0px;word-spacing:0px;fill:#000000;fill-opacity:1;stroke:none;font-family:Sans"
       xml:space="preserve"><tspan
         style="font-size:22.71888542px"
         y="667.86584"
         x="117.36257"
         id="tspan23898"
         sodipodi:role="line">N</tspan></text>
  </g>
</svg>
