<?xml version="1.0" encoding="UTF-8" standalone="no"?>
<!-- Created with Inkscape (http://www.inkscape.org/) -->

<svg
   xmlns:dc="http://purl.org/dc/elements/1.1/"
   xmlns:cc="http://creativecommons.org/ns#"
   xmlns:rdf="http://www.w3.org/1999/02/22-rdf-syntax-ns#"
   xmlns:svg="http://www.w3.org/2000/svg"
   xmlns="http://www.w3.org/2000/svg"
   xmlns:sodipodi="http://sodipodi.sourceforge.net/DTD/sodipodi-0.dtd"
   xmlns:inkscape="http://www.inkscape.org/namespaces/inkscape"
   width="1000"
   height="600"
   id="svg5359"
   version="1.1"
   inkscape:version="0.48.3.1 r9886"
   sodipodi:docname="im46.svg">
  <defs
     id="defs5361">
    <marker
       style="overflow:visible"
       id="Arrow1Lend"
       refX="0"
       refY="0"
       orient="auto"
       inkscape:stockid="Arrow1Lend">
      <path
         inkscape:connector-curvature="0"
         transform="matrix(-0.8,0,0,-0.8,-10,0)"
         style="fill-rule:evenodd;stroke:#000000;stroke-width:1pt"
         d="M 0,0 5,-5 -12.5,0 5,5 0,0 z"
         id="path4191" />
    </marker>
    <marker
       style="overflow:visible"
       id="marker5264"
       refX="0"
       refY="0"
       orient="auto"
       inkscape:stockid="Arrow1Lend">
      <path
         inkscape:connector-curvature="0"
         transform="matrix(-0.8,0,0,-0.8,-10,0)"
         style="fill-rule:evenodd;stroke:#000000;stroke-width:1pt"
         d="M 0,0 5,-5 -12.5,0 5,5 0,0 z"
         id="path5266" />
    </marker>
    <marker
       style="overflow:visible"
       id="marker5268"
       refX="0"
       refY="0"
       orient="auto"
       inkscape:stockid="Arrow1Lend">
      <path
         inkscape:connector-curvature="0"
         transform="matrix(-0.8,0,0,-0.8,-10,0)"
         style="fill-rule:evenodd;stroke:#000000;stroke-width:1pt"
         d="M 0,0 5,-5 -12.5,0 5,5 0,0 z"
         id="path5270" />
    </marker>
    <marker
       style="overflow:visible"
       id="marker5272"
       refX="0"
       refY="0"
       orient="auto"
       inkscape:stockid="Arrow1Lend">
      <path
         inkscape:connector-curvature="0"
         transform="matrix(-0.8,0,0,-0.8,-10,0)"
         style="fill-rule:evenodd;stroke:#000000;stroke-width:1pt"
         d="M 0,0 5,-5 -12.5,0 5,5 0,0 z"
         id="path5274" />
    </marker>
    <marker
       style="overflow:visible"
       id="Arrow1Mend"
       refX="0"
       refY="0"
       orient="auto"
       inkscape:stockid="Arrow1Mend">
      <path
         inkscape:connector-curvature="0"
         transform="matrix(-0.4,0,0,-0.4,-4,0)"
         style="fill-rule:evenodd;stroke:#000000;stroke-width:1pt"
         d="M 0,0 5,-5 -12.5,0 5,5 0,0 z"
         id="path4197" />
    </marker>
    <clipPath
       id="clipPath14120"
       clipPathUnits="userSpaceOnUse">
      <path
         id="path14122"
         d="m 59.04,73.44 320.22,0 0,142.77 -320.22,0 0,-142.77 z"
         inkscape:connector-curvature="0" />
    </clipPath>
    <clipPath
       id="clipPath14184"
       clipPathUnits="userSpaceOnUse">
      <path
         id="path14186"
         d="m 59.04,73.44 320.22,0 0,142.77 -320.22,0 0,-142.77 z"
         inkscape:connector-curvature="0" />
    </clipPath>
    <clipPath
       id="clipPath14529"
       clipPathUnits="userSpaceOnUse">
      <path
         id="path14531"
         d="m 59.04,73.44 320.22,0 0,142.77 -320.22,0 0,-142.77 z"
         inkscape:connector-curvature="0" />
    </clipPath>
    <clipPath
       id="clipPath14593"
       clipPathUnits="userSpaceOnUse">
      <path
         id="path14595"
         d="m 59.04,73.44 320.22,0 0,142.77 -320.22,0 0,-142.77 z"
         inkscape:connector-curvature="0" />
    </clipPath>
    <clipPath
       id="clipPath13294"
       clipPathUnits="userSpaceOnUse">
      <path
         id="path13296"
         d="m 59.04,73.44 320.22,0 0,142.77 -320.22,0 0,-142.77 z"
         inkscape:connector-curvature="0" />
    </clipPath>
    <clipPath
       id="clipPath13358"
       clipPathUnits="userSpaceOnUse">
      <path
         id="path13360"
         d="m 59.04,73.44 320.22,0 0,142.77 -320.22,0 0,-142.77 z"
         inkscape:connector-curvature="0" />
    </clipPath>
    <marker
       style="overflow:visible"
       id="marker6138"
       refX="0"
       refY="0"
       orient="auto"
       inkscape:stockid="Arrow1Mend">
      <path
         inkscape:connector-curvature="0"
         transform="matrix(-0.4,0,0,-0.4,-4,0)"
         style="fill-rule:evenodd;stroke:#000000;stroke-width:1pt"
         d="M 0,0 5,-5 -12.5,0 5,5 0,0 z"
         id="path6140" />
    </marker>
    <marker
       style="overflow:visible"
       id="marker6142"
       refX="0"
       refY="0"
       orient="auto"
       inkscape:stockid="Arrow1Mend">
      <path
         inkscape:connector-curvature="0"
         transform="matrix(-0.4,0,0,-0.4,-4,0)"
         style="fill-rule:evenodd;stroke:#000000;stroke-width:1pt"
         d="M 0,0 5,-5 -12.5,0 5,5 0,0 z"
         id="path6144" />
    </marker>
    <clipPath
       id="clipPath13706"
       clipPathUnits="userSpaceOnUse">
      <path
         id="path13708"
         d="m 59.04,73.44 320.22,0 0,142.77 -320.22,0 0,-142.77 z"
         inkscape:connector-curvature="0" />
    </clipPath>
    <clipPath
       id="clipPath13770"
       clipPathUnits="userSpaceOnUse">
      <path
         id="path13772"
         d="m 59.04,73.44 320.22,0 0,142.77 -320.22,0 0,-142.77 z"
         inkscape:connector-curvature="0" />
    </clipPath>
    <marker
       style="overflow:visible"
       id="marker6150"
       refX="0"
       refY="0"
       orient="auto"
       inkscape:stockid="Arrow1Mend">
      <path
         inkscape:connector-curvature="0"
         transform="matrix(-0.4,0,0,-0.4,-4,0)"
         style="fill-rule:evenodd;stroke:#000000;stroke-width:1pt"
         d="M 0,0 5,-5 -12.5,0 5,5 0,0 z"
         id="path6152" />
    </marker>
    <marker
       style="overflow:visible"
       id="marker6154"
       refX="0"
       refY="0"
       orient="auto"
       inkscape:stockid="Arrow1Mend">
      <path
         inkscape:connector-curvature="0"
         transform="matrix(-0.4,0,0,-0.4,-4,0)"
         style="fill-rule:evenodd;stroke:#000000;stroke-width:1pt"
         d="M 0,0 5,-5 -12.5,0 5,5 0,0 z"
         id="path6156" />
    </marker>
    <clipPath
       id="clipPath14941"
       clipPathUnits="userSpaceOnUse">
      <path
         id="path14943"
         d="m 59.04,73.44 320.22,0 0,142.77 -320.22,0 0,-142.77 z"
         inkscape:connector-curvature="0" />
    </clipPath>
    <clipPath
       id="clipPath15005"
       clipPathUnits="userSpaceOnUse">
      <path
         id="path15007"
         d="m 59.04,73.44 320.22,0 0,142.77 -320.22,0 0,-142.77 z"
         inkscape:connector-curvature="0" />
    </clipPath>
    <marker
       style="overflow:visible"
       id="marker6162"
       refX="0"
       refY="0"
       orient="auto"
       inkscape:stockid="Arrow1Mend">
      <path
         inkscape:connector-curvature="0"
         transform="matrix(-0.4,0,0,-0.4,-4,0)"
         style="fill-rule:evenodd;stroke:#000000;stroke-width:1pt"
         d="M 0,0 5,-5 -12.5,0 5,5 0,0 z"
         id="path6164" />
    </marker>
    <marker
       style="overflow:visible"
       id="marker6166"
       refX="0"
       refY="0"
       orient="auto"
       inkscape:stockid="Arrow1Mend">
      <path
         inkscape:connector-curvature="0"
         transform="matrix(-0.4,0,0,-0.4,-4,0)"
         style="fill-rule:evenodd;stroke:#000000;stroke-width:1pt"
         d="M 0,0 5,-5 -12.5,0 5,5 0,0 z"
         id="path6168" />
    </marker>
    <marker
       style="overflow:visible"
       id="marker6170"
       refX="0"
       refY="0"
       orient="auto"
       inkscape:stockid="Arrow1Mend">
      <path
         inkscape:connector-curvature="0"
         transform="matrix(-0.4,0,0,-0.4,-4,0)"
         style="fill-rule:evenodd;stroke:#000000;stroke-width:1pt"
         d="M 0,0 5,-5 -12.5,0 5,5 0,0 z"
         id="path6172" />
    </marker>
    <marker
       style="overflow:visible"
       id="marker6174"
       refX="0"
       refY="0"
       orient="auto"
       inkscape:stockid="Arrow1Mend">
      <path
         inkscape:connector-curvature="0"
         transform="matrix(-0.4,0,0,-0.4,-4,0)"
         style="fill-rule:evenodd;stroke:#000000;stroke-width:1pt"
         d="M 0,0 5,-5 -12.5,0 5,5 0,0 z"
         id="path6176" />
    </marker>
    <marker
       style="overflow:visible"
       id="marker6178"
       refX="0"
       refY="0"
       orient="auto"
       inkscape:stockid="Arrow1Mend">
      <path
         inkscape:connector-curvature="0"
         transform="matrix(-0.4,0,0,-0.4,-4,0)"
         style="fill-rule:evenodd;stroke:#000000;stroke-width:1pt"
         d="M 0,0 5,-5 -12.5,0 5,5 0,0 z"
         id="path6180" />
    </marker>
    <marker
       style="overflow:visible"
       id="marker33532"
       refX="0"
       refY="0"
       orient="auto"
       inkscape:stockid="Arrow1Mend">
      <path
         inkscape:connector-curvature="0"
         transform="matrix(-0.4,0,0,-0.4,-4,0)"
         style="fill-rule:evenodd;stroke:#000000;stroke-width:1pt"
         d="M 0,0 5,-5 -12.5,0 5,5 0,0 z"
         id="path33534" />
    </marker>
    <marker
       style="overflow:visible"
       id="marker10291"
       refX="0"
       refY="0"
       orient="auto"
       inkscape:stockid="Arrow1Mend">
      <path
         inkscape:connector-curvature="0"
         transform="matrix(-0.4,0,0,-0.4,-4,0)"
         style="fill-rule:evenodd;stroke:#000000;stroke-width:1pt"
         d="M 0,0 5,-5 -12.5,0 5,5 0,0 z"
         id="path10293" />
    </marker>
    <marker
       style="overflow:visible"
       id="marker33528d"
       refX="0"
       refY="0"
       orient="auto"
       inkscape:stockid="marker33528d">
      <path
         inkscape:connector-curvature="0"
         transform="scale(0.6,0.6)"
         d="M 8.7185878,4.0337352 -2.2072895,0.01601326 8.7185884,-4.0017078 c -1.7454984,2.3720609 -1.7354408,5.6174519 -6e-7,8.035443 z"
         style="fill:#ff0000;fill-rule:evenodd;stroke:#ff0000;stroke-width:0.625;stroke-linejoin:round"
         id="path9582" />
    </marker>
    <marker
       style="overflow:visible"
       id="marker10297"
       refX="0"
       refY="0"
       orient="auto"
       inkscape:stockid="Arrow1Mend">
      <path
         inkscape:connector-curvature="0"
         transform="matrix(-0.4,0,0,-0.4,-4,0)"
         style="fill-rule:evenodd;stroke:#000000;stroke-width:1pt"
         d="M 0,0 5,-5 -12.5,0 5,5 0,0 z"
         id="path10299" />
    </marker>
    <marker
       style="overflow:visible"
       id="marker33532T"
       refX="0"
       refY="0"
       orient="auto"
       inkscape:stockid="marker33532T">
      <path
         inkscape:connector-curvature="0"
         transform="matrix(-0.4,0,0,-0.4,-4,0)"
         style="fill:#ff0000;fill-rule:evenodd;stroke:#ff0000;stroke-width:1pt"
         d="M 0,0 5,-5 -12.5,0 5,5 0,0 z"
         id="path9585" />
    </marker>
    <marker
       style="overflow:visible"
       id="marker10303"
       refX="0"
       refY="0"
       orient="auto"
       inkscape:stockid="Arrow1Mend">
      <path
         inkscape:connector-curvature="0"
         transform="matrix(-0.4,0,0,-0.4,-4,0)"
         style="fill-rule:evenodd;stroke:#000000;stroke-width:1pt"
         d="M 0,0 5,-5 -12.5,0 5,5 0,0 z"
         id="path10305" />
    </marker>
    <marker
       style="overflow:visible"
       id="marker335282"
       refX="0"
       refY="0"
       orient="auto"
       inkscape:stockid="marker335282">
      <path
         inkscape:connector-curvature="0"
         transform="scale(0.6,0.6)"
         d="M 8.7185878,4.0337352 -2.2072895,0.01601326 8.7185884,-4.0017078 c -1.7454984,2.3720609 -1.7354408,5.6174519 -6e-7,8.035443 z"
         style="fill:#ff0000;fill-rule:evenodd;stroke:#ff0000;stroke-width:0.625;stroke-linejoin:round"
         id="path9579" />
    </marker>
    <marker
       style="overflow:visible"
       id="marker10309"
       refX="0"
       refY="0"
       orient="auto"
       inkscape:stockid="Arrow1Mend">
      <path
         inkscape:connector-curvature="0"
         transform="matrix(-0.4,0,0,-0.4,-4,0)"
         style="fill-rule:evenodd;stroke:#000000;stroke-width:1pt"
         d="M 0,0 5,-5 -12.5,0 5,5 0,0 z"
         id="path10311" />
    </marker>
    <marker
       style="overflow:visible"
       id="Arrow2Mstart"
       refX="0"
       refY="0"
       orient="auto"
       inkscape:stockid="Arrow2Mstart">
      <path
         inkscape:connector-curvature="0"
         transform="scale(0.6,0.6)"
         d="M 8.7185878,4.0337352 -2.2072895,0.01601326 8.7185884,-4.0017078 c -1.7454984,2.3720609 -1.7354408,5.6174519 -6e-7,8.035443 z"
         style="fill-rule:evenodd;stroke-width:0.625;stroke-linejoin:round"
         id="path4212" />
    </marker>
    <marker
       style="overflow:visible"
       id="marker22553-3"
       refX="0"
       refY="0"
       orient="auto"
       inkscape:stockid="Arrow1Mend">
      <path
         inkscape:connector-curvature="0"
         transform="matrix(-0.4,0,0,-0.4,-4,0)"
         style="fill-rule:evenodd;stroke:#000000;stroke-width:1pt"
         d="M 0,0 5,-5 -12.5,0 5,5 0,0 z"
         id="path22555-3" />
    </marker>
    <marker
       style="overflow:visible"
       id="marker10317"
       refX="0"
       refY="0"
       orient="auto"
       inkscape:stockid="Arrow2Mstart">
      <path
         inkscape:connector-curvature="0"
         transform="scale(0.6,0.6)"
         d="M 8.7185878,4.0337352 -2.2072895,0.01601326 8.7185884,-4.0017078 c -1.7454984,2.3720609 -1.7354408,5.6174519 -6e-7,8.035443 z"
         style="fill-rule:evenodd;stroke-width:0.625;stroke-linejoin:round"
         id="path10319" />
    </marker>
    <marker
       style="overflow:visible"
       id="marker10321"
       refX="0"
       refY="0"
       orient="auto"
       inkscape:stockid="Arrow1Mend">
      <path
         inkscape:connector-curvature="0"
         transform="matrix(-0.4,0,0,-0.4,-4,0)"
         style="fill-rule:evenodd;stroke:#000000;stroke-width:1pt"
         d="M 0,0 5,-5 -12.5,0 5,5 0,0 z"
         id="path10323" />
    </marker>
    <marker
       style="overflow:visible"
       id="marker10325"
       refX="0"
       refY="0"
       orient="auto"
       inkscape:stockid="Arrow2Mstart">
      <path
         inkscape:connector-curvature="0"
         transform="scale(0.6,0.6)"
         d="M 8.7185878,4.0337352 -2.2072895,0.01601326 8.7185884,-4.0017078 c -1.7454984,2.3720609 -1.7354408,5.6174519 -6e-7,8.035443 z"
         style="fill-rule:evenodd;stroke-width:0.625;stroke-linejoin:round"
         id="path10327" />
    </marker>
    <marker
       style="overflow:visible"
       id="marker10329"
       refX="0"
       refY="0"
       orient="auto"
       inkscape:stockid="Arrow1Mend">
      <path
         inkscape:connector-curvature="0"
         transform="matrix(-0.4,0,0,-0.4,-4,0)"
         style="fill-rule:evenodd;stroke:#000000;stroke-width:1pt"
         d="M 0,0 5,-5 -12.5,0 5,5 0,0 z"
         id="path10331" />
    </marker>
    <marker
       style="overflow:visible"
       id="marker10333"
       refX="0"
       refY="0"
       orient="auto"
       inkscape:stockid="Arrow2Mstart">
      <path
         inkscape:connector-curvature="0"
         transform="scale(0.6,0.6)"
         d="M 8.7185878,4.0337352 -2.2072895,0.01601326 8.7185884,-4.0017078 c -1.7454984,2.3720609 -1.7354408,5.6174519 -6e-7,8.035443 z"
         style="fill-rule:evenodd;stroke-width:0.625;stroke-linejoin:round"
         id="path10335" />
    </marker>
    <marker
       style="overflow:visible"
       id="marker10337"
       refX="0"
       refY="0"
       orient="auto"
       inkscape:stockid="Arrow1Mend">
      <path
         inkscape:connector-curvature="0"
         transform="matrix(-0.4,0,0,-0.4,-4,0)"
         style="fill-rule:evenodd;stroke:#000000;stroke-width:1pt"
         d="M 0,0 5,-5 -12.5,0 5,5 0,0 z"
         id="path10339" />
    </marker>
    <clipPath
       id="clipPath28510"
       clipPathUnits="userSpaceOnUse">
      <path
         id="path28512"
         d="m 73.125,44.1 453.375,0 0,352.8 -453.375,0 0,-352.8 z"
         inkscape:connector-curvature="0" />
    </clipPath>
    <clipPath
       id="clipPath28520"
       clipPathUnits="userSpaceOnUse">
      <path
         id="path28522"
         d="m 73.125,44.1 453.375,0 0,352.8 -453.375,0 0,-352.8 z"
         inkscape:connector-curvature="0" />
    </clipPath>
    <clipPath
       id="clipPath28530"
       clipPathUnits="userSpaceOnUse">
      <path
         id="path28532"
         d="m 73.125,44.1 453.375,0 0,352.8 -453.375,0 0,-352.8 z"
         inkscape:connector-curvature="0" />
    </clipPath>
    <clipPath
       id="clipPath28540"
       clipPathUnits="userSpaceOnUse">
      <path
         id="path28542"
         d="m 73.125,44.1 453.375,0 0,352.8 -453.375,0 0,-352.8 z"
         inkscape:connector-curvature="0" />
    </clipPath>
    <clipPath
       id="clipPath28550"
       clipPathUnits="userSpaceOnUse">
      <path
         id="path28552"
         d="m 73.125,44.1 453.375,0 0,352.8 -453.375,0 0,-352.8 z"
         inkscape:connector-curvature="0" />
    </clipPath>
    <clipPath
       id="clipPath27711"
       clipPathUnits="userSpaceOnUse">
      <path
         id="path27713"
         d="m 73.125,44.1 453.375,0 0,352.8 -453.375,0 0,-352.8 z"
         inkscape:connector-curvature="0" />
    </clipPath>
    <clipPath
       id="clipPath27721"
       clipPathUnits="userSpaceOnUse">
      <path
         id="path27723"
         d="m 73.125,44.1 453.375,0 0,352.8 -453.375,0 0,-352.8 z"
         inkscape:connector-curvature="0" />
    </clipPath>
    <clipPath
       id="clipPath27731"
       clipPathUnits="userSpaceOnUse">
      <path
         id="path27733"
         d="m 73.125,44.1 453.375,0 0,352.8 -453.375,0 0,-352.8 z"
         inkscape:connector-curvature="0" />
    </clipPath>
    <clipPath
       id="clipPath27741"
       clipPathUnits="userSpaceOnUse">
      <path
         id="path27743"
         d="m 73.125,44.1 453.375,0 0,352.8 -453.375,0 0,-352.8 z"
         inkscape:connector-curvature="0" />
    </clipPath>
    <clipPath
       id="clipPath27751"
       clipPathUnits="userSpaceOnUse">
      <path
         id="path27753"
         d="m 73.125,44.1 453.375,0 0,352.8 -453.375,0 0,-352.8 z"
         inkscape:connector-curvature="0" />
    </clipPath>
    <clipPath
       id="clipPath27133"
       clipPathUnits="userSpaceOnUse">
      <path
         id="path27135"
         d="m 73.125,44.1 453.375,0 0,352.8 -453.375,0 0,-352.8 z"
         inkscape:connector-curvature="0" />
    </clipPath>
    <clipPath
       id="clipPath27143"
       clipPathUnits="userSpaceOnUse">
      <path
         id="path27145"
         d="m 73.125,44.1 453.375,0 0,352.8 -453.375,0 0,-352.8 z"
         inkscape:connector-curvature="0" />
    </clipPath>
    <clipPath
       id="clipPath27153"
       clipPathUnits="userSpaceOnUse">
      <path
         id="path27155"
         d="m 73.125,44.1 453.375,0 0,352.8 -453.375,0 0,-352.8 z"
         inkscape:connector-curvature="0" />
    </clipPath>
    <clipPath
       id="clipPath27163"
       clipPathUnits="userSpaceOnUse">
      <path
         id="path27165"
         d="m 73.125,44.1 453.375,0 0,352.8 -453.375,0 0,-352.8 z"
         inkscape:connector-curvature="0" />
    </clipPath>
    <clipPath
       id="clipPath27173"
       clipPathUnits="userSpaceOnUse">
      <path
         id="path27175"
         d="m 73.125,44.1 453.375,0 0,352.8 -453.375,0 0,-352.8 z"
         inkscape:connector-curvature="0" />
    </clipPath>
    <marker
       style="overflow:visible"
       id="marker22553-3-0"
       refX="0"
       refY="0"
       orient="auto"
       inkscape:stockid="Arrow1Mend">
      <path
         inkscape:connector-curvature="0"
         transform="matrix(-0.4,0,0,-0.4,-4,0)"
         style="fill-rule:evenodd;stroke:#000000;stroke-width:1pt"
         d="M 0,0 5,-5 -12.5,0 5,5 0,0 z"
         id="path22555-3-6" />
    </marker>
    <marker
       style="overflow:visible"
       id="marker10373"
       refX="0"
       refY="0"
       orient="auto"
       inkscape:stockid="Arrow1Mend">
      <path
         inkscape:connector-curvature="0"
         transform="matrix(-0.4,0,0,-0.4,-4,0)"
         style="fill-rule:evenodd;stroke:#000000;stroke-width:1pt"
         d="M 0,0 5,-5 -12.5,0 5,5 0,0 z"
         id="path10375" />
    </marker>
    <marker
       style="overflow:visible"
       id="marker10377"
       refX="0"
       refY="0"
       orient="auto"
       inkscape:stockid="Arrow1Mend">
      <path
         inkscape:connector-curvature="0"
         transform="matrix(-0.4,0,0,-0.4,-4,0)"
         style="fill-rule:evenodd;stroke:#000000;stroke-width:1pt"
         d="M 0,0 5,-5 -12.5,0 5,5 0,0 z"
         id="path10379" />
    </marker>
    <marker
       style="overflow:visible"
       id="marker10381"
       refX="0"
       refY="0"
       orient="auto"
       inkscape:stockid="Arrow1Mend">
      <path
         inkscape:connector-curvature="0"
         transform="matrix(-0.4,0,0,-0.4,-4,0)"
         style="fill-rule:evenodd;stroke:#000000;stroke-width:1pt"
         d="M 0,0 5,-5 -12.5,0 5,5 0,0 z"
         id="path10383" />
    </marker>
    <marker
       style="overflow:visible"
       id="Arrow1Lend-7"
       refX="0"
       refY="0"
       orient="auto"
       inkscape:stockid="Arrow1Lend">
      <path
         inkscape:connector-curvature="0"
         transform="matrix(-0.8,0,0,-0.8,-10,0)"
         style="fill-rule:evenodd;stroke:#000000;stroke-width:1pt"
         d="M 0,0 5,-5 -12.5,0 5,5 0,0 z"
         id="path4191-5" />
    </marker>
  </defs>
  <sodipodi:namedview
     id="base"
     pagecolor="#ffffff"
     bordercolor="#666666"
     borderopacity="1.0"
     inkscape:pageopacity="0.0"
     inkscape:pageshadow="2"
     inkscape:zoom="0.49497475"
     inkscape:cx="664.14165"
     inkscape:cy="103.14007"
     inkscape:document-units="px"
     inkscape:current-layer="layer1"
     showgrid="false"
     inkscape:window-width="1301"
     inkscape:window-height="744"
     inkscape:window-x="65"
     inkscape:window-y="24"
     inkscape:window-maximized="1" />
  <metadata
     id="metadata5364">
    <rdf:RDF>
      <cc:Work
         rdf:about="">
        <dc:format>image/svg+xml</dc:format>
        <dc:type
           rdf:resource="http://purl.org/dc/dcmitype/StillImage" />
        <dc:title></dc:title>
      </cc:Work>
    </rdf:RDF>
  </metadata>
  <g
     inkscape:label="Calque 1"
     inkscape:groupmode="layer"
     id="layer1"
     transform="translate(0,-452.36218)">
    <g
       id="g23833"
       transform="matrix(0.35498256,0,0,0.35498256,-42.934601,-270.89587)">
      <path
         style="fill:#f29f4d;fill-opacity:1"
         d="m 1103.4932,2458.2199 c -1.7919,-1.4096 -4.6768,-5.7888 -7.479,-11.3532 -2.7006,-5.3627 -5.0638,-7.9014 -9.1585,-9.8385 -6.2532,-2.9583 -12.9751,-1.6812 -15.2732,2.9018 -0.8894,1.7739 -0.8965,2.1118 -0.083,3.9943 1.6866,3.9043 3.5987,10.0674 3.6135,11.6473 0.011,1.1502 -0.3834,1.7662 -1.4378,2.2467 -2.0878,0.9513 -4.3235,-0.019 -5.6955,-2.4703 -0.629,-1.1242 -1.6152,-2.7141 -2.1917,-3.533 -0.9471,-1.3456 -0.978,-1.802 -0.3205,-4.7401 l 0.7276,-3.251 -1.8016,-1.6097 c -2.6453,-2.3637 -5.7299,-2.9933 -12.4273,-2.5369 -10.0424,0.6845 -20.098,-1.3389 -29.9509,-6.0267 -6.7547,-3.2138 -8.5251,-3.4173 -16.9488,-1.9484 -6.02981,1.0516 -7.92371,2.0731 -9.4087,5.0745 -1.36549,2.7599 -0.99683,3.3542 2.87899,4.6416 3.08051,1.0232 5.10991,3.1008 5.10991,5.2316 0,0.755 0.3927,1.9722 0.873,2.7049 1.0134,1.5468 0.3989,3.9549 -1.1619,4.5539 -2.7569,1.058 -6.57331,-0.5054 -6.57331,-2.6926 0,-0.423 -0.5,-1.2217 -1.1113,-1.7747 -0.61109,-0.5532 -1.63068,-2.544 -2.26554,-4.424 -0.63486,-1.8801 -2.5617,-5.6491 -4.28171,-8.3757 -1.72001,-2.7264 -3.40246,-5.6815 -3.7388,-6.5669 -0.85734,-2.2569 -0.76099,-5.5428 0.24625,-8.3976 0.47177,-1.3371 0.85776,-2.469 0.85776,-2.5152 0,-0.046 -1.73701,0.074 -3.86001,0.2668 -7.26908,0.6608 -13.2955,-0.9062 -13.2955,-3.4573 0,-0.6074 -0.67208,-1.7766 -1.49355,-2.598 -1.21432,-1.2144 -1.42597,-1.8338 -1.13235,-3.3141 0.43404,-2.1885 2.32915,-3.792 4.50207,-3.8095 1.1639,-0.01 2.32298,0.7437 4.32375,2.8086 1.50345,1.5517 3.44594,3 4.31665,3.2186 3.53628,0.8875 11.27645,-1.0729 15.26115,-3.8654 l 1.38523,-0.9708 -1.5512,-0.03 c -0.85319,-0.017 -3.02831,-0.5827 -4.83367,-1.2581 -2.72648,-1.0201 -4.40115,-2.3381 -9.88584,-7.7799 -3.63187,-3.6035 -8.01865,-7.5255 -9.74855,-8.7156 -3.62824,-2.4961 -5.39215,-4.2732 -6.24712,-6.2941 -0.3327,-0.7863 -1.15425,-2.1133 -1.8256,-2.949 -2.52208,-3.1391 -1.22651,-8.2406 2.56485,-10.0996 1.97827,-0.9699 5.01174,-0.057 6.62457,1.993 1.07609,1.3681 3.46903,8.4417 4.32036,12.7711 0.99362,5.0531 7.12138,11.6302 12.8365,13.7779 3.88979,1.4619 10.3713,1.365 12.74511,-0.1904 l 1.501,-0.9835 -1.3216,-3.2997 c -0.7269,-1.8149 -1.91921,-4.5865 -2.64961,-6.1591 -1.7768,-3.8256 -1.9489,-13.7784 -0.3197,-18.4815 2.01581,-5.8188 0.086,-11.3624 -5.4758,-15.7309 -6.36445,-4.9988 -14.50626,-8.3904 -20.14228,-8.3904 -2.39709,0 -3.38859,0.3473 -5.71538,2.0015 -3.16619,2.2511 -6.04213,2.6336 -7.52648,1.0008 -2.00781,-2.2087 -4.80874,-7.3446 -4.80874,-8.8176 0,-4.3399 3.42613,-6.772 9.51332,-6.7533 4.73749,0.014 9.97432,1.7243 15.69917,5.1253 4.98476,2.9614 14.1338,10.237 18.19029,14.4657 5.01581,5.2286 7.04071,5.3108 10.62271,0.4312 1.371,-1.8677 3.0625,-3.3649 4.6384,-4.1057 4.4021,-2.0692 4.3134,-2.371 -3.8675,-13.1765 -10.54681,-13.9302 -19.08882,-28.5355 -21.67675,-37.0631 -1.37673,-4.5368 -1.81813,-12.5244 -0.92492,-16.7388 0.54638,-2.5777 3.27895,-5.8724 5.28903,-6.3769 3.86073,-0.969 8.41864,2.2138 9.17384,6.4059 0.2108,1.1702 0.6301,2.4392 0.9318,2.82 1.1858,1.4962 0.6496,5.68 -1.2392,9.6681 -5.35921,11.3162 -1.73271,22.2492 13.9024,41.9128 6.0092,7.5574 8.9397,9.7725 12.9289,9.7725 3.1837,0 4.8638,-1.081 5.7221,-3.6816 0.9269,-2.8088 0.064,-5.351 -3.9781,-11.7185 -4.1466,-6.5319 -6.5632,-12.1637 -7.4809,-17.4335 -2.6373,-15.1445 7.4587,-27.4617 17.5508,-21.4121 0.9851,0.5906 2.0402,1.7792 2.3445,2.6412 0.3044,0.8622 0.8841,2.4683 1.2882,3.5691 1.5164,4.1306 1.4067,5.9608 -0.4864,8.1169 -1.3517,1.5395 -2.7016,2.2644 -6.0055,3.2243 -4.0668,1.1816 -4.3185,1.3551 -5.4957,3.7868 -1.5777,3.259 -2.0851,8.0574 -1.1579,10.9518 0.3922,1.2247 1.7754,3.6371 3.0737,5.3608 1.2982,1.7237 3.3242,4.6831 4.5021,6.5763 2.9872,4.8013 5.8713,7.6119 8.5519,8.3337 3.8071,1.0251 4.1944,0.7191 4.0348,-3.1869 -0.5981,-14.6404 -0.4807,-17.046 0.9767,-20.0038 1.7652,-3.5825 5.9333,-7.709 9.548,-9.4527 3.2604,-1.5728 9.4026,-2.1451 12.4011,-1.1556 4.4402,1.4654 7.007,4.8216 8.9307,11.6775 0.8198,2.9214 1.1074,5.0467 0.8462,6.253 -1.2083,5.5809 -7.5001,8.643 -10.8586,5.2845 -0.7721,-0.7719 -1.4036,-1.7614 -1.4036,-2.1988 0,-0.4373 -0.5169,-1.2628 -1.1487,-1.8346 -1.9072,-1.726 -2.5479,-4.8298 -1.5097,-7.3142 1.0788,-2.5821 0.7364,-2.658 -4.0395,-0.8954 -6.2046,2.2899 -9.903,7.8158 -9.8712,14.7492 0.012,2.643 0.3534,3.7181 2.0015,6.305 1.0927,1.7152 1.9869,3.465 1.9869,3.8884 0,0.4233 0.3925,1.5289 0.8724,2.4569 0.8001,1.5472 1.1245,1.6871 3.9116,1.6871 7.2454,0 16.4626,-7.511 21.1686,-17.2503 6.2229,-12.8782 7.5762,-28.6903 3.5426,-41.3919 -1.5012,-4.7275 -3.0063,-7.2415 -5.5918,-9.3401 l -1.6777,-1.3618 -1.8475,1.7907 c -3.1131,3.0172 -7.4438,2.2938 -9.5088,-1.5884 -0.4742,-0.8913 -1.3087,-2.246 -1.8546,-3.0105 -1.7136,-2.4005 -1.8159,-4.534 -0.3242,-6.763 2.6328,-3.934 8.5183,-5.1864 13.3596,-2.8428 3.063,1.4828 8.2817,6.9431 10.1247,10.5936 2.0602,4.0804 4.8549,13.1773 5.9243,19.2842 1.1677,6.6683 0.7517,18.9917 -0.8864,26.2529 -2.3041,10.2145 -5.0767,15.3029 -14.5869,26.7711 -2.9994,3.6169 -5.3907,6.9558 -5.314,7.4197 0.3532,2.1346 6.1568,3.0242 9.7995,1.5023 2.4901,-1.0404 2.7001,-1.4653 1.9436,-3.9301 -1.3588,-4.4275 1.5441,-7.2889 7.372,-7.2668 5.4833,0.02 9.9752,2.8495 10.7975,6.7996 0.1695,0.8139 0.5498,1.9265 0.8454,2.4726 0.2955,0.5462 0.5373,1.9774 0.5373,3.1804 0,4.5857 -5.4558,7.306 -9.9511,4.9617 -0.9125,-0.4759 -2.1149,-0.7207 -2.6717,-0.5439 -1.3438,0.4265 -5.1046,4.6238 -5.1046,5.6971 0,0.4656 1.2224,1.4712 2.7163,2.2347 4.9359,2.5226 7.2955,5.7819 9.5595,13.204 1.5659,5.134 1.9336,9.4564 1.1826,13.9017 -0.3765,2.229 -0.3558,2.2613 2.0873,3.2604 8.2465,1.797 16.3716,1.0003 23.5991,-2.9051 3.2036,-1.7608 4.2061,-2.0496 6.2981,-1.8138 3.9391,0.4439 5.7548,2.1223 7.1793,6.6355 1.5001,4.7531 1.3338,6.7598 -0.6842,8.2596 -2.4273,1.8041 -6.3709,1.8591 -11.2939,0.1576 -3.7212,-1.2861 -5.1766,-1.4675 -11.7743,-1.4675 -8.7212,0 -14.2804,1.1497 -19.8101,4.0971 -4.1154,2.1934 -5.9149,4.3737 -6.7763,8.2101 -0.7755,3.4543 -0.3585,6.0784 1.4651,9.2199 1.7551,3.0236 4.0533,4.943 8.7773,7.3306 2.0746,1.0486 4.383,2.5622 5.1299,3.3638 1.3956,1.4977 2.4474,5.0633 2.3874,8.094 -0.026,1.3221 0.096,1.5188 0.532,0.8577 0.4585,-0.695 0.5675,-0.6087 0.5746,0.4549 0.012,1.716 -2.4257,4.1199 -4.177,4.1199 -0.7581,0 -2.0647,-0.5397 -2.9033,-1.1994 z"
         id="path11306-8"
         inkscape:connector-curvature="0"
         sodipodi:nodetypes="csscscsscscssssscscssccscsssscccccccccssccscccscsssssssscssssssscscssssscscsssscssssssssssscsscsscssssccsssssssscsscccsccscscccsscsssssccccsscc" />
      <path
         style="fill:#92b7aa;fill-opacity:1"
         d="m 845.61186,2464.8591 c -6.73434,-2.2077 -14.49467,-8.5463 -18.40666,-15.0347 -0.99347,-1.6477 -2.48017,-5.4405 -3.30378,-8.4284 -3.15297,-11.4384 -3.76567,-13.1486 -5.56929,-15.5449 -3.0675,-4.0756 -6.02517,-5.1649 -15.21613,-5.6038 -8.26141,-0.3945 -10.60007,-1.0221 -13.31192,-3.5724 -2.5893,-2.4351 -3.55543,-4.9304 -3.53117,-9.1204 0.0184,-3.167 0.37049,-4.5529 2.0622,-8.1151 2.3122,-4.8688 5.38331,-9.5644 10.33403,-15.8002 1.87276,-2.3589 3.75195,-5.117 4.17599,-6.129 1.02513,-2.4468 0.97359,-6.5958 -0.14539,-11.7039 -0.50402,-2.3009 -0.93996,-5.9847 -0.96876,-8.1863 -0.0832,-6.364 1.73216,-8.8036 11.05068,-14.8508 7.33501,-4.7599 8.45316,-6.2383 10.0303,-13.2621 2.43802,-10.8581 6.94155,-22.0267 10.52961,-26.1132 4.09749,-4.6668 9.93243,-5.618 18.76641,-3.0594 5.51,1.5959 9.26008,3.7867 14.98335,8.7532 8.07778,7.0096 12.7738,8.7923 23.13722,8.7832 3.47223,-0.01 9.78715,-0.4142 14.03313,-0.9138 4.24599,-0.4996 11.19396,-0.9187 15.43995,-0.9314 6.51161,-0.019 8.30176,0.1753 11.43699,1.2442 9.90376,3.3767 15.21562,9.7169 16.70563,19.9399 1.35197,9.276 -1.10259,18.8774 -8.01922,31.3684 -8.12089,14.6656 -7.56213,19.9745 3.3607,31.9305 9.04712,9.9029 11.26516,14.4261 10.72641,21.8744 -0.69748,9.643 -10.73997,19.8162 -22.17495,22.4636 -2.3567,0.5457 -5.63934,0.5995 -13.43847,0.2205 -22.82434,-1.1094 -25.53815,-0.3963 -42.94123,11.2824 -5.11361,3.4316 -10.93105,6.9072 -12.92767,7.7236 -5.01094,2.049 -11.97267,2.3743 -16.81796,0.7859 z"
         id="path11304-3"
         inkscape:connector-curvature="0"
         sodipodi:nodetypes="ssssssssscsssssssccscsssscsscs" />
      <path
         style="fill:#c76d91;fill-opacity:1"
         d="m 1210.3908,2462.0616 c -0.7147,-1.8626 -0.7469,-4.8264 -0.072,-6.5861 0.6753,-1.7599 -0.3151,-3.7918 -2.2007,-4.5154 -4.8836,-1.874 -4.9279,-1.8449 -5.7246,3.764 -0.5272,3.7123 -2.2324,5.0799 -6.3347,5.0799 -6.575,0 -9.1854,-7.35 -3.9659,-11.1666 2.8312,-2.0703 2.53,-3.037 -2.0122,-6.4633 -5.1957,-3.9191 -5.3413,-3.9011 -5.3413,0.6627 0,6.1216 -6.1648,8.3834 -10.6433,3.9048 -4.4515,-4.4514 -2.2299,-10.6434 3.8186,-10.6434 4.0523,0 4.2641,-0.5468 1.7642,-4.5535 -2.4785,-3.9722 -3.1615,-4.1162 -5.3478,-1.1288 -3.1965,4.3669 -8.5618,4.3838 -12.1685,0.038 -3.6105,-4.3504 1.2009,-10.9627 6.8936,-9.4739 2.825,0.7386 3.5337,-0.1039 2.7165,-3.2297 -1.3077,-5.0003 -1.578,-5.0538 -7.3466,-1.451 -3.6366,2.2711 -5.0879,2.138 -7.9542,-0.7281 -5.0435,-5.0435 -1.9091,-11.7653 4.8811,-10.467 4.031,0.7704 5.325,0 5.325,-3.1281 0,-3.3976 -1.216,-3.9026 -6.7384,-2.7981 -8.057,1.6115 -11.7912,-4.2177 -6.251,-9.7581 2.7119,-2.7119 4.4343,-2.8952 8.2106,-0.8741 6.4138,3.4325 6.5046,-1.1243 0.1241,-6.2901 -3.037,-2.4591 -4.1295,-5.1338 -3.145,-7.6994 1.6952,-4.417 11.4542,-5.3812 12.8255,-1.2673 0.5015,1.5036 2.5722,2.0177 4.7547,1.1801 3.1775,-1.2193 3.3917,-2.2446 1.2015,-5.7512 -3.4834,-5.5779 -1.0322,-11.6388 4.7068,-11.6388 2.9633,0 5.0359,1.9628 5.9599,5.6441 1.9836,7.9033 5.6182,7.0883 4.0203,-0.9014 -1.0594,-5.297 -0.4064,-6.8325 3.4228,-8.0477 6.0055,-1.906 9.2877,0.106 9.2877,5.6959 0,4.8169 0.3039,4.9901 5.3532,3.0526 2.7144,-1.0418 2.9217,-2.1997 0.9573,-5.3453 -5.3792,-8.6133 3.144,-15.1556 10.353,-7.9468 3.0813,3.0812 3.702,2.9496 5.9562,-1.2626 1.9663,-3.6736 1.8665,-4.6145 -0.4562,-4.3011 -8.8957,1.2002 -12.9422,-4.5173 -7.236,-10.2237 2.5901,-2.5897 4.5317,-2.867 7.806,-1.1146 3.385,1.8113 4.3587,1.5933 4.3587,-0.9765 0,-1.8199 -2.2858,-3.6335 -5.0797,-4.0301 -3.2681,-0.4642 -5.3377,-2.537 -5.8025,-5.8116 -0.8823,-6.2133 5.1888,-9.1492 11.1814,-5.4067 5.7873,3.6144 5.3197,0.8257 -0.6757,-4.0292 -3.0953,-2.5063 -4.365,-5.3341 -3.4573,-7.6992 1.7708,-4.6145 9.7267,-4.91 12.2205,-0.4542 1.2124,2.1667 2.9298,2.6094 5.0468,1.3011 2.6578,-1.6427 2.7015,-2.5946 0.2555,-5.542 -3.5906,-4.3262 0.2837,-10.3316 6.6652,-10.3316 4.2165,0 7.6337,5.7548 5.4833,9.2344 -0.6981,1.1297 0.7039,2.054 3.116,2.054 2.5421,0 4.901,-1.9727 5.6127,-4.694 0.8825,-3.374 2.7022,-4.4851 6.472,-3.9509 6.2382,0.8839 8.663,10.1657 3.203,12.2608 -3.1034,1.191 -3.0786,1.7461 0.2236,5.0496 2.7107,2.7105 3.9633,2.9559 4.6455,0.9096 1.364,-4.0921 11.1233,-3.4268 12.7725,0.8705 1.8935,4.9349 -3.0089,10.4461 -8.106,9.1129 -2.2599,-0.5907 -4.0932,-0.4074 -4.0743,0.4076 0.063,2.7151 3.3171,5.9945 6.1742,6.2231 6.8742,0.5499 7.6113,1.1864 6.9302,5.9829 -0.5913,4.1629 -2.0457,5.0197 -8.0591,4.7469 -8.4602,-0.3839 -10.4425,5.2221 -2.2577,6.3843 6.2273,0.8846 6.8453,8.1776 0.9965,11.7639 -3.2469,1.9911 -4.7126,1.6567 -7.1582,-1.6336 -2.9544,-3.9751 -3.1739,-3.953 -5.5913,0.5644 -2.2286,4.164 -1.8893,4.7019 2.9657,4.7019 6.8225,0 9.6186,6.3449 4.8829,11.0807 -2.8663,2.8661 -4.3176,2.9991 -7.9543,0.728 -6.2676,-3.914 -6.7672,-3.6179 -6.7672,4.0143 0,6.0663 0.4505,6.5107 4.2162,4.159 5.4104,-3.3788 12.1439,-0.8322 11.1699,4.2246 -0.4131,2.1455 -2.9311,4.9879 -5.5957,6.3163 -3.7,1.8448 -4.3405,3.3157 -2.711,6.2277 1.7107,3.0567 2.951,3.3016 6.2588,1.2361 2.2687,-1.417 5.8548,-1.9126 7.9692,-1.1013 5.4958,2.1088 3.6298,11.1696 -2.6137,12.691 -7.0375,1.715 -3.2913,6.1372 5.012,5.9166 5.7675,-0.1536 6.7731,0.6584 6.7731,5.4645 0,4.931 -0.9272,5.6021 -7.3375,5.3114 -4.1842,-0.1897 -7.3592,0.7803 -7.3876,2.2577 -0.027,1.4246 -1.9678,5.0854 -4.3113,8.1351 -3.9439,5.1319 -3.9824,5.7522 -0.5143,8.3341 2.9418,2.1901 3.2088,3.6666 1.2431,6.8726 -3.5062,5.718 -10.8767,5.2453 -11.7319,-0.7525 -0.5088,-3.5697 -1.8515,-4.5319 -5.1274,-3.6753 -3.4007,0.8895 -3.8554,1.8624 -1.9461,4.1632 3.503,4.2207 0.4048,12.2497 -4.7269,12.2497 -4.4197,0 -9.9024,-7.3339 -7.3734,-9.8627 0.7841,-0.7841 -0.2558,-1.4257 -2.3105,-1.4257 -2.4654,0 -3.5534,1.6194 -3.1985,4.7603 0.739,6.5406 -5.8022,10.6351 -10.6124,6.6428 -2.1384,-1.7748 -3.0802,-4.7321 -2.2948,-7.2065 0.9114,-2.872 0.2146,-4.1966 -2.2066,-4.1966 -1.9464,0 -3.5388,1.8287 -3.5388,4.0638 0,8.1051 -10.1022,12.9426 -12.7297,6.0958 z m 69.982,-22.5933 c -0.7852,-2.0459 0.054,-5.2024 1.8669,-7.0145 4.5174,-4.5173 11.2931,-1.5948 10.4242,4.4965 -0.8564,6.0011 -10.2186,7.9193 -12.2911,2.518 z"
         id="path11332-67"
         inkscape:connector-curvature="0"
         sodipodi:nodetypes="ccccscssssccccccccsccccscccsccssccccsccsccscccccscscscccccccccccscsccsccscccscsccccscccscscccsscccccc" />
    </g>
    <g
       id="g10256"
       transform="matrix(0.50228631,0,0,0.50228631,75.521262,-602.11642)">
      <path
         transform="matrix(0.57669698,0.40852519,-0.40852519,0.57669698,959.45944,1020.1617)"
         d="m 208.57143,2318.0764 c 0,116.7688 -86.98468,211.4286 -194.285716,211.4286 -107.301041,0 -194.285724,-94.6598 -194.285724,-211.4286 0,-116.7688 86.984683,-211.4286 194.285724,-211.4286 107.301036,0 194.285716,94.6598 194.285716,211.4286 z"
         sodipodi:ry="211.42857"
         sodipodi:rx="194.28572"
         sodipodi:cy="2318.0764"
         sodipodi:cx="14.285714"
         id="path23320"
         style="fill:none;stroke:#000000;stroke-width:4;stroke-miterlimit:4;stroke-opacity:1;stroke-dasharray:none"
         sodipodi:type="arc" />
      <path
         style="fill:#f29f4d;fill-opacity:1"
         d="m 80.636278,2350.1116 c -0.899021,-0.7073 -2.346419,-2.9044 -3.752331,-5.6962 -1.354949,-2.6906 -2.540629,-3.9642 -4.595004,-4.9361 -3.137374,-1.4843 -6.509864,-0.8435 -7.662836,1.4558 -0.44626,0.8901 -0.449815,1.0596 -0.04177,2.0041 0.846179,1.9589 1.805485,5.051 1.81292,5.8436 0.0057,0.5772 -0.192345,0.8862 -0.721349,1.1273 -1.047499,0.4772 -2.16917,-0.01 -2.857521,-1.2394 -0.315599,-0.5641 -0.810426,-1.3618 -1.099663,-1.7726 -0.475173,-0.6751 -0.490664,-0.9041 -0.160782,-2.3782 l 0.365035,-1.6312 -0.903877,-0.8075 c -1.32721,-1.1859 -2.874794,-1.5018 -6.235001,-1.2728 -5.038515,0.3434 -10.083596,-0.6718 -15.026971,-3.0238 -3.388963,-1.6124 -4.2772,-1.7145 -8.503559,-0.9775 -3.025307,0.5276 -3.975489,1.0401 -4.720533,2.546 -0.68508,1.3846 -0.50011,1.6829 1.444442,2.3288 1.545541,0.5133 2.563725,1.5557 2.563725,2.6248 0,0.3787 0.197079,0.9895 0.437991,1.3571 0.508459,0.776 0.200175,1.9842 -0.582935,2.2847 -1.383191,0.5309 -3.297958,-0.2535 -3.297958,-1.3509 0,-0.2122 -0.250869,-0.6129 -0.557519,-0.8904 -0.306619,-0.2775 -0.818148,-1.2764 -1.136673,-2.2196 -0.318555,-0.9433 -1.285264,-2.8343 -2.148226,-4.2022 -0.862963,-1.368 -1.707076,-2.8506 -1.875835,-3.2948 -0.430133,-1.1323 -0.381818,-2.7809 0.123542,-4.2133 0.236699,-0.6708 0.430363,-1.2387 0.430363,-1.2619 0,-0.023 -0.871485,0.037 -1.936632,0.1339 -3.647034,0.3316 -6.670618,-0.4547 -6.670618,-1.7346 0,-0.3048 -0.337203,-0.8914 -0.749347,-1.3035 -0.60925,-0.6093 -0.715463,-0.92 -0.568136,-1.6627 0.217764,-1.098 1.168606,-1.9025 2.258772,-1.9113 0.583944,-0.01 1.165507,0.3731 2.169313,1.4091 0.754311,0.7785 1.72891,1.5052 2.165757,1.6149 1.774212,0.4452 5.657602,-0.5384 7.656809,-1.9394 l 0.694977,-0.4871 -0.778238,-0.015 c -0.428039,-0.01 -1.519352,-0.2923 -2.425151,-0.6312 -1.367921,-0.5118 -2.208132,-1.173 -4.959927,-3.9033 -1.822155,-1.808 -4.023115,-3.7758 -4.891013,-4.3728 -1.820375,-1.2524 -2.705373,-2.144 -3.134329,-3.1579 -0.166924,-0.3945 -0.579096,-1.0603 -0.9159264,-1.4796 -1.2653802,-1.5749 -0.6153613,-4.1344 1.2868404,-5.0672 0.992531,-0.4866 2.514494,-0.029 3.323661,1 0.539905,0.6864 1.740501,4.2354 2.167621,6.4075 0.498532,2.5352 3.572928,5.8351 6.440318,6.9126 1.951608,0.7335 5.203481,0.6849 6.394469,-0.095 l 0.753074,-0.4935 -0.663072,-1.6556 c -0.364688,-0.9105 -0.962889,-2.3011 -1.32933,-3.0901 -0.891453,-1.9194 -0.977844,-6.9129 -0.160415,-9.2725 1.011357,-2.9194 0.04318,-5.7008 -2.747316,-7.8925 -3.193175,-2.508 -7.27809,-4.2097 -10.105771,-4.2097 -1.202692,0 -1.700133,0.1743 -2.867506,1.0042 -1.588583,1.1295 -3.0314732,1.3214 -3.7762014,0.5021 -1.0073638,-1.1081 -2.4126405,-3.6849 -2.4126405,-4.4239 0,-2.1774 1.718954,-3.3977 4.7730359,-3.3883 2.376863,0.01 5.004283,0.8651 7.876551,2.5714 2.50098,1.4859 7.091226,5.1362 9.126467,7.2578 2.516529,2.6233 3.532444,2.6646 5.329583,0.2164 0.687864,-0.9371 1.536538,-1.6883 2.327196,-2.06 2.208592,-1.0381 2.164153,-1.1895 -1.940387,-6.6108 -5.29154,-6.9891 -9.577259,-14.3169 -10.875663,-18.5954 -0.69076,-2.2761 -0.912196,-6.2837 -0.464045,-8.3982 0.274112,-1.2932 1.645104,-2.9463 2.653586,-3.1994 1.937001,-0.4861 4.223835,1.1108 4.602701,3.214 0.105749,0.5872 0.316143,1.2238 0.467511,1.4148 0.594936,0.7508 0.325875,2.8498 -0.621727,4.8507 -2.688819,5.6776 -0.86936,11.1629 6.975114,21.0285 3.014918,3.7917 4.485213,4.9031 6.486682,4.9031 1.597331,0 2.440245,-0.5424 2.870865,-1.8471 0.465073,-1.4093 0.03209,-2.6848 -1.995907,-5.8795 -2.080376,-3.2772 -3.292848,-6.1027 -3.75325,-8.7467 -1.323196,-7.5983 3.742147,-13.7781 8.805532,-10.7429 0.494282,0.2964 1.023633,0.8927 1.176323,1.3252 0.152696,0.4326 0.443531,1.2384 0.646293,1.7907 0.760792,2.0723 0.705766,2.9906 -0.244049,4.0724 -0.67816,0.7724 -1.355465,1.136 -3.013109,1.6177 -2.040346,0.5928 -2.166675,0.6799 -2.757278,1.8999 -0.791549,1.6351 -1.046093,4.0426 -0.580956,5.4947 0.196818,0.6144 0.890788,1.8248 1.542156,2.6896 0.651368,0.8649 1.667827,2.3496 2.258805,3.2995 1.49872,2.4089 2.945771,3.819 4.290657,4.1812 1.91006,0.5143 2.104412,0.3607 2.024339,-1.599 -0.300079,-7.3453 -0.241152,-8.5523 0.490035,-10.0363 0.885629,-1.7973 2.976846,-3.8677 4.790423,-4.7426 1.635784,-0.7891 4.71746,-1.0763 6.22187,-0.5797 2.227723,0.7352 3.515511,2.4191 4.480704,5.8587 0.411284,1.4658 0.555599,2.5321 0.424564,3.1373 -0.606236,2.8001 -3.762975,4.3364 -5.448018,2.6514 -0.387325,-0.3873 -0.704211,-0.8838 -0.704211,-1.1032 0,-0.2194 -0.259343,-0.6336 -0.576313,-0.9205 -0.956839,-0.8659 -1.278297,-2.4232 -0.757469,-3.6696 0.541308,-1.2955 0.369508,-1.3336 -2.026636,-0.4493 -3.113013,1.1489 -4.968563,3.9214 -4.952584,7.4 0.0064,1.326 0.177312,1.8654 1.004184,3.1633 0.548248,0.8606 0.996833,1.7385 0.996833,1.9509 0,0.2124 0.19696,0.7671 0.437737,1.2327 0.40141,0.7762 0.564178,0.8464 1.962507,0.8464 3.635189,0 8.259601,-3.7684 10.620713,-8.6548 3.122137,-6.4612 3.801138,-14.3944 1.777428,-20.7671 -0.753223,-2.3719 -1.50836,-3.6333 -2.805563,-4.6861 l -0.841755,-0.6833 -0.926916,0.8985 c -1.561874,1.5138 -3.734655,1.1508 -4.770769,-0.797 -0.23788,-0.4472 -0.656563,-1.1268 -0.930415,-1.5105 -0.859783,-1.2042 -0.911106,-2.2747 -0.162676,-3.3931 1.320921,-1.9737 4.273816,-2.602 6.702753,-1.4262 1.536763,0.744 4.155091,3.4835 5.079795,5.315 1.033612,2.0472 2.435736,6.6113 2.972281,9.6753 0.585868,3.3456 0.377141,9.5285 -0.444677,13.1715 -1.156039,5.1248 -2.547088,7.6778 -7.318571,13.4316 -1.504862,1.8147 -2.704627,3.4899 -2.666124,3.7226 0.17722,1.071 3.088998,1.5174 4.916575,0.7537 1.249342,-0.5219 1.354752,-0.735 0.9752,-1.9717 -0.68175,-2.2214 0.774651,-3.657 3.698619,-3.6459 2.751109,0.011 5.004776,1.4296 5.417346,3.4115 0.08501,0.4083 0.275866,0.9665 0.424139,1.2405 0.148273,0.2741 0.269576,0.9921 0.269576,1.5957 0,2.3007 -2.737306,3.6655 -4.992634,2.4894 -0.457878,-0.2388 -1.061096,-0.3616 -1.340489,-0.2729 -0.67421,0.214 -2.561033,2.3199 -2.561033,2.8583 0,0.2337 0.613268,0.7382 1.362816,1.1213 2.476422,1.2656 3.660321,2.9008 4.796162,6.6247 0.785668,2.5758 0.970147,4.7444 0.593352,6.9747 -0.188931,1.1183 -0.178542,1.1346 1.047216,1.6358 4.137452,0.9016 8.213954,0.5019 11.840161,-1.4575 1.607289,-0.8835 2.110271,-1.0283 3.159869,-0.9101 1.976338,0.2228 2.887325,1.0648 3.601988,3.3292 0.752646,2.3848 0.669246,3.3916 -0.343261,4.144 -1.217808,0.9052 -3.196386,0.9328 -5.666349,0.079 -1.866999,-0.6452 -2.59721,-0.7363 -5.907444,-0.7363 -4.375578,0 -7.16473,0.5769 -9.939104,2.0556 -2.064764,1.1005 -2.967609,2.1944 -3.399777,4.1192 -0.389106,1.7331 -0.17992,3.0496 0.735024,4.6258 0.880583,1.5169 2.03364,2.48 4.403763,3.6779 1.040842,0.5261 2.199065,1.2855 2.573768,1.6876 0.700224,0.7515 1.227907,2.5405 1.197842,4.061 -0.01322,0.6633 0.04806,0.762 0.266877,0.4303 0.230049,-0.3487 0.284757,-0.3054 0.288319,0.2283 0.0057,0.8609 -1.217066,2.067 -2.095698,2.067 -0.380378,0 -1.035881,-0.2708 -1.456663,-0.6018 z"
         id="path11306-2"
         inkscape:connector-curvature="0"
         sodipodi:nodetypes="csscscsscscssssscscssccscsssscccccccccssccscccscsssssssscssssssscscssssscscsssscssssssssssscsscsscssssccsssssssscsscccsccscscccsscsssssccccsscc" />
      <path
         style="fill:#92b7aa;fill-opacity:1"
         d="m -4.3245963,2434.2121 c -3.3787515,-1.1076 -7.2722577,-4.2878 -9.2349837,-7.5431 -0.49844,-0.8267 -1.244347,-2.7297 -1.657573,-4.2288 -1.581903,-5.7388 -1.889311,-6.5968 -2.79422,-7.7991 -1.539028,-2.0448 -3.022946,-2.5913 -7.634234,-2.8116 -4.144909,-0.1979 -5.318264,-0.5128 -6.678852,-1.7923 -1.299101,-1.2217 -1.78383,-2.4736 -1.77166,-4.5759 0.0092,-1.5889 0.185883,-2.2842 1.034649,-4.0715 1.160074,-2.4427 2.700912,-4.7986 5.184786,-7.9273 0.9396,-1.1835 1.882429,-2.5673 2.09518,-3.075 0.514326,-1.2276 0.488467,-3.3093 -0.07295,-5.8721 -0.252874,-1.1544 -0.471594,-3.0026 -0.486045,-4.1072 -0.04177,-3.1929 0.869063,-4.417 5.544348,-7.4509 3.680116,-2.3881 4.241117,-3.1299 5.032395,-6.6539 1.223205,-5.4477 3.482714,-11.0512 5.282918,-13.1015 2.0557867,-2.3415 4.9832938,-2.8187 9.4154712,-1.535 2.7644764,0.8008 4.645967,1.8999 7.5174457,4.3917 4.0527831,3.5168 6.4088711,4.4113 11.6083991,4.4067 1.74209,0 4.910407,-0.2078 7.040701,-0.4585 2.130295,-0.2507 5.616231,-0.4609 7.746525,-0.4673 3.267007,-0.01 4.165166,0.088 5.738164,0.6243 4.968916,1.6941 7.63398,4.8751 8.381548,10.0042 0.678309,4.6539 -0.553188,9.4712 -4.023405,15.7381 -4.074404,7.358 -3.794064,10.0217 1.686132,16.0202 4.539123,4.9685 5.651952,7.2379 5.381655,10.9749 -0.349939,4.838 -5.388454,9.9421 -11.125611,11.2704 -1.182407,0.2738 -2.829372,0.3008 -6.742347,0.1106 -11.45142,-0.5566 -12.812995,-0.1989 -21.544464,5.6606 -2.5655978,1.7217 -5.4843245,3.4655 -6.4860648,3.8751 -2.5140885,1.028 -6.0069301,1.1912 -8.4379075,0.3942 z"
         id="path11304-1"
         inkscape:connector-curvature="0"
         sodipodi:nodetypes="ssssssssscsssssssccscsssscsscs" />
      <path
         style="fill:#c76d91;fill-opacity:1"
         d="m 89.845694,2420.6932 c -0.358604,-0.9345 -0.374703,-2.4216 -0.03625,-3.3044 0.338808,-0.883 -0.158118,-1.9024 -1.104165,-2.2655 -2.450196,-0.9403 -2.472409,-0.9256 -2.872158,1.8885 -0.264495,1.8625 -1.120032,2.5486 -3.178195,2.5486 -3.298841,0 -4.608496,-3.6876 -1.989738,-5.6025 1.420429,-1.0386 1.269308,-1.5237 -1.009604,-3.2427 -2.606758,-1.9663 -2.679806,-1.9573 -2.679806,0.3325 0,3.0714 -3.093019,4.2061 -5.34,1.9591 -2.233406,-2.2333 -1.118795,-5.34 1.91589,-5.34 2.033117,0 2.139361,-0.2743 0.885113,-2.2846 -1.243518,-1.9929 -1.586171,-2.0652 -2.683106,-0.5664 -1.603706,2.1911 -4.295625,2.1995 -6.105153,0.019 -1.811457,-2.1826 0.602505,-5.5001 3.458648,-4.7533 1.417389,0.3707 1.772954,-0.052 1.3629,-1.6203 -0.656068,-2.5087 -0.791662,-2.5356 -3.685877,-0.728 -1.824595,1.1394 -2.552714,1.0727 -3.990811,-0.3653 -2.530416,-2.5305 -0.957843,-5.9029 2.448931,-5.2515 2.02248,0.3865 2.671665,0 2.671665,-1.5695 0,-1.7046 -0.610081,-1.958 -3.380759,-1.4038 -4.042332,0.8085 -5.915875,-2.1161 -3.136278,-4.8958 1.360631,-1.3606 2.224804,-1.4526 4.119401,-0.4386 3.217934,1.7222 3.263497,-0.5641 0.06226,-3.1559 -1.523746,-1.2337 -2.071881,-2.5757 -1.577881,-3.8629 0.850447,-2.2161 5.746768,-2.6999 6.43478,-0.6358 0.25159,0.7544 1.290509,1.0123 2.385522,0.592 1.594207,-0.6117 1.701687,-1.1261 0.602823,-2.8854 -1.747667,-2.7985 -0.517866,-5.8395 2.361514,-5.8395 1.486706,0 2.526544,0.9849 2.990161,2.8318 0.99523,3.9652 2.818786,3.5563 2.017053,-0.4523 -0.53147,-2.6576 -0.203878,-3.4279 1.71732,-4.0377 3.013052,-0.9562 4.659819,0.053 4.659819,2.8578 0,2.4168 0.152464,2.5036 2.685807,1.5315 1.361868,-0.5226 1.465871,-1.1035 0.480282,-2.6818 -2.698832,-4.3215 1.577422,-7.6038 5.194335,-3.9871 1.545945,1.546 1.857324,1.4799 2.988345,-0.6334 0.986508,-1.8432 0.936443,-2.3152 -0.228918,-2.1579 -4.463177,0.6021 -6.49334,-2.2665 -3.630398,-5.1295 1.299464,-1.2993 2.273632,-1.4384 3.916413,-0.5593 1.698291,0.9089 2.186841,0.7994 2.186841,-0.4899 0,-0.913 -1.146882,-1.823 -2.548632,-2.0219 -1.639622,-0.233 -2.678004,-1.2729 -2.911226,-2.9158 -0.442677,-3.1174 2.603345,-4.5904 5.609938,-2.7127 2.90363,1.8135 2.66905,0.4143 -0.33901,-2.0216 -1.552973,-1.2574 -2.190022,-2.6761 -1.734554,-3.8628 0.888407,-2.3151 4.880024,-2.4634 6.131234,-0.2279 0.60827,1.0871 1.46991,1.3092 2.53207,0.6528 1.33347,-0.8242 1.35541,-1.3017 0.12823,-2.7805 -1.80147,-2.1705 0.14227,-5.1836 3.34403,-5.1836 2.11548,0 3.82999,2.8874 2.75107,4.6332 -0.35026,0.5668 0.35319,1.0304 1.56336,1.0304 1.27545,0 2.45892,-0.9897 2.81598,-2.355 0.44279,-1.6928 1.35576,-2.2502 3.24718,-1.9822 3.12985,0.4434 4.34636,5.1003 1.60699,6.1514 -1.55705,0.5976 -1.54457,0.8761 0.11216,2.5335 1.36006,1.3599 1.98848,1.483 2.33078,0.4564 0.68431,-2.0531 5.58074,-1.7193 6.40819,0.4367 0.95001,2.4759 -1.5096,5.2411 -4.06693,4.5722 -1.13386,-0.2964 -2.05363,-0.2044 -2.04413,0.2044 0.0317,1.3623 1.66421,3.0077 3.09766,3.1223 3.44892,0.2759 3.81878,0.5952 3.47701,3.0017 -0.29666,2.0886 -1.02636,2.5185 -4.04337,2.3817 -4.24467,-0.1926 -5.2392,2.62 -1.13271,3.2031 3.12437,0.4438 3.4344,4.1028 0.49996,5.9022 -1.62906,0.9989 -2.36444,0.8312 -3.5914,-0.8196 -1.48228,-1.9944 -1.5924,-1.9833 -2.8053,0.2832 -1.11814,2.0891 -0.94789,2.359 1.48793,2.359 3.42299,0 4.82586,3.1833 2.44985,5.5594 -1.43809,1.4379 -2.16621,1.5047 -3.99081,0.3653 -3.14456,-1.9638 -3.39524,-1.8152 -3.39524,2.0139 0,3.0437 0.226,3.2666 2.11538,2.0867 2.71446,-1.6951 6.09281,-0.4175 5.60415,2.1196 -0.2073,1.0764 -1.47061,2.5025 -2.80746,3.1691 -1.85641,0.9255 -2.17778,1.6635 -1.36017,3.1244 0.85826,1.5336 1.48059,1.6565 3.14015,0.6202 1.13825,-0.7109 2.93748,-0.9595 3.9983,-0.5525 2.75739,1.058 1.82118,5.604 -1.31137,6.3674 -3.53081,0.8604 -1.65128,3.0791 2.51466,2.9684 2.89365,-0.077 3.39818,0.3303 3.39818,2.7417 0,2.4739 -0.46523,2.8107 -3.68139,2.6648 -2.09928,-0.095 -3.69222,0.3915 -3.70647,1.1327 -0.0135,0.7148 -0.98729,2.5515 -2.16307,4.0816 -1.97875,2.5747 -1.99803,2.8859 -0.25804,4.1814 1.47594,1.0988 1.60995,1.8396 0.62368,3.448 -1.75912,2.8689 -5.45702,2.6317 -5.8861,-0.3775 -0.25532,-1.7909 -0.92895,-2.2737 -2.57253,-1.8439 -1.70621,0.4463 -1.93437,0.9343 -0.97641,2.0887 1.75754,2.1176 0.20311,6.1459 -2.37158,6.1459 -2.21743,0 -4.96825,-3.6795 -3.69937,-4.9483 0.39338,-0.3934 -0.12834,-0.7153 -1.15923,-0.7153 -1.23694,0 -1.78282,0.8125 -1.60473,2.3883 0.37074,3.2816 -2.91112,5.3359 -5.3245,3.3328 -1.072804,-0.8904 -1.545375,-2.3741 -1.151308,-3.6156 0.457278,-1.4409 0.107622,-2.1055 -1.107119,-2.1055 -0.976522,0 -1.775449,0.9175 -1.775449,2.0389 0,4.0665 -5.068487,6.4936 -6.38675,3.0583 z m 35.111356,-11.3356 c -0.39398,-1.0265 0.0273,-2.6101 0.93664,-3.5193 2.26646,-2.2664 5.66601,-0.8001 5.23003,2.256 -0.42965,3.0109 -5.12683,3.9733 -6.16667,1.2633 z"
         id="path11332-0"
         inkscape:connector-curvature="0"
         sodipodi:nodetypes="ccccscssssccccccccsccccscccsccssccccsccsccscccccscscscccccccccccscsccsccscccscsccccscccscscccsscccccc" />
      <path
         transform="matrix(0.51106359,0.14797643,-0.14376787,0.52602409,374.65578,1134.8587)"
         d="m 208.57143,2318.0764 c 0,116.7688 -86.98468,211.4286 -194.285716,211.4286 -107.301041,0 -194.285724,-94.6598 -194.285724,-211.4286 0,-116.7688 86.984683,-211.4286 194.285724,-211.4286 107.301036,0 194.285716,94.6598 194.285716,211.4286 z"
         sodipodi:ry="211.42857"
         sodipodi:rx="194.28572"
         sodipodi:cy="2318.0764"
         sodipodi:cx="14.285714"
         id="path23320-6"
         style="fill:none;stroke:#000000;stroke-width:5.24864769;stroke-miterlimit:4;stroke-opacity:1;stroke-dasharray:15.74594375, 15.74594375;stroke-dashoffset:0"
         sodipodi:type="arc" />
      <path
         style="fill:#c6e9af;fill-opacity:1"
         d="m -94.040194,2426.6181 c -1.429472,-0.4687 -3.076725,-1.8141 -3.907106,-3.1913 -0.210881,-0.3498 -0.526457,-1.1549 -0.701281,-1.7891 -0.66927,-2.428 -0.799327,-2.791 -1.182173,-3.2997 -0.651126,-0.8651 -1.278936,-1.0963 -3.229866,-1.1895 -1.75361,-0.084 -2.25004,-0.217 -2.82567,-0.7583 -0.54962,-0.5169 -0.75469,-1.0465 -0.74955,-1.9359 0.004,-0.6723 0.0786,-0.9665 0.43774,-1.7226 0.4908,-1.0335 1.14269,-2.0302 2.19356,-3.3538 0.39753,-0.5007 0.79641,-1.0862 0.88642,-1.301 0.21761,-0.5194 0.20667,-1.4001 -0.0309,-2.4844 -0.10698,-0.4884 -0.19952,-1.2703 -0.20563,-1.7377 -0.0177,-1.3508 0.36768,-1.8686 2.34568,-3.1522 1.556975,-1.0104 1.794323,-1.3242 2.129093,-2.8151 0.51751,-2.3048 1.473458,-4.6756 2.235081,-5.543 0.869756,-0.9907 2.108318,-1.1925 3.983468,-0.6494 1.169588,0.3388 1.965602,0.8038 3.180459,1.858 1.714639,1.4879 2.711445,1.8663 4.911246,1.8644 0.737039,0 2.07748,-0.088 2.978756,-0.194 0.901281,-0.106 2.3761,-0.195 3.277377,-0.1977 1.382197,-0.01 1.762187,0.037 2.427686,0.2641 2.102234,0.7167 3.229761,2.0626 3.546041,4.2326 0.286976,1.9689 -0.234042,4.007 -1.70221,6.6584 -1.723787,3.113 -1.605182,4.2399 0.713363,6.7778 1.920398,2.102 2.391211,3.0622 2.276854,4.6432 -0.148051,2.0469 -2.279731,4.2063 -4.706989,4.7682 -0.500249,0.1158 -1.197043,0.1273 -2.852533,0.047 -4.844832,-0.2355 -5.420881,-0.084 -9.114966,2.3949 -1.085445,0.7284 -2.320291,1.4662 -2.744103,1.6394 -1.063654,0.435 -2.541394,0.504 -3.569886,0.1668 z"
         id="path11304-1-4-4"
         inkscape:connector-curvature="0"
         sodipodi:nodetypes="ssssssssscsssssssccscsssscsscs" />
      <path
         style="fill:#c6e9af;fill-opacity:1"
         d="m -48.143512,2278.5763 c -1.02815,-0.3371 -2.212938,-1.3049 -2.810192,-2.2954 -0.151676,-0.2515 -0.378655,-0.8306 -0.504397,-1.2868 -0.481373,-1.7463 -0.574917,-2.0074 -0.850278,-2.3733 -0.468324,-0.6222 -0.919879,-0.7885 -2.323088,-0.8555 -1.26129,-0.06 -1.61834,-0.1561 -2.032365,-0.5454 -0.395316,-0.3718 -0.542817,-0.7528 -0.539114,-1.3925 0.0028,-0.4835 0.05657,-0.6951 0.314842,-1.239 0.35301,-0.7432 0.821884,-1.4601 1.577725,-2.4122 0.285917,-0.3601 0.57282,-0.7812 0.637561,-0.9358 0.156508,-0.3735 0.148639,-1.0069 -0.0222,-1.7868 -0.07695,-0.3512 -0.143503,-0.9137 -0.147901,-1.2499 -0.01271,-0.9715 0.264455,-1.344 1.687137,-2.2672 1.119854,-0.7268 1.290566,-0.9524 1.53135,-2.0248 0.37222,-1.6577 1.059787,-3.3629 1.607585,-3.9868 0.625573,-0.7125 1.516411,-0.8577 2.865116,-0.467 0.841227,0.2436 1.413761,0.5781 2.287548,1.3364 1.233257,1.0701 1.950211,1.3423 3.532421,1.3409 0.530116,0 1.49423,-0.064 2.142475,-0.1395 0.648247,-0.076 1.709013,-0.1403 2.357258,-0.1422 0.994146,-0.01 1.267455,0.027 1.746116,0.1899 1.512035,0.5155 2.32301,1.4835 2.550494,3.0444 0.206408,1.4161 -0.168334,2.882 -1.224317,4.789 -1.239835,2.2391 -1.154528,3.0495 0.513088,4.8749 1.381249,1.5119 1.719882,2.2025 1.637631,3.3397 -0.106487,1.4722 -1.6397,3.0253 -3.385509,3.4295 -0.359805,0.083 -0.860974,0.092 -2.051688,0.033 -3.484652,-0.1693 -3.898976,-0.061 -6.555952,1.7226 -0.780708,0.5239 -1.668872,1.0546 -1.9737,1.1792 -0.765034,0.3128 -1.827901,0.3625 -2.567645,0.12 z"
         id="path11304-1-4-0-0-7"
         inkscape:connector-curvature="0"
         sodipodi:nodetypes="ssssssssscsssssssccscsssscsscs" />
      <path
         style="fill:#c6e9af;fill-opacity:1"
         d="m 11.824814,2499.888 c -1.02815,-0.3371 -2.2129381,-1.3049 -2.8101915,-2.2954 -0.1516763,-0.2516 -0.3786551,-0.8307 -0.5043971,-1.2869 -0.4813731,-1.7462 -0.5749171,-2.0074 -0.8502781,-2.3732 -0.468324,-0.6222 -0.9198794,-0.7885 -2.3230882,-0.8555 -1.2612896,-0.06 -1.6183398,-0.1562 -2.0323648,-0.5454 -0.3953156,-0.3718 -0.5428173,-0.7528 -0.539114,-1.3925 0.00283,-0.4835 0.056567,-0.6951 0.314842,-1.239 0.3530099,-0.7432 0.8218837,-1.4602 1.5777246,-2.4122 0.2859175,-0.3601 0.5728202,-0.7812 0.6375613,-0.9358 0.1565082,-0.3735 0.1486394,-1.0069 -0.022199,-1.7868 -0.076948,-0.3513 -0.1435037,-0.9137 -0.1479017,-1.2499 -0.012707,-0.9715 0.2644547,-1.344 1.6871368,-2.2672 1.1198539,-0.7268 1.2905668,-0.9524 1.5313502,-2.0248 0.3722203,-1.6578 1.0597871,-3.3629 1.6075855,-3.9868 0.625573,-0.7125 1.51641,-0.8577 2.865116,-0.467 0.841227,0.2436 1.41376,0.5781 2.287547,1.3364 1.233257,1.0701 1.950211,1.3423 3.532421,1.3409 0.530117,0 1.494231,-0.064 2.142475,-0.1396 0.648248,-0.076 1.709013,-0.1402 2.357258,-0.1422 0.994146,-0.01 1.267455,0.027 1.746116,0.19 1.512035,0.5155 2.32301,1.4835 2.550494,3.0443 0.206409,1.4162 -0.168334,2.8821 -1.224317,4.7891 -1.239835,2.239 -1.154528,3.0495 0.513088,4.8749 1.381249,1.5119 1.719882,2.2025 1.637631,3.3397 -0.106486,1.4721 -1.639699,3.0253 -3.385509,3.4295 -0.359805,0.083 -0.860974,0.091 -2.051688,0.033 -3.484652,-0.1693 -3.898976,-0.061 -6.555952,1.7226 -0.780708,0.5239 -1.668872,1.0545 -1.973698,1.1792 -0.765035,0.3128 -1.827902,0.3625 -2.567646,0.1199 z"
         id="path11304-1-4-0-0-77"
         inkscape:connector-curvature="0"
         sodipodi:nodetypes="ssssssssscsssssssccscsssscsscs" />
      <path
         style="fill:#c6e9af;fill-opacity:1"
         d="m -50.162718,2470.1728 c -0.408097,-0.3135 -1.065127,-1.2875 -1.703319,-2.5251 -0.615053,-1.1928 -1.153277,-1.7575 -2.08583,-2.1883 -1.424156,-0.658 -2.955051,-0.374 -3.47842,0.6454 -0.202571,0.3946 -0.20419,0.4697 -0.01891,0.8884 0.384106,0.8684 0.819574,2.2391 0.822941,2.5905 0.0024,0.2559 -0.08733,0.3929 -0.327439,0.4997 -0.475495,0.2117 -0.984658,0 -1.297125,-0.5494 -0.143268,-0.2501 -0.367881,-0.6036 -0.499178,-0.7858 -0.2157,-0.2993 -0.222732,-0.4008 -0.07303,-1.0542 l 0.1657,-0.7231 -0.410296,-0.358 c -0.602466,-0.5258 -1.304971,-0.6658 -2.830277,-0.5643 -2.28716,0.1523 -4.577286,-0.2978 -6.821252,-1.3405 -1.538376,-0.7148 -1.941569,-0.7601 -3.860056,-0.4333 -1.373292,0.2339 -1.804611,0.461 -2.142817,1.1286 -0.310977,0.6139 -0.227022,0.746 0.655683,1.0324 0.701572,0.2276 1.163759,0.6897 1.163759,1.1636 0,0.168 0.08946,0.4387 0.198826,0.6017 0.230803,0.3439 0.09088,0.8796 -0.264617,1.0127 -0.627875,0.2355 -1.497059,-0.1122 -1.497059,-0.5987 0,-0.095 -0.113925,-0.2718 -0.25307,-0.3947 -0.139192,-0.1231 -0.37139,-0.5658 -0.515982,-0.9841 -0.144605,-0.4182 -0.583417,-1.2564 -0.975146,-1.8629 -0.391729,-0.6063 -0.774902,-1.2637 -0.851506,-1.4606 -0.195256,-0.502 -0.173321,-1.2329 0.05602,-1.8677 0.107425,-0.2974 0.19535,-0.5492 0.19535,-0.5595 0,-0.012 -0.395594,0.017 -0.879101,0.059 -1.655515,0.1471 -3.028015,-0.2015 -3.028015,-0.7689 0,-0.1351 -0.153066,-0.3952 -0.340155,-0.5778 -0.276563,-0.2702 -0.32478,-0.408 -0.257903,-0.7373 0.09892,-0.4865 0.530472,-0.8432 1.025336,-0.8471 0.265076,0 0.529065,0.1653 0.984729,0.6245 0.342401,0.3453 0.784806,0.6674 0.98311,0.7159 0.805369,0.1974 2.568179,-0.2385 3.47569,-0.8596 l 0.315468,-0.216 -0.353273,-0.012 c -0.194299,0 -0.689683,-0.1296 -1.100852,-0.2799 -0.62095,-0.2269 -1.00235,-0.5199 -2.251482,-1.7304 -0.827138,-0.8015 -1.826226,-1.6738 -2.2202,-1.9385 -0.826322,-0.5552 -1.228061,-0.9505 -1.422773,-1.3999 -0.07575,-0.1749 -0.262867,-0.47 -0.415767,-0.6559 -0.574411,-0.6982 -0.279341,-1.8329 0.584137,-2.2463 0.450547,-0.2157 1.141412,-0.013 1.508725,0.4432 0.24508,0.3044 0.790063,1.8776 0.983949,2.8406 0.226301,1.1239 1.621882,2.5867 2.923485,3.0644 0.885909,0.3251 2.362039,0.3036 2.902662,-0.042 l 0.341846,-0.2187 -0.300979,-0.734 c -0.165546,-0.4037 -0.437099,-1.02 -0.603436,-1.3698 -0.404658,-0.851 -0.44387,-3.0647 -0.0728,-4.1107 0.459079,-1.2941 0.01962,-2.5272 -1.247112,-3.4988 -1.449482,-1.1118 -3.303775,-1.8662 -4.587344,-1.8662 -0.545942,0 -0.771758,0.077 -1.301663,0.4452 -0.721107,0.5008 -1.376091,0.5857 -1.714144,0.2225 -0.457283,-0.4913 -1.09518,-1.6335 -1.09518,-1.961 0,-0.9653 0.780291,-1.5064 2.166641,-1.502 1.078942,0 2.271608,0.3833 3.575433,1.1398 1.135279,0.6587 3.218945,2.2769 4.142813,3.2174 1.142345,1.163 1.603505,1.1813 2.419285,0.096 0.312241,-0.4154 0.697482,-0.7484 1.056393,-0.9132 1.002551,-0.4603 0.982378,-0.5272 -0.880814,-2.9308 -2.402006,-3.0982 -4.34744,-6.3468 -4.936836,-8.2434 -0.313554,-1.009 -0.414077,-2.7856 -0.210643,-3.723 0.124431,-0.5733 0.746776,-1.3061 1.204555,-1.4184 0.879267,-0.2154 1.917342,0.4925 2.089328,1.4249 0.04799,0.2602 0.143506,0.5425 0.212215,0.6273 0.270063,0.3327 0.147925,1.2633 -0.282225,2.1501 -1.220543,2.5171 -0.394636,4.9488 3.166238,9.3223 1.368576,1.6809 2.035994,2.1735 2.944533,2.1735 0.725078,0 1.107707,-0.2403 1.303187,-0.8189 0.211104,-0.6246 0.01453,-1.19 -0.906009,-2.6063 -0.94436,-1.4529 -1.494745,-2.7054 -1.703733,-3.8775 -0.600646,-3.3683 1.698686,-6.108 3.997131,-4.7624 0.224365,0.1312 0.464659,0.3957 0.533971,0.5875 0.06937,0.1918 0.201331,0.5489 0.29338,0.7938 0.345344,0.9187 0.320361,1.3258 -0.110734,1.8053 -0.307845,0.3425 -0.615301,0.5036 -1.36776,0.7172 -0.926184,0.2627 -0.983525,0.3014 -1.251626,0.8422 -0.3593,0.7249 -0.474857,1.7922 -0.263705,2.4359 0.08934,0.2724 0.40435,0.8089 0.700035,1.1923 0.295673,0.3833 0.757081,1.0416 1.025347,1.4627 0.680324,1.0678 1.337188,1.693 1.947679,1.8535 0.867034,0.2281 0.955255,0.16 0.918915,-0.7088 -0.136226,-3.2562 -0.109434,-3.7913 0.222437,-4.4491 0.402023,-0.7969 1.351299,-1.7147 2.174536,-2.1026 0.742544,-0.3498 2.141421,-0.477 2.824321,-0.2569 1.011236,0.326 1.59581,1.0724 2.033949,2.5973 0.186688,0.6497 0.252207,1.1224 0.192715,1.3907 -0.275192,1.2414 -1.708141,1.9224 -2.473033,1.1754 -0.175827,-0.1717 -0.319663,-0.3918 -0.319663,-0.489 0,-0.097 -0.117707,-0.281 -0.261614,-0.4081 -0.434344,-0.3839 -0.58026,-1.0742 -0.343843,-1.6269 0.245719,-0.5742 0.167733,-0.591 -0.919954,-0.1991 -1.413106,0.5094 -2.255407,1.7384 -2.24815,3.2805 0.0024,0.5879 0.08048,0.8269 0.455829,1.4023 0.248875,0.3815 0.452497,0.7707 0.452497,0.8649 0,0.095 0.08946,0.3401 0.198707,0.5465 0.182209,0.3441 0.256095,0.3751 0.890847,0.3751 1.650138,0 3.749311,-1.6705 4.821104,-3.8366 1.417242,-2.8644 1.725466,-6.3813 0.806834,-9.2064 -0.341905,-1.0515 -0.684696,-1.6105 -1.273537,-2.0774 l -0.382097,-0.3029 -0.420766,0.3983 c -0.708981,0.6712 -1.695282,0.5102 -2.165613,-0.3533 -0.108016,-0.1982 -0.298036,-0.4994 -0.422349,-0.6696 -0.390287,-0.5339 -0.41358,-1.0084 -0.07386,-1.5042 0.599608,-0.8749 1.940032,-1.1535 3.04261,-0.6322 0.697589,0.3298 1.88613,1.5442 2.305893,2.3561 0.469183,0.9077 1.105661,2.9308 1.349217,4.2892 0.265939,1.4832 0.171195,4.2241 -0.201862,5.8391 -0.524763,2.2718 -1.156207,3.4036 -3.322139,5.9543 -0.683112,0.8045 -1.22773,1.5472 -1.210251,1.6504 0.08048,0.4746 1.402198,0.6727 2.231805,0.3341 0.567119,-0.2314 0.614969,-0.3258 0.442676,-0.874 -0.309476,-0.9849 0.351643,-1.6213 1.678927,-1.6164 1.248824,0 2.271844,0.6338 2.459122,1.5123 0.03865,0.1811 0.125224,0.4286 0.192526,0.55 0.06736,0.1215 0.122375,0.4397 0.122375,0.7073 0,1.02 -1.242561,1.6251 -2.266325,1.1037 -0.207854,-0.1064 -0.481675,-0.1604 -0.608494,-0.1211 -0.306049,0.095 -1.162542,1.0285 -1.162542,1.2672 0,0.104 0.278383,0.3272 0.618622,0.497 1.124134,0.5612 1.661543,1.2861 2.177147,2.9368 0.356641,1.142 0.440384,2.1034 0.269342,3.0921 -0.0858,0.4957 -0.08107,0.5029 0.475365,0.7251 1.87813,0.3997 3.728593,0.2225 5.374655,-0.6461 0.729603,-0.3918 0.957926,-0.4559 1.434366,-0.4034 0.897135,0.099 1.310657,0.4719 1.635071,1.4758 0.341645,1.0572 0.303792,1.5035 -0.15582,1.837 -0.552807,0.4014 -1.450947,0.4136 -2.57215,0.035 -0.847488,-0.2861 -1.178957,-0.3264 -2.681583,-0.3264 -1.986229,0 -3.25232,0.2557 -4.511698,0.9111 -0.937268,0.488 -1.347102,0.9729 -1.54328,1.8262 -0.176631,0.7683 -0.08167,1.3519 0.333656,2.0508 0.399717,0.6724 0.923133,1.0994 1.999014,1.6303 0.472469,0.2333 0.998226,0.5699 1.168322,0.7482 0.317855,0.333 0.557393,1.1262 0.543743,1.8002 -0.0059,0.2941 0.02187,0.3378 0.121146,0.1908 0.10447,-0.1546 0.129253,-0.1353 0.130872,0.1016 0.0024,0.3818 -0.552465,0.9164 -0.951309,0.9164 -0.17266,0 -0.470224,-0.12 -0.661225,-0.2668 z"
         id="path11306-2-6"
         inkscape:connector-curvature="0"
         sodipodi:nodetypes="csscscsscscssssscscssccscsssscccccccccssccscccscsssssssscssssssscscssssscscsssscssssssssssscsscsscssssccsssssssscsscccsccscscccsscsssssccccsscc" />
      <path
         style="fill:#c6e9af;fill-opacity:1"
         d="m -79.494042,2329.4027 c -0.174959,-0.375 -0.182811,-0.9717 -0.01767,-1.326 0.165298,-0.3543 -0.07714,-0.7634 -0.538708,-0.9091 -1.195411,-0.3773 -1.206246,-0.3715 -1.401276,0.7578 -0.129049,0.7475 -0.546446,1.0228 -1.550594,1.0228 -1.609452,0 -2.248416,-1.4798 -0.970762,-2.2482 0.693001,-0.4169 0.619275,-0.6115 -0.492572,-1.3014 -1.271796,-0.789 -1.307436,-0.7853 -1.307436,0.1335 0,1.2325 -1.509039,1.6879 -2.605303,0.7861 -1.089641,-0.8962 -0.545845,-2.1428 0.934733,-2.1428 0.991929,0 1.043761,-0.1101 0.431836,-0.9168 -0.606696,-0.7998 -0.773874,-0.8288 -1.309048,-0.2273 -0.782424,0.8792 -2.095768,0.8826 -2.978613,0.01 -0.883777,-0.8759 0.293952,-2.2072 1.687426,-1.9074 0.691517,0.1487 0.864992,-0.021 0.664937,-0.6503 -0.320087,-1.0067 -0.386244,-1.0175 -1.798284,-0.2922 -0.890194,0.4573 -1.245434,0.4305 -1.947057,-0.1465 -1.234551,-1.0155 -0.467314,-2.3688 1.194796,-2.1074 0.986734,0.1551 1.303464,0 1.303464,-0.6298 0,-0.6841 -0.297648,-0.7858 -1.649417,-0.5633 -1.972196,0.3243 -2.886264,-0.8493 -1.530142,-1.9648 0.663828,-0.5459 1.085444,-0.5828 2.009788,-0.1759 1.56998,0.6911 1.592214,-0.2264 0.03039,-1.2664 -0.743413,-0.4952 -1.01084,-1.0336 -0.76983,-1.5503 0.414923,-0.8892 2.80376,-1.0834 3.13943,-0.2551 0.122753,0.3028 0.629622,0.4062 1.163863,0.2376 0.777788,-0.2455 0.830228,-0.4519 0.294107,-1.1579 -0.85266,-1.123 -0.252657,-2.3433 1.152145,-2.3433 0.725342,0 1.232664,0.3952 1.458854,1.1363 0.485561,1.5913 1.375247,1.4271 0.984091,-0.1814 -0.259294,-1.0665 -0.09947,-1.3756 0.837854,-1.6204 1.470019,-0.3837 2.273455,0.021 2.273455,1.1468 0,0.9699 0.07438,1.0047 1.310362,0.6146 0.664435,-0.2097 0.715179,-0.4428 0.234324,-1.0761 -1.316722,-1.7342 0.769598,-3.0514 2.534234,-1.6 0.75424,0.6204 0.906159,0.5939 1.45797,-0.2542 0.481299,-0.7397 0.456875,-0.9291 -0.111685,-0.866 -2.177517,0.2417 -3.168004,-0.9095 -1.771216,-2.0584 0.63399,-0.5214 1.109268,-0.5772 1.910753,-0.2244 0.828574,0.3647 1.066927,0.3208 1.066927,-0.1966 0,-0.3664 -0.559542,-0.7315 -1.243434,-0.8114 -0.799951,-0.093 -1.306559,-0.5108 -1.420343,-1.1701 -0.215978,-1.251 1.270127,-1.8421 2.737002,-1.0886 1.41664,0.7278 1.302192,0.1663 -0.165397,-0.8112 -0.757675,-0.5046 -1.068482,-1.074 -0.846264,-1.5501 0.43344,-0.9291 2.380887,-0.9886 2.991335,-0.091 0.296764,0.4362 0.717143,0.5254 1.235356,0.262 0.650583,-0.3308 0.661283,-0.5224 0.06255,-1.1158 -0.878908,-0.871 0.0694,-2.0802 1.631501,-2.0802 1.032114,0 1.868596,1.1587 1.342207,1.8593 -0.170888,0.2275 0.172316,0.4135 0.762742,0.4135 0.622272,0 1.199666,-0.3972 1.373869,-0.9451 0.216027,-0.6793 0.661453,-0.903 1.584249,-0.7954 1.527004,0.1779 2.120526,2.0467 0.784029,2.4685 -0.759661,0.2398 -0.753576,0.3516 0.0547,1.0167 0.663552,0.5457 0.970147,0.5951 1.137156,0.1832 0.333867,-0.8239 2.722754,-0.69 3.126454,0.1752 0.463497,0.9936 -0.736508,2.1032 -1.984189,1.8348 -0.553196,-0.119 -1.001936,-0.082 -0.9973,0.082 0.01548,0.5467 0.811938,1.2069 1.5113,1.2529 1.682676,0.1108 1.863119,0.2389 1.696379,1.2046 -0.144739,0.8382 -0.500749,1.0107 -1.972698,0.9558 -2.070906,-0.077 -2.556128,1.0514 -0.55263,1.2854 1.524332,0.178 1.675594,1.6464 0.243922,2.3685 -0.794793,0.4008 -1.153573,0.3335 -1.75219,-0.329 -0.72318,-0.8003 -0.776905,-0.7958 -1.36866,0.1137 -0.545528,0.8384 -0.462466,0.9467 0.725935,0.9467 1.670025,0 2.354461,1.2774 1.195249,2.2309 -0.701624,0.577 -1.056863,0.6038 -1.947058,0.1466 -1.534184,-0.7881 -1.656484,-0.7285 -1.656484,0.8082 0,1.2214 0.110257,1.3108 1.032057,0.8373 1.324348,-0.6802 2.972592,-0.1675 2.734182,0.8506 -0.101134,0.4319 -0.71749,1.0043 -1.369713,1.2718 -0.905721,0.3713 -1.06251,0.6675 -0.663609,1.2538 0.418726,0.6154 0.72236,0.6647 1.532029,0.2488 0.555337,-0.2852 1.433149,-0.385 1.950712,-0.2217 1.345281,0.4246 0.888519,2.2488 -0.639799,2.5552 -1.722628,0.3452 -0.805634,1.2356 1.226868,1.1912 1.411757,-0.031 1.657912,0.1325 1.657912,1.1002 0,0.9928 -0.226975,1.1279 -1.796086,1.0694 -1.024212,-0.038 -1.801378,0.157 -1.808333,0.4545 -0.0064,0.2869 -0.481681,1.0239 -1.055329,1.6379 -0.965398,1.0333 -0.974805,1.1582 -0.125891,1.678 0.720084,0.441 0.785471,0.7382 0.304277,1.3837 -0.858243,1.1512 -2.662392,1.056 -2.871734,-0.1516 -0.124561,-0.7186 -0.453221,-0.9123 -1.255102,-0.7399 -0.832433,0.1791 -0.943743,0.375 -0.476366,0.8382 0.857472,0.8498 0.09909,2.4663 -1.157065,2.4663 -1.081846,0 -2.423933,-1.4765 -1.804863,-1.9857 0.191928,-0.1579 -0.06262,-0.287 -0.56557,-0.287 -0.603487,0 -0.869805,0.326 -0.78292,0.9584 0.180875,1.3168 -1.420294,2.1412 -2.597747,1.3374 -0.5234,-0.3573 -0.753964,-0.9527 -0.561705,-1.4509 0.223102,-0.5782 0.05251,-0.8449 -0.540142,-0.8449 -0.47643,0 -0.866215,0.3682 -0.866215,0.8181 0,1.6319 -2.472839,2.6059 -3.116002,1.2274 z m 17.130287,-4.5488 c -0.192217,-0.412 0.01329,-1.0475 0.456974,-1.4123 1.105769,-0.9095 2.764353,-0.3211 2.551647,0.9053 -0.209617,1.2083 -2.501299,1.5944 -3.008621,0.507 z"
         id="path11332-0-3"
         inkscape:connector-curvature="0"
         sodipodi:nodetypes="ccccscssssccccccccsccccscccsccssccccsccsccscccccscscscccccccccccscsccsccscccscsccccscccscscccsscccccc" />
      <path
         style="fill:#c6e9af;fill-opacity:1"
         d="m -78.059111,2373.8731 c -0.321491,-0.247 -0.839088,-1.0143 -1.341845,-1.9893 -0.484528,-0.9396 -0.908531,-1.3845 -1.643182,-1.7238 -1.121925,-0.5184 -2.327938,-0.2947 -2.740239,0.5084 -0.159582,0.3108 -0.160858,0.37 -0.0149,0.6999 0.302592,0.684 0.645646,1.7638 0.648299,2.0407 0.0019,0.2016 -0.0688,0.3095 -0.257951,0.3937 -0.374587,0.1668 -0.775697,0 -1.021853,-0.4328 -0.112864,-0.1971 -0.28981,-0.4756 -0.393243,-0.619 -0.169926,-0.2359 -0.175465,-0.3158 -0.05754,-0.8306 l 0.130535,-0.5696 -0.323223,-0.282 c -0.474614,-0.4142 -1.028035,-0.5246 -2.229644,-0.4446 -1.801786,0.1201 -3.605909,-0.2346 -5.373667,-1.056 -1.211906,-0.5631 -1.529534,-0.5988 -3.040886,-0.3414 -1.081856,0.1843 -1.421642,0.3632 -1.688075,0.8892 -0.244982,0.4835 -0.178844,0.5876 0.516536,0.8132 0.552686,0.1793 0.91679,0.5433 0.91679,0.9167 0,0.1323 0.07048,0.3456 0.156631,0.474 0.181823,0.271 0.07159,0.6929 -0.20846,0.7978 -0.494629,0.1856 -1.179358,-0.088 -1.179358,-0.4716 0,-0.075 -0.08975,-0.2142 -0.199364,-0.311 -0.109653,-0.097 -0.292575,-0.4457 -0.406482,-0.7752 -0.113917,-0.3295 -0.459605,-0.9898 -0.768203,-1.4675 -0.308597,-0.4778 -0.610455,-0.9956 -0.670802,-1.1507 -0.153819,-0.3955 -0.136539,-0.9712 0.04413,-1.4714 0.08463,-0.2343 0.153894,-0.4326 0.153894,-0.4407 0,-0.01 -0.311642,0.013 -0.692541,0.047 -1.304196,0.1159 -2.385416,-0.1587 -2.385416,-0.6057 0,-0.1064 -0.12058,-0.3113 -0.26797,-0.4552 -0.21788,-0.2128 -0.25585,-0.3214 -0.20317,-0.5808 0.0779,-0.3833 0.4179,-0.6643 0.80773,-0.6674 0.20884,0 0.4168,0.1303 0.77577,0.4921 0.26974,0.2719 0.61825,0.5257 0.77446,0.5639 0.634465,0.1554 2.023178,-0.188 2.738099,-0.6772 l 0.24852,-0.1701 -0.278303,-0.01 c -0.153065,0 -0.543319,-0.1022 -0.867232,-0.2205 -0.489174,-0.1788 -0.789634,-0.4096 -1.773674,-1.3632 -0.6516,-0.6314 -1.43867,-1.3186 -1.74904,-1.5271 -0.65096,-0.4374 -0.96744,-0.7488 -1.12083,-1.1029 -0.0597,-0.1378 -0.20708,-0.3702 -0.32754,-0.5166 -0.45251,-0.5501 -0.22006,-1.444 0.46018,-1.7696 0.35493,-0.17 0.89918,-0.01 1.18855,0.3492 0.19306,0.2397 0.62239,1.4791 0.77513,2.2377 0.17828,0.8853 1.277689,2.0377 2.30307,2.4141 0.697903,0.2561 1.860774,0.2391 2.286668,-0.033 l 0.2693,-0.1723 -0.237106,-0.5782 c -0.130415,-0.318 -0.344339,-0.8036 -0.475376,-1.0791 -0.318783,-0.6704 -0.349674,-2.4144 -0.05735,-3.2384 0.361655,-1.0195 0.01546,-1.9908 -0.982452,-2.7563 -1.141878,-0.8758 -2.602654,-1.4701 -3.613834,-1.4701 -0.43008,0 -0.60797,0.061 -1.02542,0.3507 -0.56808,0.3945 -1.08406,0.4614 -1.35038,0.1753 -0.36024,-0.3871 -0.86276,-1.2868 -0.86276,-1.5449 0,-0.7605 0.6147,-1.1866 1.70684,-1.1832 0.84997,0 1.78954,0.3019 2.81667,0.8979 0.894347,0.5189 2.535824,1.7937 3.263631,2.5346 0.899921,0.9162 1.263214,0.9306 1.905872,0.075 0.245978,-0.3273 0.549465,-0.5897 0.832209,-0.7195 0.789791,-0.3626 0.773901,-0.4153 -0.693891,-2.3088 -1.89226,-2.4407 -3.424839,-4.9999 -3.889154,-6.494 -0.247014,-0.7949 -0.326204,-2.1944 -0.165942,-2.9329 0.09802,-0.4517 0.588298,-1.0289 0.948927,-1.1174 0.692672,-0.1697 1.51045,0.3879 1.645938,1.1225 0.0378,0.2049 0.113051,0.4273 0.167179,0.4941 0.212751,0.2622 0.116533,0.9952 -0.222332,1.6939 -0.961523,1.9828 -0.310887,3.8985 2.494309,7.3439 1.07814,1.3242 1.60392,1.7123 2.319653,1.7123 0.571204,0 0.872632,-0.1894 1.026628,-0.6451 0.166304,-0.4921 0.01145,-0.9375 -0.713739,-2.0532 -0.743951,-1.1446 -1.177534,-2.1313 -1.342171,-3.0547 -0.473179,-2.6535 1.338195,-4.8118 3.148872,-3.7517 0.17675,0.1034 0.366049,0.3117 0.420652,0.4628 0.05465,0.1511 0.158605,0.4324 0.23112,0.6253 0.272056,0.7238 0.252375,1.0445 -0.08723,1.4222 -0.242515,0.2698 -0.484724,0.3967 -1.077498,0.565 -0.729632,0.207 -0.774804,0.2375 -0.98601,0.6635 -0.283051,0.571 -0.374083,1.4118 -0.207742,1.9189 0.07038,0.2146 0.31854,0.6373 0.551476,0.9393 0.232926,0.302 0.596415,0.8205 0.807751,1.1523 0.535947,0.8412 1.053413,1.3337 1.534347,1.4602 0.683036,0.1796 0.752534,0.126 0.723906,-0.5584 -0.107316,-2.5652 -0.08621,-2.9867 0.175232,-3.505 0.316707,-0.6278 1.064531,-1.3508 1.713062,-1.6563 0.584964,-0.2756 1.686975,-0.3758 2.224953,-0.2024 0.796634,0.2568 1.257152,0.8448 1.60231,2.0461 0.14707,0.5118 0.198684,0.8842 0.151817,1.0955 -0.216792,0.978 -1.345644,1.5146 -1.948213,0.926 -0.138513,-0.1353 -0.251825,-0.3086 -0.251825,-0.3852 0,-0.076 -0.09273,-0.2213 -0.206095,-0.3215 -0.342169,-0.3024 -0.457119,-0.8463 -0.270874,-1.2816 0.193574,-0.4524 0.132137,-0.4656 -0.724724,-0.1568 -1.113221,0.4012 -1.776771,1.3694 -1.771054,2.5843 0.0019,0.4631 0.0634,0.6514 0.359094,1.1047 0.19606,0.3005 0.35647,0.6071 0.35647,0.6813 0,0.075 0.07048,0.2679 0.156538,0.4305 0.143541,0.2711 0.201747,0.2956 0.701794,0.2956 1.299951,0 2.953643,-1.3161 3.797983,-3.0225 1.116479,-2.2566 1.359293,-5.027 0.63561,-7.2526 -0.269347,-0.8284 -0.539392,-1.2688 -1.00327,-1.6366 l -0.30101,-0.2386 -0.331471,0.3138 c -0.558524,0.5287 -1.335515,0.4019 -1.706034,-0.2784 -0.08509,-0.1561 -0.234788,-0.3934 -0.332719,-0.5274 -0.307462,-0.4207 -0.325812,-0.7944 -0.05818,-1.185 0.47236,-0.6893 1.528324,-0.9087 2.396916,-0.4981 0.549548,0.2598 1.485861,1.2165 1.816543,1.8561 0.369614,0.7151 0.871021,2.3089 1.06289,3.379 0.209503,1.1684 0.134865,3.3277 -0.159023,4.5999 -0.4134,1.7897 -0.910841,2.6813 -2.617125,4.6908 -0.538144,0.6337 -0.967184,1.2188 -0.953414,1.3001 0.0634,0.3739 1.104627,0.5299 1.758176,0.2632 0.446768,-0.1823 0.484463,-0.2567 0.348733,-0.6886 -0.2438,-0.7758 0.277019,-1.2771 1.322631,-1.2733 0.983802,0 1.78972,0.4993 1.937254,1.1914 0.03045,0.1426 0.09865,0.3376 0.151669,0.4332 0.05306,0.096 0.09641,0.3465 0.09641,0.5572 0,0.8036 -0.978869,1.2803 -1.785372,0.8695 -0.163745,-0.084 -0.379456,-0.1264 -0.479361,-0.095 -0.2411,0.074 -0.915832,0.8102 -0.915832,0.9982 0,0.082 0.219306,0.2578 0.487341,0.3915 0.885573,0.4421 1.308934,1.0132 1.715119,2.3136 0.280956,0.8996 0.346927,1.657 0.212183,2.4358 -0.06759,0.3906 -0.06387,0.3962 0.374485,0.5713 1.479558,0.3149 2.937321,0.1753 4.234061,-0.509 0.574769,-0.3086 0.754638,-0.3591 1.129969,-0.3178 0.706748,0.078 1.032513,0.3718 1.28808,1.1626 0.269142,0.8329 0.239322,1.1845 -0.122751,1.4472 -0.435492,0.3162 -1.143032,0.3258 -2.026296,0.028 -0.667637,-0.2254 -0.928763,-0.2571 -2.112506,-0.2571 -1.564717,0 -2.562122,0.2014 -3.554238,0.7177 -0.738365,0.3845 -1.061224,0.7665 -1.21577,1.4387 -0.139147,0.6052 -0.06433,1.0649 0.262848,1.6156 0.314891,0.5296 0.727229,0.866 1.57479,1.2843 0.372203,0.1837 0.786385,0.4489 0.920384,0.5894 0.2504,0.2623 0.439105,0.8872 0.428351,1.4182 -0.0047,0.2317 0.01722,0.266 0.09544,0.1503 0.0823,-0.1218 0.101823,-0.1066 0.103098,0.08 0.0019,0.3008 -0.435222,0.7219 -0.749424,0.7219 -0.136019,0 -0.370434,-0.095 -0.520902,-0.2101 z"
         id="path11306-2-6-1"
         inkscape:connector-curvature="0"
         sodipodi:nodetypes="csscscsscscssssscscssccscsssscccccccccssccscccscsssssssscssssssscscssssscscsssscssssssssssscsscsscssssccsssssssscsscccsccscscccsscsssssccccsscc" />
      <path
         style="fill:#c6e9af;fill-opacity:1"
         d="m -30.062992,2492.0685 c -0.15015,-0.3218 -0.156889,-0.8339 -0.01517,-1.138 0.141859,-0.3041 -0.0662,-0.6551 -0.462318,-0.7802 -1.025904,-0.3238 -1.035201,-0.3187 -1.202576,0.6504 -0.110751,0.6414 -0.468961,0.8778 -1.330722,0.8778 -1.381231,0 -1.929591,-1.27 -0.833108,-1.9295 0.594734,-0.3577 0.531462,-0.5248 -0.422726,-1.1168 -1.091455,-0.6771 -1.122041,-0.674 -1.122041,0.1145 0,1.0578 -1.295058,1.4486 -2.235872,0.6747 -0.935131,-0.7691 -0.468445,-1.839 0.802188,-1.839 0.851274,0 0.895756,-0.094 0.370601,-0.7868 -0.520666,-0.6863 -0.664138,-0.7113 -1.123425,-0.1951 -0.671477,0.7546 -1.798589,0.7575 -2.556247,0.01 -0.758458,-0.7517 0.252269,-1.8942 1.448149,-1.6369 0.593461,0.1275 0.742337,-0.018 0.57065,-0.5581 -0.274699,-0.864 -0.331475,-0.8732 -1.543288,-0.2507 -0.763965,0.3924 -1.068832,0.3694 -1.670966,-0.1258 -1.059492,-0.8715 -0.401049,-2.0329 1.025375,-1.8086 0.846816,0.1331 1.118633,0 1.118633,-0.5405 0,-0.587 -0.255441,-0.6743 -1.41553,-0.4834 -1.69254,0.2783 -2.476993,-0.7288 -1.313168,-1.6862 0.569697,-0.4685 0.931528,-0.5002 1.7248,-0.151 1.347358,0.5931 1.366439,-0.1943 0.02608,-1.0868 -0.637998,-0.425 -0.867504,-0.887 -0.660669,-1.3304 0.356087,-0.7632 2.406188,-0.9298 2.69426,-0.219 0.105347,0.2599 0.540342,0.3487 0.998828,0.2039 0.667498,-0.2107 0.712502,-0.3878 0.252403,-0.9937 -0.731753,-0.9637 -0.216831,-2.011 0.988772,-2.011 0.622488,0 1.057872,0.3391 1.251988,0.9752 0.416709,1.3656 1.180238,1.2248 0.844548,-0.1558 -0.222526,-0.9152 -0.08537,-1.1805 0.719046,-1.3905 1.261572,-0.3293 1.951081,0.018 1.951081,0.9842 0,0.8323 0.06383,0.8622 1.124553,0.5274 0.570219,-0.18 0.613767,-0.38 0.201097,-0.9235 -1.130011,-1.4883 0.660469,-2.6187 2.17488,-1.3731 0.64729,0.5324 0.777667,0.5096 1.251231,-0.2182 0.413052,-0.6348 0.39209,-0.7973 -0.09585,-0.7432 -1.868746,0.2074 -2.718783,-0.7806 -1.520058,-1.7665 0.54409,-0.4475 0.951973,-0.4953 1.639809,-0.1926 0.711083,0.313 0.915637,0.2753 0.915637,-0.1687 0,-0.3144 -0.480199,-0.6278 -1.067116,-0.6964 -0.686518,-0.08 -1.121289,-0.4384 -1.218939,-1.0041 -0.185352,-1.0736 1.090024,-1.5809 2.348897,-0.9342 1.215761,0.6245 1.117541,0.1426 -0.141944,-0.6962 -0.650237,-0.4331 -0.916972,-0.9217 -0.726264,-1.3303 0.371978,-0.7973 2.043277,-0.8484 2.567164,-0.079 0.254683,0.3744 0.615453,0.4509 1.060184,0.2249 0.55833,-0.2839 0.567513,-0.4483 0.05368,-0.9576 -0.754279,-0.7475 0.05956,-1.7852 1.400156,-1.7852 0.88576,0 1.60363,0.9944 1.151882,1.5956 -0.146656,0.1952 0.147882,0.3549 0.654586,0.3549 0.534034,0 1.029554,-0.3408 1.179055,-0.8111 0.185394,-0.583 0.567659,-0.7749 1.359603,-0.6826 1.310475,0.1527 1.819836,1.7565 0.672854,2.1185 -0.651941,0.2058 -0.646719,0.3017 0.04694,0.8725 0.569461,0.4683 0.832581,0.5107 0.975907,0.1572 0.286526,-0.7071 2.336669,-0.5922 2.683125,0.1504 0.397773,0.8527 -0.632072,1.8049 -1.702832,1.5746 -0.474753,-0.1021 -0.859862,-0.071 -0.855884,0.071 0.01328,0.4691 0.696806,1.0358 1.296999,1.0752 1.444073,0.095 1.59893,0.205 1.455834,1.0338 -0.124216,0.7193 -0.429744,0.8674 -1.692971,0.8202 -1.777252,-0.066 -2.19367,0.9023 -0.474267,1.1032 1.308182,0.1528 1.437995,1.4129 0.209334,2.0326 -0.682091,0.344 -0.989997,0.2862 -1.503731,-0.2823 -0.620633,-0.6868 -0.666741,-0.6829 -1.174584,0.098 -0.468172,0.7195 -0.396888,0.8124 0.622997,0.8124 1.433217,0 2.0206,1.0962 1.025764,1.9146 -0.602134,0.4952 -0.907001,0.5182 -1.670966,0.1258 -1.316638,-0.6764 -1.421596,-0.6251 -1.421596,0.6936 0,1.0482 0.09462,1.1249 0.885712,0.7186 1.136556,-0.5838 2.551079,-0.1438 2.346476,0.73 -0.08679,0.3706 -0.61575,0.8618 -1.175488,1.0914 -0.777291,0.3187 -0.911847,0.5728 -0.569509,1.076 0.35935,0.5282 0.619929,0.5705 1.314787,0.2135 0.476591,-0.2448 1.22993,-0.3304 1.674102,-0.1902 1.154521,0.3644 0.762528,1.9299 -0.549076,2.1928 -1.478359,0.2964 -0.691395,1.0604 1.0529,1.0223 1.21157,-0.027 1.42282,0.1137 1.42282,0.9442 0,0.8521 -0.19479,0.968 -1.541401,0.9178 -0.878979,-0.032 -1.545944,0.1348 -1.551913,0.39 -0.0054,0.2463 -0.413379,0.8788 -0.905684,1.4057 -0.828505,0.8868 -0.836578,0.9939 -0.108039,1.44 0.617976,0.3785 0.674091,0.6336 0.261131,1.1875 -0.736545,0.988 -2.284867,0.9063 -2.464524,-0.13 -0.106899,-0.6168 -0.388955,-0.783 -1.077129,-0.635 -0.714395,0.1536 -0.809921,0.3218 -0.408818,0.7193 0.735883,0.7293 0.08504,2.1166 -0.992993,2.1166 -0.928441,0 -2.080221,-1.2672 -1.548935,-1.7042 0.164713,-0.1354 -0.05374,-0.2463 -0.485372,-0.2463 -0.517913,0 -0.746468,0.2798 -0.671902,0.8225 0.155226,1.1301 -1.218897,1.8376 -2.229388,1.1478 -0.449182,-0.3067 -0.647053,-0.8176 -0.482055,-1.2452 0.191466,-0.4962 0.04506,-0.7251 -0.46355,-0.7251 -0.408873,0 -0.743387,0.316 -0.743387,0.7022 0,1.4005 -2.122192,2.2363 -2.674154,1.0532 z m 14.70122,-3.9038 c -0.164961,-0.3535 0.0114,-0.8989 0.392175,-1.212 0.948972,-0.7805 2.372368,-0.2756 2.189825,0.7769 -0.179893,1.0369 -2.146616,1.3684 -2.582,0.4351 z"
         id="path11332-0-3-2"
         inkscape:connector-curvature="0"
         sodipodi:nodetypes="ccccscssssccccccccsccccscccsccssccccsccsccscccccscscscccccccccccscsccsccscccscsccccscccscscccsscccccc" />
      <path
         sodipodi:nodetypes="cc"
         inkscape:connector-curvature="0"
         id="path23574"
         d="m 153.63744,2347.6812 137.55548,0"
         style="fill:none;stroke:#000000;stroke-width:2.8269999;stroke-linecap:butt;stroke-linejoin:miter;stroke-miterlimit:4;stroke-opacity:1;stroke-dasharray:8.481, 8.481;stroke-dashoffset:0;marker-end:url(#Arrow1Lend)" />
      <text
         sodipodi:linespacing="125%"
         id="text23896"
         y="2528.4031"
         x="83.30172"
         style="font-size:28.26934052px;font-style:normal;font-weight:normal;line-height:125%;letter-spacing:0px;word-spacing:0px;fill:#000000;fill-opacity:1;stroke:none;font-family:Sans"
         xml:space="preserve"><tspan
           style="font-size:45.23094559px"
           y="2528.4031"
           x="83.30172"
           id="tspan23898"
           sodipodi:role="line">N</tspan></text>
    </g>
  </g>
</svg>
